G04 #@! TF.GenerationSoftware,KiCad,Pcbnew,(5.1.4)-1*
G04 #@! TF.CreationDate,2019-12-31T15:47:17-06:00*
G04 #@! TF.ProjectId,bldc_controller_v2,626c6463-5f63-46f6-9e74-726f6c6c6572,rev?*
G04 #@! TF.SameCoordinates,Original*
G04 #@! TF.FileFunction,Copper,L2,Inr*
G04 #@! TF.FilePolarity,Positive*
%FSLAX46Y46*%
G04 Gerber Fmt 4.6, Leading zero omitted, Abs format (unit mm)*
G04 Created by KiCad (PCBNEW (5.1.4)-1) date 2019-12-31 15:47:17*
%MOMM*%
%LPD*%
G04 APERTURE LIST*
%ADD10R,1.000000X1.000000*%
%ADD11C,2.000000*%
%ADD12O,1.700000X1.700000*%
%ADD13R,1.700000X1.700000*%
%ADD14O,1.600000X1.600000*%
%ADD15R,1.600000X1.600000*%
%ADD16C,1.950000*%
%ADD17R,1.950000X1.950000*%
%ADD18C,1.524000*%
%ADD19C,2.200000*%
%ADD20R,2.000000X1.905000*%
%ADD21O,2.000000X1.905000*%
%ADD22O,1.905000X2.000000*%
%ADD23R,1.905000X2.000000*%
%ADD24C,1.600000*%
%ADD25C,5.000000*%
%ADD26C,0.800000*%
%ADD27C,0.254000*%
%ADD28C,0.250000*%
%ADD29C,0.762000*%
%ADD30C,0.508000*%
G04 APERTURE END LIST*
D10*
X157250000Y-138750000D03*
X160750000Y-110250000D03*
X163250000Y-138750000D03*
X114750000Y-104250000D03*
D11*
X162500000Y-75750000D03*
D10*
X156250000Y-114250000D03*
X145750000Y-99250000D03*
X134000000Y-114500000D03*
X161250000Y-138750000D03*
X114750000Y-106250000D03*
X160750000Y-98750000D03*
X136000000Y-114500000D03*
X159250000Y-138750000D03*
X114750000Y-98500000D03*
X162750000Y-110250000D03*
X145750000Y-88500000D03*
X138000000Y-114500000D03*
X133000000Y-130250000D03*
X114750000Y-102250000D03*
X162500000Y-72750000D03*
D11*
X133750000Y-124000000D03*
D10*
X114750000Y-108250000D03*
X162750000Y-98750000D03*
X160750000Y-87500000D03*
X140000000Y-114500000D03*
X135000000Y-130250000D03*
X114750000Y-96500000D03*
X147750000Y-70750000D03*
X162750000Y-87500000D03*
X145750000Y-79750000D03*
X142000000Y-114500000D03*
X131000000Y-130250000D03*
X114750000Y-100500000D03*
X123750000Y-81000000D03*
D11*
X116250000Y-142000000D03*
D10*
X128250000Y-97000000D03*
D11*
X161250000Y-142000000D03*
D10*
X147750000Y-68750000D03*
D12*
X162290000Y-135250000D03*
D13*
X159750000Y-135250000D03*
D12*
X140960000Y-135250000D03*
D13*
X143500000Y-135250000D03*
D12*
X159710000Y-131500000D03*
D13*
X162250000Y-131500000D03*
D12*
X153460000Y-135250000D03*
D13*
X156000000Y-135250000D03*
D12*
X149790000Y-135250000D03*
D13*
X147250000Y-135250000D03*
D12*
X159710000Y-128000000D03*
D13*
X162250000Y-128000000D03*
D12*
X128660000Y-119400000D03*
D13*
X131200000Y-119400000D03*
D14*
X138750000Y-82250000D03*
X131130000Y-89870000D03*
X138750000Y-84790000D03*
X131130000Y-87330000D03*
X138750000Y-87330000D03*
X131130000Y-84790000D03*
X138750000Y-89870000D03*
D15*
X131130000Y-82250000D03*
D13*
X137000000Y-135250000D03*
D12*
X134460000Y-135250000D03*
X131920000Y-135250000D03*
X129380000Y-135250000D03*
X126840000Y-135250000D03*
D16*
X117250000Y-80000000D03*
X117250000Y-75000000D03*
D17*
X117250000Y-70000000D03*
D18*
X131750000Y-67500000D03*
X123750000Y-67500000D03*
X123750000Y-75500000D03*
X138750000Y-75500000D03*
X123750000Y-72250000D03*
X138750000Y-72250000D03*
X123750000Y-78750000D03*
X138750000Y-78750000D03*
D19*
X153700000Y-146200000D03*
X153700000Y-141200000D03*
X148700000Y-141200000D03*
X148700000Y-146200000D03*
D18*
X121500000Y-110440000D03*
X121500000Y-105560000D03*
D14*
X138720000Y-103750000D03*
X131100000Y-111370000D03*
X138720000Y-106290000D03*
X131100000Y-108830000D03*
X138720000Y-108830000D03*
X131100000Y-106290000D03*
X138720000Y-111370000D03*
D15*
X131100000Y-103750000D03*
D14*
X138720000Y-92960000D03*
X131100000Y-100580000D03*
X138720000Y-95500000D03*
X131100000Y-98040000D03*
X138720000Y-98040000D03*
X131100000Y-95500000D03*
X138720000Y-100580000D03*
D15*
X131100000Y-92960000D03*
D14*
X138100000Y-124180000D03*
X153340000Y-131800000D03*
X140640000Y-124180000D03*
X150800000Y-131800000D03*
X143180000Y-124180000D03*
X148260000Y-131800000D03*
X145720000Y-124180000D03*
X145720000Y-131800000D03*
X148260000Y-124180000D03*
X143180000Y-131800000D03*
X150800000Y-124180000D03*
X140640000Y-131800000D03*
X153340000Y-124180000D03*
D15*
X138100000Y-131800000D03*
X153300000Y-114200000D03*
D14*
X145680000Y-121820000D03*
X150760000Y-114200000D03*
X148220000Y-121820000D03*
X148220000Y-114200000D03*
X150760000Y-121820000D03*
X145680000Y-114200000D03*
X153300000Y-121820000D03*
D20*
X117250000Y-85650000D03*
D21*
X117250000Y-88190000D03*
X117250000Y-90730000D03*
D20*
X122500000Y-85650000D03*
D21*
X122500000Y-88190000D03*
X122500000Y-90730000D03*
D15*
X125350000Y-129600000D03*
D14*
X117730000Y-96580000D03*
X125350000Y-127060000D03*
X117730000Y-99120000D03*
X125350000Y-124520000D03*
X117730000Y-101660000D03*
X125350000Y-121980000D03*
X117730000Y-104200000D03*
X125350000Y-119440000D03*
X117730000Y-106740000D03*
X125350000Y-116900000D03*
X117730000Y-109280000D03*
X125350000Y-114360000D03*
X117730000Y-111820000D03*
X125350000Y-111820000D03*
X117730000Y-114360000D03*
X125350000Y-109280000D03*
X117730000Y-116900000D03*
X125350000Y-106740000D03*
X117730000Y-119440000D03*
X125350000Y-104200000D03*
X117730000Y-121980000D03*
X125350000Y-101660000D03*
X117730000Y-124520000D03*
X125350000Y-99120000D03*
X117730000Y-127060000D03*
X125350000Y-96580000D03*
X117730000Y-129600000D03*
D21*
X155750000Y-102670000D03*
X155750000Y-105210000D03*
D20*
X155750000Y-107750000D03*
D21*
X148250000Y-107830000D03*
X148250000Y-105290000D03*
D20*
X148250000Y-102750000D03*
D21*
X155750000Y-91420000D03*
X155750000Y-93960000D03*
D20*
X155750000Y-96500000D03*
D21*
X148250000Y-96580000D03*
X148250000Y-94040000D03*
D20*
X148250000Y-91500000D03*
D21*
X155750000Y-80170000D03*
X155750000Y-82710000D03*
D20*
X155750000Y-85250000D03*
X148250000Y-80210000D03*
D21*
X148250000Y-82750000D03*
X148250000Y-85290000D03*
D22*
X138460000Y-68250000D03*
X141000000Y-68250000D03*
D23*
X143540000Y-68250000D03*
D12*
X122740000Y-135250000D03*
X120200000Y-135250000D03*
X117660000Y-135250000D03*
D13*
X115120000Y-135250000D03*
X114750000Y-119500000D03*
D12*
X114750000Y-116960000D03*
X114750000Y-114420000D03*
D13*
X137170000Y-119500000D03*
D12*
X139710000Y-119500000D03*
X142250000Y-119500000D03*
D15*
X138500000Y-64750000D03*
D24*
X138500000Y-62750000D03*
D15*
X132500000Y-64750000D03*
D24*
X132500000Y-62750000D03*
D15*
X144500000Y-64750000D03*
D24*
X144500000Y-62750000D03*
X122000000Y-62750000D03*
D15*
X122000000Y-64750000D03*
D25*
X116250000Y-64250000D03*
X161250000Y-64250000D03*
X161250000Y-146750000D03*
X116250000Y-146750000D03*
D26*
X126000014Y-83500000D03*
X129275000Y-110475000D03*
X118500000Y-83500000D03*
X114750000Y-85000000D03*
X118500000Y-94250000D03*
X153500000Y-118250000D03*
X149750000Y-139000000D03*
X138250000Y-141750000D03*
X135250000Y-141750000D03*
X158250000Y-75750000D03*
X123000000Y-124500000D03*
X144750000Y-137750000D03*
X146500000Y-143000000D03*
X136250000Y-81750000D03*
X149451849Y-70748852D03*
X123250000Y-83500000D03*
X149750000Y-66000000D03*
X149500006Y-67500000D03*
X119500000Y-122500000D03*
X138250000Y-146250000D03*
X130750000Y-146250000D03*
D24*
X160750000Y-80750000D03*
X162750000Y-80750000D03*
X162750000Y-82750000D03*
X160750000Y-82750000D03*
X162750000Y-84750000D03*
X160750000Y-84750000D03*
X160750000Y-78750000D03*
X162750000Y-78750000D03*
D26*
X163000000Y-121000000D03*
X159875000Y-117875000D03*
D24*
X162750000Y-90000000D03*
X160750000Y-90000000D03*
X160750000Y-96000000D03*
X162750000Y-92000000D03*
X162750000Y-94000000D03*
X162750000Y-96000000D03*
X160750000Y-92000000D03*
X160750000Y-94000000D03*
D26*
X156500000Y-121000000D03*
D24*
X162750000Y-103500000D03*
X162750000Y-101500000D03*
X160750000Y-103500000D03*
X160750000Y-101500000D03*
X160750000Y-107500000D03*
X162750000Y-107500000D03*
X160750000Y-105500000D03*
X162750000Y-105500000D03*
D26*
X159750000Y-121000000D03*
X154250000Y-62750000D03*
X154250000Y-65000000D03*
X154250000Y-67250000D03*
X154250000Y-69500000D03*
X159000000Y-66750000D03*
X124250000Y-93500000D03*
X138000000Y-81000000D03*
X158250000Y-71500000D03*
X139250000Y-80250000D03*
X158500000Y-73750000D03*
X135250000Y-146250000D03*
X142750000Y-146250000D03*
X154250000Y-89500000D03*
X154250000Y-100500000D03*
X154499992Y-111750000D03*
X146000000Y-84750000D03*
X145934527Y-95116397D03*
X145500000Y-106000000D03*
D27*
X144480000Y-113000000D02*
X145680000Y-114200000D01*
X138250000Y-113000000D02*
X144480000Y-113000000D01*
X148250000Y-75250000D02*
X140000000Y-83500000D01*
X157500000Y-75250000D02*
X148250000Y-75250000D01*
X140000000Y-83500000D02*
X137750000Y-83500000D01*
X137750000Y-83500000D02*
X137000000Y-84250000D01*
X137000000Y-84250000D02*
X137000000Y-111750000D01*
X137000000Y-111750000D02*
X138250000Y-113000000D01*
D28*
X157500000Y-75250000D02*
X157750000Y-75250000D01*
X157750000Y-75250000D02*
X158250000Y-75750000D01*
D27*
X144498852Y-70748852D02*
X144500000Y-70750000D01*
X138001148Y-70748852D02*
X144498852Y-70748852D01*
X136250000Y-81750000D02*
X136250000Y-72500000D01*
X136250000Y-72500000D02*
X138001148Y-70748852D01*
X144498852Y-70748852D02*
X145750000Y-72000000D01*
X145750000Y-72000000D02*
X148250000Y-72000000D01*
X148250000Y-71950701D02*
X149451849Y-70748852D01*
X148250000Y-72000000D02*
X148250000Y-71950701D01*
X135500000Y-66250000D02*
X149500000Y-66250000D01*
X149500000Y-66250000D02*
X149750000Y-66000000D01*
D28*
X134250000Y-66250000D02*
X135500000Y-66250000D01*
X132500000Y-64750000D02*
X134000000Y-66250000D01*
X134000000Y-66250000D02*
X134250000Y-66250000D01*
D27*
X131130000Y-76870000D02*
X131130000Y-82250000D01*
X138000000Y-70000000D02*
X131130000Y-76870000D01*
X144500000Y-70000000D02*
X138000000Y-70000000D01*
X149500006Y-67500000D02*
X147000000Y-67500000D01*
X147000000Y-67500000D02*
X144500000Y-70000000D01*
D29*
X138750000Y-87330000D02*
X146170000Y-87330000D01*
X148202500Y-85290000D02*
X148250000Y-85290000D01*
X146170000Y-87322500D02*
X148202500Y-85290000D01*
X146170000Y-87330000D02*
X146170000Y-87322500D01*
D30*
X159249985Y-117249985D02*
X159475001Y-117475001D01*
X159475001Y-117475001D02*
X159875000Y-117875000D01*
X159249985Y-84701985D02*
X159249985Y-117249985D01*
X157258000Y-82710000D02*
X159249985Y-84701985D01*
X155750000Y-82710000D02*
X157258000Y-82710000D01*
X162750000Y-84750000D02*
X162750000Y-87500000D01*
D29*
X146790000Y-98040000D02*
X148250000Y-96580000D01*
X138720000Y-98040000D02*
X146790000Y-98040000D01*
D30*
X155979702Y-93960000D02*
X156019702Y-94000000D01*
X155750000Y-93960000D02*
X155979702Y-93960000D01*
X156019702Y-94000000D02*
X156750000Y-94000000D01*
X156750000Y-94000000D02*
X158000000Y-95250000D01*
X158000000Y-95250000D02*
X158000000Y-99500000D01*
X158000000Y-99500000D02*
X158000000Y-119250000D01*
X158000000Y-119250000D02*
X156500000Y-120750000D01*
X156500000Y-120750000D02*
X156500000Y-121000000D01*
X162750000Y-96000000D02*
X162750000Y-98750000D01*
D29*
X147250000Y-108830000D02*
X148250000Y-107830000D01*
X138720000Y-108830000D02*
X147250000Y-108830000D01*
D30*
X162750000Y-107500000D02*
X162750000Y-110250000D01*
X160149999Y-120600001D02*
X159750000Y-121000000D01*
X162000000Y-118750000D02*
X160149999Y-120600001D01*
X160750000Y-107500000D02*
X162000000Y-108750000D01*
X162000000Y-108750000D02*
X162000000Y-118750000D01*
D29*
X162250000Y-128250000D02*
X162250000Y-128000000D01*
X160750000Y-129750000D02*
X162250000Y-128250000D01*
X156250000Y-129750000D02*
X160750000Y-129750000D01*
X150800000Y-124180000D02*
X150800000Y-124300000D01*
X150800000Y-124300000D02*
X156250000Y-129750000D01*
D27*
X146500000Y-74500000D02*
X159000000Y-74500000D01*
X138000000Y-81000000D02*
X140000000Y-81000000D01*
X140000000Y-81000000D02*
X146500000Y-74500000D01*
D28*
X159000000Y-74500000D02*
X159500000Y-74500000D01*
X161250000Y-72750000D02*
X162500000Y-72750000D01*
X159500000Y-74500000D02*
X161250000Y-72750000D01*
D27*
X139250000Y-80250000D02*
X145750000Y-73750000D01*
X145750000Y-73750000D02*
X157934315Y-73750000D01*
X157934315Y-73750000D02*
X158500000Y-73750000D01*
D29*
X138750000Y-89870000D02*
X153880000Y-89870000D01*
X153880000Y-89870000D02*
X154250000Y-89500000D01*
X138720000Y-100580000D02*
X154170000Y-100580000D01*
X154170000Y-100580000D02*
X154250000Y-100500000D01*
X138720000Y-111370000D02*
X154119992Y-111370000D01*
X154119992Y-111370000D02*
X154499992Y-111750000D01*
X138790000Y-84750000D02*
X138750000Y-84790000D01*
X146000000Y-84750000D02*
X138790000Y-84750000D01*
X144000000Y-95500000D02*
X138720000Y-95500000D01*
X145934527Y-95116397D02*
X145550924Y-95500000D01*
X145550924Y-95500000D02*
X144000000Y-95500000D01*
X145210000Y-106290000D02*
X138720000Y-106290000D01*
X145500000Y-106000000D02*
X145210000Y-106290000D01*
D27*
G36*
X130066146Y-80871014D02*
G01*
X129975506Y-80919463D01*
X129878815Y-80998815D01*
X129799463Y-81095506D01*
X129740498Y-81205820D01*
X129704188Y-81325518D01*
X129691928Y-81450000D01*
X129695000Y-81964250D01*
X129853750Y-82123000D01*
X131003000Y-82123000D01*
X131003000Y-82103000D01*
X131257000Y-82103000D01*
X131257000Y-82123000D01*
X132406250Y-82123000D01*
X132565000Y-81964250D01*
X132568072Y-81450000D01*
X132555812Y-81325518D01*
X132519502Y-81205820D01*
X132460537Y-81095506D01*
X132381185Y-80998815D01*
X132284494Y-80919463D01*
X132197877Y-80873165D01*
X135488000Y-80876484D01*
X135488000Y-81048289D01*
X135446063Y-81090226D01*
X135332795Y-81259744D01*
X135254774Y-81448102D01*
X135215000Y-81648061D01*
X135215000Y-81851939D01*
X135254774Y-82051898D01*
X135332795Y-82240256D01*
X135446063Y-82409774D01*
X135590226Y-82553937D01*
X135759744Y-82667205D01*
X135873000Y-82714118D01*
X135873000Y-112873000D01*
X126877000Y-112873000D01*
X126877000Y-110373061D01*
X128240000Y-110373061D01*
X128240000Y-110576939D01*
X128279774Y-110776898D01*
X128357795Y-110965256D01*
X128471063Y-111134774D01*
X128615226Y-111278937D01*
X128784744Y-111392205D01*
X128973102Y-111470226D01*
X129173061Y-111510000D01*
X129376939Y-111510000D01*
X129576898Y-111470226D01*
X129664360Y-111433998D01*
X129685764Y-111651309D01*
X129767818Y-111921808D01*
X129901068Y-112171101D01*
X130080392Y-112389608D01*
X130298899Y-112568932D01*
X130548192Y-112702182D01*
X130818691Y-112784236D01*
X131029508Y-112805000D01*
X131170492Y-112805000D01*
X131381309Y-112784236D01*
X131651808Y-112702182D01*
X131901101Y-112568932D01*
X132119608Y-112389608D01*
X132298932Y-112171101D01*
X132432182Y-111921808D01*
X132514236Y-111651309D01*
X132541943Y-111370000D01*
X132514236Y-111088691D01*
X132432182Y-110818192D01*
X132298932Y-110568899D01*
X132119608Y-110350392D01*
X131901101Y-110171068D01*
X131768142Y-110100000D01*
X131901101Y-110028932D01*
X132119608Y-109849608D01*
X132298932Y-109631101D01*
X132432182Y-109381808D01*
X132514236Y-109111309D01*
X132541943Y-108830000D01*
X132514236Y-108548691D01*
X132432182Y-108278192D01*
X132298932Y-108028899D01*
X132119608Y-107810392D01*
X131901101Y-107631068D01*
X131768142Y-107560000D01*
X131901101Y-107488932D01*
X132119608Y-107309608D01*
X132298932Y-107091101D01*
X132432182Y-106841808D01*
X132514236Y-106571309D01*
X132541943Y-106290000D01*
X132514236Y-106008691D01*
X132432182Y-105738192D01*
X132298932Y-105488899D01*
X132119608Y-105270392D01*
X132006518Y-105177581D01*
X132024482Y-105175812D01*
X132144180Y-105139502D01*
X132254494Y-105080537D01*
X132351185Y-105001185D01*
X132430537Y-104904494D01*
X132489502Y-104794180D01*
X132525812Y-104674482D01*
X132538072Y-104550000D01*
X132535000Y-104035750D01*
X132376250Y-103877000D01*
X131227000Y-103877000D01*
X131227000Y-103897000D01*
X130973000Y-103897000D01*
X130973000Y-103877000D01*
X129823750Y-103877000D01*
X129665000Y-104035750D01*
X129661928Y-104550000D01*
X129674188Y-104674482D01*
X129710498Y-104794180D01*
X129769463Y-104904494D01*
X129848815Y-105001185D01*
X129945506Y-105080537D01*
X130055820Y-105139502D01*
X130175518Y-105175812D01*
X130193482Y-105177581D01*
X130080392Y-105270392D01*
X129901068Y-105488899D01*
X129767818Y-105738192D01*
X129685764Y-106008691D01*
X129658057Y-106290000D01*
X129685764Y-106571309D01*
X129767818Y-106841808D01*
X129901068Y-107091101D01*
X130080392Y-107309608D01*
X130298899Y-107488932D01*
X130431858Y-107560000D01*
X130298899Y-107631068D01*
X130080392Y-107810392D01*
X129901068Y-108028899D01*
X129767818Y-108278192D01*
X129685764Y-108548691D01*
X129658057Y-108830000D01*
X129685764Y-109111309D01*
X129767818Y-109381808D01*
X129901068Y-109631101D01*
X129932759Y-109669717D01*
X129765256Y-109557795D01*
X129576898Y-109479774D01*
X129376939Y-109440000D01*
X129173061Y-109440000D01*
X128973102Y-109479774D01*
X128784744Y-109557795D01*
X128615226Y-109671063D01*
X128471063Y-109815226D01*
X128357795Y-109984744D01*
X128279774Y-110173102D01*
X128240000Y-110373061D01*
X126877000Y-110373061D01*
X126877000Y-102950000D01*
X129661928Y-102950000D01*
X129665000Y-103464250D01*
X129823750Y-103623000D01*
X130973000Y-103623000D01*
X130973000Y-102473750D01*
X131227000Y-102473750D01*
X131227000Y-103623000D01*
X132376250Y-103623000D01*
X132535000Y-103464250D01*
X132538072Y-102950000D01*
X132525812Y-102825518D01*
X132489502Y-102705820D01*
X132430537Y-102595506D01*
X132351185Y-102498815D01*
X132254494Y-102419463D01*
X132144180Y-102360498D01*
X132024482Y-102324188D01*
X131900000Y-102311928D01*
X131385750Y-102315000D01*
X131227000Y-102473750D01*
X130973000Y-102473750D01*
X130814250Y-102315000D01*
X130300000Y-102311928D01*
X130175518Y-102324188D01*
X130055820Y-102360498D01*
X129945506Y-102419463D01*
X129848815Y-102498815D01*
X129769463Y-102595506D01*
X129710498Y-102705820D01*
X129674188Y-102825518D01*
X129661928Y-102950000D01*
X126877000Y-102950000D01*
X126877000Y-97500000D01*
X127111928Y-97500000D01*
X127124188Y-97624482D01*
X127160498Y-97744180D01*
X127219463Y-97854494D01*
X127298815Y-97951185D01*
X127395506Y-98030537D01*
X127505820Y-98089502D01*
X127625518Y-98125812D01*
X127750000Y-98138072D01*
X127964250Y-98135000D01*
X128123000Y-97976250D01*
X128123000Y-97127000D01*
X128377000Y-97127000D01*
X128377000Y-97976250D01*
X128535750Y-98135000D01*
X128750000Y-98138072D01*
X128874482Y-98125812D01*
X128994180Y-98089502D01*
X129104494Y-98030537D01*
X129201185Y-97951185D01*
X129280537Y-97854494D01*
X129339502Y-97744180D01*
X129375812Y-97624482D01*
X129388072Y-97500000D01*
X129385000Y-97285750D01*
X129226250Y-97127000D01*
X128377000Y-97127000D01*
X128123000Y-97127000D01*
X127273750Y-97127000D01*
X127115000Y-97285750D01*
X127111928Y-97500000D01*
X126877000Y-97500000D01*
X126877000Y-96500000D01*
X127111928Y-96500000D01*
X127115000Y-96714250D01*
X127273750Y-96873000D01*
X128123000Y-96873000D01*
X128123000Y-96023750D01*
X128377000Y-96023750D01*
X128377000Y-96873000D01*
X129226250Y-96873000D01*
X129385000Y-96714250D01*
X129388072Y-96500000D01*
X129375812Y-96375518D01*
X129339502Y-96255820D01*
X129280537Y-96145506D01*
X129201185Y-96048815D01*
X129104494Y-95969463D01*
X128994180Y-95910498D01*
X128874482Y-95874188D01*
X128750000Y-95861928D01*
X128535750Y-95865000D01*
X128377000Y-96023750D01*
X128123000Y-96023750D01*
X127964250Y-95865000D01*
X127750000Y-95861928D01*
X127625518Y-95874188D01*
X127505820Y-95910498D01*
X127395506Y-95969463D01*
X127298815Y-96048815D01*
X127219463Y-96145506D01*
X127160498Y-96255820D01*
X127124188Y-96375518D01*
X127111928Y-96500000D01*
X126877000Y-96500000D01*
X126877000Y-95500000D01*
X129658057Y-95500000D01*
X129685764Y-95781309D01*
X129767818Y-96051808D01*
X129901068Y-96301101D01*
X130080392Y-96519608D01*
X130298899Y-96698932D01*
X130431858Y-96770000D01*
X130298899Y-96841068D01*
X130080392Y-97020392D01*
X129901068Y-97238899D01*
X129767818Y-97488192D01*
X129685764Y-97758691D01*
X129658057Y-98040000D01*
X129685764Y-98321309D01*
X129767818Y-98591808D01*
X129901068Y-98841101D01*
X130080392Y-99059608D01*
X130298899Y-99238932D01*
X130431858Y-99310000D01*
X130298899Y-99381068D01*
X130080392Y-99560392D01*
X129901068Y-99778899D01*
X129767818Y-100028192D01*
X129685764Y-100298691D01*
X129658057Y-100580000D01*
X129685764Y-100861309D01*
X129767818Y-101131808D01*
X129901068Y-101381101D01*
X130080392Y-101599608D01*
X130298899Y-101778932D01*
X130548192Y-101912182D01*
X130818691Y-101994236D01*
X131029508Y-102015000D01*
X131170492Y-102015000D01*
X131381309Y-101994236D01*
X131651808Y-101912182D01*
X131901101Y-101778932D01*
X132119608Y-101599608D01*
X132298932Y-101381101D01*
X132432182Y-101131808D01*
X132514236Y-100861309D01*
X132541943Y-100580000D01*
X132514236Y-100298691D01*
X132432182Y-100028192D01*
X132298932Y-99778899D01*
X132119608Y-99560392D01*
X131901101Y-99381068D01*
X131768142Y-99310000D01*
X131901101Y-99238932D01*
X132119608Y-99059608D01*
X132298932Y-98841101D01*
X132432182Y-98591808D01*
X132514236Y-98321309D01*
X132541943Y-98040000D01*
X132514236Y-97758691D01*
X132432182Y-97488192D01*
X132298932Y-97238899D01*
X132119608Y-97020392D01*
X131901101Y-96841068D01*
X131768142Y-96770000D01*
X131901101Y-96698932D01*
X132119608Y-96519608D01*
X132298932Y-96301101D01*
X132432182Y-96051808D01*
X132514236Y-95781309D01*
X132541943Y-95500000D01*
X132514236Y-95218691D01*
X132432182Y-94948192D01*
X132298932Y-94698899D01*
X132119608Y-94480392D01*
X132006518Y-94387581D01*
X132024482Y-94385812D01*
X132144180Y-94349502D01*
X132254494Y-94290537D01*
X132351185Y-94211185D01*
X132430537Y-94114494D01*
X132489502Y-94004180D01*
X132525812Y-93884482D01*
X132538072Y-93760000D01*
X132535000Y-93245750D01*
X132376250Y-93087000D01*
X131227000Y-93087000D01*
X131227000Y-93107000D01*
X130973000Y-93107000D01*
X130973000Y-93087000D01*
X129823750Y-93087000D01*
X129665000Y-93245750D01*
X129661928Y-93760000D01*
X129674188Y-93884482D01*
X129710498Y-94004180D01*
X129769463Y-94114494D01*
X129848815Y-94211185D01*
X129945506Y-94290537D01*
X130055820Y-94349502D01*
X130175518Y-94385812D01*
X130193482Y-94387581D01*
X130080392Y-94480392D01*
X129901068Y-94698899D01*
X129767818Y-94948192D01*
X129685764Y-95218691D01*
X129658057Y-95500000D01*
X126877000Y-95500000D01*
X126877000Y-95000000D01*
X126874560Y-94975224D01*
X126867333Y-94951399D01*
X126855597Y-94929443D01*
X126839803Y-94910197D01*
X126820557Y-94894403D01*
X126798601Y-94882667D01*
X126774776Y-94875440D01*
X126749930Y-94873000D01*
X122627000Y-94875263D01*
X122627000Y-93398061D01*
X123215000Y-93398061D01*
X123215000Y-93601939D01*
X123254774Y-93801898D01*
X123332795Y-93990256D01*
X123446063Y-94159774D01*
X123590226Y-94303937D01*
X123759744Y-94417205D01*
X123948102Y-94495226D01*
X124148061Y-94535000D01*
X124351939Y-94535000D01*
X124551898Y-94495226D01*
X124740256Y-94417205D01*
X124909774Y-94303937D01*
X125053937Y-94159774D01*
X125167205Y-93990256D01*
X125245226Y-93801898D01*
X125285000Y-93601939D01*
X125285000Y-93398061D01*
X125245226Y-93198102D01*
X125167205Y-93009744D01*
X125053937Y-92840226D01*
X124909774Y-92696063D01*
X124740256Y-92582795D01*
X124551898Y-92504774D01*
X124351939Y-92465000D01*
X124148061Y-92465000D01*
X123948102Y-92504774D01*
X123759744Y-92582795D01*
X123590226Y-92696063D01*
X123446063Y-92840226D01*
X123332795Y-93009744D01*
X123254774Y-93198102D01*
X123215000Y-93398061D01*
X122627000Y-93398061D01*
X122627000Y-92317500D01*
X122627002Y-92317500D01*
X122627002Y-92155571D01*
X122873863Y-92282378D01*
X123170446Y-92188879D01*
X123223090Y-92160000D01*
X129661928Y-92160000D01*
X129665000Y-92674250D01*
X129823750Y-92833000D01*
X130973000Y-92833000D01*
X130973000Y-91683750D01*
X131227000Y-91683750D01*
X131227000Y-92833000D01*
X132376250Y-92833000D01*
X132535000Y-92674250D01*
X132538072Y-92160000D01*
X132525812Y-92035518D01*
X132489502Y-91915820D01*
X132430537Y-91805506D01*
X132351185Y-91708815D01*
X132254494Y-91629463D01*
X132144180Y-91570498D01*
X132024482Y-91534188D01*
X131900000Y-91521928D01*
X131385750Y-91525000D01*
X131227000Y-91683750D01*
X130973000Y-91683750D01*
X130814250Y-91525000D01*
X130300000Y-91521928D01*
X130175518Y-91534188D01*
X130055820Y-91570498D01*
X129945506Y-91629463D01*
X129848815Y-91708815D01*
X129769463Y-91805506D01*
X129710498Y-91915820D01*
X129674188Y-92035518D01*
X129661928Y-92160000D01*
X123223090Y-92160000D01*
X123443089Y-92039316D01*
X123681315Y-91839437D01*
X123875969Y-91596923D01*
X124019571Y-91321094D01*
X124090563Y-91102980D01*
X123970594Y-90857000D01*
X122627000Y-90857000D01*
X122627000Y-90603000D01*
X123970594Y-90603000D01*
X124090563Y-90357020D01*
X124019571Y-90138906D01*
X123875969Y-89863077D01*
X123686178Y-89626621D01*
X126749791Y-89631666D01*
X126774571Y-89629266D01*
X126798408Y-89622079D01*
X126820383Y-89610379D01*
X126839655Y-89594616D01*
X126855480Y-89575397D01*
X126867253Y-89553460D01*
X126874519Y-89529648D01*
X126877000Y-89504666D01*
X126877000Y-84790000D01*
X129688057Y-84790000D01*
X129715764Y-85071309D01*
X129797818Y-85341808D01*
X129931068Y-85591101D01*
X130110392Y-85809608D01*
X130328899Y-85988932D01*
X130461858Y-86060000D01*
X130328899Y-86131068D01*
X130110392Y-86310392D01*
X129931068Y-86528899D01*
X129797818Y-86778192D01*
X129715764Y-87048691D01*
X129688057Y-87330000D01*
X129715764Y-87611309D01*
X129797818Y-87881808D01*
X129931068Y-88131101D01*
X130110392Y-88349608D01*
X130328899Y-88528932D01*
X130461858Y-88600000D01*
X130328899Y-88671068D01*
X130110392Y-88850392D01*
X129931068Y-89068899D01*
X129797818Y-89318192D01*
X129715764Y-89588691D01*
X129688057Y-89870000D01*
X129715764Y-90151309D01*
X129797818Y-90421808D01*
X129931068Y-90671101D01*
X130110392Y-90889608D01*
X130328899Y-91068932D01*
X130578192Y-91202182D01*
X130848691Y-91284236D01*
X131059508Y-91305000D01*
X131200492Y-91305000D01*
X131411309Y-91284236D01*
X131681808Y-91202182D01*
X131931101Y-91068932D01*
X132149608Y-90889608D01*
X132328932Y-90671101D01*
X132462182Y-90421808D01*
X132544236Y-90151309D01*
X132571943Y-89870000D01*
X132544236Y-89588691D01*
X132462182Y-89318192D01*
X132328932Y-89068899D01*
X132149608Y-88850392D01*
X131931101Y-88671068D01*
X131798142Y-88600000D01*
X131931101Y-88528932D01*
X132149608Y-88349608D01*
X132328932Y-88131101D01*
X132462182Y-87881808D01*
X132544236Y-87611309D01*
X132571943Y-87330000D01*
X132544236Y-87048691D01*
X132462182Y-86778192D01*
X132328932Y-86528899D01*
X132149608Y-86310392D01*
X131931101Y-86131068D01*
X131798142Y-86060000D01*
X131931101Y-85988932D01*
X132149608Y-85809608D01*
X132328932Y-85591101D01*
X132462182Y-85341808D01*
X132544236Y-85071309D01*
X132571943Y-84790000D01*
X132544236Y-84508691D01*
X132462182Y-84238192D01*
X132328932Y-83988899D01*
X132149608Y-83770392D01*
X132036518Y-83677581D01*
X132054482Y-83675812D01*
X132174180Y-83639502D01*
X132284494Y-83580537D01*
X132381185Y-83501185D01*
X132460537Y-83404494D01*
X132519502Y-83294180D01*
X132555812Y-83174482D01*
X132568072Y-83050000D01*
X132565000Y-82535750D01*
X132406250Y-82377000D01*
X131257000Y-82377000D01*
X131257000Y-82397000D01*
X131003000Y-82397000D01*
X131003000Y-82377000D01*
X129853750Y-82377000D01*
X129695000Y-82535750D01*
X129691928Y-83050000D01*
X129704188Y-83174482D01*
X129740498Y-83294180D01*
X129799463Y-83404494D01*
X129878815Y-83501185D01*
X129975506Y-83580537D01*
X130085820Y-83639502D01*
X130205518Y-83675812D01*
X130223482Y-83677581D01*
X130110392Y-83770392D01*
X129931068Y-83988899D01*
X129797818Y-84238192D01*
X129715764Y-84508691D01*
X129688057Y-84790000D01*
X126877000Y-84790000D01*
X126877000Y-84050448D01*
X126917219Y-83990256D01*
X126995240Y-83801898D01*
X127035014Y-83601939D01*
X127035014Y-83398061D01*
X126995240Y-83198102D01*
X126917219Y-83009744D01*
X126877000Y-82949552D01*
X126877000Y-80867797D01*
X130066146Y-80871014D01*
X130066146Y-80871014D01*
G37*
X130066146Y-80871014D02*
X129975506Y-80919463D01*
X129878815Y-80998815D01*
X129799463Y-81095506D01*
X129740498Y-81205820D01*
X129704188Y-81325518D01*
X129691928Y-81450000D01*
X129695000Y-81964250D01*
X129853750Y-82123000D01*
X131003000Y-82123000D01*
X131003000Y-82103000D01*
X131257000Y-82103000D01*
X131257000Y-82123000D01*
X132406250Y-82123000D01*
X132565000Y-81964250D01*
X132568072Y-81450000D01*
X132555812Y-81325518D01*
X132519502Y-81205820D01*
X132460537Y-81095506D01*
X132381185Y-80998815D01*
X132284494Y-80919463D01*
X132197877Y-80873165D01*
X135488000Y-80876484D01*
X135488000Y-81048289D01*
X135446063Y-81090226D01*
X135332795Y-81259744D01*
X135254774Y-81448102D01*
X135215000Y-81648061D01*
X135215000Y-81851939D01*
X135254774Y-82051898D01*
X135332795Y-82240256D01*
X135446063Y-82409774D01*
X135590226Y-82553937D01*
X135759744Y-82667205D01*
X135873000Y-82714118D01*
X135873000Y-112873000D01*
X126877000Y-112873000D01*
X126877000Y-110373061D01*
X128240000Y-110373061D01*
X128240000Y-110576939D01*
X128279774Y-110776898D01*
X128357795Y-110965256D01*
X128471063Y-111134774D01*
X128615226Y-111278937D01*
X128784744Y-111392205D01*
X128973102Y-111470226D01*
X129173061Y-111510000D01*
X129376939Y-111510000D01*
X129576898Y-111470226D01*
X129664360Y-111433998D01*
X129685764Y-111651309D01*
X129767818Y-111921808D01*
X129901068Y-112171101D01*
X130080392Y-112389608D01*
X130298899Y-112568932D01*
X130548192Y-112702182D01*
X130818691Y-112784236D01*
X131029508Y-112805000D01*
X131170492Y-112805000D01*
X131381309Y-112784236D01*
X131651808Y-112702182D01*
X131901101Y-112568932D01*
X132119608Y-112389608D01*
X132298932Y-112171101D01*
X132432182Y-111921808D01*
X132514236Y-111651309D01*
X132541943Y-111370000D01*
X132514236Y-111088691D01*
X132432182Y-110818192D01*
X132298932Y-110568899D01*
X132119608Y-110350392D01*
X131901101Y-110171068D01*
X131768142Y-110100000D01*
X131901101Y-110028932D01*
X132119608Y-109849608D01*
X132298932Y-109631101D01*
X132432182Y-109381808D01*
X132514236Y-109111309D01*
X132541943Y-108830000D01*
X132514236Y-108548691D01*
X132432182Y-108278192D01*
X132298932Y-108028899D01*
X132119608Y-107810392D01*
X131901101Y-107631068D01*
X131768142Y-107560000D01*
X131901101Y-107488932D01*
X132119608Y-107309608D01*
X132298932Y-107091101D01*
X132432182Y-106841808D01*
X132514236Y-106571309D01*
X132541943Y-106290000D01*
X132514236Y-106008691D01*
X132432182Y-105738192D01*
X132298932Y-105488899D01*
X132119608Y-105270392D01*
X132006518Y-105177581D01*
X132024482Y-105175812D01*
X132144180Y-105139502D01*
X132254494Y-105080537D01*
X132351185Y-105001185D01*
X132430537Y-104904494D01*
X132489502Y-104794180D01*
X132525812Y-104674482D01*
X132538072Y-104550000D01*
X132535000Y-104035750D01*
X132376250Y-103877000D01*
X131227000Y-103877000D01*
X131227000Y-103897000D01*
X130973000Y-103897000D01*
X130973000Y-103877000D01*
X129823750Y-103877000D01*
X129665000Y-104035750D01*
X129661928Y-104550000D01*
X129674188Y-104674482D01*
X129710498Y-104794180D01*
X129769463Y-104904494D01*
X129848815Y-105001185D01*
X129945506Y-105080537D01*
X130055820Y-105139502D01*
X130175518Y-105175812D01*
X130193482Y-105177581D01*
X130080392Y-105270392D01*
X129901068Y-105488899D01*
X129767818Y-105738192D01*
X129685764Y-106008691D01*
X129658057Y-106290000D01*
X129685764Y-106571309D01*
X129767818Y-106841808D01*
X129901068Y-107091101D01*
X130080392Y-107309608D01*
X130298899Y-107488932D01*
X130431858Y-107560000D01*
X130298899Y-107631068D01*
X130080392Y-107810392D01*
X129901068Y-108028899D01*
X129767818Y-108278192D01*
X129685764Y-108548691D01*
X129658057Y-108830000D01*
X129685764Y-109111309D01*
X129767818Y-109381808D01*
X129901068Y-109631101D01*
X129932759Y-109669717D01*
X129765256Y-109557795D01*
X129576898Y-109479774D01*
X129376939Y-109440000D01*
X129173061Y-109440000D01*
X128973102Y-109479774D01*
X128784744Y-109557795D01*
X128615226Y-109671063D01*
X128471063Y-109815226D01*
X128357795Y-109984744D01*
X128279774Y-110173102D01*
X128240000Y-110373061D01*
X126877000Y-110373061D01*
X126877000Y-102950000D01*
X129661928Y-102950000D01*
X129665000Y-103464250D01*
X129823750Y-103623000D01*
X130973000Y-103623000D01*
X130973000Y-102473750D01*
X131227000Y-102473750D01*
X131227000Y-103623000D01*
X132376250Y-103623000D01*
X132535000Y-103464250D01*
X132538072Y-102950000D01*
X132525812Y-102825518D01*
X132489502Y-102705820D01*
X132430537Y-102595506D01*
X132351185Y-102498815D01*
X132254494Y-102419463D01*
X132144180Y-102360498D01*
X132024482Y-102324188D01*
X131900000Y-102311928D01*
X131385750Y-102315000D01*
X131227000Y-102473750D01*
X130973000Y-102473750D01*
X130814250Y-102315000D01*
X130300000Y-102311928D01*
X130175518Y-102324188D01*
X130055820Y-102360498D01*
X129945506Y-102419463D01*
X129848815Y-102498815D01*
X129769463Y-102595506D01*
X129710498Y-102705820D01*
X129674188Y-102825518D01*
X129661928Y-102950000D01*
X126877000Y-102950000D01*
X126877000Y-97500000D01*
X127111928Y-97500000D01*
X127124188Y-97624482D01*
X127160498Y-97744180D01*
X127219463Y-97854494D01*
X127298815Y-97951185D01*
X127395506Y-98030537D01*
X127505820Y-98089502D01*
X127625518Y-98125812D01*
X127750000Y-98138072D01*
X127964250Y-98135000D01*
X128123000Y-97976250D01*
X128123000Y-97127000D01*
X128377000Y-97127000D01*
X128377000Y-97976250D01*
X128535750Y-98135000D01*
X128750000Y-98138072D01*
X128874482Y-98125812D01*
X128994180Y-98089502D01*
X129104494Y-98030537D01*
X129201185Y-97951185D01*
X129280537Y-97854494D01*
X129339502Y-97744180D01*
X129375812Y-97624482D01*
X129388072Y-97500000D01*
X129385000Y-97285750D01*
X129226250Y-97127000D01*
X128377000Y-97127000D01*
X128123000Y-97127000D01*
X127273750Y-97127000D01*
X127115000Y-97285750D01*
X127111928Y-97500000D01*
X126877000Y-97500000D01*
X126877000Y-96500000D01*
X127111928Y-96500000D01*
X127115000Y-96714250D01*
X127273750Y-96873000D01*
X128123000Y-96873000D01*
X128123000Y-96023750D01*
X128377000Y-96023750D01*
X128377000Y-96873000D01*
X129226250Y-96873000D01*
X129385000Y-96714250D01*
X129388072Y-96500000D01*
X129375812Y-96375518D01*
X129339502Y-96255820D01*
X129280537Y-96145506D01*
X129201185Y-96048815D01*
X129104494Y-95969463D01*
X128994180Y-95910498D01*
X128874482Y-95874188D01*
X128750000Y-95861928D01*
X128535750Y-95865000D01*
X128377000Y-96023750D01*
X128123000Y-96023750D01*
X127964250Y-95865000D01*
X127750000Y-95861928D01*
X127625518Y-95874188D01*
X127505820Y-95910498D01*
X127395506Y-95969463D01*
X127298815Y-96048815D01*
X127219463Y-96145506D01*
X127160498Y-96255820D01*
X127124188Y-96375518D01*
X127111928Y-96500000D01*
X126877000Y-96500000D01*
X126877000Y-95500000D01*
X129658057Y-95500000D01*
X129685764Y-95781309D01*
X129767818Y-96051808D01*
X129901068Y-96301101D01*
X130080392Y-96519608D01*
X130298899Y-96698932D01*
X130431858Y-96770000D01*
X130298899Y-96841068D01*
X130080392Y-97020392D01*
X129901068Y-97238899D01*
X129767818Y-97488192D01*
X129685764Y-97758691D01*
X129658057Y-98040000D01*
X129685764Y-98321309D01*
X129767818Y-98591808D01*
X129901068Y-98841101D01*
X130080392Y-99059608D01*
X130298899Y-99238932D01*
X130431858Y-99310000D01*
X130298899Y-99381068D01*
X130080392Y-99560392D01*
X129901068Y-99778899D01*
X129767818Y-100028192D01*
X129685764Y-100298691D01*
X129658057Y-100580000D01*
X129685764Y-100861309D01*
X129767818Y-101131808D01*
X129901068Y-101381101D01*
X130080392Y-101599608D01*
X130298899Y-101778932D01*
X130548192Y-101912182D01*
X130818691Y-101994236D01*
X131029508Y-102015000D01*
X131170492Y-102015000D01*
X131381309Y-101994236D01*
X131651808Y-101912182D01*
X131901101Y-101778932D01*
X132119608Y-101599608D01*
X132298932Y-101381101D01*
X132432182Y-101131808D01*
X132514236Y-100861309D01*
X132541943Y-100580000D01*
X132514236Y-100298691D01*
X132432182Y-100028192D01*
X132298932Y-99778899D01*
X132119608Y-99560392D01*
X131901101Y-99381068D01*
X131768142Y-99310000D01*
X131901101Y-99238932D01*
X132119608Y-99059608D01*
X132298932Y-98841101D01*
X132432182Y-98591808D01*
X132514236Y-98321309D01*
X132541943Y-98040000D01*
X132514236Y-97758691D01*
X132432182Y-97488192D01*
X132298932Y-97238899D01*
X132119608Y-97020392D01*
X131901101Y-96841068D01*
X131768142Y-96770000D01*
X131901101Y-96698932D01*
X132119608Y-96519608D01*
X132298932Y-96301101D01*
X132432182Y-96051808D01*
X132514236Y-95781309D01*
X132541943Y-95500000D01*
X132514236Y-95218691D01*
X132432182Y-94948192D01*
X132298932Y-94698899D01*
X132119608Y-94480392D01*
X132006518Y-94387581D01*
X132024482Y-94385812D01*
X132144180Y-94349502D01*
X132254494Y-94290537D01*
X132351185Y-94211185D01*
X132430537Y-94114494D01*
X132489502Y-94004180D01*
X132525812Y-93884482D01*
X132538072Y-93760000D01*
X132535000Y-93245750D01*
X132376250Y-93087000D01*
X131227000Y-93087000D01*
X131227000Y-93107000D01*
X130973000Y-93107000D01*
X130973000Y-93087000D01*
X129823750Y-93087000D01*
X129665000Y-93245750D01*
X129661928Y-93760000D01*
X129674188Y-93884482D01*
X129710498Y-94004180D01*
X129769463Y-94114494D01*
X129848815Y-94211185D01*
X129945506Y-94290537D01*
X130055820Y-94349502D01*
X130175518Y-94385812D01*
X130193482Y-94387581D01*
X130080392Y-94480392D01*
X129901068Y-94698899D01*
X129767818Y-94948192D01*
X129685764Y-95218691D01*
X129658057Y-95500000D01*
X126877000Y-95500000D01*
X126877000Y-95000000D01*
X126874560Y-94975224D01*
X126867333Y-94951399D01*
X126855597Y-94929443D01*
X126839803Y-94910197D01*
X126820557Y-94894403D01*
X126798601Y-94882667D01*
X126774776Y-94875440D01*
X126749930Y-94873000D01*
X122627000Y-94875263D01*
X122627000Y-93398061D01*
X123215000Y-93398061D01*
X123215000Y-93601939D01*
X123254774Y-93801898D01*
X123332795Y-93990256D01*
X123446063Y-94159774D01*
X123590226Y-94303937D01*
X123759744Y-94417205D01*
X123948102Y-94495226D01*
X124148061Y-94535000D01*
X124351939Y-94535000D01*
X124551898Y-94495226D01*
X124740256Y-94417205D01*
X124909774Y-94303937D01*
X125053937Y-94159774D01*
X125167205Y-93990256D01*
X125245226Y-93801898D01*
X125285000Y-93601939D01*
X125285000Y-93398061D01*
X125245226Y-93198102D01*
X125167205Y-93009744D01*
X125053937Y-92840226D01*
X124909774Y-92696063D01*
X124740256Y-92582795D01*
X124551898Y-92504774D01*
X124351939Y-92465000D01*
X124148061Y-92465000D01*
X123948102Y-92504774D01*
X123759744Y-92582795D01*
X123590226Y-92696063D01*
X123446063Y-92840226D01*
X123332795Y-93009744D01*
X123254774Y-93198102D01*
X123215000Y-93398061D01*
X122627000Y-93398061D01*
X122627000Y-92317500D01*
X122627002Y-92317500D01*
X122627002Y-92155571D01*
X122873863Y-92282378D01*
X123170446Y-92188879D01*
X123223090Y-92160000D01*
X129661928Y-92160000D01*
X129665000Y-92674250D01*
X129823750Y-92833000D01*
X130973000Y-92833000D01*
X130973000Y-91683750D01*
X131227000Y-91683750D01*
X131227000Y-92833000D01*
X132376250Y-92833000D01*
X132535000Y-92674250D01*
X132538072Y-92160000D01*
X132525812Y-92035518D01*
X132489502Y-91915820D01*
X132430537Y-91805506D01*
X132351185Y-91708815D01*
X132254494Y-91629463D01*
X132144180Y-91570498D01*
X132024482Y-91534188D01*
X131900000Y-91521928D01*
X131385750Y-91525000D01*
X131227000Y-91683750D01*
X130973000Y-91683750D01*
X130814250Y-91525000D01*
X130300000Y-91521928D01*
X130175518Y-91534188D01*
X130055820Y-91570498D01*
X129945506Y-91629463D01*
X129848815Y-91708815D01*
X129769463Y-91805506D01*
X129710498Y-91915820D01*
X129674188Y-92035518D01*
X129661928Y-92160000D01*
X123223090Y-92160000D01*
X123443089Y-92039316D01*
X123681315Y-91839437D01*
X123875969Y-91596923D01*
X124019571Y-91321094D01*
X124090563Y-91102980D01*
X123970594Y-90857000D01*
X122627000Y-90857000D01*
X122627000Y-90603000D01*
X123970594Y-90603000D01*
X124090563Y-90357020D01*
X124019571Y-90138906D01*
X123875969Y-89863077D01*
X123686178Y-89626621D01*
X126749791Y-89631666D01*
X126774571Y-89629266D01*
X126798408Y-89622079D01*
X126820383Y-89610379D01*
X126839655Y-89594616D01*
X126855480Y-89575397D01*
X126867253Y-89553460D01*
X126874519Y-89529648D01*
X126877000Y-89504666D01*
X126877000Y-84790000D01*
X129688057Y-84790000D01*
X129715764Y-85071309D01*
X129797818Y-85341808D01*
X129931068Y-85591101D01*
X130110392Y-85809608D01*
X130328899Y-85988932D01*
X130461858Y-86060000D01*
X130328899Y-86131068D01*
X130110392Y-86310392D01*
X129931068Y-86528899D01*
X129797818Y-86778192D01*
X129715764Y-87048691D01*
X129688057Y-87330000D01*
X129715764Y-87611309D01*
X129797818Y-87881808D01*
X129931068Y-88131101D01*
X130110392Y-88349608D01*
X130328899Y-88528932D01*
X130461858Y-88600000D01*
X130328899Y-88671068D01*
X130110392Y-88850392D01*
X129931068Y-89068899D01*
X129797818Y-89318192D01*
X129715764Y-89588691D01*
X129688057Y-89870000D01*
X129715764Y-90151309D01*
X129797818Y-90421808D01*
X129931068Y-90671101D01*
X130110392Y-90889608D01*
X130328899Y-91068932D01*
X130578192Y-91202182D01*
X130848691Y-91284236D01*
X131059508Y-91305000D01*
X131200492Y-91305000D01*
X131411309Y-91284236D01*
X131681808Y-91202182D01*
X131931101Y-91068932D01*
X132149608Y-90889608D01*
X132328932Y-90671101D01*
X132462182Y-90421808D01*
X132544236Y-90151309D01*
X132571943Y-89870000D01*
X132544236Y-89588691D01*
X132462182Y-89318192D01*
X132328932Y-89068899D01*
X132149608Y-88850392D01*
X131931101Y-88671068D01*
X131798142Y-88600000D01*
X131931101Y-88528932D01*
X132149608Y-88349608D01*
X132328932Y-88131101D01*
X132462182Y-87881808D01*
X132544236Y-87611309D01*
X132571943Y-87330000D01*
X132544236Y-87048691D01*
X132462182Y-86778192D01*
X132328932Y-86528899D01*
X132149608Y-86310392D01*
X131931101Y-86131068D01*
X131798142Y-86060000D01*
X131931101Y-85988932D01*
X132149608Y-85809608D01*
X132328932Y-85591101D01*
X132462182Y-85341808D01*
X132544236Y-85071309D01*
X132571943Y-84790000D01*
X132544236Y-84508691D01*
X132462182Y-84238192D01*
X132328932Y-83988899D01*
X132149608Y-83770392D01*
X132036518Y-83677581D01*
X132054482Y-83675812D01*
X132174180Y-83639502D01*
X132284494Y-83580537D01*
X132381185Y-83501185D01*
X132460537Y-83404494D01*
X132519502Y-83294180D01*
X132555812Y-83174482D01*
X132568072Y-83050000D01*
X132565000Y-82535750D01*
X132406250Y-82377000D01*
X131257000Y-82377000D01*
X131257000Y-82397000D01*
X131003000Y-82397000D01*
X131003000Y-82377000D01*
X129853750Y-82377000D01*
X129695000Y-82535750D01*
X129691928Y-83050000D01*
X129704188Y-83174482D01*
X129740498Y-83294180D01*
X129799463Y-83404494D01*
X129878815Y-83501185D01*
X129975506Y-83580537D01*
X130085820Y-83639502D01*
X130205518Y-83675812D01*
X130223482Y-83677581D01*
X130110392Y-83770392D01*
X129931068Y-83988899D01*
X129797818Y-84238192D01*
X129715764Y-84508691D01*
X129688057Y-84790000D01*
X126877000Y-84790000D01*
X126877000Y-84050448D01*
X126917219Y-83990256D01*
X126995240Y-83801898D01*
X127035014Y-83601939D01*
X127035014Y-83398061D01*
X126995240Y-83198102D01*
X126917219Y-83009744D01*
X126877000Y-82949552D01*
X126877000Y-80867797D01*
X130066146Y-80871014D01*
G36*
X115874031Y-89863077D02*
G01*
X115730429Y-90138906D01*
X115659437Y-90357020D01*
X115779406Y-90603000D01*
X117123000Y-90603000D01*
X117123000Y-90583000D01*
X117377000Y-90583000D01*
X117377000Y-90603000D01*
X118720594Y-90603000D01*
X118840563Y-90357020D01*
X118769571Y-90138906D01*
X118625969Y-89863077D01*
X118436482Y-89627000D01*
X119873000Y-89627000D01*
X119873000Y-113500000D01*
X119875440Y-113524776D01*
X119882667Y-113548601D01*
X119894403Y-113570557D01*
X119910197Y-113589803D01*
X119929443Y-113605597D01*
X119951399Y-113617333D01*
X119975224Y-113624560D01*
X120000000Y-113627000D01*
X124116874Y-113627000D01*
X123998754Y-113876913D01*
X123958096Y-114010961D01*
X124080085Y-114233000D01*
X125223000Y-114233000D01*
X125223000Y-114213000D01*
X125477000Y-114213000D01*
X125477000Y-114233000D01*
X126619915Y-114233000D01*
X126741904Y-114010961D01*
X126701246Y-113876913D01*
X126583126Y-113627000D01*
X126668773Y-113627000D01*
X126750000Y-113635000D01*
X132978085Y-113635000D01*
X132969463Y-113645506D01*
X132910498Y-113755820D01*
X132874188Y-113875518D01*
X132861928Y-114000000D01*
X132861928Y-115000000D01*
X132874188Y-115124482D01*
X132910498Y-115244180D01*
X132969463Y-115354494D01*
X133048815Y-115451185D01*
X133145506Y-115530537D01*
X133255820Y-115589502D01*
X133375518Y-115625812D01*
X133500000Y-115638072D01*
X134500000Y-115638072D01*
X134624482Y-115625812D01*
X134744180Y-115589502D01*
X134854494Y-115530537D01*
X134951185Y-115451185D01*
X135000000Y-115391704D01*
X135048815Y-115451185D01*
X135145506Y-115530537D01*
X135255820Y-115589502D01*
X135375518Y-115625812D01*
X135500000Y-115638072D01*
X136500000Y-115638072D01*
X136624482Y-115625812D01*
X136744180Y-115589502D01*
X136854494Y-115530537D01*
X136951185Y-115451185D01*
X137000000Y-115391704D01*
X137048815Y-115451185D01*
X137145506Y-115530537D01*
X137255820Y-115589502D01*
X137375518Y-115625812D01*
X137500000Y-115638072D01*
X138500000Y-115638072D01*
X138624482Y-115625812D01*
X138744180Y-115589502D01*
X138854494Y-115530537D01*
X138951185Y-115451185D01*
X139000000Y-115391704D01*
X139048815Y-115451185D01*
X139145506Y-115530537D01*
X139255820Y-115589502D01*
X139375518Y-115625812D01*
X139500000Y-115638072D01*
X140500000Y-115638072D01*
X140624482Y-115625812D01*
X140744180Y-115589502D01*
X140854494Y-115530537D01*
X140951185Y-115451185D01*
X141000000Y-115391704D01*
X141048815Y-115451185D01*
X141145506Y-115530537D01*
X141255820Y-115589502D01*
X141375518Y-115625812D01*
X141500000Y-115638072D01*
X142500000Y-115638072D01*
X142624482Y-115625812D01*
X142744180Y-115589502D01*
X142854494Y-115530537D01*
X142951185Y-115451185D01*
X143030537Y-115354494D01*
X143089502Y-115244180D01*
X143125812Y-115124482D01*
X143138072Y-115000000D01*
X143138072Y-114000000D01*
X143125812Y-113875518D01*
X143091377Y-113762000D01*
X144164370Y-113762000D01*
X144278634Y-113876264D01*
X144265764Y-113918691D01*
X144238057Y-114200000D01*
X144265764Y-114481309D01*
X144347818Y-114751808D01*
X144481068Y-115001101D01*
X144660392Y-115219608D01*
X144878899Y-115398932D01*
X145128192Y-115532182D01*
X145398691Y-115614236D01*
X145609508Y-115635000D01*
X145750492Y-115635000D01*
X145961309Y-115614236D01*
X146231808Y-115532182D01*
X146481101Y-115398932D01*
X146699608Y-115219608D01*
X146878932Y-115001101D01*
X146950000Y-114868142D01*
X147021068Y-115001101D01*
X147200392Y-115219608D01*
X147418899Y-115398932D01*
X147668192Y-115532182D01*
X147938691Y-115614236D01*
X148149508Y-115635000D01*
X148290492Y-115635000D01*
X148501309Y-115614236D01*
X148771808Y-115532182D01*
X149021101Y-115398932D01*
X149239608Y-115219608D01*
X149418932Y-115001101D01*
X149490000Y-114868142D01*
X149561068Y-115001101D01*
X149740392Y-115219608D01*
X149958899Y-115398932D01*
X150208192Y-115532182D01*
X150478691Y-115614236D01*
X150689508Y-115635000D01*
X150830492Y-115635000D01*
X151041309Y-115614236D01*
X151311808Y-115532182D01*
X151561101Y-115398932D01*
X151779608Y-115219608D01*
X151872419Y-115106518D01*
X151873000Y-115112418D01*
X151873000Y-120921437D01*
X151723414Y-120756481D01*
X151497420Y-120588963D01*
X151243087Y-120468754D01*
X151109039Y-120428096D01*
X150887000Y-120550085D01*
X150887000Y-121693000D01*
X150907000Y-121693000D01*
X150907000Y-121947000D01*
X150887000Y-121947000D01*
X150887000Y-121967000D01*
X150633000Y-121967000D01*
X150633000Y-121947000D01*
X150613000Y-121947000D01*
X150613000Y-121693000D01*
X150633000Y-121693000D01*
X150633000Y-120550085D01*
X150410961Y-120428096D01*
X150276913Y-120468754D01*
X150022580Y-120588963D01*
X149796586Y-120756481D01*
X149607615Y-120964869D01*
X149492579Y-121156682D01*
X149418932Y-121018899D01*
X149239608Y-120800392D01*
X149021101Y-120621068D01*
X148771808Y-120487818D01*
X148501309Y-120405764D01*
X148290492Y-120385000D01*
X148149508Y-120385000D01*
X147938691Y-120405764D01*
X147668192Y-120487818D01*
X147418899Y-120621068D01*
X147200392Y-120800392D01*
X147021068Y-121018899D01*
X146950000Y-121151858D01*
X146878932Y-121018899D01*
X146699608Y-120800392D01*
X146481101Y-120621068D01*
X146231808Y-120487818D01*
X145961309Y-120405764D01*
X145750492Y-120385000D01*
X145609508Y-120385000D01*
X145398691Y-120405764D01*
X145128192Y-120487818D01*
X144878899Y-120621068D01*
X144660392Y-120800392D01*
X144481068Y-121018899D01*
X144347818Y-121268192D01*
X144265764Y-121538691D01*
X144238057Y-121820000D01*
X144265764Y-122101309D01*
X144347818Y-122371808D01*
X144481068Y-122621101D01*
X144660392Y-122839608D01*
X144875830Y-123016414D01*
X144700392Y-123160392D01*
X144521068Y-123378899D01*
X144450000Y-123511858D01*
X144378932Y-123378899D01*
X144199608Y-123160392D01*
X143981101Y-122981068D01*
X143731808Y-122847818D01*
X143461309Y-122765764D01*
X143250492Y-122745000D01*
X143109508Y-122745000D01*
X142898691Y-122765764D01*
X142628192Y-122847818D01*
X142378899Y-122981068D01*
X142160392Y-123160392D01*
X141981068Y-123378899D01*
X141910000Y-123511858D01*
X141838932Y-123378899D01*
X141659608Y-123160392D01*
X141441101Y-122981068D01*
X141191808Y-122847818D01*
X140921309Y-122765764D01*
X140710492Y-122745000D01*
X140569508Y-122745000D01*
X140358691Y-122765764D01*
X140088192Y-122847818D01*
X139838899Y-122981068D01*
X139620392Y-123160392D01*
X139441068Y-123378899D01*
X139370000Y-123511858D01*
X139298932Y-123378899D01*
X139119608Y-123160392D01*
X138901101Y-122981068D01*
X138651808Y-122847818D01*
X138381309Y-122765764D01*
X138170492Y-122745000D01*
X138029508Y-122745000D01*
X137818691Y-122765764D01*
X137548192Y-122847818D01*
X137298899Y-122981068D01*
X137080392Y-123160392D01*
X136901068Y-123378899D01*
X136767818Y-123628192D01*
X136685764Y-123898691D01*
X136658057Y-124180000D01*
X136685764Y-124461309D01*
X136767818Y-124731808D01*
X136901068Y-124981101D01*
X137080392Y-125199608D01*
X137298899Y-125378932D01*
X137548192Y-125512182D01*
X137818691Y-125594236D01*
X138029508Y-125615000D01*
X138170492Y-125615000D01*
X138381309Y-125594236D01*
X138651808Y-125512182D01*
X138901101Y-125378932D01*
X139119608Y-125199608D01*
X139298932Y-124981101D01*
X139370000Y-124848142D01*
X139441068Y-124981101D01*
X139620392Y-125199608D01*
X139838899Y-125378932D01*
X140088192Y-125512182D01*
X140358691Y-125594236D01*
X140569508Y-125615000D01*
X140710492Y-125615000D01*
X140921309Y-125594236D01*
X141191808Y-125512182D01*
X141441101Y-125378932D01*
X141659608Y-125199608D01*
X141838932Y-124981101D01*
X141910000Y-124848142D01*
X141981068Y-124981101D01*
X142160392Y-125199608D01*
X142378899Y-125378932D01*
X142628192Y-125512182D01*
X142898691Y-125594236D01*
X143109508Y-125615000D01*
X143250492Y-125615000D01*
X143461309Y-125594236D01*
X143731808Y-125512182D01*
X143981101Y-125378932D01*
X144199608Y-125199608D01*
X144378932Y-124981101D01*
X144450000Y-124848142D01*
X144521068Y-124981101D01*
X144700392Y-125199608D01*
X144918899Y-125378932D01*
X145168192Y-125512182D01*
X145438691Y-125594236D01*
X145649508Y-125615000D01*
X145790492Y-125615000D01*
X146001309Y-125594236D01*
X146271808Y-125512182D01*
X146521101Y-125378932D01*
X146739608Y-125199608D01*
X146918932Y-124981101D01*
X146990000Y-124848142D01*
X147061068Y-124981101D01*
X147240392Y-125199608D01*
X147458899Y-125378932D01*
X147708192Y-125512182D01*
X147978691Y-125594236D01*
X148189508Y-125615000D01*
X148330492Y-125615000D01*
X148541309Y-125594236D01*
X148811808Y-125512182D01*
X149061101Y-125378932D01*
X149279608Y-125199608D01*
X149458932Y-124981101D01*
X149530000Y-124848142D01*
X149601068Y-124981101D01*
X149780392Y-125199608D01*
X149998899Y-125378932D01*
X150248192Y-125512182D01*
X150518691Y-125594236D01*
X150672550Y-125609390D01*
X151873000Y-126809840D01*
X151873000Y-130845450D01*
X151819608Y-130780392D01*
X151601101Y-130601068D01*
X151351808Y-130467818D01*
X151081309Y-130385764D01*
X150870492Y-130365000D01*
X150729508Y-130365000D01*
X150518691Y-130385764D01*
X150248192Y-130467818D01*
X149998899Y-130601068D01*
X149780392Y-130780392D01*
X149601068Y-130998899D01*
X149530000Y-131131858D01*
X149458932Y-130998899D01*
X149279608Y-130780392D01*
X149061101Y-130601068D01*
X148811808Y-130467818D01*
X148541309Y-130385764D01*
X148330492Y-130365000D01*
X148189508Y-130365000D01*
X147978691Y-130385764D01*
X147708192Y-130467818D01*
X147458899Y-130601068D01*
X147240392Y-130780392D01*
X147061068Y-130998899D01*
X146990000Y-131131858D01*
X146918932Y-130998899D01*
X146739608Y-130780392D01*
X146521101Y-130601068D01*
X146271808Y-130467818D01*
X146001309Y-130385764D01*
X145790492Y-130365000D01*
X145649508Y-130365000D01*
X145438691Y-130385764D01*
X145168192Y-130467818D01*
X144918899Y-130601068D01*
X144700392Y-130780392D01*
X144521068Y-130998899D01*
X144447421Y-131136682D01*
X144332385Y-130944869D01*
X144143414Y-130736481D01*
X143917420Y-130568963D01*
X143663087Y-130448754D01*
X143529039Y-130408096D01*
X143307000Y-130530085D01*
X143307000Y-131673000D01*
X143327000Y-131673000D01*
X143327000Y-131927000D01*
X143307000Y-131927000D01*
X143307000Y-133069915D01*
X143529039Y-133191904D01*
X143663087Y-133151246D01*
X143917420Y-133031037D01*
X144143414Y-132863519D01*
X144332385Y-132655131D01*
X144447421Y-132463318D01*
X144521068Y-132601101D01*
X144700392Y-132819608D01*
X144918899Y-132998932D01*
X145168192Y-133132182D01*
X145438691Y-133214236D01*
X145649508Y-133235000D01*
X145790492Y-133235000D01*
X146001309Y-133214236D01*
X146271808Y-133132182D01*
X146521101Y-132998932D01*
X146739608Y-132819608D01*
X146918932Y-132601101D01*
X146990000Y-132468142D01*
X147061068Y-132601101D01*
X147240392Y-132819608D01*
X147458899Y-132998932D01*
X147708192Y-133132182D01*
X147978691Y-133214236D01*
X148189508Y-133235000D01*
X148330492Y-133235000D01*
X148541309Y-133214236D01*
X148811808Y-133132182D01*
X149061101Y-132998932D01*
X149279608Y-132819608D01*
X149458932Y-132601101D01*
X149530000Y-132468142D01*
X149601068Y-132601101D01*
X149780392Y-132819608D01*
X149998899Y-132998932D01*
X150248192Y-133132182D01*
X150518691Y-133214236D01*
X150729508Y-133235000D01*
X150870492Y-133235000D01*
X151081309Y-133214236D01*
X151351808Y-133132182D01*
X151601101Y-132998932D01*
X151819608Y-132819608D01*
X151873000Y-132754550D01*
X151873000Y-149315000D01*
X118054057Y-149315000D01*
X118248446Y-149185114D01*
X118685114Y-148748446D01*
X119028201Y-148234979D01*
X119264524Y-147664446D01*
X119385000Y-147058771D01*
X119385000Y-146441229D01*
X119326686Y-146148061D01*
X129715000Y-146148061D01*
X129715000Y-146351939D01*
X129754774Y-146551898D01*
X129832795Y-146740256D01*
X129946063Y-146909774D01*
X130090226Y-147053937D01*
X130259744Y-147167205D01*
X130448102Y-147245226D01*
X130648061Y-147285000D01*
X130851939Y-147285000D01*
X131051898Y-147245226D01*
X131240256Y-147167205D01*
X131409774Y-147053937D01*
X131553937Y-146909774D01*
X131667205Y-146740256D01*
X131745226Y-146551898D01*
X131785000Y-146351939D01*
X131785000Y-146148061D01*
X134215000Y-146148061D01*
X134215000Y-146351939D01*
X134254774Y-146551898D01*
X134332795Y-146740256D01*
X134446063Y-146909774D01*
X134590226Y-147053937D01*
X134759744Y-147167205D01*
X134948102Y-147245226D01*
X135148061Y-147285000D01*
X135351939Y-147285000D01*
X135551898Y-147245226D01*
X135740256Y-147167205D01*
X135909774Y-147053937D01*
X136053937Y-146909774D01*
X136167205Y-146740256D01*
X136245226Y-146551898D01*
X136285000Y-146351939D01*
X136285000Y-146148061D01*
X137215000Y-146148061D01*
X137215000Y-146351939D01*
X137254774Y-146551898D01*
X137332795Y-146740256D01*
X137446063Y-146909774D01*
X137590226Y-147053937D01*
X137759744Y-147167205D01*
X137948102Y-147245226D01*
X138148061Y-147285000D01*
X138351939Y-147285000D01*
X138551898Y-147245226D01*
X138740256Y-147167205D01*
X138909774Y-147053937D01*
X139053937Y-146909774D01*
X139167205Y-146740256D01*
X139245226Y-146551898D01*
X139285000Y-146351939D01*
X139285000Y-146148061D01*
X141715000Y-146148061D01*
X141715000Y-146351939D01*
X141754774Y-146551898D01*
X141832795Y-146740256D01*
X141946063Y-146909774D01*
X142090226Y-147053937D01*
X142259744Y-147167205D01*
X142448102Y-147245226D01*
X142648061Y-147285000D01*
X142851939Y-147285000D01*
X143051898Y-147245226D01*
X143240256Y-147167205D01*
X143409774Y-147053937D01*
X143553937Y-146909774D01*
X143667205Y-146740256D01*
X143745226Y-146551898D01*
X143785000Y-146351939D01*
X143785000Y-146148061D01*
X143761341Y-146029117D01*
X146965000Y-146029117D01*
X146965000Y-146370883D01*
X147031675Y-146706081D01*
X147162463Y-147021831D01*
X147352337Y-147305998D01*
X147594002Y-147547663D01*
X147878169Y-147737537D01*
X148193919Y-147868325D01*
X148529117Y-147935000D01*
X148870883Y-147935000D01*
X149206081Y-147868325D01*
X149521831Y-147737537D01*
X149805998Y-147547663D01*
X150047663Y-147305998D01*
X150237537Y-147021831D01*
X150368325Y-146706081D01*
X150435000Y-146370883D01*
X150435000Y-146029117D01*
X150368325Y-145693919D01*
X150237537Y-145378169D01*
X150047663Y-145094002D01*
X149805998Y-144852337D01*
X149521831Y-144662463D01*
X149206081Y-144531675D01*
X148870883Y-144465000D01*
X148529117Y-144465000D01*
X148193919Y-144531675D01*
X147878169Y-144662463D01*
X147594002Y-144852337D01*
X147352337Y-145094002D01*
X147162463Y-145378169D01*
X147031675Y-145693919D01*
X146965000Y-146029117D01*
X143761341Y-146029117D01*
X143745226Y-145948102D01*
X143667205Y-145759744D01*
X143553937Y-145590226D01*
X143409774Y-145446063D01*
X143240256Y-145332795D01*
X143051898Y-145254774D01*
X142851939Y-145215000D01*
X142648061Y-145215000D01*
X142448102Y-145254774D01*
X142259744Y-145332795D01*
X142090226Y-145446063D01*
X141946063Y-145590226D01*
X141832795Y-145759744D01*
X141754774Y-145948102D01*
X141715000Y-146148061D01*
X139285000Y-146148061D01*
X139245226Y-145948102D01*
X139167205Y-145759744D01*
X139053937Y-145590226D01*
X138909774Y-145446063D01*
X138740256Y-145332795D01*
X138551898Y-145254774D01*
X138351939Y-145215000D01*
X138148061Y-145215000D01*
X137948102Y-145254774D01*
X137759744Y-145332795D01*
X137590226Y-145446063D01*
X137446063Y-145590226D01*
X137332795Y-145759744D01*
X137254774Y-145948102D01*
X137215000Y-146148061D01*
X136285000Y-146148061D01*
X136245226Y-145948102D01*
X136167205Y-145759744D01*
X136053937Y-145590226D01*
X135909774Y-145446063D01*
X135740256Y-145332795D01*
X135551898Y-145254774D01*
X135351939Y-145215000D01*
X135148061Y-145215000D01*
X134948102Y-145254774D01*
X134759744Y-145332795D01*
X134590226Y-145446063D01*
X134446063Y-145590226D01*
X134332795Y-145759744D01*
X134254774Y-145948102D01*
X134215000Y-146148061D01*
X131785000Y-146148061D01*
X131745226Y-145948102D01*
X131667205Y-145759744D01*
X131553937Y-145590226D01*
X131409774Y-145446063D01*
X131240256Y-145332795D01*
X131051898Y-145254774D01*
X130851939Y-145215000D01*
X130648061Y-145215000D01*
X130448102Y-145254774D01*
X130259744Y-145332795D01*
X130090226Y-145446063D01*
X129946063Y-145590226D01*
X129832795Y-145759744D01*
X129754774Y-145948102D01*
X129715000Y-146148061D01*
X119326686Y-146148061D01*
X119264524Y-145835554D01*
X119028201Y-145265021D01*
X118685114Y-144751554D01*
X118248446Y-144314886D01*
X117734979Y-143971799D01*
X117164446Y-143735476D01*
X116558771Y-143615000D01*
X116511580Y-143615000D01*
X116726912Y-143572168D01*
X117024463Y-143448918D01*
X117292252Y-143269987D01*
X117519987Y-143042252D01*
X117698918Y-142774463D01*
X117822168Y-142476912D01*
X117885000Y-142161033D01*
X117885000Y-141838967D01*
X117847027Y-141648061D01*
X134215000Y-141648061D01*
X134215000Y-141851939D01*
X134254774Y-142051898D01*
X134332795Y-142240256D01*
X134446063Y-142409774D01*
X134590226Y-142553937D01*
X134759744Y-142667205D01*
X134948102Y-142745226D01*
X135148061Y-142785000D01*
X135351939Y-142785000D01*
X135551898Y-142745226D01*
X135740256Y-142667205D01*
X135909774Y-142553937D01*
X136053937Y-142409774D01*
X136167205Y-142240256D01*
X136245226Y-142051898D01*
X136285000Y-141851939D01*
X136285000Y-141648061D01*
X137215000Y-141648061D01*
X137215000Y-141851939D01*
X137254774Y-142051898D01*
X137332795Y-142240256D01*
X137446063Y-142409774D01*
X137590226Y-142553937D01*
X137759744Y-142667205D01*
X137948102Y-142745226D01*
X138148061Y-142785000D01*
X138351939Y-142785000D01*
X138551898Y-142745226D01*
X138740256Y-142667205D01*
X138909774Y-142553937D01*
X139053937Y-142409774D01*
X139167205Y-142240256D01*
X139245226Y-142051898D01*
X139285000Y-141851939D01*
X139285000Y-141648061D01*
X139245226Y-141448102D01*
X139167205Y-141259744D01*
X139053937Y-141090226D01*
X138992828Y-141029117D01*
X146965000Y-141029117D01*
X146965000Y-141370883D01*
X147031675Y-141706081D01*
X147162463Y-142021831D01*
X147352337Y-142305998D01*
X147594002Y-142547663D01*
X147878169Y-142737537D01*
X148193919Y-142868325D01*
X148529117Y-142935000D01*
X148870883Y-142935000D01*
X149206081Y-142868325D01*
X149521831Y-142737537D01*
X149805998Y-142547663D01*
X150047663Y-142305998D01*
X150237537Y-142021831D01*
X150368325Y-141706081D01*
X150435000Y-141370883D01*
X150435000Y-141029117D01*
X150368325Y-140693919D01*
X150237537Y-140378169D01*
X150047663Y-140094002D01*
X149965978Y-140012317D01*
X150051898Y-139995226D01*
X150240256Y-139917205D01*
X150409774Y-139803937D01*
X150553937Y-139659774D01*
X150667205Y-139490256D01*
X150745226Y-139301898D01*
X150785000Y-139101939D01*
X150785000Y-138898061D01*
X150745226Y-138698102D01*
X150667205Y-138509744D01*
X150553937Y-138340226D01*
X150409774Y-138196063D01*
X150240256Y-138082795D01*
X150051898Y-138004774D01*
X149851939Y-137965000D01*
X149648061Y-137965000D01*
X149448102Y-138004774D01*
X149259744Y-138082795D01*
X149090226Y-138196063D01*
X148946063Y-138340226D01*
X148832795Y-138509744D01*
X148754774Y-138698102D01*
X148715000Y-138898061D01*
X148715000Y-139101939D01*
X148754774Y-139301898D01*
X148822334Y-139465000D01*
X148529117Y-139465000D01*
X148193919Y-139531675D01*
X147878169Y-139662463D01*
X147594002Y-139852337D01*
X147352337Y-140094002D01*
X147162463Y-140378169D01*
X147031675Y-140693919D01*
X146965000Y-141029117D01*
X138992828Y-141029117D01*
X138909774Y-140946063D01*
X138740256Y-140832795D01*
X138551898Y-140754774D01*
X138351939Y-140715000D01*
X138148061Y-140715000D01*
X137948102Y-140754774D01*
X137759744Y-140832795D01*
X137590226Y-140946063D01*
X137446063Y-141090226D01*
X137332795Y-141259744D01*
X137254774Y-141448102D01*
X137215000Y-141648061D01*
X136285000Y-141648061D01*
X136245226Y-141448102D01*
X136167205Y-141259744D01*
X136053937Y-141090226D01*
X135909774Y-140946063D01*
X135740256Y-140832795D01*
X135551898Y-140754774D01*
X135351939Y-140715000D01*
X135148061Y-140715000D01*
X134948102Y-140754774D01*
X134759744Y-140832795D01*
X134590226Y-140946063D01*
X134446063Y-141090226D01*
X134332795Y-141259744D01*
X134254774Y-141448102D01*
X134215000Y-141648061D01*
X117847027Y-141648061D01*
X117822168Y-141523088D01*
X117698918Y-141225537D01*
X117519987Y-140957748D01*
X117292252Y-140730013D01*
X117024463Y-140551082D01*
X116726912Y-140427832D01*
X116411033Y-140365000D01*
X116088967Y-140365000D01*
X115773088Y-140427832D01*
X115475537Y-140551082D01*
X115207748Y-140730013D01*
X114980013Y-140957748D01*
X114801082Y-141225537D01*
X114677832Y-141523088D01*
X114615000Y-141838967D01*
X114615000Y-142161033D01*
X114677832Y-142476912D01*
X114801082Y-142774463D01*
X114980013Y-143042252D01*
X115207748Y-143269987D01*
X115475537Y-143448918D01*
X115773088Y-143572168D01*
X115988420Y-143615000D01*
X115941229Y-143615000D01*
X115335554Y-143735476D01*
X114765021Y-143971799D01*
X114251554Y-144314886D01*
X113814886Y-144751554D01*
X113685000Y-144945943D01*
X113685000Y-136352603D01*
X113739463Y-136454494D01*
X113818815Y-136551185D01*
X113915506Y-136630537D01*
X114025820Y-136689502D01*
X114145518Y-136725812D01*
X114270000Y-136738072D01*
X114834250Y-136735000D01*
X114993000Y-136576250D01*
X114993000Y-135377000D01*
X114973000Y-135377000D01*
X114973000Y-135123000D01*
X114993000Y-135123000D01*
X114993000Y-133923750D01*
X115247000Y-133923750D01*
X115247000Y-135123000D01*
X115267000Y-135123000D01*
X115267000Y-135377000D01*
X115247000Y-135377000D01*
X115247000Y-136576250D01*
X115405750Y-136735000D01*
X115970000Y-136738072D01*
X116094482Y-136725812D01*
X116214180Y-136689502D01*
X116324494Y-136630537D01*
X116421185Y-136551185D01*
X116500537Y-136454494D01*
X116559502Y-136344180D01*
X116580393Y-136275313D01*
X116604866Y-136305134D01*
X116830986Y-136490706D01*
X117088966Y-136628599D01*
X117368889Y-136713513D01*
X117587050Y-136735000D01*
X117732950Y-136735000D01*
X117951111Y-136713513D01*
X118231034Y-136628599D01*
X118489014Y-136490706D01*
X118715134Y-136305134D01*
X118900706Y-136079014D01*
X118930000Y-136024209D01*
X118959294Y-136079014D01*
X119144866Y-136305134D01*
X119370986Y-136490706D01*
X119628966Y-136628599D01*
X119908889Y-136713513D01*
X120127050Y-136735000D01*
X120272950Y-136735000D01*
X120491111Y-136713513D01*
X120771034Y-136628599D01*
X121029014Y-136490706D01*
X121255134Y-136305134D01*
X121440706Y-136079014D01*
X121470000Y-136024209D01*
X121499294Y-136079014D01*
X121684866Y-136305134D01*
X121910986Y-136490706D01*
X122168966Y-136628599D01*
X122448889Y-136713513D01*
X122667050Y-136735000D01*
X122812950Y-136735000D01*
X123031111Y-136713513D01*
X123311034Y-136628599D01*
X123569014Y-136490706D01*
X123795134Y-136305134D01*
X123980706Y-136079014D01*
X124118599Y-135821034D01*
X124203513Y-135541111D01*
X124232185Y-135250000D01*
X125347815Y-135250000D01*
X125376487Y-135541111D01*
X125461401Y-135821034D01*
X125599294Y-136079014D01*
X125784866Y-136305134D01*
X126010986Y-136490706D01*
X126268966Y-136628599D01*
X126548889Y-136713513D01*
X126767050Y-136735000D01*
X126912950Y-136735000D01*
X127131111Y-136713513D01*
X127411034Y-136628599D01*
X127669014Y-136490706D01*
X127895134Y-136305134D01*
X128080706Y-136079014D01*
X128110000Y-136024209D01*
X128139294Y-136079014D01*
X128324866Y-136305134D01*
X128550986Y-136490706D01*
X128808966Y-136628599D01*
X129088889Y-136713513D01*
X129307050Y-136735000D01*
X129452950Y-136735000D01*
X129671111Y-136713513D01*
X129951034Y-136628599D01*
X130209014Y-136490706D01*
X130435134Y-136305134D01*
X130620706Y-136079014D01*
X130650000Y-136024209D01*
X130679294Y-136079014D01*
X130864866Y-136305134D01*
X131090986Y-136490706D01*
X131348966Y-136628599D01*
X131628889Y-136713513D01*
X131847050Y-136735000D01*
X131992950Y-136735000D01*
X132211111Y-136713513D01*
X132491034Y-136628599D01*
X132749014Y-136490706D01*
X132975134Y-136305134D01*
X133160706Y-136079014D01*
X133195201Y-136014477D01*
X133264822Y-136131355D01*
X133459731Y-136347588D01*
X133693080Y-136521641D01*
X133955901Y-136646825D01*
X134103110Y-136691476D01*
X134333000Y-136570155D01*
X134333000Y-135377000D01*
X134313000Y-135377000D01*
X134313000Y-135123000D01*
X134333000Y-135123000D01*
X134333000Y-133929845D01*
X134587000Y-133929845D01*
X134587000Y-135123000D01*
X134607000Y-135123000D01*
X134607000Y-135377000D01*
X134587000Y-135377000D01*
X134587000Y-136570155D01*
X134816890Y-136691476D01*
X134964099Y-136646825D01*
X135226920Y-136521641D01*
X135460269Y-136347588D01*
X135536034Y-136263534D01*
X135560498Y-136344180D01*
X135619463Y-136454494D01*
X135698815Y-136551185D01*
X135795506Y-136630537D01*
X135905820Y-136689502D01*
X136025518Y-136725812D01*
X136150000Y-136738072D01*
X137850000Y-136738072D01*
X137974482Y-136725812D01*
X138094180Y-136689502D01*
X138204494Y-136630537D01*
X138301185Y-136551185D01*
X138380537Y-136454494D01*
X138439502Y-136344180D01*
X138475812Y-136224482D01*
X138488072Y-136100000D01*
X138488072Y-135250000D01*
X139467815Y-135250000D01*
X139496487Y-135541111D01*
X139581401Y-135821034D01*
X139719294Y-136079014D01*
X139904866Y-136305134D01*
X140130986Y-136490706D01*
X140388966Y-136628599D01*
X140668889Y-136713513D01*
X140887050Y-136735000D01*
X141032950Y-136735000D01*
X141251111Y-136713513D01*
X141531034Y-136628599D01*
X141789014Y-136490706D01*
X142015134Y-136305134D01*
X142039607Y-136275313D01*
X142060498Y-136344180D01*
X142119463Y-136454494D01*
X142198815Y-136551185D01*
X142295506Y-136630537D01*
X142405820Y-136689502D01*
X142525518Y-136725812D01*
X142650000Y-136738072D01*
X144350000Y-136738072D01*
X144474482Y-136725812D01*
X144594180Y-136689502D01*
X144704494Y-136630537D01*
X144801185Y-136551185D01*
X144880537Y-136454494D01*
X144939502Y-136344180D01*
X144975812Y-136224482D01*
X144988072Y-136100000D01*
X144988072Y-134400000D01*
X145761928Y-134400000D01*
X145761928Y-136100000D01*
X145774188Y-136224482D01*
X145810498Y-136344180D01*
X145869463Y-136454494D01*
X145948815Y-136551185D01*
X146045506Y-136630537D01*
X146155820Y-136689502D01*
X146275518Y-136725812D01*
X146400000Y-136738072D01*
X148100000Y-136738072D01*
X148224482Y-136725812D01*
X148344180Y-136689502D01*
X148454494Y-136630537D01*
X148551185Y-136551185D01*
X148630537Y-136454494D01*
X148689502Y-136344180D01*
X148710393Y-136275313D01*
X148734866Y-136305134D01*
X148960986Y-136490706D01*
X149218966Y-136628599D01*
X149498889Y-136713513D01*
X149717050Y-136735000D01*
X149862950Y-136735000D01*
X150081111Y-136713513D01*
X150361034Y-136628599D01*
X150619014Y-136490706D01*
X150845134Y-136305134D01*
X151030706Y-136079014D01*
X151168599Y-135821034D01*
X151253513Y-135541111D01*
X151282185Y-135250000D01*
X151253513Y-134958889D01*
X151168599Y-134678966D01*
X151030706Y-134420986D01*
X150845134Y-134194866D01*
X150619014Y-134009294D01*
X150361034Y-133871401D01*
X150081111Y-133786487D01*
X149862950Y-133765000D01*
X149717050Y-133765000D01*
X149498889Y-133786487D01*
X149218966Y-133871401D01*
X148960986Y-134009294D01*
X148734866Y-134194866D01*
X148710393Y-134224687D01*
X148689502Y-134155820D01*
X148630537Y-134045506D01*
X148551185Y-133948815D01*
X148454494Y-133869463D01*
X148344180Y-133810498D01*
X148224482Y-133774188D01*
X148100000Y-133761928D01*
X146400000Y-133761928D01*
X146275518Y-133774188D01*
X146155820Y-133810498D01*
X146045506Y-133869463D01*
X145948815Y-133948815D01*
X145869463Y-134045506D01*
X145810498Y-134155820D01*
X145774188Y-134275518D01*
X145761928Y-134400000D01*
X144988072Y-134400000D01*
X144975812Y-134275518D01*
X144939502Y-134155820D01*
X144880537Y-134045506D01*
X144801185Y-133948815D01*
X144704494Y-133869463D01*
X144594180Y-133810498D01*
X144474482Y-133774188D01*
X144350000Y-133761928D01*
X142650000Y-133761928D01*
X142525518Y-133774188D01*
X142405820Y-133810498D01*
X142295506Y-133869463D01*
X142198815Y-133948815D01*
X142119463Y-134045506D01*
X142060498Y-134155820D01*
X142039607Y-134224687D01*
X142015134Y-134194866D01*
X141789014Y-134009294D01*
X141531034Y-133871401D01*
X141251111Y-133786487D01*
X141032950Y-133765000D01*
X140887050Y-133765000D01*
X140668889Y-133786487D01*
X140388966Y-133871401D01*
X140130986Y-134009294D01*
X139904866Y-134194866D01*
X139719294Y-134420986D01*
X139581401Y-134678966D01*
X139496487Y-134958889D01*
X139467815Y-135250000D01*
X138488072Y-135250000D01*
X138488072Y-134400000D01*
X138475812Y-134275518D01*
X138439502Y-134155820D01*
X138380537Y-134045506D01*
X138301185Y-133948815D01*
X138204494Y-133869463D01*
X138094180Y-133810498D01*
X137974482Y-133774188D01*
X137850000Y-133761928D01*
X136150000Y-133761928D01*
X136025518Y-133774188D01*
X135905820Y-133810498D01*
X135795506Y-133869463D01*
X135698815Y-133948815D01*
X135619463Y-134045506D01*
X135560498Y-134155820D01*
X135536034Y-134236466D01*
X135460269Y-134152412D01*
X135226920Y-133978359D01*
X134964099Y-133853175D01*
X134816890Y-133808524D01*
X134587000Y-133929845D01*
X134333000Y-133929845D01*
X134103110Y-133808524D01*
X133955901Y-133853175D01*
X133693080Y-133978359D01*
X133459731Y-134152412D01*
X133264822Y-134368645D01*
X133195201Y-134485523D01*
X133160706Y-134420986D01*
X132975134Y-134194866D01*
X132749014Y-134009294D01*
X132491034Y-133871401D01*
X132211111Y-133786487D01*
X131992950Y-133765000D01*
X131847050Y-133765000D01*
X131628889Y-133786487D01*
X131348966Y-133871401D01*
X131090986Y-134009294D01*
X130864866Y-134194866D01*
X130679294Y-134420986D01*
X130650000Y-134475791D01*
X130620706Y-134420986D01*
X130435134Y-134194866D01*
X130209014Y-134009294D01*
X129951034Y-133871401D01*
X129671111Y-133786487D01*
X129452950Y-133765000D01*
X129307050Y-133765000D01*
X129088889Y-133786487D01*
X128808966Y-133871401D01*
X128550986Y-134009294D01*
X128324866Y-134194866D01*
X128139294Y-134420986D01*
X128110000Y-134475791D01*
X128080706Y-134420986D01*
X127895134Y-134194866D01*
X127669014Y-134009294D01*
X127411034Y-133871401D01*
X127131111Y-133786487D01*
X126912950Y-133765000D01*
X126767050Y-133765000D01*
X126548889Y-133786487D01*
X126268966Y-133871401D01*
X126010986Y-134009294D01*
X125784866Y-134194866D01*
X125599294Y-134420986D01*
X125461401Y-134678966D01*
X125376487Y-134958889D01*
X125347815Y-135250000D01*
X124232185Y-135250000D01*
X124203513Y-134958889D01*
X124118599Y-134678966D01*
X123980706Y-134420986D01*
X123795134Y-134194866D01*
X123569014Y-134009294D01*
X123311034Y-133871401D01*
X123031111Y-133786487D01*
X122812950Y-133765000D01*
X122667050Y-133765000D01*
X122448889Y-133786487D01*
X122168966Y-133871401D01*
X121910986Y-134009294D01*
X121684866Y-134194866D01*
X121499294Y-134420986D01*
X121470000Y-134475791D01*
X121440706Y-134420986D01*
X121255134Y-134194866D01*
X121029014Y-134009294D01*
X120771034Y-133871401D01*
X120491111Y-133786487D01*
X120272950Y-133765000D01*
X120127050Y-133765000D01*
X119908889Y-133786487D01*
X119628966Y-133871401D01*
X119370986Y-134009294D01*
X119144866Y-134194866D01*
X118959294Y-134420986D01*
X118930000Y-134475791D01*
X118900706Y-134420986D01*
X118715134Y-134194866D01*
X118489014Y-134009294D01*
X118231034Y-133871401D01*
X117951111Y-133786487D01*
X117732950Y-133765000D01*
X117587050Y-133765000D01*
X117368889Y-133786487D01*
X117088966Y-133871401D01*
X116830986Y-134009294D01*
X116604866Y-134194866D01*
X116580393Y-134224687D01*
X116559502Y-134155820D01*
X116500537Y-134045506D01*
X116421185Y-133948815D01*
X116324494Y-133869463D01*
X116214180Y-133810498D01*
X116094482Y-133774188D01*
X115970000Y-133761928D01*
X115405750Y-133765000D01*
X115247000Y-133923750D01*
X114993000Y-133923750D01*
X114834250Y-133765000D01*
X114270000Y-133761928D01*
X114145518Y-133774188D01*
X114025820Y-133810498D01*
X113915506Y-133869463D01*
X113818815Y-133948815D01*
X113739463Y-134045506D01*
X113685000Y-134147397D01*
X113685000Y-120948354D01*
X113775518Y-120975812D01*
X113900000Y-120988072D01*
X114464250Y-120985000D01*
X114623000Y-120826250D01*
X114623000Y-119627000D01*
X114877000Y-119627000D01*
X114877000Y-120826250D01*
X115035750Y-120985000D01*
X115600000Y-120988072D01*
X115724482Y-120975812D01*
X115844180Y-120939502D01*
X115954494Y-120880537D01*
X116051185Y-120801185D01*
X116130537Y-120704494D01*
X116189502Y-120594180D01*
X116225812Y-120474482D01*
X116238072Y-120350000D01*
X116235000Y-119785750D01*
X116076250Y-119627000D01*
X114877000Y-119627000D01*
X114623000Y-119627000D01*
X114603000Y-119627000D01*
X114603000Y-119373000D01*
X114623000Y-119373000D01*
X114623000Y-119353000D01*
X114877000Y-119353000D01*
X114877000Y-119373000D01*
X116076250Y-119373000D01*
X116235000Y-119214250D01*
X116238072Y-118650000D01*
X116225812Y-118525518D01*
X116189502Y-118405820D01*
X116130537Y-118295506D01*
X116051185Y-118198815D01*
X115954494Y-118119463D01*
X115844180Y-118060498D01*
X115775313Y-118039607D01*
X115805134Y-118015134D01*
X115990706Y-117789014D01*
X116128599Y-117531034D01*
X116213513Y-117251111D01*
X116242185Y-116960000D01*
X116213513Y-116668889D01*
X116128599Y-116388966D01*
X115990706Y-116130986D01*
X115805134Y-115904866D01*
X115579014Y-115719294D01*
X115524209Y-115690000D01*
X115579014Y-115660706D01*
X115805134Y-115475134D01*
X115990706Y-115249014D01*
X116128599Y-114991034D01*
X116213513Y-114711111D01*
X116242185Y-114420000D01*
X116213513Y-114128889D01*
X116128599Y-113848966D01*
X115990706Y-113590986D01*
X115805134Y-113364866D01*
X115579014Y-113179294D01*
X115321034Y-113041401D01*
X115041111Y-112956487D01*
X114822950Y-112935000D01*
X114677050Y-112935000D01*
X114458889Y-112956487D01*
X114178966Y-113041401D01*
X113920986Y-113179294D01*
X113694866Y-113364866D01*
X113685000Y-113376888D01*
X113685000Y-111820000D01*
X116288057Y-111820000D01*
X116315764Y-112101309D01*
X116397818Y-112371808D01*
X116531068Y-112621101D01*
X116710392Y-112839608D01*
X116928899Y-113018932D01*
X117061858Y-113090000D01*
X116928899Y-113161068D01*
X116710392Y-113340392D01*
X116531068Y-113558899D01*
X116397818Y-113808192D01*
X116315764Y-114078691D01*
X116288057Y-114360000D01*
X116315764Y-114641309D01*
X116397818Y-114911808D01*
X116531068Y-115161101D01*
X116710392Y-115379608D01*
X116928899Y-115558932D01*
X117061858Y-115630000D01*
X116928899Y-115701068D01*
X116710392Y-115880392D01*
X116531068Y-116098899D01*
X116397818Y-116348192D01*
X116315764Y-116618691D01*
X116288057Y-116900000D01*
X116315764Y-117181309D01*
X116397818Y-117451808D01*
X116531068Y-117701101D01*
X116710392Y-117919608D01*
X116928899Y-118098932D01*
X117061858Y-118170000D01*
X116928899Y-118241068D01*
X116710392Y-118420392D01*
X116531068Y-118638899D01*
X116397818Y-118888192D01*
X116315764Y-119158691D01*
X116288057Y-119440000D01*
X116315764Y-119721309D01*
X116397818Y-119991808D01*
X116531068Y-120241101D01*
X116710392Y-120459608D01*
X116928899Y-120638932D01*
X117061858Y-120710000D01*
X116928899Y-120781068D01*
X116710392Y-120960392D01*
X116531068Y-121178899D01*
X116397818Y-121428192D01*
X116315764Y-121698691D01*
X116288057Y-121980000D01*
X116315764Y-122261309D01*
X116397818Y-122531808D01*
X116531068Y-122781101D01*
X116710392Y-122999608D01*
X116928899Y-123178932D01*
X117061858Y-123250000D01*
X116928899Y-123321068D01*
X116710392Y-123500392D01*
X116531068Y-123718899D01*
X116397818Y-123968192D01*
X116315764Y-124238691D01*
X116288057Y-124520000D01*
X116315764Y-124801309D01*
X116397818Y-125071808D01*
X116531068Y-125321101D01*
X116710392Y-125539608D01*
X116928899Y-125718932D01*
X117061858Y-125790000D01*
X116928899Y-125861068D01*
X116710392Y-126040392D01*
X116531068Y-126258899D01*
X116397818Y-126508192D01*
X116315764Y-126778691D01*
X116288057Y-127060000D01*
X116315764Y-127341309D01*
X116397818Y-127611808D01*
X116531068Y-127861101D01*
X116710392Y-128079608D01*
X116928899Y-128258932D01*
X117061858Y-128330000D01*
X116928899Y-128401068D01*
X116710392Y-128580392D01*
X116531068Y-128798899D01*
X116397818Y-129048192D01*
X116315764Y-129318691D01*
X116288057Y-129600000D01*
X116315764Y-129881309D01*
X116397818Y-130151808D01*
X116531068Y-130401101D01*
X116710392Y-130619608D01*
X116928899Y-130798932D01*
X117178192Y-130932182D01*
X117448691Y-131014236D01*
X117659508Y-131035000D01*
X117800492Y-131035000D01*
X118011309Y-131014236D01*
X118281808Y-130932182D01*
X118531101Y-130798932D01*
X118749608Y-130619608D01*
X118928932Y-130401101D01*
X119062182Y-130151808D01*
X119144236Y-129881309D01*
X119171943Y-129600000D01*
X119144236Y-129318691D01*
X119062182Y-129048192D01*
X118928932Y-128798899D01*
X118749608Y-128580392D01*
X118531101Y-128401068D01*
X118398142Y-128330000D01*
X118531101Y-128258932D01*
X118749608Y-128079608D01*
X118928932Y-127861101D01*
X119062182Y-127611808D01*
X119144236Y-127341309D01*
X119171943Y-127060000D01*
X119144236Y-126778691D01*
X119062182Y-126508192D01*
X118928932Y-126258899D01*
X118749608Y-126040392D01*
X118531101Y-125861068D01*
X118398142Y-125790000D01*
X118531101Y-125718932D01*
X118749608Y-125539608D01*
X118928932Y-125321101D01*
X119062182Y-125071808D01*
X119144236Y-124801309D01*
X119171943Y-124520000D01*
X119144236Y-124238691D01*
X119062182Y-123968192D01*
X118928932Y-123718899D01*
X118749608Y-123500392D01*
X118531101Y-123321068D01*
X118398142Y-123250000D01*
X118531101Y-123178932D01*
X118645908Y-123084712D01*
X118696063Y-123159774D01*
X118840226Y-123303937D01*
X119009744Y-123417205D01*
X119198102Y-123495226D01*
X119398061Y-123535000D01*
X119601939Y-123535000D01*
X119801898Y-123495226D01*
X119990256Y-123417205D01*
X120159774Y-123303937D01*
X120303937Y-123159774D01*
X120417205Y-122990256D01*
X120495226Y-122801898D01*
X120535000Y-122601939D01*
X120535000Y-122398061D01*
X120495226Y-122198102D01*
X120417205Y-122009744D01*
X120303937Y-121840226D01*
X120159774Y-121696063D01*
X119990256Y-121582795D01*
X119801898Y-121504774D01*
X119601939Y-121465000D01*
X119398061Y-121465000D01*
X119198102Y-121504774D01*
X119097991Y-121546241D01*
X119062182Y-121428192D01*
X118928932Y-121178899D01*
X118749608Y-120960392D01*
X118531101Y-120781068D01*
X118398142Y-120710000D01*
X118531101Y-120638932D01*
X118749608Y-120459608D01*
X118928932Y-120241101D01*
X119062182Y-119991808D01*
X119144236Y-119721309D01*
X119171943Y-119440000D01*
X119144236Y-119158691D01*
X119062182Y-118888192D01*
X118928932Y-118638899D01*
X118749608Y-118420392D01*
X118531101Y-118241068D01*
X118398142Y-118170000D01*
X118531101Y-118098932D01*
X118749608Y-117919608D01*
X118928932Y-117701101D01*
X119062182Y-117451808D01*
X119144236Y-117181309D01*
X119171943Y-116900000D01*
X123908057Y-116900000D01*
X123935764Y-117181309D01*
X124017818Y-117451808D01*
X124151068Y-117701101D01*
X124330392Y-117919608D01*
X124548899Y-118098932D01*
X124681858Y-118170000D01*
X124548899Y-118241068D01*
X124330392Y-118420392D01*
X124151068Y-118638899D01*
X124017818Y-118888192D01*
X123935764Y-119158691D01*
X123908057Y-119440000D01*
X123935764Y-119721309D01*
X124017818Y-119991808D01*
X124151068Y-120241101D01*
X124330392Y-120459608D01*
X124548899Y-120638932D01*
X124681858Y-120710000D01*
X124548899Y-120781068D01*
X124330392Y-120960392D01*
X124151068Y-121178899D01*
X124017818Y-121428192D01*
X123935764Y-121698691D01*
X123908057Y-121980000D01*
X123935764Y-122261309D01*
X124017818Y-122531808D01*
X124151068Y-122781101D01*
X124330392Y-122999608D01*
X124548899Y-123178932D01*
X124681858Y-123250000D01*
X124548899Y-123321068D01*
X124330392Y-123500392D01*
X124151068Y-123718899D01*
X124017818Y-123968192D01*
X123935764Y-124238691D01*
X123908057Y-124520000D01*
X123935764Y-124801309D01*
X124017818Y-125071808D01*
X124151068Y-125321101D01*
X124330392Y-125539608D01*
X124548899Y-125718932D01*
X124681858Y-125790000D01*
X124548899Y-125861068D01*
X124330392Y-126040392D01*
X124151068Y-126258899D01*
X124017818Y-126508192D01*
X123935764Y-126778691D01*
X123908057Y-127060000D01*
X123935764Y-127341309D01*
X124017818Y-127611808D01*
X124151068Y-127861101D01*
X124330392Y-128079608D01*
X124443482Y-128172419D01*
X124425518Y-128174188D01*
X124305820Y-128210498D01*
X124195506Y-128269463D01*
X124098815Y-128348815D01*
X124019463Y-128445506D01*
X123960498Y-128555820D01*
X123924188Y-128675518D01*
X123911928Y-128800000D01*
X123911928Y-130400000D01*
X123924188Y-130524482D01*
X123960498Y-130644180D01*
X124019463Y-130754494D01*
X124098815Y-130851185D01*
X124195506Y-130930537D01*
X124305820Y-130989502D01*
X124425518Y-131025812D01*
X124550000Y-131038072D01*
X126150000Y-131038072D01*
X126274482Y-131025812D01*
X126394180Y-130989502D01*
X126504494Y-130930537D01*
X126601185Y-130851185D01*
X126680537Y-130754494D01*
X126739502Y-130644180D01*
X126775812Y-130524482D01*
X126788072Y-130400000D01*
X126788072Y-129750000D01*
X129861928Y-129750000D01*
X129861928Y-130750000D01*
X129874188Y-130874482D01*
X129910498Y-130994180D01*
X129969463Y-131104494D01*
X130048815Y-131201185D01*
X130145506Y-131280537D01*
X130255820Y-131339502D01*
X130375518Y-131375812D01*
X130500000Y-131388072D01*
X131500000Y-131388072D01*
X131624482Y-131375812D01*
X131744180Y-131339502D01*
X131854494Y-131280537D01*
X131951185Y-131201185D01*
X132000000Y-131141704D01*
X132048815Y-131201185D01*
X132145506Y-131280537D01*
X132255820Y-131339502D01*
X132375518Y-131375812D01*
X132500000Y-131388072D01*
X133500000Y-131388072D01*
X133624482Y-131375812D01*
X133744180Y-131339502D01*
X133854494Y-131280537D01*
X133951185Y-131201185D01*
X134000000Y-131141704D01*
X134048815Y-131201185D01*
X134145506Y-131280537D01*
X134255820Y-131339502D01*
X134375518Y-131375812D01*
X134500000Y-131388072D01*
X135500000Y-131388072D01*
X135624482Y-131375812D01*
X135744180Y-131339502D01*
X135854494Y-131280537D01*
X135951185Y-131201185D01*
X136030537Y-131104494D01*
X136086391Y-131000000D01*
X136661928Y-131000000D01*
X136661928Y-132600000D01*
X136674188Y-132724482D01*
X136710498Y-132844180D01*
X136769463Y-132954494D01*
X136848815Y-133051185D01*
X136945506Y-133130537D01*
X137055820Y-133189502D01*
X137175518Y-133225812D01*
X137300000Y-133238072D01*
X138900000Y-133238072D01*
X139024482Y-133225812D01*
X139144180Y-133189502D01*
X139254494Y-133130537D01*
X139351185Y-133051185D01*
X139430537Y-132954494D01*
X139489502Y-132844180D01*
X139525812Y-132724482D01*
X139527581Y-132706518D01*
X139620392Y-132819608D01*
X139838899Y-132998932D01*
X140088192Y-133132182D01*
X140358691Y-133214236D01*
X140569508Y-133235000D01*
X140710492Y-133235000D01*
X140921309Y-133214236D01*
X141191808Y-133132182D01*
X141441101Y-132998932D01*
X141659608Y-132819608D01*
X141838932Y-132601101D01*
X141912579Y-132463318D01*
X142027615Y-132655131D01*
X142216586Y-132863519D01*
X142442580Y-133031037D01*
X142696913Y-133151246D01*
X142830961Y-133191904D01*
X143053000Y-133069915D01*
X143053000Y-131927000D01*
X143033000Y-131927000D01*
X143033000Y-131673000D01*
X143053000Y-131673000D01*
X143053000Y-130530085D01*
X142830961Y-130408096D01*
X142696913Y-130448754D01*
X142442580Y-130568963D01*
X142216586Y-130736481D01*
X142027615Y-130944869D01*
X141912579Y-131136682D01*
X141838932Y-130998899D01*
X141659608Y-130780392D01*
X141441101Y-130601068D01*
X141191808Y-130467818D01*
X140921309Y-130385764D01*
X140710492Y-130365000D01*
X140569508Y-130365000D01*
X140358691Y-130385764D01*
X140088192Y-130467818D01*
X139838899Y-130601068D01*
X139620392Y-130780392D01*
X139527581Y-130893482D01*
X139525812Y-130875518D01*
X139489502Y-130755820D01*
X139430537Y-130645506D01*
X139351185Y-130548815D01*
X139254494Y-130469463D01*
X139144180Y-130410498D01*
X139024482Y-130374188D01*
X138900000Y-130361928D01*
X137300000Y-130361928D01*
X137175518Y-130374188D01*
X137055820Y-130410498D01*
X136945506Y-130469463D01*
X136848815Y-130548815D01*
X136769463Y-130645506D01*
X136710498Y-130755820D01*
X136674188Y-130875518D01*
X136661928Y-131000000D01*
X136086391Y-131000000D01*
X136089502Y-130994180D01*
X136125812Y-130874482D01*
X136138072Y-130750000D01*
X136138072Y-129750000D01*
X136125812Y-129625518D01*
X136089502Y-129505820D01*
X136030537Y-129395506D01*
X135951185Y-129298815D01*
X135854494Y-129219463D01*
X135744180Y-129160498D01*
X135624482Y-129124188D01*
X135500000Y-129111928D01*
X134500000Y-129111928D01*
X134375518Y-129124188D01*
X134255820Y-129160498D01*
X134145506Y-129219463D01*
X134048815Y-129298815D01*
X134000000Y-129358296D01*
X133951185Y-129298815D01*
X133854494Y-129219463D01*
X133744180Y-129160498D01*
X133624482Y-129124188D01*
X133500000Y-129111928D01*
X132500000Y-129111928D01*
X132375518Y-129124188D01*
X132255820Y-129160498D01*
X132145506Y-129219463D01*
X132048815Y-129298815D01*
X132000000Y-129358296D01*
X131951185Y-129298815D01*
X131854494Y-129219463D01*
X131744180Y-129160498D01*
X131624482Y-129124188D01*
X131500000Y-129111928D01*
X130500000Y-129111928D01*
X130375518Y-129124188D01*
X130255820Y-129160498D01*
X130145506Y-129219463D01*
X130048815Y-129298815D01*
X129969463Y-129395506D01*
X129910498Y-129505820D01*
X129874188Y-129625518D01*
X129861928Y-129750000D01*
X126788072Y-129750000D01*
X126788072Y-128800000D01*
X126775812Y-128675518D01*
X126739502Y-128555820D01*
X126680537Y-128445506D01*
X126601185Y-128348815D01*
X126504494Y-128269463D01*
X126394180Y-128210498D01*
X126274482Y-128174188D01*
X126256518Y-128172419D01*
X126369608Y-128079608D01*
X126548932Y-127861101D01*
X126682182Y-127611808D01*
X126764236Y-127341309D01*
X126791943Y-127060000D01*
X126764236Y-126778691D01*
X126682182Y-126508192D01*
X126548932Y-126258899D01*
X126369608Y-126040392D01*
X126151101Y-125861068D01*
X126018142Y-125790000D01*
X126151101Y-125718932D01*
X126369608Y-125539608D01*
X126548932Y-125321101D01*
X126682182Y-125071808D01*
X126764236Y-124801309D01*
X126791943Y-124520000D01*
X126764236Y-124238691D01*
X126682182Y-123968192D01*
X126613110Y-123838967D01*
X132115000Y-123838967D01*
X132115000Y-124161033D01*
X132177832Y-124476912D01*
X132301082Y-124774463D01*
X132480013Y-125042252D01*
X132707748Y-125269987D01*
X132975537Y-125448918D01*
X133273088Y-125572168D01*
X133588967Y-125635000D01*
X133911033Y-125635000D01*
X134226912Y-125572168D01*
X134524463Y-125448918D01*
X134792252Y-125269987D01*
X135019987Y-125042252D01*
X135198918Y-124774463D01*
X135322168Y-124476912D01*
X135385000Y-124161033D01*
X135385000Y-123838967D01*
X135322168Y-123523088D01*
X135198918Y-123225537D01*
X135019987Y-122957748D01*
X134792252Y-122730013D01*
X134524463Y-122551082D01*
X134226912Y-122427832D01*
X133911033Y-122365000D01*
X133588967Y-122365000D01*
X133273088Y-122427832D01*
X132975537Y-122551082D01*
X132707748Y-122730013D01*
X132480013Y-122957748D01*
X132301082Y-123225537D01*
X132177832Y-123523088D01*
X132115000Y-123838967D01*
X126613110Y-123838967D01*
X126548932Y-123718899D01*
X126369608Y-123500392D01*
X126151101Y-123321068D01*
X126018142Y-123250000D01*
X126151101Y-123178932D01*
X126369608Y-122999608D01*
X126548932Y-122781101D01*
X126682182Y-122531808D01*
X126764236Y-122261309D01*
X126791943Y-121980000D01*
X126764236Y-121698691D01*
X126682182Y-121428192D01*
X126548932Y-121178899D01*
X126369608Y-120960392D01*
X126151101Y-120781068D01*
X126018142Y-120710000D01*
X126151101Y-120638932D01*
X126369608Y-120459608D01*
X126548932Y-120241101D01*
X126682182Y-119991808D01*
X126764236Y-119721309D01*
X126791943Y-119440000D01*
X126788004Y-119400000D01*
X127167815Y-119400000D01*
X127196487Y-119691111D01*
X127281401Y-119971034D01*
X127419294Y-120229014D01*
X127604866Y-120455134D01*
X127830986Y-120640706D01*
X128088966Y-120778599D01*
X128368889Y-120863513D01*
X128587050Y-120885000D01*
X128732950Y-120885000D01*
X128951111Y-120863513D01*
X129231034Y-120778599D01*
X129489014Y-120640706D01*
X129715134Y-120455134D01*
X129739607Y-120425313D01*
X129760498Y-120494180D01*
X129819463Y-120604494D01*
X129898815Y-120701185D01*
X129995506Y-120780537D01*
X130105820Y-120839502D01*
X130225518Y-120875812D01*
X130350000Y-120888072D01*
X132050000Y-120888072D01*
X132174482Y-120875812D01*
X132294180Y-120839502D01*
X132404494Y-120780537D01*
X132501185Y-120701185D01*
X132580537Y-120604494D01*
X132639502Y-120494180D01*
X132675812Y-120374482D01*
X132678223Y-120350000D01*
X135681928Y-120350000D01*
X135694188Y-120474482D01*
X135730498Y-120594180D01*
X135789463Y-120704494D01*
X135868815Y-120801185D01*
X135965506Y-120880537D01*
X136075820Y-120939502D01*
X136195518Y-120975812D01*
X136320000Y-120988072D01*
X136884250Y-120985000D01*
X137043000Y-120826250D01*
X137043000Y-119627000D01*
X135843750Y-119627000D01*
X135685000Y-119785750D01*
X135681928Y-120350000D01*
X132678223Y-120350000D01*
X132688072Y-120250000D01*
X132688072Y-118650000D01*
X135681928Y-118650000D01*
X135685000Y-119214250D01*
X135843750Y-119373000D01*
X137043000Y-119373000D01*
X137043000Y-118173750D01*
X137297000Y-118173750D01*
X137297000Y-119373000D01*
X137317000Y-119373000D01*
X137317000Y-119627000D01*
X137297000Y-119627000D01*
X137297000Y-120826250D01*
X137455750Y-120985000D01*
X138020000Y-120988072D01*
X138144482Y-120975812D01*
X138264180Y-120939502D01*
X138374494Y-120880537D01*
X138471185Y-120801185D01*
X138550537Y-120704494D01*
X138609502Y-120594180D01*
X138630393Y-120525313D01*
X138654866Y-120555134D01*
X138880986Y-120740706D01*
X139138966Y-120878599D01*
X139418889Y-120963513D01*
X139637050Y-120985000D01*
X139782950Y-120985000D01*
X140001111Y-120963513D01*
X140281034Y-120878599D01*
X140539014Y-120740706D01*
X140765134Y-120555134D01*
X140950706Y-120329014D01*
X140980000Y-120274209D01*
X141009294Y-120329014D01*
X141194866Y-120555134D01*
X141420986Y-120740706D01*
X141678966Y-120878599D01*
X141958889Y-120963513D01*
X142177050Y-120985000D01*
X142322950Y-120985000D01*
X142541111Y-120963513D01*
X142821034Y-120878599D01*
X143079014Y-120740706D01*
X143305134Y-120555134D01*
X143490706Y-120329014D01*
X143628599Y-120071034D01*
X143713513Y-119791111D01*
X143742185Y-119500000D01*
X143713513Y-119208889D01*
X143628599Y-118928966D01*
X143490706Y-118670986D01*
X143305134Y-118444866D01*
X143079014Y-118259294D01*
X142821034Y-118121401D01*
X142541111Y-118036487D01*
X142322950Y-118015000D01*
X142177050Y-118015000D01*
X141958889Y-118036487D01*
X141678966Y-118121401D01*
X141420986Y-118259294D01*
X141194866Y-118444866D01*
X141009294Y-118670986D01*
X140980000Y-118725791D01*
X140950706Y-118670986D01*
X140765134Y-118444866D01*
X140539014Y-118259294D01*
X140281034Y-118121401D01*
X140001111Y-118036487D01*
X139782950Y-118015000D01*
X139637050Y-118015000D01*
X139418889Y-118036487D01*
X139138966Y-118121401D01*
X138880986Y-118259294D01*
X138654866Y-118444866D01*
X138630393Y-118474687D01*
X138609502Y-118405820D01*
X138550537Y-118295506D01*
X138471185Y-118198815D01*
X138374494Y-118119463D01*
X138264180Y-118060498D01*
X138144482Y-118024188D01*
X138020000Y-118011928D01*
X137455750Y-118015000D01*
X137297000Y-118173750D01*
X137043000Y-118173750D01*
X136884250Y-118015000D01*
X136320000Y-118011928D01*
X136195518Y-118024188D01*
X136075820Y-118060498D01*
X135965506Y-118119463D01*
X135868815Y-118198815D01*
X135789463Y-118295506D01*
X135730498Y-118405820D01*
X135694188Y-118525518D01*
X135681928Y-118650000D01*
X132688072Y-118650000D01*
X132688072Y-118550000D01*
X132675812Y-118425518D01*
X132639502Y-118305820D01*
X132580537Y-118195506D01*
X132501185Y-118098815D01*
X132404494Y-118019463D01*
X132294180Y-117960498D01*
X132174482Y-117924188D01*
X132050000Y-117911928D01*
X130350000Y-117911928D01*
X130225518Y-117924188D01*
X130105820Y-117960498D01*
X129995506Y-118019463D01*
X129898815Y-118098815D01*
X129819463Y-118195506D01*
X129760498Y-118305820D01*
X129739607Y-118374687D01*
X129715134Y-118344866D01*
X129489014Y-118159294D01*
X129231034Y-118021401D01*
X128951111Y-117936487D01*
X128732950Y-117915000D01*
X128587050Y-117915000D01*
X128368889Y-117936487D01*
X128088966Y-118021401D01*
X127830986Y-118159294D01*
X127604866Y-118344866D01*
X127419294Y-118570986D01*
X127281401Y-118828966D01*
X127196487Y-119108889D01*
X127167815Y-119400000D01*
X126788004Y-119400000D01*
X126764236Y-119158691D01*
X126682182Y-118888192D01*
X126548932Y-118638899D01*
X126369608Y-118420392D01*
X126151101Y-118241068D01*
X126018142Y-118170000D01*
X126151101Y-118098932D01*
X126369608Y-117919608D01*
X126548932Y-117701101D01*
X126682182Y-117451808D01*
X126764236Y-117181309D01*
X126791943Y-116900000D01*
X126764236Y-116618691D01*
X126682182Y-116348192D01*
X126548932Y-116098899D01*
X126369608Y-115880392D01*
X126151101Y-115701068D01*
X126013318Y-115627421D01*
X126205131Y-115512385D01*
X126413519Y-115323414D01*
X126581037Y-115097420D01*
X126701246Y-114843087D01*
X126741904Y-114709039D01*
X126619915Y-114487000D01*
X125477000Y-114487000D01*
X125477000Y-114507000D01*
X125223000Y-114507000D01*
X125223000Y-114487000D01*
X124080085Y-114487000D01*
X123958096Y-114709039D01*
X123998754Y-114843087D01*
X124118963Y-115097420D01*
X124286481Y-115323414D01*
X124494869Y-115512385D01*
X124686682Y-115627421D01*
X124548899Y-115701068D01*
X124330392Y-115880392D01*
X124151068Y-116098899D01*
X124017818Y-116348192D01*
X123935764Y-116618691D01*
X123908057Y-116900000D01*
X119171943Y-116900000D01*
X119144236Y-116618691D01*
X119062182Y-116348192D01*
X118928932Y-116098899D01*
X118749608Y-115880392D01*
X118531101Y-115701068D01*
X118398142Y-115630000D01*
X118531101Y-115558932D01*
X118749608Y-115379608D01*
X118928932Y-115161101D01*
X119062182Y-114911808D01*
X119144236Y-114641309D01*
X119171943Y-114360000D01*
X119144236Y-114078691D01*
X119062182Y-113808192D01*
X118928932Y-113558899D01*
X118749608Y-113340392D01*
X118531101Y-113161068D01*
X118398142Y-113090000D01*
X118531101Y-113018932D01*
X118749608Y-112839608D01*
X118928932Y-112621101D01*
X119062182Y-112371808D01*
X119144236Y-112101309D01*
X119171943Y-111820000D01*
X119144236Y-111538691D01*
X119062182Y-111268192D01*
X118928932Y-111018899D01*
X118749608Y-110800392D01*
X118531101Y-110621068D01*
X118393318Y-110547421D01*
X118585131Y-110432385D01*
X118793519Y-110243414D01*
X118961037Y-110017420D01*
X119081246Y-109763087D01*
X119121904Y-109629039D01*
X118999915Y-109407000D01*
X117857000Y-109407000D01*
X117857000Y-109427000D01*
X117603000Y-109427000D01*
X117603000Y-109407000D01*
X116460085Y-109407000D01*
X116338096Y-109629039D01*
X116378754Y-109763087D01*
X116498963Y-110017420D01*
X116666481Y-110243414D01*
X116874869Y-110432385D01*
X117066682Y-110547421D01*
X116928899Y-110621068D01*
X116710392Y-110800392D01*
X116531068Y-111018899D01*
X116397818Y-111268192D01*
X116315764Y-111538691D01*
X116288057Y-111820000D01*
X113685000Y-111820000D01*
X113685000Y-109040019D01*
X113719463Y-109104494D01*
X113798815Y-109201185D01*
X113895506Y-109280537D01*
X114005820Y-109339502D01*
X114125518Y-109375812D01*
X114250000Y-109388072D01*
X114464250Y-109385000D01*
X114623000Y-109226250D01*
X114623000Y-108377000D01*
X114877000Y-108377000D01*
X114877000Y-109226250D01*
X115035750Y-109385000D01*
X115250000Y-109388072D01*
X115374482Y-109375812D01*
X115494180Y-109339502D01*
X115604494Y-109280537D01*
X115701185Y-109201185D01*
X115780537Y-109104494D01*
X115839502Y-108994180D01*
X115875812Y-108874482D01*
X115888072Y-108750000D01*
X115885000Y-108535750D01*
X115726250Y-108377000D01*
X114877000Y-108377000D01*
X114623000Y-108377000D01*
X114603000Y-108377000D01*
X114603000Y-108123000D01*
X114623000Y-108123000D01*
X114623000Y-108103000D01*
X114877000Y-108103000D01*
X114877000Y-108123000D01*
X115726250Y-108123000D01*
X115885000Y-107964250D01*
X115888072Y-107750000D01*
X115875812Y-107625518D01*
X115839502Y-107505820D01*
X115780537Y-107395506D01*
X115701185Y-107298815D01*
X115641704Y-107250000D01*
X115701185Y-107201185D01*
X115780537Y-107104494D01*
X115839502Y-106994180D01*
X115875812Y-106874482D01*
X115888072Y-106750000D01*
X115888072Y-105750000D01*
X115875812Y-105625518D01*
X115839502Y-105505820D01*
X115780537Y-105395506D01*
X115701185Y-105298815D01*
X115641704Y-105250000D01*
X115701185Y-105201185D01*
X115780537Y-105104494D01*
X115839502Y-104994180D01*
X115875812Y-104874482D01*
X115888072Y-104750000D01*
X115888072Y-103750000D01*
X115875812Y-103625518D01*
X115839502Y-103505820D01*
X115780537Y-103395506D01*
X115701185Y-103298815D01*
X115641704Y-103250000D01*
X115701185Y-103201185D01*
X115780537Y-103104494D01*
X115839502Y-102994180D01*
X115875812Y-102874482D01*
X115888072Y-102750000D01*
X115888072Y-101750000D01*
X115875812Y-101625518D01*
X115839502Y-101505820D01*
X115780537Y-101395506D01*
X115763708Y-101375000D01*
X115780537Y-101354494D01*
X115839502Y-101244180D01*
X115875812Y-101124482D01*
X115888072Y-101000000D01*
X115888072Y-100000000D01*
X115875812Y-99875518D01*
X115839502Y-99755820D01*
X115780537Y-99645506D01*
X115701185Y-99548815D01*
X115641704Y-99500000D01*
X115701185Y-99451185D01*
X115780537Y-99354494D01*
X115839502Y-99244180D01*
X115875812Y-99124482D01*
X115888072Y-99000000D01*
X115888072Y-98000000D01*
X115875812Y-97875518D01*
X115839502Y-97755820D01*
X115780537Y-97645506D01*
X115701185Y-97548815D01*
X115641704Y-97500000D01*
X115701185Y-97451185D01*
X115780537Y-97354494D01*
X115839502Y-97244180D01*
X115875812Y-97124482D01*
X115888072Y-97000000D01*
X115888072Y-96580000D01*
X116288057Y-96580000D01*
X116315764Y-96861309D01*
X116397818Y-97131808D01*
X116531068Y-97381101D01*
X116710392Y-97599608D01*
X116928899Y-97778932D01*
X117061858Y-97850000D01*
X116928899Y-97921068D01*
X116710392Y-98100392D01*
X116531068Y-98318899D01*
X116397818Y-98568192D01*
X116315764Y-98838691D01*
X116288057Y-99120000D01*
X116315764Y-99401309D01*
X116397818Y-99671808D01*
X116531068Y-99921101D01*
X116710392Y-100139608D01*
X116928899Y-100318932D01*
X117061858Y-100390000D01*
X116928899Y-100461068D01*
X116710392Y-100640392D01*
X116531068Y-100858899D01*
X116397818Y-101108192D01*
X116315764Y-101378691D01*
X116288057Y-101660000D01*
X116315764Y-101941309D01*
X116397818Y-102211808D01*
X116531068Y-102461101D01*
X116710392Y-102679608D01*
X116928899Y-102858932D01*
X117061858Y-102930000D01*
X116928899Y-103001068D01*
X116710392Y-103180392D01*
X116531068Y-103398899D01*
X116397818Y-103648192D01*
X116315764Y-103918691D01*
X116288057Y-104200000D01*
X116315764Y-104481309D01*
X116397818Y-104751808D01*
X116531068Y-105001101D01*
X116710392Y-105219608D01*
X116928899Y-105398932D01*
X117061858Y-105470000D01*
X116928899Y-105541068D01*
X116710392Y-105720392D01*
X116531068Y-105938899D01*
X116397818Y-106188192D01*
X116315764Y-106458691D01*
X116288057Y-106740000D01*
X116315764Y-107021309D01*
X116397818Y-107291808D01*
X116531068Y-107541101D01*
X116710392Y-107759608D01*
X116928899Y-107938932D01*
X117066682Y-108012579D01*
X116874869Y-108127615D01*
X116666481Y-108316586D01*
X116498963Y-108542580D01*
X116378754Y-108796913D01*
X116338096Y-108930961D01*
X116460085Y-109153000D01*
X117603000Y-109153000D01*
X117603000Y-109133000D01*
X117857000Y-109133000D01*
X117857000Y-109153000D01*
X118999915Y-109153000D01*
X119121904Y-108930961D01*
X119081246Y-108796913D01*
X118961037Y-108542580D01*
X118793519Y-108316586D01*
X118585131Y-108127615D01*
X118393318Y-108012579D01*
X118531101Y-107938932D01*
X118749608Y-107759608D01*
X118928932Y-107541101D01*
X119062182Y-107291808D01*
X119144236Y-107021309D01*
X119171943Y-106740000D01*
X119144236Y-106458691D01*
X119062182Y-106188192D01*
X118928932Y-105938899D01*
X118749608Y-105720392D01*
X118531101Y-105541068D01*
X118398142Y-105470000D01*
X118531101Y-105398932D01*
X118749608Y-105219608D01*
X118928932Y-105001101D01*
X119062182Y-104751808D01*
X119144236Y-104481309D01*
X119171943Y-104200000D01*
X119144236Y-103918691D01*
X119062182Y-103648192D01*
X118928932Y-103398899D01*
X118749608Y-103180392D01*
X118531101Y-103001068D01*
X118398142Y-102930000D01*
X118531101Y-102858932D01*
X118749608Y-102679608D01*
X118928932Y-102461101D01*
X119062182Y-102211808D01*
X119144236Y-101941309D01*
X119171943Y-101660000D01*
X119144236Y-101378691D01*
X119062182Y-101108192D01*
X118928932Y-100858899D01*
X118749608Y-100640392D01*
X118531101Y-100461068D01*
X118398142Y-100390000D01*
X118531101Y-100318932D01*
X118749608Y-100139608D01*
X118928932Y-99921101D01*
X119062182Y-99671808D01*
X119144236Y-99401309D01*
X119171943Y-99120000D01*
X119144236Y-98838691D01*
X119062182Y-98568192D01*
X118928932Y-98318899D01*
X118749608Y-98100392D01*
X118531101Y-97921068D01*
X118398142Y-97850000D01*
X118531101Y-97778932D01*
X118749608Y-97599608D01*
X118928932Y-97381101D01*
X119062182Y-97131808D01*
X119144236Y-96861309D01*
X119171943Y-96580000D01*
X119144236Y-96298691D01*
X119062182Y-96028192D01*
X118928932Y-95778899D01*
X118749608Y-95560392D01*
X118531101Y-95381068D01*
X118323697Y-95270208D01*
X118398061Y-95285000D01*
X118601939Y-95285000D01*
X118801898Y-95245226D01*
X118990256Y-95167205D01*
X119159774Y-95053937D01*
X119303937Y-94909774D01*
X119417205Y-94740256D01*
X119495226Y-94551898D01*
X119535000Y-94351939D01*
X119535000Y-94148061D01*
X119495226Y-93948102D01*
X119417205Y-93759744D01*
X119303937Y-93590226D01*
X119159774Y-93446063D01*
X118990256Y-93332795D01*
X118801898Y-93254774D01*
X118601939Y-93215000D01*
X118398061Y-93215000D01*
X118198102Y-93254774D01*
X118009744Y-93332795D01*
X117840226Y-93446063D01*
X117696063Y-93590226D01*
X117582795Y-93759744D01*
X117504774Y-93948102D01*
X117465000Y-94148061D01*
X117465000Y-94351939D01*
X117504774Y-94551898D01*
X117582795Y-94740256D01*
X117696063Y-94909774D01*
X117840226Y-95053937D01*
X118006944Y-95165334D01*
X117800492Y-95145000D01*
X117659508Y-95145000D01*
X117448691Y-95165764D01*
X117178192Y-95247818D01*
X116928899Y-95381068D01*
X116710392Y-95560392D01*
X116531068Y-95778899D01*
X116397818Y-96028192D01*
X116315764Y-96298691D01*
X116288057Y-96580000D01*
X115888072Y-96580000D01*
X115888072Y-96000000D01*
X115875812Y-95875518D01*
X115839502Y-95755820D01*
X115780537Y-95645506D01*
X115701185Y-95548815D01*
X115604494Y-95469463D01*
X115494180Y-95410498D01*
X115374482Y-95374188D01*
X115250000Y-95361928D01*
X114250000Y-95361928D01*
X114125518Y-95374188D01*
X114005820Y-95410498D01*
X113895506Y-95469463D01*
X113798815Y-95548815D01*
X113719463Y-95645506D01*
X113685000Y-95709981D01*
X113685000Y-91102980D01*
X115659437Y-91102980D01*
X115730429Y-91321094D01*
X115874031Y-91596923D01*
X116068685Y-91839437D01*
X116306911Y-92039316D01*
X116579554Y-92188879D01*
X116876137Y-92282378D01*
X117123000Y-92155570D01*
X117123000Y-90857000D01*
X117377000Y-90857000D01*
X117377000Y-92155570D01*
X117623863Y-92282378D01*
X117920446Y-92188879D01*
X118193089Y-92039316D01*
X118431315Y-91839437D01*
X118625969Y-91596923D01*
X118769571Y-91321094D01*
X118840563Y-91102980D01*
X118720594Y-90857000D01*
X117377000Y-90857000D01*
X117123000Y-90857000D01*
X115779406Y-90857000D01*
X115659437Y-91102980D01*
X113685000Y-91102980D01*
X113685000Y-89627000D01*
X116063518Y-89627000D01*
X115874031Y-89863077D01*
X115874031Y-89863077D01*
G37*
X115874031Y-89863077D02*
X115730429Y-90138906D01*
X115659437Y-90357020D01*
X115779406Y-90603000D01*
X117123000Y-90603000D01*
X117123000Y-90583000D01*
X117377000Y-90583000D01*
X117377000Y-90603000D01*
X118720594Y-90603000D01*
X118840563Y-90357020D01*
X118769571Y-90138906D01*
X118625969Y-89863077D01*
X118436482Y-89627000D01*
X119873000Y-89627000D01*
X119873000Y-113500000D01*
X119875440Y-113524776D01*
X119882667Y-113548601D01*
X119894403Y-113570557D01*
X119910197Y-113589803D01*
X119929443Y-113605597D01*
X119951399Y-113617333D01*
X119975224Y-113624560D01*
X120000000Y-113627000D01*
X124116874Y-113627000D01*
X123998754Y-113876913D01*
X123958096Y-114010961D01*
X124080085Y-114233000D01*
X125223000Y-114233000D01*
X125223000Y-114213000D01*
X125477000Y-114213000D01*
X125477000Y-114233000D01*
X126619915Y-114233000D01*
X126741904Y-114010961D01*
X126701246Y-113876913D01*
X126583126Y-113627000D01*
X126668773Y-113627000D01*
X126750000Y-113635000D01*
X132978085Y-113635000D01*
X132969463Y-113645506D01*
X132910498Y-113755820D01*
X132874188Y-113875518D01*
X132861928Y-114000000D01*
X132861928Y-115000000D01*
X132874188Y-115124482D01*
X132910498Y-115244180D01*
X132969463Y-115354494D01*
X133048815Y-115451185D01*
X133145506Y-115530537D01*
X133255820Y-115589502D01*
X133375518Y-115625812D01*
X133500000Y-115638072D01*
X134500000Y-115638072D01*
X134624482Y-115625812D01*
X134744180Y-115589502D01*
X134854494Y-115530537D01*
X134951185Y-115451185D01*
X135000000Y-115391704D01*
X135048815Y-115451185D01*
X135145506Y-115530537D01*
X135255820Y-115589502D01*
X135375518Y-115625812D01*
X135500000Y-115638072D01*
X136500000Y-115638072D01*
X136624482Y-115625812D01*
X136744180Y-115589502D01*
X136854494Y-115530537D01*
X136951185Y-115451185D01*
X137000000Y-115391704D01*
X137048815Y-115451185D01*
X137145506Y-115530537D01*
X137255820Y-115589502D01*
X137375518Y-115625812D01*
X137500000Y-115638072D01*
X138500000Y-115638072D01*
X138624482Y-115625812D01*
X138744180Y-115589502D01*
X138854494Y-115530537D01*
X138951185Y-115451185D01*
X139000000Y-115391704D01*
X139048815Y-115451185D01*
X139145506Y-115530537D01*
X139255820Y-115589502D01*
X139375518Y-115625812D01*
X139500000Y-115638072D01*
X140500000Y-115638072D01*
X140624482Y-115625812D01*
X140744180Y-115589502D01*
X140854494Y-115530537D01*
X140951185Y-115451185D01*
X141000000Y-115391704D01*
X141048815Y-115451185D01*
X141145506Y-115530537D01*
X141255820Y-115589502D01*
X141375518Y-115625812D01*
X141500000Y-115638072D01*
X142500000Y-115638072D01*
X142624482Y-115625812D01*
X142744180Y-115589502D01*
X142854494Y-115530537D01*
X142951185Y-115451185D01*
X143030537Y-115354494D01*
X143089502Y-115244180D01*
X143125812Y-115124482D01*
X143138072Y-115000000D01*
X143138072Y-114000000D01*
X143125812Y-113875518D01*
X143091377Y-113762000D01*
X144164370Y-113762000D01*
X144278634Y-113876264D01*
X144265764Y-113918691D01*
X144238057Y-114200000D01*
X144265764Y-114481309D01*
X144347818Y-114751808D01*
X144481068Y-115001101D01*
X144660392Y-115219608D01*
X144878899Y-115398932D01*
X145128192Y-115532182D01*
X145398691Y-115614236D01*
X145609508Y-115635000D01*
X145750492Y-115635000D01*
X145961309Y-115614236D01*
X146231808Y-115532182D01*
X146481101Y-115398932D01*
X146699608Y-115219608D01*
X146878932Y-115001101D01*
X146950000Y-114868142D01*
X147021068Y-115001101D01*
X147200392Y-115219608D01*
X147418899Y-115398932D01*
X147668192Y-115532182D01*
X147938691Y-115614236D01*
X148149508Y-115635000D01*
X148290492Y-115635000D01*
X148501309Y-115614236D01*
X148771808Y-115532182D01*
X149021101Y-115398932D01*
X149239608Y-115219608D01*
X149418932Y-115001101D01*
X149490000Y-114868142D01*
X149561068Y-115001101D01*
X149740392Y-115219608D01*
X149958899Y-115398932D01*
X150208192Y-115532182D01*
X150478691Y-115614236D01*
X150689508Y-115635000D01*
X150830492Y-115635000D01*
X151041309Y-115614236D01*
X151311808Y-115532182D01*
X151561101Y-115398932D01*
X151779608Y-115219608D01*
X151872419Y-115106518D01*
X151873000Y-115112418D01*
X151873000Y-120921437D01*
X151723414Y-120756481D01*
X151497420Y-120588963D01*
X151243087Y-120468754D01*
X151109039Y-120428096D01*
X150887000Y-120550085D01*
X150887000Y-121693000D01*
X150907000Y-121693000D01*
X150907000Y-121947000D01*
X150887000Y-121947000D01*
X150887000Y-121967000D01*
X150633000Y-121967000D01*
X150633000Y-121947000D01*
X150613000Y-121947000D01*
X150613000Y-121693000D01*
X150633000Y-121693000D01*
X150633000Y-120550085D01*
X150410961Y-120428096D01*
X150276913Y-120468754D01*
X150022580Y-120588963D01*
X149796586Y-120756481D01*
X149607615Y-120964869D01*
X149492579Y-121156682D01*
X149418932Y-121018899D01*
X149239608Y-120800392D01*
X149021101Y-120621068D01*
X148771808Y-120487818D01*
X148501309Y-120405764D01*
X148290492Y-120385000D01*
X148149508Y-120385000D01*
X147938691Y-120405764D01*
X147668192Y-120487818D01*
X147418899Y-120621068D01*
X147200392Y-120800392D01*
X147021068Y-121018899D01*
X146950000Y-121151858D01*
X146878932Y-121018899D01*
X146699608Y-120800392D01*
X146481101Y-120621068D01*
X146231808Y-120487818D01*
X145961309Y-120405764D01*
X145750492Y-120385000D01*
X145609508Y-120385000D01*
X145398691Y-120405764D01*
X145128192Y-120487818D01*
X144878899Y-120621068D01*
X144660392Y-120800392D01*
X144481068Y-121018899D01*
X144347818Y-121268192D01*
X144265764Y-121538691D01*
X144238057Y-121820000D01*
X144265764Y-122101309D01*
X144347818Y-122371808D01*
X144481068Y-122621101D01*
X144660392Y-122839608D01*
X144875830Y-123016414D01*
X144700392Y-123160392D01*
X144521068Y-123378899D01*
X144450000Y-123511858D01*
X144378932Y-123378899D01*
X144199608Y-123160392D01*
X143981101Y-122981068D01*
X143731808Y-122847818D01*
X143461309Y-122765764D01*
X143250492Y-122745000D01*
X143109508Y-122745000D01*
X142898691Y-122765764D01*
X142628192Y-122847818D01*
X142378899Y-122981068D01*
X142160392Y-123160392D01*
X141981068Y-123378899D01*
X141910000Y-123511858D01*
X141838932Y-123378899D01*
X141659608Y-123160392D01*
X141441101Y-122981068D01*
X141191808Y-122847818D01*
X140921309Y-122765764D01*
X140710492Y-122745000D01*
X140569508Y-122745000D01*
X140358691Y-122765764D01*
X140088192Y-122847818D01*
X139838899Y-122981068D01*
X139620392Y-123160392D01*
X139441068Y-123378899D01*
X139370000Y-123511858D01*
X139298932Y-123378899D01*
X139119608Y-123160392D01*
X138901101Y-122981068D01*
X138651808Y-122847818D01*
X138381309Y-122765764D01*
X138170492Y-122745000D01*
X138029508Y-122745000D01*
X137818691Y-122765764D01*
X137548192Y-122847818D01*
X137298899Y-122981068D01*
X137080392Y-123160392D01*
X136901068Y-123378899D01*
X136767818Y-123628192D01*
X136685764Y-123898691D01*
X136658057Y-124180000D01*
X136685764Y-124461309D01*
X136767818Y-124731808D01*
X136901068Y-124981101D01*
X137080392Y-125199608D01*
X137298899Y-125378932D01*
X137548192Y-125512182D01*
X137818691Y-125594236D01*
X138029508Y-125615000D01*
X138170492Y-125615000D01*
X138381309Y-125594236D01*
X138651808Y-125512182D01*
X138901101Y-125378932D01*
X139119608Y-125199608D01*
X139298932Y-124981101D01*
X139370000Y-124848142D01*
X139441068Y-124981101D01*
X139620392Y-125199608D01*
X139838899Y-125378932D01*
X140088192Y-125512182D01*
X140358691Y-125594236D01*
X140569508Y-125615000D01*
X140710492Y-125615000D01*
X140921309Y-125594236D01*
X141191808Y-125512182D01*
X141441101Y-125378932D01*
X141659608Y-125199608D01*
X141838932Y-124981101D01*
X141910000Y-124848142D01*
X141981068Y-124981101D01*
X142160392Y-125199608D01*
X142378899Y-125378932D01*
X142628192Y-125512182D01*
X142898691Y-125594236D01*
X143109508Y-125615000D01*
X143250492Y-125615000D01*
X143461309Y-125594236D01*
X143731808Y-125512182D01*
X143981101Y-125378932D01*
X144199608Y-125199608D01*
X144378932Y-124981101D01*
X144450000Y-124848142D01*
X144521068Y-124981101D01*
X144700392Y-125199608D01*
X144918899Y-125378932D01*
X145168192Y-125512182D01*
X145438691Y-125594236D01*
X145649508Y-125615000D01*
X145790492Y-125615000D01*
X146001309Y-125594236D01*
X146271808Y-125512182D01*
X146521101Y-125378932D01*
X146739608Y-125199608D01*
X146918932Y-124981101D01*
X146990000Y-124848142D01*
X147061068Y-124981101D01*
X147240392Y-125199608D01*
X147458899Y-125378932D01*
X147708192Y-125512182D01*
X147978691Y-125594236D01*
X148189508Y-125615000D01*
X148330492Y-125615000D01*
X148541309Y-125594236D01*
X148811808Y-125512182D01*
X149061101Y-125378932D01*
X149279608Y-125199608D01*
X149458932Y-124981101D01*
X149530000Y-124848142D01*
X149601068Y-124981101D01*
X149780392Y-125199608D01*
X149998899Y-125378932D01*
X150248192Y-125512182D01*
X150518691Y-125594236D01*
X150672550Y-125609390D01*
X151873000Y-126809840D01*
X151873000Y-130845450D01*
X151819608Y-130780392D01*
X151601101Y-130601068D01*
X151351808Y-130467818D01*
X151081309Y-130385764D01*
X150870492Y-130365000D01*
X150729508Y-130365000D01*
X150518691Y-130385764D01*
X150248192Y-130467818D01*
X149998899Y-130601068D01*
X149780392Y-130780392D01*
X149601068Y-130998899D01*
X149530000Y-131131858D01*
X149458932Y-130998899D01*
X149279608Y-130780392D01*
X149061101Y-130601068D01*
X148811808Y-130467818D01*
X148541309Y-130385764D01*
X148330492Y-130365000D01*
X148189508Y-130365000D01*
X147978691Y-130385764D01*
X147708192Y-130467818D01*
X147458899Y-130601068D01*
X147240392Y-130780392D01*
X147061068Y-130998899D01*
X146990000Y-131131858D01*
X146918932Y-130998899D01*
X146739608Y-130780392D01*
X146521101Y-130601068D01*
X146271808Y-130467818D01*
X146001309Y-130385764D01*
X145790492Y-130365000D01*
X145649508Y-130365000D01*
X145438691Y-130385764D01*
X145168192Y-130467818D01*
X144918899Y-130601068D01*
X144700392Y-130780392D01*
X144521068Y-130998899D01*
X144447421Y-131136682D01*
X144332385Y-130944869D01*
X144143414Y-130736481D01*
X143917420Y-130568963D01*
X143663087Y-130448754D01*
X143529039Y-130408096D01*
X143307000Y-130530085D01*
X143307000Y-131673000D01*
X143327000Y-131673000D01*
X143327000Y-131927000D01*
X143307000Y-131927000D01*
X143307000Y-133069915D01*
X143529039Y-133191904D01*
X143663087Y-133151246D01*
X143917420Y-133031037D01*
X144143414Y-132863519D01*
X144332385Y-132655131D01*
X144447421Y-132463318D01*
X144521068Y-132601101D01*
X144700392Y-132819608D01*
X144918899Y-132998932D01*
X145168192Y-133132182D01*
X145438691Y-133214236D01*
X145649508Y-133235000D01*
X145790492Y-133235000D01*
X146001309Y-133214236D01*
X146271808Y-133132182D01*
X146521101Y-132998932D01*
X146739608Y-132819608D01*
X146918932Y-132601101D01*
X146990000Y-132468142D01*
X147061068Y-132601101D01*
X147240392Y-132819608D01*
X147458899Y-132998932D01*
X147708192Y-133132182D01*
X147978691Y-133214236D01*
X148189508Y-133235000D01*
X148330492Y-133235000D01*
X148541309Y-133214236D01*
X148811808Y-133132182D01*
X149061101Y-132998932D01*
X149279608Y-132819608D01*
X149458932Y-132601101D01*
X149530000Y-132468142D01*
X149601068Y-132601101D01*
X149780392Y-132819608D01*
X149998899Y-132998932D01*
X150248192Y-133132182D01*
X150518691Y-133214236D01*
X150729508Y-133235000D01*
X150870492Y-133235000D01*
X151081309Y-133214236D01*
X151351808Y-133132182D01*
X151601101Y-132998932D01*
X151819608Y-132819608D01*
X151873000Y-132754550D01*
X151873000Y-149315000D01*
X118054057Y-149315000D01*
X118248446Y-149185114D01*
X118685114Y-148748446D01*
X119028201Y-148234979D01*
X119264524Y-147664446D01*
X119385000Y-147058771D01*
X119385000Y-146441229D01*
X119326686Y-146148061D01*
X129715000Y-146148061D01*
X129715000Y-146351939D01*
X129754774Y-146551898D01*
X129832795Y-146740256D01*
X129946063Y-146909774D01*
X130090226Y-147053937D01*
X130259744Y-147167205D01*
X130448102Y-147245226D01*
X130648061Y-147285000D01*
X130851939Y-147285000D01*
X131051898Y-147245226D01*
X131240256Y-147167205D01*
X131409774Y-147053937D01*
X131553937Y-146909774D01*
X131667205Y-146740256D01*
X131745226Y-146551898D01*
X131785000Y-146351939D01*
X131785000Y-146148061D01*
X134215000Y-146148061D01*
X134215000Y-146351939D01*
X134254774Y-146551898D01*
X134332795Y-146740256D01*
X134446063Y-146909774D01*
X134590226Y-147053937D01*
X134759744Y-147167205D01*
X134948102Y-147245226D01*
X135148061Y-147285000D01*
X135351939Y-147285000D01*
X135551898Y-147245226D01*
X135740256Y-147167205D01*
X135909774Y-147053937D01*
X136053937Y-146909774D01*
X136167205Y-146740256D01*
X136245226Y-146551898D01*
X136285000Y-146351939D01*
X136285000Y-146148061D01*
X137215000Y-146148061D01*
X137215000Y-146351939D01*
X137254774Y-146551898D01*
X137332795Y-146740256D01*
X137446063Y-146909774D01*
X137590226Y-147053937D01*
X137759744Y-147167205D01*
X137948102Y-147245226D01*
X138148061Y-147285000D01*
X138351939Y-147285000D01*
X138551898Y-147245226D01*
X138740256Y-147167205D01*
X138909774Y-147053937D01*
X139053937Y-146909774D01*
X139167205Y-146740256D01*
X139245226Y-146551898D01*
X139285000Y-146351939D01*
X139285000Y-146148061D01*
X141715000Y-146148061D01*
X141715000Y-146351939D01*
X141754774Y-146551898D01*
X141832795Y-146740256D01*
X141946063Y-146909774D01*
X142090226Y-147053937D01*
X142259744Y-147167205D01*
X142448102Y-147245226D01*
X142648061Y-147285000D01*
X142851939Y-147285000D01*
X143051898Y-147245226D01*
X143240256Y-147167205D01*
X143409774Y-147053937D01*
X143553937Y-146909774D01*
X143667205Y-146740256D01*
X143745226Y-146551898D01*
X143785000Y-146351939D01*
X143785000Y-146148061D01*
X143761341Y-146029117D01*
X146965000Y-146029117D01*
X146965000Y-146370883D01*
X147031675Y-146706081D01*
X147162463Y-147021831D01*
X147352337Y-147305998D01*
X147594002Y-147547663D01*
X147878169Y-147737537D01*
X148193919Y-147868325D01*
X148529117Y-147935000D01*
X148870883Y-147935000D01*
X149206081Y-147868325D01*
X149521831Y-147737537D01*
X149805998Y-147547663D01*
X150047663Y-147305998D01*
X150237537Y-147021831D01*
X150368325Y-146706081D01*
X150435000Y-146370883D01*
X150435000Y-146029117D01*
X150368325Y-145693919D01*
X150237537Y-145378169D01*
X150047663Y-145094002D01*
X149805998Y-144852337D01*
X149521831Y-144662463D01*
X149206081Y-144531675D01*
X148870883Y-144465000D01*
X148529117Y-144465000D01*
X148193919Y-144531675D01*
X147878169Y-144662463D01*
X147594002Y-144852337D01*
X147352337Y-145094002D01*
X147162463Y-145378169D01*
X147031675Y-145693919D01*
X146965000Y-146029117D01*
X143761341Y-146029117D01*
X143745226Y-145948102D01*
X143667205Y-145759744D01*
X143553937Y-145590226D01*
X143409774Y-145446063D01*
X143240256Y-145332795D01*
X143051898Y-145254774D01*
X142851939Y-145215000D01*
X142648061Y-145215000D01*
X142448102Y-145254774D01*
X142259744Y-145332795D01*
X142090226Y-145446063D01*
X141946063Y-145590226D01*
X141832795Y-145759744D01*
X141754774Y-145948102D01*
X141715000Y-146148061D01*
X139285000Y-146148061D01*
X139245226Y-145948102D01*
X139167205Y-145759744D01*
X139053937Y-145590226D01*
X138909774Y-145446063D01*
X138740256Y-145332795D01*
X138551898Y-145254774D01*
X138351939Y-145215000D01*
X138148061Y-145215000D01*
X137948102Y-145254774D01*
X137759744Y-145332795D01*
X137590226Y-145446063D01*
X137446063Y-145590226D01*
X137332795Y-145759744D01*
X137254774Y-145948102D01*
X137215000Y-146148061D01*
X136285000Y-146148061D01*
X136245226Y-145948102D01*
X136167205Y-145759744D01*
X136053937Y-145590226D01*
X135909774Y-145446063D01*
X135740256Y-145332795D01*
X135551898Y-145254774D01*
X135351939Y-145215000D01*
X135148061Y-145215000D01*
X134948102Y-145254774D01*
X134759744Y-145332795D01*
X134590226Y-145446063D01*
X134446063Y-145590226D01*
X134332795Y-145759744D01*
X134254774Y-145948102D01*
X134215000Y-146148061D01*
X131785000Y-146148061D01*
X131745226Y-145948102D01*
X131667205Y-145759744D01*
X131553937Y-145590226D01*
X131409774Y-145446063D01*
X131240256Y-145332795D01*
X131051898Y-145254774D01*
X130851939Y-145215000D01*
X130648061Y-145215000D01*
X130448102Y-145254774D01*
X130259744Y-145332795D01*
X130090226Y-145446063D01*
X129946063Y-145590226D01*
X129832795Y-145759744D01*
X129754774Y-145948102D01*
X129715000Y-146148061D01*
X119326686Y-146148061D01*
X119264524Y-145835554D01*
X119028201Y-145265021D01*
X118685114Y-144751554D01*
X118248446Y-144314886D01*
X117734979Y-143971799D01*
X117164446Y-143735476D01*
X116558771Y-143615000D01*
X116511580Y-143615000D01*
X116726912Y-143572168D01*
X117024463Y-143448918D01*
X117292252Y-143269987D01*
X117519987Y-143042252D01*
X117698918Y-142774463D01*
X117822168Y-142476912D01*
X117885000Y-142161033D01*
X117885000Y-141838967D01*
X117847027Y-141648061D01*
X134215000Y-141648061D01*
X134215000Y-141851939D01*
X134254774Y-142051898D01*
X134332795Y-142240256D01*
X134446063Y-142409774D01*
X134590226Y-142553937D01*
X134759744Y-142667205D01*
X134948102Y-142745226D01*
X135148061Y-142785000D01*
X135351939Y-142785000D01*
X135551898Y-142745226D01*
X135740256Y-142667205D01*
X135909774Y-142553937D01*
X136053937Y-142409774D01*
X136167205Y-142240256D01*
X136245226Y-142051898D01*
X136285000Y-141851939D01*
X136285000Y-141648061D01*
X137215000Y-141648061D01*
X137215000Y-141851939D01*
X137254774Y-142051898D01*
X137332795Y-142240256D01*
X137446063Y-142409774D01*
X137590226Y-142553937D01*
X137759744Y-142667205D01*
X137948102Y-142745226D01*
X138148061Y-142785000D01*
X138351939Y-142785000D01*
X138551898Y-142745226D01*
X138740256Y-142667205D01*
X138909774Y-142553937D01*
X139053937Y-142409774D01*
X139167205Y-142240256D01*
X139245226Y-142051898D01*
X139285000Y-141851939D01*
X139285000Y-141648061D01*
X139245226Y-141448102D01*
X139167205Y-141259744D01*
X139053937Y-141090226D01*
X138992828Y-141029117D01*
X146965000Y-141029117D01*
X146965000Y-141370883D01*
X147031675Y-141706081D01*
X147162463Y-142021831D01*
X147352337Y-142305998D01*
X147594002Y-142547663D01*
X147878169Y-142737537D01*
X148193919Y-142868325D01*
X148529117Y-142935000D01*
X148870883Y-142935000D01*
X149206081Y-142868325D01*
X149521831Y-142737537D01*
X149805998Y-142547663D01*
X150047663Y-142305998D01*
X150237537Y-142021831D01*
X150368325Y-141706081D01*
X150435000Y-141370883D01*
X150435000Y-141029117D01*
X150368325Y-140693919D01*
X150237537Y-140378169D01*
X150047663Y-140094002D01*
X149965978Y-140012317D01*
X150051898Y-139995226D01*
X150240256Y-139917205D01*
X150409774Y-139803937D01*
X150553937Y-139659774D01*
X150667205Y-139490256D01*
X150745226Y-139301898D01*
X150785000Y-139101939D01*
X150785000Y-138898061D01*
X150745226Y-138698102D01*
X150667205Y-138509744D01*
X150553937Y-138340226D01*
X150409774Y-138196063D01*
X150240256Y-138082795D01*
X150051898Y-138004774D01*
X149851939Y-137965000D01*
X149648061Y-137965000D01*
X149448102Y-138004774D01*
X149259744Y-138082795D01*
X149090226Y-138196063D01*
X148946063Y-138340226D01*
X148832795Y-138509744D01*
X148754774Y-138698102D01*
X148715000Y-138898061D01*
X148715000Y-139101939D01*
X148754774Y-139301898D01*
X148822334Y-139465000D01*
X148529117Y-139465000D01*
X148193919Y-139531675D01*
X147878169Y-139662463D01*
X147594002Y-139852337D01*
X147352337Y-140094002D01*
X147162463Y-140378169D01*
X147031675Y-140693919D01*
X146965000Y-141029117D01*
X138992828Y-141029117D01*
X138909774Y-140946063D01*
X138740256Y-140832795D01*
X138551898Y-140754774D01*
X138351939Y-140715000D01*
X138148061Y-140715000D01*
X137948102Y-140754774D01*
X137759744Y-140832795D01*
X137590226Y-140946063D01*
X137446063Y-141090226D01*
X137332795Y-141259744D01*
X137254774Y-141448102D01*
X137215000Y-141648061D01*
X136285000Y-141648061D01*
X136245226Y-141448102D01*
X136167205Y-141259744D01*
X136053937Y-141090226D01*
X135909774Y-140946063D01*
X135740256Y-140832795D01*
X135551898Y-140754774D01*
X135351939Y-140715000D01*
X135148061Y-140715000D01*
X134948102Y-140754774D01*
X134759744Y-140832795D01*
X134590226Y-140946063D01*
X134446063Y-141090226D01*
X134332795Y-141259744D01*
X134254774Y-141448102D01*
X134215000Y-141648061D01*
X117847027Y-141648061D01*
X117822168Y-141523088D01*
X117698918Y-141225537D01*
X117519987Y-140957748D01*
X117292252Y-140730013D01*
X117024463Y-140551082D01*
X116726912Y-140427832D01*
X116411033Y-140365000D01*
X116088967Y-140365000D01*
X115773088Y-140427832D01*
X115475537Y-140551082D01*
X115207748Y-140730013D01*
X114980013Y-140957748D01*
X114801082Y-141225537D01*
X114677832Y-141523088D01*
X114615000Y-141838967D01*
X114615000Y-142161033D01*
X114677832Y-142476912D01*
X114801082Y-142774463D01*
X114980013Y-143042252D01*
X115207748Y-143269987D01*
X115475537Y-143448918D01*
X115773088Y-143572168D01*
X115988420Y-143615000D01*
X115941229Y-143615000D01*
X115335554Y-143735476D01*
X114765021Y-143971799D01*
X114251554Y-144314886D01*
X113814886Y-144751554D01*
X113685000Y-144945943D01*
X113685000Y-136352603D01*
X113739463Y-136454494D01*
X113818815Y-136551185D01*
X113915506Y-136630537D01*
X114025820Y-136689502D01*
X114145518Y-136725812D01*
X114270000Y-136738072D01*
X114834250Y-136735000D01*
X114993000Y-136576250D01*
X114993000Y-135377000D01*
X114973000Y-135377000D01*
X114973000Y-135123000D01*
X114993000Y-135123000D01*
X114993000Y-133923750D01*
X115247000Y-133923750D01*
X115247000Y-135123000D01*
X115267000Y-135123000D01*
X115267000Y-135377000D01*
X115247000Y-135377000D01*
X115247000Y-136576250D01*
X115405750Y-136735000D01*
X115970000Y-136738072D01*
X116094482Y-136725812D01*
X116214180Y-136689502D01*
X116324494Y-136630537D01*
X116421185Y-136551185D01*
X116500537Y-136454494D01*
X116559502Y-136344180D01*
X116580393Y-136275313D01*
X116604866Y-136305134D01*
X116830986Y-136490706D01*
X117088966Y-136628599D01*
X117368889Y-136713513D01*
X117587050Y-136735000D01*
X117732950Y-136735000D01*
X117951111Y-136713513D01*
X118231034Y-136628599D01*
X118489014Y-136490706D01*
X118715134Y-136305134D01*
X118900706Y-136079014D01*
X118930000Y-136024209D01*
X118959294Y-136079014D01*
X119144866Y-136305134D01*
X119370986Y-136490706D01*
X119628966Y-136628599D01*
X119908889Y-136713513D01*
X120127050Y-136735000D01*
X120272950Y-136735000D01*
X120491111Y-136713513D01*
X120771034Y-136628599D01*
X121029014Y-136490706D01*
X121255134Y-136305134D01*
X121440706Y-136079014D01*
X121470000Y-136024209D01*
X121499294Y-136079014D01*
X121684866Y-136305134D01*
X121910986Y-136490706D01*
X122168966Y-136628599D01*
X122448889Y-136713513D01*
X122667050Y-136735000D01*
X122812950Y-136735000D01*
X123031111Y-136713513D01*
X123311034Y-136628599D01*
X123569014Y-136490706D01*
X123795134Y-136305134D01*
X123980706Y-136079014D01*
X124118599Y-135821034D01*
X124203513Y-135541111D01*
X124232185Y-135250000D01*
X125347815Y-135250000D01*
X125376487Y-135541111D01*
X125461401Y-135821034D01*
X125599294Y-136079014D01*
X125784866Y-136305134D01*
X126010986Y-136490706D01*
X126268966Y-136628599D01*
X126548889Y-136713513D01*
X126767050Y-136735000D01*
X126912950Y-136735000D01*
X127131111Y-136713513D01*
X127411034Y-136628599D01*
X127669014Y-136490706D01*
X127895134Y-136305134D01*
X128080706Y-136079014D01*
X128110000Y-136024209D01*
X128139294Y-136079014D01*
X128324866Y-136305134D01*
X128550986Y-136490706D01*
X128808966Y-136628599D01*
X129088889Y-136713513D01*
X129307050Y-136735000D01*
X129452950Y-136735000D01*
X129671111Y-136713513D01*
X129951034Y-136628599D01*
X130209014Y-136490706D01*
X130435134Y-136305134D01*
X130620706Y-136079014D01*
X130650000Y-136024209D01*
X130679294Y-136079014D01*
X130864866Y-136305134D01*
X131090986Y-136490706D01*
X131348966Y-136628599D01*
X131628889Y-136713513D01*
X131847050Y-136735000D01*
X131992950Y-136735000D01*
X132211111Y-136713513D01*
X132491034Y-136628599D01*
X132749014Y-136490706D01*
X132975134Y-136305134D01*
X133160706Y-136079014D01*
X133195201Y-136014477D01*
X133264822Y-136131355D01*
X133459731Y-136347588D01*
X133693080Y-136521641D01*
X133955901Y-136646825D01*
X134103110Y-136691476D01*
X134333000Y-136570155D01*
X134333000Y-135377000D01*
X134313000Y-135377000D01*
X134313000Y-135123000D01*
X134333000Y-135123000D01*
X134333000Y-133929845D01*
X134587000Y-133929845D01*
X134587000Y-135123000D01*
X134607000Y-135123000D01*
X134607000Y-135377000D01*
X134587000Y-135377000D01*
X134587000Y-136570155D01*
X134816890Y-136691476D01*
X134964099Y-136646825D01*
X135226920Y-136521641D01*
X135460269Y-136347588D01*
X135536034Y-136263534D01*
X135560498Y-136344180D01*
X135619463Y-136454494D01*
X135698815Y-136551185D01*
X135795506Y-136630537D01*
X135905820Y-136689502D01*
X136025518Y-136725812D01*
X136150000Y-136738072D01*
X137850000Y-136738072D01*
X137974482Y-136725812D01*
X138094180Y-136689502D01*
X138204494Y-136630537D01*
X138301185Y-136551185D01*
X138380537Y-136454494D01*
X138439502Y-136344180D01*
X138475812Y-136224482D01*
X138488072Y-136100000D01*
X138488072Y-135250000D01*
X139467815Y-135250000D01*
X139496487Y-135541111D01*
X139581401Y-135821034D01*
X139719294Y-136079014D01*
X139904866Y-136305134D01*
X140130986Y-136490706D01*
X140388966Y-136628599D01*
X140668889Y-136713513D01*
X140887050Y-136735000D01*
X141032950Y-136735000D01*
X141251111Y-136713513D01*
X141531034Y-136628599D01*
X141789014Y-136490706D01*
X142015134Y-136305134D01*
X142039607Y-136275313D01*
X142060498Y-136344180D01*
X142119463Y-136454494D01*
X142198815Y-136551185D01*
X142295506Y-136630537D01*
X142405820Y-136689502D01*
X142525518Y-136725812D01*
X142650000Y-136738072D01*
X144350000Y-136738072D01*
X144474482Y-136725812D01*
X144594180Y-136689502D01*
X144704494Y-136630537D01*
X144801185Y-136551185D01*
X144880537Y-136454494D01*
X144939502Y-136344180D01*
X144975812Y-136224482D01*
X144988072Y-136100000D01*
X144988072Y-134400000D01*
X145761928Y-134400000D01*
X145761928Y-136100000D01*
X145774188Y-136224482D01*
X145810498Y-136344180D01*
X145869463Y-136454494D01*
X145948815Y-136551185D01*
X146045506Y-136630537D01*
X146155820Y-136689502D01*
X146275518Y-136725812D01*
X146400000Y-136738072D01*
X148100000Y-136738072D01*
X148224482Y-136725812D01*
X148344180Y-136689502D01*
X148454494Y-136630537D01*
X148551185Y-136551185D01*
X148630537Y-136454494D01*
X148689502Y-136344180D01*
X148710393Y-136275313D01*
X148734866Y-136305134D01*
X148960986Y-136490706D01*
X149218966Y-136628599D01*
X149498889Y-136713513D01*
X149717050Y-136735000D01*
X149862950Y-136735000D01*
X150081111Y-136713513D01*
X150361034Y-136628599D01*
X150619014Y-136490706D01*
X150845134Y-136305134D01*
X151030706Y-136079014D01*
X151168599Y-135821034D01*
X151253513Y-135541111D01*
X151282185Y-135250000D01*
X151253513Y-134958889D01*
X151168599Y-134678966D01*
X151030706Y-134420986D01*
X150845134Y-134194866D01*
X150619014Y-134009294D01*
X150361034Y-133871401D01*
X150081111Y-133786487D01*
X149862950Y-133765000D01*
X149717050Y-133765000D01*
X149498889Y-133786487D01*
X149218966Y-133871401D01*
X148960986Y-134009294D01*
X148734866Y-134194866D01*
X148710393Y-134224687D01*
X148689502Y-134155820D01*
X148630537Y-134045506D01*
X148551185Y-133948815D01*
X148454494Y-133869463D01*
X148344180Y-133810498D01*
X148224482Y-133774188D01*
X148100000Y-133761928D01*
X146400000Y-133761928D01*
X146275518Y-133774188D01*
X146155820Y-133810498D01*
X146045506Y-133869463D01*
X145948815Y-133948815D01*
X145869463Y-134045506D01*
X145810498Y-134155820D01*
X145774188Y-134275518D01*
X145761928Y-134400000D01*
X144988072Y-134400000D01*
X144975812Y-134275518D01*
X144939502Y-134155820D01*
X144880537Y-134045506D01*
X144801185Y-133948815D01*
X144704494Y-133869463D01*
X144594180Y-133810498D01*
X144474482Y-133774188D01*
X144350000Y-133761928D01*
X142650000Y-133761928D01*
X142525518Y-133774188D01*
X142405820Y-133810498D01*
X142295506Y-133869463D01*
X142198815Y-133948815D01*
X142119463Y-134045506D01*
X142060498Y-134155820D01*
X142039607Y-134224687D01*
X142015134Y-134194866D01*
X141789014Y-134009294D01*
X141531034Y-133871401D01*
X141251111Y-133786487D01*
X141032950Y-133765000D01*
X140887050Y-133765000D01*
X140668889Y-133786487D01*
X140388966Y-133871401D01*
X140130986Y-134009294D01*
X139904866Y-134194866D01*
X139719294Y-134420986D01*
X139581401Y-134678966D01*
X139496487Y-134958889D01*
X139467815Y-135250000D01*
X138488072Y-135250000D01*
X138488072Y-134400000D01*
X138475812Y-134275518D01*
X138439502Y-134155820D01*
X138380537Y-134045506D01*
X138301185Y-133948815D01*
X138204494Y-133869463D01*
X138094180Y-133810498D01*
X137974482Y-133774188D01*
X137850000Y-133761928D01*
X136150000Y-133761928D01*
X136025518Y-133774188D01*
X135905820Y-133810498D01*
X135795506Y-133869463D01*
X135698815Y-133948815D01*
X135619463Y-134045506D01*
X135560498Y-134155820D01*
X135536034Y-134236466D01*
X135460269Y-134152412D01*
X135226920Y-133978359D01*
X134964099Y-133853175D01*
X134816890Y-133808524D01*
X134587000Y-133929845D01*
X134333000Y-133929845D01*
X134103110Y-133808524D01*
X133955901Y-133853175D01*
X133693080Y-133978359D01*
X133459731Y-134152412D01*
X133264822Y-134368645D01*
X133195201Y-134485523D01*
X133160706Y-134420986D01*
X132975134Y-134194866D01*
X132749014Y-134009294D01*
X132491034Y-133871401D01*
X132211111Y-133786487D01*
X131992950Y-133765000D01*
X131847050Y-133765000D01*
X131628889Y-133786487D01*
X131348966Y-133871401D01*
X131090986Y-134009294D01*
X130864866Y-134194866D01*
X130679294Y-134420986D01*
X130650000Y-134475791D01*
X130620706Y-134420986D01*
X130435134Y-134194866D01*
X130209014Y-134009294D01*
X129951034Y-133871401D01*
X129671111Y-133786487D01*
X129452950Y-133765000D01*
X129307050Y-133765000D01*
X129088889Y-133786487D01*
X128808966Y-133871401D01*
X128550986Y-134009294D01*
X128324866Y-134194866D01*
X128139294Y-134420986D01*
X128110000Y-134475791D01*
X128080706Y-134420986D01*
X127895134Y-134194866D01*
X127669014Y-134009294D01*
X127411034Y-133871401D01*
X127131111Y-133786487D01*
X126912950Y-133765000D01*
X126767050Y-133765000D01*
X126548889Y-133786487D01*
X126268966Y-133871401D01*
X126010986Y-134009294D01*
X125784866Y-134194866D01*
X125599294Y-134420986D01*
X125461401Y-134678966D01*
X125376487Y-134958889D01*
X125347815Y-135250000D01*
X124232185Y-135250000D01*
X124203513Y-134958889D01*
X124118599Y-134678966D01*
X123980706Y-134420986D01*
X123795134Y-134194866D01*
X123569014Y-134009294D01*
X123311034Y-133871401D01*
X123031111Y-133786487D01*
X122812950Y-133765000D01*
X122667050Y-133765000D01*
X122448889Y-133786487D01*
X122168966Y-133871401D01*
X121910986Y-134009294D01*
X121684866Y-134194866D01*
X121499294Y-134420986D01*
X121470000Y-134475791D01*
X121440706Y-134420986D01*
X121255134Y-134194866D01*
X121029014Y-134009294D01*
X120771034Y-133871401D01*
X120491111Y-133786487D01*
X120272950Y-133765000D01*
X120127050Y-133765000D01*
X119908889Y-133786487D01*
X119628966Y-133871401D01*
X119370986Y-134009294D01*
X119144866Y-134194866D01*
X118959294Y-134420986D01*
X118930000Y-134475791D01*
X118900706Y-134420986D01*
X118715134Y-134194866D01*
X118489014Y-134009294D01*
X118231034Y-133871401D01*
X117951111Y-133786487D01*
X117732950Y-133765000D01*
X117587050Y-133765000D01*
X117368889Y-133786487D01*
X117088966Y-133871401D01*
X116830986Y-134009294D01*
X116604866Y-134194866D01*
X116580393Y-134224687D01*
X116559502Y-134155820D01*
X116500537Y-134045506D01*
X116421185Y-133948815D01*
X116324494Y-133869463D01*
X116214180Y-133810498D01*
X116094482Y-133774188D01*
X115970000Y-133761928D01*
X115405750Y-133765000D01*
X115247000Y-133923750D01*
X114993000Y-133923750D01*
X114834250Y-133765000D01*
X114270000Y-133761928D01*
X114145518Y-133774188D01*
X114025820Y-133810498D01*
X113915506Y-133869463D01*
X113818815Y-133948815D01*
X113739463Y-134045506D01*
X113685000Y-134147397D01*
X113685000Y-120948354D01*
X113775518Y-120975812D01*
X113900000Y-120988072D01*
X114464250Y-120985000D01*
X114623000Y-120826250D01*
X114623000Y-119627000D01*
X114877000Y-119627000D01*
X114877000Y-120826250D01*
X115035750Y-120985000D01*
X115600000Y-120988072D01*
X115724482Y-120975812D01*
X115844180Y-120939502D01*
X115954494Y-120880537D01*
X116051185Y-120801185D01*
X116130537Y-120704494D01*
X116189502Y-120594180D01*
X116225812Y-120474482D01*
X116238072Y-120350000D01*
X116235000Y-119785750D01*
X116076250Y-119627000D01*
X114877000Y-119627000D01*
X114623000Y-119627000D01*
X114603000Y-119627000D01*
X114603000Y-119373000D01*
X114623000Y-119373000D01*
X114623000Y-119353000D01*
X114877000Y-119353000D01*
X114877000Y-119373000D01*
X116076250Y-119373000D01*
X116235000Y-119214250D01*
X116238072Y-118650000D01*
X116225812Y-118525518D01*
X116189502Y-118405820D01*
X116130537Y-118295506D01*
X116051185Y-118198815D01*
X115954494Y-118119463D01*
X115844180Y-118060498D01*
X115775313Y-118039607D01*
X115805134Y-118015134D01*
X115990706Y-117789014D01*
X116128599Y-117531034D01*
X116213513Y-117251111D01*
X116242185Y-116960000D01*
X116213513Y-116668889D01*
X116128599Y-116388966D01*
X115990706Y-116130986D01*
X115805134Y-115904866D01*
X115579014Y-115719294D01*
X115524209Y-115690000D01*
X115579014Y-115660706D01*
X115805134Y-115475134D01*
X115990706Y-115249014D01*
X116128599Y-114991034D01*
X116213513Y-114711111D01*
X116242185Y-114420000D01*
X116213513Y-114128889D01*
X116128599Y-113848966D01*
X115990706Y-113590986D01*
X115805134Y-113364866D01*
X115579014Y-113179294D01*
X115321034Y-113041401D01*
X115041111Y-112956487D01*
X114822950Y-112935000D01*
X114677050Y-112935000D01*
X114458889Y-112956487D01*
X114178966Y-113041401D01*
X113920986Y-113179294D01*
X113694866Y-113364866D01*
X113685000Y-113376888D01*
X113685000Y-111820000D01*
X116288057Y-111820000D01*
X116315764Y-112101309D01*
X116397818Y-112371808D01*
X116531068Y-112621101D01*
X116710392Y-112839608D01*
X116928899Y-113018932D01*
X117061858Y-113090000D01*
X116928899Y-113161068D01*
X116710392Y-113340392D01*
X116531068Y-113558899D01*
X116397818Y-113808192D01*
X116315764Y-114078691D01*
X116288057Y-114360000D01*
X116315764Y-114641309D01*
X116397818Y-114911808D01*
X116531068Y-115161101D01*
X116710392Y-115379608D01*
X116928899Y-115558932D01*
X117061858Y-115630000D01*
X116928899Y-115701068D01*
X116710392Y-115880392D01*
X116531068Y-116098899D01*
X116397818Y-116348192D01*
X116315764Y-116618691D01*
X116288057Y-116900000D01*
X116315764Y-117181309D01*
X116397818Y-117451808D01*
X116531068Y-117701101D01*
X116710392Y-117919608D01*
X116928899Y-118098932D01*
X117061858Y-118170000D01*
X116928899Y-118241068D01*
X116710392Y-118420392D01*
X116531068Y-118638899D01*
X116397818Y-118888192D01*
X116315764Y-119158691D01*
X116288057Y-119440000D01*
X116315764Y-119721309D01*
X116397818Y-119991808D01*
X116531068Y-120241101D01*
X116710392Y-120459608D01*
X116928899Y-120638932D01*
X117061858Y-120710000D01*
X116928899Y-120781068D01*
X116710392Y-120960392D01*
X116531068Y-121178899D01*
X116397818Y-121428192D01*
X116315764Y-121698691D01*
X116288057Y-121980000D01*
X116315764Y-122261309D01*
X116397818Y-122531808D01*
X116531068Y-122781101D01*
X116710392Y-122999608D01*
X116928899Y-123178932D01*
X117061858Y-123250000D01*
X116928899Y-123321068D01*
X116710392Y-123500392D01*
X116531068Y-123718899D01*
X116397818Y-123968192D01*
X116315764Y-124238691D01*
X116288057Y-124520000D01*
X116315764Y-124801309D01*
X116397818Y-125071808D01*
X116531068Y-125321101D01*
X116710392Y-125539608D01*
X116928899Y-125718932D01*
X117061858Y-125790000D01*
X116928899Y-125861068D01*
X116710392Y-126040392D01*
X116531068Y-126258899D01*
X116397818Y-126508192D01*
X116315764Y-126778691D01*
X116288057Y-127060000D01*
X116315764Y-127341309D01*
X116397818Y-127611808D01*
X116531068Y-127861101D01*
X116710392Y-128079608D01*
X116928899Y-128258932D01*
X117061858Y-128330000D01*
X116928899Y-128401068D01*
X116710392Y-128580392D01*
X116531068Y-128798899D01*
X116397818Y-129048192D01*
X116315764Y-129318691D01*
X116288057Y-129600000D01*
X116315764Y-129881309D01*
X116397818Y-130151808D01*
X116531068Y-130401101D01*
X116710392Y-130619608D01*
X116928899Y-130798932D01*
X117178192Y-130932182D01*
X117448691Y-131014236D01*
X117659508Y-131035000D01*
X117800492Y-131035000D01*
X118011309Y-131014236D01*
X118281808Y-130932182D01*
X118531101Y-130798932D01*
X118749608Y-130619608D01*
X118928932Y-130401101D01*
X119062182Y-130151808D01*
X119144236Y-129881309D01*
X119171943Y-129600000D01*
X119144236Y-129318691D01*
X119062182Y-129048192D01*
X118928932Y-128798899D01*
X118749608Y-128580392D01*
X118531101Y-128401068D01*
X118398142Y-128330000D01*
X118531101Y-128258932D01*
X118749608Y-128079608D01*
X118928932Y-127861101D01*
X119062182Y-127611808D01*
X119144236Y-127341309D01*
X119171943Y-127060000D01*
X119144236Y-126778691D01*
X119062182Y-126508192D01*
X118928932Y-126258899D01*
X118749608Y-126040392D01*
X118531101Y-125861068D01*
X118398142Y-125790000D01*
X118531101Y-125718932D01*
X118749608Y-125539608D01*
X118928932Y-125321101D01*
X119062182Y-125071808D01*
X119144236Y-124801309D01*
X119171943Y-124520000D01*
X119144236Y-124238691D01*
X119062182Y-123968192D01*
X118928932Y-123718899D01*
X118749608Y-123500392D01*
X118531101Y-123321068D01*
X118398142Y-123250000D01*
X118531101Y-123178932D01*
X118645908Y-123084712D01*
X118696063Y-123159774D01*
X118840226Y-123303937D01*
X119009744Y-123417205D01*
X119198102Y-123495226D01*
X119398061Y-123535000D01*
X119601939Y-123535000D01*
X119801898Y-123495226D01*
X119990256Y-123417205D01*
X120159774Y-123303937D01*
X120303937Y-123159774D01*
X120417205Y-122990256D01*
X120495226Y-122801898D01*
X120535000Y-122601939D01*
X120535000Y-122398061D01*
X120495226Y-122198102D01*
X120417205Y-122009744D01*
X120303937Y-121840226D01*
X120159774Y-121696063D01*
X119990256Y-121582795D01*
X119801898Y-121504774D01*
X119601939Y-121465000D01*
X119398061Y-121465000D01*
X119198102Y-121504774D01*
X119097991Y-121546241D01*
X119062182Y-121428192D01*
X118928932Y-121178899D01*
X118749608Y-120960392D01*
X118531101Y-120781068D01*
X118398142Y-120710000D01*
X118531101Y-120638932D01*
X118749608Y-120459608D01*
X118928932Y-120241101D01*
X119062182Y-119991808D01*
X119144236Y-119721309D01*
X119171943Y-119440000D01*
X119144236Y-119158691D01*
X119062182Y-118888192D01*
X118928932Y-118638899D01*
X118749608Y-118420392D01*
X118531101Y-118241068D01*
X118398142Y-118170000D01*
X118531101Y-118098932D01*
X118749608Y-117919608D01*
X118928932Y-117701101D01*
X119062182Y-117451808D01*
X119144236Y-117181309D01*
X119171943Y-116900000D01*
X123908057Y-116900000D01*
X123935764Y-117181309D01*
X124017818Y-117451808D01*
X124151068Y-117701101D01*
X124330392Y-117919608D01*
X124548899Y-118098932D01*
X124681858Y-118170000D01*
X124548899Y-118241068D01*
X124330392Y-118420392D01*
X124151068Y-118638899D01*
X124017818Y-118888192D01*
X123935764Y-119158691D01*
X123908057Y-119440000D01*
X123935764Y-119721309D01*
X124017818Y-119991808D01*
X124151068Y-120241101D01*
X124330392Y-120459608D01*
X124548899Y-120638932D01*
X124681858Y-120710000D01*
X124548899Y-120781068D01*
X124330392Y-120960392D01*
X124151068Y-121178899D01*
X124017818Y-121428192D01*
X123935764Y-121698691D01*
X123908057Y-121980000D01*
X123935764Y-122261309D01*
X124017818Y-122531808D01*
X124151068Y-122781101D01*
X124330392Y-122999608D01*
X124548899Y-123178932D01*
X124681858Y-123250000D01*
X124548899Y-123321068D01*
X124330392Y-123500392D01*
X124151068Y-123718899D01*
X124017818Y-123968192D01*
X123935764Y-124238691D01*
X123908057Y-124520000D01*
X123935764Y-124801309D01*
X124017818Y-125071808D01*
X124151068Y-125321101D01*
X124330392Y-125539608D01*
X124548899Y-125718932D01*
X124681858Y-125790000D01*
X124548899Y-125861068D01*
X124330392Y-126040392D01*
X124151068Y-126258899D01*
X124017818Y-126508192D01*
X123935764Y-126778691D01*
X123908057Y-127060000D01*
X123935764Y-127341309D01*
X124017818Y-127611808D01*
X124151068Y-127861101D01*
X124330392Y-128079608D01*
X124443482Y-128172419D01*
X124425518Y-128174188D01*
X124305820Y-128210498D01*
X124195506Y-128269463D01*
X124098815Y-128348815D01*
X124019463Y-128445506D01*
X123960498Y-128555820D01*
X123924188Y-128675518D01*
X123911928Y-128800000D01*
X123911928Y-130400000D01*
X123924188Y-130524482D01*
X123960498Y-130644180D01*
X124019463Y-130754494D01*
X124098815Y-130851185D01*
X124195506Y-130930537D01*
X124305820Y-130989502D01*
X124425518Y-131025812D01*
X124550000Y-131038072D01*
X126150000Y-131038072D01*
X126274482Y-131025812D01*
X126394180Y-130989502D01*
X126504494Y-130930537D01*
X126601185Y-130851185D01*
X126680537Y-130754494D01*
X126739502Y-130644180D01*
X126775812Y-130524482D01*
X126788072Y-130400000D01*
X126788072Y-129750000D01*
X129861928Y-129750000D01*
X129861928Y-130750000D01*
X129874188Y-130874482D01*
X129910498Y-130994180D01*
X129969463Y-131104494D01*
X130048815Y-131201185D01*
X130145506Y-131280537D01*
X130255820Y-131339502D01*
X130375518Y-131375812D01*
X130500000Y-131388072D01*
X131500000Y-131388072D01*
X131624482Y-131375812D01*
X131744180Y-131339502D01*
X131854494Y-131280537D01*
X131951185Y-131201185D01*
X132000000Y-131141704D01*
X132048815Y-131201185D01*
X132145506Y-131280537D01*
X132255820Y-131339502D01*
X132375518Y-131375812D01*
X132500000Y-131388072D01*
X133500000Y-131388072D01*
X133624482Y-131375812D01*
X133744180Y-131339502D01*
X133854494Y-131280537D01*
X133951185Y-131201185D01*
X134000000Y-131141704D01*
X134048815Y-131201185D01*
X134145506Y-131280537D01*
X134255820Y-131339502D01*
X134375518Y-131375812D01*
X134500000Y-131388072D01*
X135500000Y-131388072D01*
X135624482Y-131375812D01*
X135744180Y-131339502D01*
X135854494Y-131280537D01*
X135951185Y-131201185D01*
X136030537Y-131104494D01*
X136086391Y-131000000D01*
X136661928Y-131000000D01*
X136661928Y-132600000D01*
X136674188Y-132724482D01*
X136710498Y-132844180D01*
X136769463Y-132954494D01*
X136848815Y-133051185D01*
X136945506Y-133130537D01*
X137055820Y-133189502D01*
X137175518Y-133225812D01*
X137300000Y-133238072D01*
X138900000Y-133238072D01*
X139024482Y-133225812D01*
X139144180Y-133189502D01*
X139254494Y-133130537D01*
X139351185Y-133051185D01*
X139430537Y-132954494D01*
X139489502Y-132844180D01*
X139525812Y-132724482D01*
X139527581Y-132706518D01*
X139620392Y-132819608D01*
X139838899Y-132998932D01*
X140088192Y-133132182D01*
X140358691Y-133214236D01*
X140569508Y-133235000D01*
X140710492Y-133235000D01*
X140921309Y-133214236D01*
X141191808Y-133132182D01*
X141441101Y-132998932D01*
X141659608Y-132819608D01*
X141838932Y-132601101D01*
X141912579Y-132463318D01*
X142027615Y-132655131D01*
X142216586Y-132863519D01*
X142442580Y-133031037D01*
X142696913Y-133151246D01*
X142830961Y-133191904D01*
X143053000Y-133069915D01*
X143053000Y-131927000D01*
X143033000Y-131927000D01*
X143033000Y-131673000D01*
X143053000Y-131673000D01*
X143053000Y-130530085D01*
X142830961Y-130408096D01*
X142696913Y-130448754D01*
X142442580Y-130568963D01*
X142216586Y-130736481D01*
X142027615Y-130944869D01*
X141912579Y-131136682D01*
X141838932Y-130998899D01*
X141659608Y-130780392D01*
X141441101Y-130601068D01*
X141191808Y-130467818D01*
X140921309Y-130385764D01*
X140710492Y-130365000D01*
X140569508Y-130365000D01*
X140358691Y-130385764D01*
X140088192Y-130467818D01*
X139838899Y-130601068D01*
X139620392Y-130780392D01*
X139527581Y-130893482D01*
X139525812Y-130875518D01*
X139489502Y-130755820D01*
X139430537Y-130645506D01*
X139351185Y-130548815D01*
X139254494Y-130469463D01*
X139144180Y-130410498D01*
X139024482Y-130374188D01*
X138900000Y-130361928D01*
X137300000Y-130361928D01*
X137175518Y-130374188D01*
X137055820Y-130410498D01*
X136945506Y-130469463D01*
X136848815Y-130548815D01*
X136769463Y-130645506D01*
X136710498Y-130755820D01*
X136674188Y-130875518D01*
X136661928Y-131000000D01*
X136086391Y-131000000D01*
X136089502Y-130994180D01*
X136125812Y-130874482D01*
X136138072Y-130750000D01*
X136138072Y-129750000D01*
X136125812Y-129625518D01*
X136089502Y-129505820D01*
X136030537Y-129395506D01*
X135951185Y-129298815D01*
X135854494Y-129219463D01*
X135744180Y-129160498D01*
X135624482Y-129124188D01*
X135500000Y-129111928D01*
X134500000Y-129111928D01*
X134375518Y-129124188D01*
X134255820Y-129160498D01*
X134145506Y-129219463D01*
X134048815Y-129298815D01*
X134000000Y-129358296D01*
X133951185Y-129298815D01*
X133854494Y-129219463D01*
X133744180Y-129160498D01*
X133624482Y-129124188D01*
X133500000Y-129111928D01*
X132500000Y-129111928D01*
X132375518Y-129124188D01*
X132255820Y-129160498D01*
X132145506Y-129219463D01*
X132048815Y-129298815D01*
X132000000Y-129358296D01*
X131951185Y-129298815D01*
X131854494Y-129219463D01*
X131744180Y-129160498D01*
X131624482Y-129124188D01*
X131500000Y-129111928D01*
X130500000Y-129111928D01*
X130375518Y-129124188D01*
X130255820Y-129160498D01*
X130145506Y-129219463D01*
X130048815Y-129298815D01*
X129969463Y-129395506D01*
X129910498Y-129505820D01*
X129874188Y-129625518D01*
X129861928Y-129750000D01*
X126788072Y-129750000D01*
X126788072Y-128800000D01*
X126775812Y-128675518D01*
X126739502Y-128555820D01*
X126680537Y-128445506D01*
X126601185Y-128348815D01*
X126504494Y-128269463D01*
X126394180Y-128210498D01*
X126274482Y-128174188D01*
X126256518Y-128172419D01*
X126369608Y-128079608D01*
X126548932Y-127861101D01*
X126682182Y-127611808D01*
X126764236Y-127341309D01*
X126791943Y-127060000D01*
X126764236Y-126778691D01*
X126682182Y-126508192D01*
X126548932Y-126258899D01*
X126369608Y-126040392D01*
X126151101Y-125861068D01*
X126018142Y-125790000D01*
X126151101Y-125718932D01*
X126369608Y-125539608D01*
X126548932Y-125321101D01*
X126682182Y-125071808D01*
X126764236Y-124801309D01*
X126791943Y-124520000D01*
X126764236Y-124238691D01*
X126682182Y-123968192D01*
X126613110Y-123838967D01*
X132115000Y-123838967D01*
X132115000Y-124161033D01*
X132177832Y-124476912D01*
X132301082Y-124774463D01*
X132480013Y-125042252D01*
X132707748Y-125269987D01*
X132975537Y-125448918D01*
X133273088Y-125572168D01*
X133588967Y-125635000D01*
X133911033Y-125635000D01*
X134226912Y-125572168D01*
X134524463Y-125448918D01*
X134792252Y-125269987D01*
X135019987Y-125042252D01*
X135198918Y-124774463D01*
X135322168Y-124476912D01*
X135385000Y-124161033D01*
X135385000Y-123838967D01*
X135322168Y-123523088D01*
X135198918Y-123225537D01*
X135019987Y-122957748D01*
X134792252Y-122730013D01*
X134524463Y-122551082D01*
X134226912Y-122427832D01*
X133911033Y-122365000D01*
X133588967Y-122365000D01*
X133273088Y-122427832D01*
X132975537Y-122551082D01*
X132707748Y-122730013D01*
X132480013Y-122957748D01*
X132301082Y-123225537D01*
X132177832Y-123523088D01*
X132115000Y-123838967D01*
X126613110Y-123838967D01*
X126548932Y-123718899D01*
X126369608Y-123500392D01*
X126151101Y-123321068D01*
X126018142Y-123250000D01*
X126151101Y-123178932D01*
X126369608Y-122999608D01*
X126548932Y-122781101D01*
X126682182Y-122531808D01*
X126764236Y-122261309D01*
X126791943Y-121980000D01*
X126764236Y-121698691D01*
X126682182Y-121428192D01*
X126548932Y-121178899D01*
X126369608Y-120960392D01*
X126151101Y-120781068D01*
X126018142Y-120710000D01*
X126151101Y-120638932D01*
X126369608Y-120459608D01*
X126548932Y-120241101D01*
X126682182Y-119991808D01*
X126764236Y-119721309D01*
X126791943Y-119440000D01*
X126788004Y-119400000D01*
X127167815Y-119400000D01*
X127196487Y-119691111D01*
X127281401Y-119971034D01*
X127419294Y-120229014D01*
X127604866Y-120455134D01*
X127830986Y-120640706D01*
X128088966Y-120778599D01*
X128368889Y-120863513D01*
X128587050Y-120885000D01*
X128732950Y-120885000D01*
X128951111Y-120863513D01*
X129231034Y-120778599D01*
X129489014Y-120640706D01*
X129715134Y-120455134D01*
X129739607Y-120425313D01*
X129760498Y-120494180D01*
X129819463Y-120604494D01*
X129898815Y-120701185D01*
X129995506Y-120780537D01*
X130105820Y-120839502D01*
X130225518Y-120875812D01*
X130350000Y-120888072D01*
X132050000Y-120888072D01*
X132174482Y-120875812D01*
X132294180Y-120839502D01*
X132404494Y-120780537D01*
X132501185Y-120701185D01*
X132580537Y-120604494D01*
X132639502Y-120494180D01*
X132675812Y-120374482D01*
X132678223Y-120350000D01*
X135681928Y-120350000D01*
X135694188Y-120474482D01*
X135730498Y-120594180D01*
X135789463Y-120704494D01*
X135868815Y-120801185D01*
X135965506Y-120880537D01*
X136075820Y-120939502D01*
X136195518Y-120975812D01*
X136320000Y-120988072D01*
X136884250Y-120985000D01*
X137043000Y-120826250D01*
X137043000Y-119627000D01*
X135843750Y-119627000D01*
X135685000Y-119785750D01*
X135681928Y-120350000D01*
X132678223Y-120350000D01*
X132688072Y-120250000D01*
X132688072Y-118650000D01*
X135681928Y-118650000D01*
X135685000Y-119214250D01*
X135843750Y-119373000D01*
X137043000Y-119373000D01*
X137043000Y-118173750D01*
X137297000Y-118173750D01*
X137297000Y-119373000D01*
X137317000Y-119373000D01*
X137317000Y-119627000D01*
X137297000Y-119627000D01*
X137297000Y-120826250D01*
X137455750Y-120985000D01*
X138020000Y-120988072D01*
X138144482Y-120975812D01*
X138264180Y-120939502D01*
X138374494Y-120880537D01*
X138471185Y-120801185D01*
X138550537Y-120704494D01*
X138609502Y-120594180D01*
X138630393Y-120525313D01*
X138654866Y-120555134D01*
X138880986Y-120740706D01*
X139138966Y-120878599D01*
X139418889Y-120963513D01*
X139637050Y-120985000D01*
X139782950Y-120985000D01*
X140001111Y-120963513D01*
X140281034Y-120878599D01*
X140539014Y-120740706D01*
X140765134Y-120555134D01*
X140950706Y-120329014D01*
X140980000Y-120274209D01*
X141009294Y-120329014D01*
X141194866Y-120555134D01*
X141420986Y-120740706D01*
X141678966Y-120878599D01*
X141958889Y-120963513D01*
X142177050Y-120985000D01*
X142322950Y-120985000D01*
X142541111Y-120963513D01*
X142821034Y-120878599D01*
X143079014Y-120740706D01*
X143305134Y-120555134D01*
X143490706Y-120329014D01*
X143628599Y-120071034D01*
X143713513Y-119791111D01*
X143742185Y-119500000D01*
X143713513Y-119208889D01*
X143628599Y-118928966D01*
X143490706Y-118670986D01*
X143305134Y-118444866D01*
X143079014Y-118259294D01*
X142821034Y-118121401D01*
X142541111Y-118036487D01*
X142322950Y-118015000D01*
X142177050Y-118015000D01*
X141958889Y-118036487D01*
X141678966Y-118121401D01*
X141420986Y-118259294D01*
X141194866Y-118444866D01*
X141009294Y-118670986D01*
X140980000Y-118725791D01*
X140950706Y-118670986D01*
X140765134Y-118444866D01*
X140539014Y-118259294D01*
X140281034Y-118121401D01*
X140001111Y-118036487D01*
X139782950Y-118015000D01*
X139637050Y-118015000D01*
X139418889Y-118036487D01*
X139138966Y-118121401D01*
X138880986Y-118259294D01*
X138654866Y-118444866D01*
X138630393Y-118474687D01*
X138609502Y-118405820D01*
X138550537Y-118295506D01*
X138471185Y-118198815D01*
X138374494Y-118119463D01*
X138264180Y-118060498D01*
X138144482Y-118024188D01*
X138020000Y-118011928D01*
X137455750Y-118015000D01*
X137297000Y-118173750D01*
X137043000Y-118173750D01*
X136884250Y-118015000D01*
X136320000Y-118011928D01*
X136195518Y-118024188D01*
X136075820Y-118060498D01*
X135965506Y-118119463D01*
X135868815Y-118198815D01*
X135789463Y-118295506D01*
X135730498Y-118405820D01*
X135694188Y-118525518D01*
X135681928Y-118650000D01*
X132688072Y-118650000D01*
X132688072Y-118550000D01*
X132675812Y-118425518D01*
X132639502Y-118305820D01*
X132580537Y-118195506D01*
X132501185Y-118098815D01*
X132404494Y-118019463D01*
X132294180Y-117960498D01*
X132174482Y-117924188D01*
X132050000Y-117911928D01*
X130350000Y-117911928D01*
X130225518Y-117924188D01*
X130105820Y-117960498D01*
X129995506Y-118019463D01*
X129898815Y-118098815D01*
X129819463Y-118195506D01*
X129760498Y-118305820D01*
X129739607Y-118374687D01*
X129715134Y-118344866D01*
X129489014Y-118159294D01*
X129231034Y-118021401D01*
X128951111Y-117936487D01*
X128732950Y-117915000D01*
X128587050Y-117915000D01*
X128368889Y-117936487D01*
X128088966Y-118021401D01*
X127830986Y-118159294D01*
X127604866Y-118344866D01*
X127419294Y-118570986D01*
X127281401Y-118828966D01*
X127196487Y-119108889D01*
X127167815Y-119400000D01*
X126788004Y-119400000D01*
X126764236Y-119158691D01*
X126682182Y-118888192D01*
X126548932Y-118638899D01*
X126369608Y-118420392D01*
X126151101Y-118241068D01*
X126018142Y-118170000D01*
X126151101Y-118098932D01*
X126369608Y-117919608D01*
X126548932Y-117701101D01*
X126682182Y-117451808D01*
X126764236Y-117181309D01*
X126791943Y-116900000D01*
X126764236Y-116618691D01*
X126682182Y-116348192D01*
X126548932Y-116098899D01*
X126369608Y-115880392D01*
X126151101Y-115701068D01*
X126013318Y-115627421D01*
X126205131Y-115512385D01*
X126413519Y-115323414D01*
X126581037Y-115097420D01*
X126701246Y-114843087D01*
X126741904Y-114709039D01*
X126619915Y-114487000D01*
X125477000Y-114487000D01*
X125477000Y-114507000D01*
X125223000Y-114507000D01*
X125223000Y-114487000D01*
X124080085Y-114487000D01*
X123958096Y-114709039D01*
X123998754Y-114843087D01*
X124118963Y-115097420D01*
X124286481Y-115323414D01*
X124494869Y-115512385D01*
X124686682Y-115627421D01*
X124548899Y-115701068D01*
X124330392Y-115880392D01*
X124151068Y-116098899D01*
X124017818Y-116348192D01*
X123935764Y-116618691D01*
X123908057Y-116900000D01*
X119171943Y-116900000D01*
X119144236Y-116618691D01*
X119062182Y-116348192D01*
X118928932Y-116098899D01*
X118749608Y-115880392D01*
X118531101Y-115701068D01*
X118398142Y-115630000D01*
X118531101Y-115558932D01*
X118749608Y-115379608D01*
X118928932Y-115161101D01*
X119062182Y-114911808D01*
X119144236Y-114641309D01*
X119171943Y-114360000D01*
X119144236Y-114078691D01*
X119062182Y-113808192D01*
X118928932Y-113558899D01*
X118749608Y-113340392D01*
X118531101Y-113161068D01*
X118398142Y-113090000D01*
X118531101Y-113018932D01*
X118749608Y-112839608D01*
X118928932Y-112621101D01*
X119062182Y-112371808D01*
X119144236Y-112101309D01*
X119171943Y-111820000D01*
X119144236Y-111538691D01*
X119062182Y-111268192D01*
X118928932Y-111018899D01*
X118749608Y-110800392D01*
X118531101Y-110621068D01*
X118393318Y-110547421D01*
X118585131Y-110432385D01*
X118793519Y-110243414D01*
X118961037Y-110017420D01*
X119081246Y-109763087D01*
X119121904Y-109629039D01*
X118999915Y-109407000D01*
X117857000Y-109407000D01*
X117857000Y-109427000D01*
X117603000Y-109427000D01*
X117603000Y-109407000D01*
X116460085Y-109407000D01*
X116338096Y-109629039D01*
X116378754Y-109763087D01*
X116498963Y-110017420D01*
X116666481Y-110243414D01*
X116874869Y-110432385D01*
X117066682Y-110547421D01*
X116928899Y-110621068D01*
X116710392Y-110800392D01*
X116531068Y-111018899D01*
X116397818Y-111268192D01*
X116315764Y-111538691D01*
X116288057Y-111820000D01*
X113685000Y-111820000D01*
X113685000Y-109040019D01*
X113719463Y-109104494D01*
X113798815Y-109201185D01*
X113895506Y-109280537D01*
X114005820Y-109339502D01*
X114125518Y-109375812D01*
X114250000Y-109388072D01*
X114464250Y-109385000D01*
X114623000Y-109226250D01*
X114623000Y-108377000D01*
X114877000Y-108377000D01*
X114877000Y-109226250D01*
X115035750Y-109385000D01*
X115250000Y-109388072D01*
X115374482Y-109375812D01*
X115494180Y-109339502D01*
X115604494Y-109280537D01*
X115701185Y-109201185D01*
X115780537Y-109104494D01*
X115839502Y-108994180D01*
X115875812Y-108874482D01*
X115888072Y-108750000D01*
X115885000Y-108535750D01*
X115726250Y-108377000D01*
X114877000Y-108377000D01*
X114623000Y-108377000D01*
X114603000Y-108377000D01*
X114603000Y-108123000D01*
X114623000Y-108123000D01*
X114623000Y-108103000D01*
X114877000Y-108103000D01*
X114877000Y-108123000D01*
X115726250Y-108123000D01*
X115885000Y-107964250D01*
X115888072Y-107750000D01*
X115875812Y-107625518D01*
X115839502Y-107505820D01*
X115780537Y-107395506D01*
X115701185Y-107298815D01*
X115641704Y-107250000D01*
X115701185Y-107201185D01*
X115780537Y-107104494D01*
X115839502Y-106994180D01*
X115875812Y-106874482D01*
X115888072Y-106750000D01*
X115888072Y-105750000D01*
X115875812Y-105625518D01*
X115839502Y-105505820D01*
X115780537Y-105395506D01*
X115701185Y-105298815D01*
X115641704Y-105250000D01*
X115701185Y-105201185D01*
X115780537Y-105104494D01*
X115839502Y-104994180D01*
X115875812Y-104874482D01*
X115888072Y-104750000D01*
X115888072Y-103750000D01*
X115875812Y-103625518D01*
X115839502Y-103505820D01*
X115780537Y-103395506D01*
X115701185Y-103298815D01*
X115641704Y-103250000D01*
X115701185Y-103201185D01*
X115780537Y-103104494D01*
X115839502Y-102994180D01*
X115875812Y-102874482D01*
X115888072Y-102750000D01*
X115888072Y-101750000D01*
X115875812Y-101625518D01*
X115839502Y-101505820D01*
X115780537Y-101395506D01*
X115763708Y-101375000D01*
X115780537Y-101354494D01*
X115839502Y-101244180D01*
X115875812Y-101124482D01*
X115888072Y-101000000D01*
X115888072Y-100000000D01*
X115875812Y-99875518D01*
X115839502Y-99755820D01*
X115780537Y-99645506D01*
X115701185Y-99548815D01*
X115641704Y-99500000D01*
X115701185Y-99451185D01*
X115780537Y-99354494D01*
X115839502Y-99244180D01*
X115875812Y-99124482D01*
X115888072Y-99000000D01*
X115888072Y-98000000D01*
X115875812Y-97875518D01*
X115839502Y-97755820D01*
X115780537Y-97645506D01*
X115701185Y-97548815D01*
X115641704Y-97500000D01*
X115701185Y-97451185D01*
X115780537Y-97354494D01*
X115839502Y-97244180D01*
X115875812Y-97124482D01*
X115888072Y-97000000D01*
X115888072Y-96580000D01*
X116288057Y-96580000D01*
X116315764Y-96861309D01*
X116397818Y-97131808D01*
X116531068Y-97381101D01*
X116710392Y-97599608D01*
X116928899Y-97778932D01*
X117061858Y-97850000D01*
X116928899Y-97921068D01*
X116710392Y-98100392D01*
X116531068Y-98318899D01*
X116397818Y-98568192D01*
X116315764Y-98838691D01*
X116288057Y-99120000D01*
X116315764Y-99401309D01*
X116397818Y-99671808D01*
X116531068Y-99921101D01*
X116710392Y-100139608D01*
X116928899Y-100318932D01*
X117061858Y-100390000D01*
X116928899Y-100461068D01*
X116710392Y-100640392D01*
X116531068Y-100858899D01*
X116397818Y-101108192D01*
X116315764Y-101378691D01*
X116288057Y-101660000D01*
X116315764Y-101941309D01*
X116397818Y-102211808D01*
X116531068Y-102461101D01*
X116710392Y-102679608D01*
X116928899Y-102858932D01*
X117061858Y-102930000D01*
X116928899Y-103001068D01*
X116710392Y-103180392D01*
X116531068Y-103398899D01*
X116397818Y-103648192D01*
X116315764Y-103918691D01*
X116288057Y-104200000D01*
X116315764Y-104481309D01*
X116397818Y-104751808D01*
X116531068Y-105001101D01*
X116710392Y-105219608D01*
X116928899Y-105398932D01*
X117061858Y-105470000D01*
X116928899Y-105541068D01*
X116710392Y-105720392D01*
X116531068Y-105938899D01*
X116397818Y-106188192D01*
X116315764Y-106458691D01*
X116288057Y-106740000D01*
X116315764Y-107021309D01*
X116397818Y-107291808D01*
X116531068Y-107541101D01*
X116710392Y-107759608D01*
X116928899Y-107938932D01*
X117066682Y-108012579D01*
X116874869Y-108127615D01*
X116666481Y-108316586D01*
X116498963Y-108542580D01*
X116378754Y-108796913D01*
X116338096Y-108930961D01*
X116460085Y-109153000D01*
X117603000Y-109153000D01*
X117603000Y-109133000D01*
X117857000Y-109133000D01*
X117857000Y-109153000D01*
X118999915Y-109153000D01*
X119121904Y-108930961D01*
X119081246Y-108796913D01*
X118961037Y-108542580D01*
X118793519Y-108316586D01*
X118585131Y-108127615D01*
X118393318Y-108012579D01*
X118531101Y-107938932D01*
X118749608Y-107759608D01*
X118928932Y-107541101D01*
X119062182Y-107291808D01*
X119144236Y-107021309D01*
X119171943Y-106740000D01*
X119144236Y-106458691D01*
X119062182Y-106188192D01*
X118928932Y-105938899D01*
X118749608Y-105720392D01*
X118531101Y-105541068D01*
X118398142Y-105470000D01*
X118531101Y-105398932D01*
X118749608Y-105219608D01*
X118928932Y-105001101D01*
X119062182Y-104751808D01*
X119144236Y-104481309D01*
X119171943Y-104200000D01*
X119144236Y-103918691D01*
X119062182Y-103648192D01*
X118928932Y-103398899D01*
X118749608Y-103180392D01*
X118531101Y-103001068D01*
X118398142Y-102930000D01*
X118531101Y-102858932D01*
X118749608Y-102679608D01*
X118928932Y-102461101D01*
X119062182Y-102211808D01*
X119144236Y-101941309D01*
X119171943Y-101660000D01*
X119144236Y-101378691D01*
X119062182Y-101108192D01*
X118928932Y-100858899D01*
X118749608Y-100640392D01*
X118531101Y-100461068D01*
X118398142Y-100390000D01*
X118531101Y-100318932D01*
X118749608Y-100139608D01*
X118928932Y-99921101D01*
X119062182Y-99671808D01*
X119144236Y-99401309D01*
X119171943Y-99120000D01*
X119144236Y-98838691D01*
X119062182Y-98568192D01*
X118928932Y-98318899D01*
X118749608Y-98100392D01*
X118531101Y-97921068D01*
X118398142Y-97850000D01*
X118531101Y-97778932D01*
X118749608Y-97599608D01*
X118928932Y-97381101D01*
X119062182Y-97131808D01*
X119144236Y-96861309D01*
X119171943Y-96580000D01*
X119144236Y-96298691D01*
X119062182Y-96028192D01*
X118928932Y-95778899D01*
X118749608Y-95560392D01*
X118531101Y-95381068D01*
X118323697Y-95270208D01*
X118398061Y-95285000D01*
X118601939Y-95285000D01*
X118801898Y-95245226D01*
X118990256Y-95167205D01*
X119159774Y-95053937D01*
X119303937Y-94909774D01*
X119417205Y-94740256D01*
X119495226Y-94551898D01*
X119535000Y-94351939D01*
X119535000Y-94148061D01*
X119495226Y-93948102D01*
X119417205Y-93759744D01*
X119303937Y-93590226D01*
X119159774Y-93446063D01*
X118990256Y-93332795D01*
X118801898Y-93254774D01*
X118601939Y-93215000D01*
X118398061Y-93215000D01*
X118198102Y-93254774D01*
X118009744Y-93332795D01*
X117840226Y-93446063D01*
X117696063Y-93590226D01*
X117582795Y-93759744D01*
X117504774Y-93948102D01*
X117465000Y-94148061D01*
X117465000Y-94351939D01*
X117504774Y-94551898D01*
X117582795Y-94740256D01*
X117696063Y-94909774D01*
X117840226Y-95053937D01*
X118006944Y-95165334D01*
X117800492Y-95145000D01*
X117659508Y-95145000D01*
X117448691Y-95165764D01*
X117178192Y-95247818D01*
X116928899Y-95381068D01*
X116710392Y-95560392D01*
X116531068Y-95778899D01*
X116397818Y-96028192D01*
X116315764Y-96298691D01*
X116288057Y-96580000D01*
X115888072Y-96580000D01*
X115888072Y-96000000D01*
X115875812Y-95875518D01*
X115839502Y-95755820D01*
X115780537Y-95645506D01*
X115701185Y-95548815D01*
X115604494Y-95469463D01*
X115494180Y-95410498D01*
X115374482Y-95374188D01*
X115250000Y-95361928D01*
X114250000Y-95361928D01*
X114125518Y-95374188D01*
X114005820Y-95410498D01*
X113895506Y-95469463D01*
X113798815Y-95548815D01*
X113719463Y-95645506D01*
X113685000Y-95709981D01*
X113685000Y-91102980D01*
X115659437Y-91102980D01*
X115730429Y-91321094D01*
X115874031Y-91596923D01*
X116068685Y-91839437D01*
X116306911Y-92039316D01*
X116579554Y-92188879D01*
X116876137Y-92282378D01*
X117123000Y-92155570D01*
X117123000Y-90857000D01*
X117377000Y-90857000D01*
X117377000Y-92155570D01*
X117623863Y-92282378D01*
X117920446Y-92188879D01*
X118193089Y-92039316D01*
X118431315Y-91839437D01*
X118625969Y-91596923D01*
X118769571Y-91321094D01*
X118840563Y-91102980D01*
X118720594Y-90857000D01*
X117377000Y-90857000D01*
X117123000Y-90857000D01*
X115779406Y-90857000D01*
X115659437Y-91102980D01*
X113685000Y-91102980D01*
X113685000Y-89627000D01*
X116063518Y-89627000D01*
X115874031Y-89863077D01*
G36*
X120885363Y-61835241D02*
G01*
X120728320Y-62070273D01*
X120620147Y-62331426D01*
X120565000Y-62608665D01*
X120565000Y-62891335D01*
X120620147Y-63168574D01*
X120728320Y-63429727D01*
X120765393Y-63485210D01*
X120748815Y-63498815D01*
X120669463Y-63595506D01*
X120610498Y-63705820D01*
X120574188Y-63825518D01*
X120561928Y-63950000D01*
X120561928Y-65550000D01*
X120574188Y-65674482D01*
X120610498Y-65794180D01*
X120669463Y-65904494D01*
X120748815Y-66001185D01*
X120845506Y-66080537D01*
X120955820Y-66139502D01*
X121075518Y-66175812D01*
X121200000Y-66188072D01*
X122800000Y-66188072D01*
X122924482Y-66175812D01*
X123044180Y-66139502D01*
X123154494Y-66080537D01*
X123251185Y-66001185D01*
X123330537Y-65904494D01*
X123389502Y-65794180D01*
X123425812Y-65674482D01*
X123438072Y-65550000D01*
X123438072Y-63950000D01*
X123425812Y-63825518D01*
X123389502Y-63705820D01*
X123330537Y-63595506D01*
X123251185Y-63498815D01*
X123234607Y-63485210D01*
X123271680Y-63429727D01*
X123379853Y-63168574D01*
X123435000Y-62891335D01*
X123435000Y-62608665D01*
X123379853Y-62331426D01*
X123271680Y-62070273D01*
X123114637Y-61835241D01*
X122964396Y-61685000D01*
X131535604Y-61685000D01*
X131385363Y-61835241D01*
X131228320Y-62070273D01*
X131120147Y-62331426D01*
X131065000Y-62608665D01*
X131065000Y-62891335D01*
X131120147Y-63168574D01*
X131228320Y-63429727D01*
X131265393Y-63485210D01*
X131248815Y-63498815D01*
X131169463Y-63595506D01*
X131110498Y-63705820D01*
X131074188Y-63825518D01*
X131061928Y-63950000D01*
X131065000Y-64464250D01*
X131223750Y-64623000D01*
X132373000Y-64623000D01*
X132373000Y-64603000D01*
X132627000Y-64603000D01*
X132627000Y-64623000D01*
X133776250Y-64623000D01*
X133935000Y-64464250D01*
X133938072Y-63950000D01*
X133925812Y-63825518D01*
X133889502Y-63705820D01*
X133830537Y-63595506D01*
X133751185Y-63498815D01*
X133734607Y-63485210D01*
X133771680Y-63429727D01*
X133879853Y-63168574D01*
X133935000Y-62891335D01*
X133935000Y-62608665D01*
X133879853Y-62331426D01*
X133771680Y-62070273D01*
X133614637Y-61835241D01*
X133464396Y-61685000D01*
X135873000Y-61685000D01*
X135873000Y-71049369D01*
X130617654Y-76304716D01*
X130588578Y-76328578D01*
X130537732Y-76390535D01*
X130493355Y-76444608D01*
X130455535Y-76515365D01*
X130422598Y-76576986D01*
X130379026Y-76720623D01*
X130368000Y-76832574D01*
X130364314Y-76870000D01*
X130368000Y-76907423D01*
X130368001Y-80109318D01*
X126750641Y-80105669D01*
X126626118Y-80117870D01*
X126609207Y-80123000D01*
X126250000Y-80123000D01*
X126225224Y-80125440D01*
X126201399Y-80132667D01*
X126179443Y-80144403D01*
X126160197Y-80160197D01*
X126144403Y-80179443D01*
X126132667Y-80201399D01*
X126125440Y-80225224D01*
X126123000Y-80250000D01*
X126123000Y-80659442D01*
X126115000Y-80740669D01*
X126115000Y-82467595D01*
X126101953Y-82465000D01*
X125898075Y-82465000D01*
X125698116Y-82504774D01*
X125509758Y-82582795D01*
X125340240Y-82696063D01*
X125196077Y-82840226D01*
X125082809Y-83009744D01*
X125004788Y-83198102D01*
X124965014Y-83398061D01*
X124965014Y-83601939D01*
X125004788Y-83801898D01*
X125082809Y-83990256D01*
X125196077Y-84159774D01*
X125340240Y-84303937D01*
X125509758Y-84417205D01*
X125698116Y-84495226D01*
X125898075Y-84535000D01*
X126101953Y-84535000D01*
X126115000Y-84532405D01*
X126115000Y-88868620D01*
X123986690Y-88865115D01*
X124021255Y-88800449D01*
X124112030Y-88501204D01*
X124142681Y-88190000D01*
X124112030Y-87878796D01*
X124021255Y-87579551D01*
X123873845Y-87303765D01*
X123770554Y-87177905D01*
X123854494Y-87133037D01*
X123951185Y-87053685D01*
X124030537Y-86956994D01*
X124089502Y-86846680D01*
X124125812Y-86726982D01*
X124138072Y-86602500D01*
X124135000Y-85935750D01*
X123976250Y-85777000D01*
X122627000Y-85777000D01*
X122627000Y-85797000D01*
X122373000Y-85797000D01*
X122373000Y-85777000D01*
X121023750Y-85777000D01*
X120865000Y-85935750D01*
X120861928Y-86602500D01*
X120874188Y-86726982D01*
X120910498Y-86846680D01*
X120969463Y-86956994D01*
X121048815Y-87053685D01*
X121145506Y-87133037D01*
X121229446Y-87177905D01*
X121126155Y-87303765D01*
X120978745Y-87579551D01*
X120887970Y-87878796D01*
X120857319Y-88190000D01*
X120887970Y-88501204D01*
X120978745Y-88800449D01*
X121013248Y-88865000D01*
X118736752Y-88865000D01*
X118771255Y-88800449D01*
X118862030Y-88501204D01*
X118892681Y-88190000D01*
X118862030Y-87878796D01*
X118771255Y-87579551D01*
X118623845Y-87303765D01*
X118520554Y-87177905D01*
X118604494Y-87133037D01*
X118701185Y-87053685D01*
X118780537Y-86956994D01*
X118839502Y-86846680D01*
X118875812Y-86726982D01*
X118888072Y-86602500D01*
X118888072Y-84697500D01*
X120861928Y-84697500D01*
X120865000Y-85364250D01*
X121023750Y-85523000D01*
X122373000Y-85523000D01*
X122373000Y-84221250D01*
X122627000Y-84221250D01*
X122627000Y-85523000D01*
X123976250Y-85523000D01*
X124135000Y-85364250D01*
X124138072Y-84697500D01*
X124125812Y-84573018D01*
X124089502Y-84453320D01*
X124030537Y-84343006D01*
X123951185Y-84246315D01*
X123854494Y-84166963D01*
X123744180Y-84107998D01*
X123624482Y-84071688D01*
X123500000Y-84059428D01*
X122785750Y-84062500D01*
X122627000Y-84221250D01*
X122373000Y-84221250D01*
X122214250Y-84062500D01*
X121500000Y-84059428D01*
X121375518Y-84071688D01*
X121255820Y-84107998D01*
X121145506Y-84166963D01*
X121048815Y-84246315D01*
X120969463Y-84343006D01*
X120910498Y-84453320D01*
X120874188Y-84573018D01*
X120861928Y-84697500D01*
X118888072Y-84697500D01*
X118875812Y-84573018D01*
X118846598Y-84476711D01*
X118990256Y-84417205D01*
X119159774Y-84303937D01*
X119303937Y-84159774D01*
X119417205Y-83990256D01*
X119495226Y-83801898D01*
X119535000Y-83601939D01*
X119535000Y-83398061D01*
X119495226Y-83198102D01*
X119417205Y-83009744D01*
X119303937Y-82840226D01*
X119159774Y-82696063D01*
X118990256Y-82582795D01*
X118801898Y-82504774D01*
X118601939Y-82465000D01*
X118398061Y-82465000D01*
X118198102Y-82504774D01*
X118009744Y-82582795D01*
X117840226Y-82696063D01*
X117696063Y-82840226D01*
X117582795Y-83009744D01*
X117504774Y-83198102D01*
X117465000Y-83398061D01*
X117465000Y-83601939D01*
X117504774Y-83801898D01*
X117582795Y-83990256D01*
X117629014Y-84059428D01*
X116250000Y-84059428D01*
X116125518Y-84071688D01*
X116005820Y-84107998D01*
X115895506Y-84166963D01*
X115798815Y-84246315D01*
X115719463Y-84343006D01*
X115660498Y-84453320D01*
X115650820Y-84485223D01*
X115553937Y-84340226D01*
X115409774Y-84196063D01*
X115240256Y-84082795D01*
X115051898Y-84004774D01*
X114851939Y-83965000D01*
X114648061Y-83965000D01*
X114448102Y-84004774D01*
X114259744Y-84082795D01*
X114090226Y-84196063D01*
X113946063Y-84340226D01*
X113832795Y-84509744D01*
X113754774Y-84698102D01*
X113715000Y-84898061D01*
X113715000Y-85101939D01*
X113754774Y-85301898D01*
X113832795Y-85490256D01*
X113946063Y-85659774D01*
X114090226Y-85803937D01*
X114259744Y-85917205D01*
X114448102Y-85995226D01*
X114648061Y-86035000D01*
X114851939Y-86035000D01*
X115051898Y-85995226D01*
X115240256Y-85917205D01*
X115409774Y-85803937D01*
X115553937Y-85659774D01*
X115611928Y-85572984D01*
X115611928Y-86602500D01*
X115624188Y-86726982D01*
X115660498Y-86846680D01*
X115719463Y-86956994D01*
X115798815Y-87053685D01*
X115895506Y-87133037D01*
X115979446Y-87177905D01*
X115876155Y-87303765D01*
X115728745Y-87579551D01*
X115637970Y-87878796D01*
X115607319Y-88190000D01*
X115637970Y-88501204D01*
X115728745Y-88800449D01*
X115763248Y-88865000D01*
X113685000Y-88865000D01*
X113685000Y-79841429D01*
X115640000Y-79841429D01*
X115640000Y-80158571D01*
X115701871Y-80469620D01*
X115823237Y-80762621D01*
X115999431Y-81026315D01*
X116223685Y-81250569D01*
X116487379Y-81426763D01*
X116780380Y-81548129D01*
X117091429Y-81610000D01*
X117408571Y-81610000D01*
X117719620Y-81548129D01*
X118012621Y-81426763D01*
X118276315Y-81250569D01*
X118500569Y-81026315D01*
X118676763Y-80762621D01*
X118798129Y-80469620D01*
X118860000Y-80158571D01*
X118860000Y-79841429D01*
X118798129Y-79530380D01*
X118676763Y-79237379D01*
X118500569Y-78973685D01*
X118276315Y-78749431D01*
X118071245Y-78612408D01*
X122353000Y-78612408D01*
X122353000Y-78887592D01*
X122406686Y-79157490D01*
X122511995Y-79411727D01*
X122664880Y-79640535D01*
X122859465Y-79835120D01*
X122987184Y-79920459D01*
X122895506Y-79969463D01*
X122798815Y-80048815D01*
X122719463Y-80145506D01*
X122660498Y-80255820D01*
X122624188Y-80375518D01*
X122611928Y-80500000D01*
X122611928Y-81500000D01*
X122624188Y-81624482D01*
X122660498Y-81744180D01*
X122719463Y-81854494D01*
X122798815Y-81951185D01*
X122895506Y-82030537D01*
X123005820Y-82089502D01*
X123125518Y-82125812D01*
X123250000Y-82138072D01*
X124250000Y-82138072D01*
X124374482Y-82125812D01*
X124494180Y-82089502D01*
X124604494Y-82030537D01*
X124701185Y-81951185D01*
X124780537Y-81854494D01*
X124839502Y-81744180D01*
X124875812Y-81624482D01*
X124888072Y-81500000D01*
X124888072Y-80500000D01*
X124875812Y-80375518D01*
X124839502Y-80255820D01*
X124780537Y-80145506D01*
X124701185Y-80048815D01*
X124604494Y-79969463D01*
X124512816Y-79920459D01*
X124640535Y-79835120D01*
X124835120Y-79640535D01*
X124988005Y-79411727D01*
X125093314Y-79157490D01*
X125147000Y-78887592D01*
X125147000Y-78612408D01*
X125093314Y-78342510D01*
X124988005Y-78088273D01*
X124835120Y-77859465D01*
X124640535Y-77664880D01*
X124411727Y-77511995D01*
X124157490Y-77406686D01*
X123887592Y-77353000D01*
X123612408Y-77353000D01*
X123342510Y-77406686D01*
X123088273Y-77511995D01*
X122859465Y-77664880D01*
X122664880Y-77859465D01*
X122511995Y-78088273D01*
X122406686Y-78342510D01*
X122353000Y-78612408D01*
X118071245Y-78612408D01*
X118012621Y-78573237D01*
X117719620Y-78451871D01*
X117408571Y-78390000D01*
X117091429Y-78390000D01*
X116780380Y-78451871D01*
X116487379Y-78573237D01*
X116223685Y-78749431D01*
X115999431Y-78973685D01*
X115823237Y-79237379D01*
X115701871Y-79530380D01*
X115640000Y-79841429D01*
X113685000Y-79841429D01*
X113685000Y-74841429D01*
X115640000Y-74841429D01*
X115640000Y-75158571D01*
X115701871Y-75469620D01*
X115823237Y-75762621D01*
X115999431Y-76026315D01*
X116223685Y-76250569D01*
X116487379Y-76426763D01*
X116780380Y-76548129D01*
X117091429Y-76610000D01*
X117408571Y-76610000D01*
X117719620Y-76548129D01*
X118012621Y-76426763D01*
X118276315Y-76250569D01*
X118500569Y-76026315D01*
X118676763Y-75762621D01*
X118798129Y-75469620D01*
X118819454Y-75362408D01*
X122353000Y-75362408D01*
X122353000Y-75637592D01*
X122406686Y-75907490D01*
X122511995Y-76161727D01*
X122664880Y-76390535D01*
X122859465Y-76585120D01*
X123088273Y-76738005D01*
X123342510Y-76843314D01*
X123612408Y-76897000D01*
X123887592Y-76897000D01*
X124157490Y-76843314D01*
X124411727Y-76738005D01*
X124640535Y-76585120D01*
X124835120Y-76390535D01*
X124988005Y-76161727D01*
X125093314Y-75907490D01*
X125147000Y-75637592D01*
X125147000Y-75362408D01*
X125093314Y-75092510D01*
X124988005Y-74838273D01*
X124835120Y-74609465D01*
X124640535Y-74414880D01*
X124411727Y-74261995D01*
X124157490Y-74156686D01*
X123887592Y-74103000D01*
X123612408Y-74103000D01*
X123342510Y-74156686D01*
X123088273Y-74261995D01*
X122859465Y-74414880D01*
X122664880Y-74609465D01*
X122511995Y-74838273D01*
X122406686Y-75092510D01*
X122353000Y-75362408D01*
X118819454Y-75362408D01*
X118860000Y-75158571D01*
X118860000Y-74841429D01*
X118798129Y-74530380D01*
X118676763Y-74237379D01*
X118500569Y-73973685D01*
X118276315Y-73749431D01*
X118012621Y-73573237D01*
X117719620Y-73451871D01*
X117408571Y-73390000D01*
X117091429Y-73390000D01*
X116780380Y-73451871D01*
X116487379Y-73573237D01*
X116223685Y-73749431D01*
X115999431Y-73973685D01*
X115823237Y-74237379D01*
X115701871Y-74530380D01*
X115640000Y-74841429D01*
X113685000Y-74841429D01*
X113685000Y-72112408D01*
X122353000Y-72112408D01*
X122353000Y-72387592D01*
X122406686Y-72657490D01*
X122511995Y-72911727D01*
X122664880Y-73140535D01*
X122859465Y-73335120D01*
X123088273Y-73488005D01*
X123342510Y-73593314D01*
X123612408Y-73647000D01*
X123887592Y-73647000D01*
X124157490Y-73593314D01*
X124411727Y-73488005D01*
X124640535Y-73335120D01*
X124835120Y-73140535D01*
X124988005Y-72911727D01*
X125093314Y-72657490D01*
X125147000Y-72387592D01*
X125147000Y-72112408D01*
X125093314Y-71842510D01*
X124988005Y-71588273D01*
X124835120Y-71359465D01*
X124640535Y-71164880D01*
X124411727Y-71011995D01*
X124157490Y-70906686D01*
X123887592Y-70853000D01*
X123612408Y-70853000D01*
X123342510Y-70906686D01*
X123088273Y-71011995D01*
X122859465Y-71164880D01*
X122664880Y-71359465D01*
X122511995Y-71588273D01*
X122406686Y-71842510D01*
X122353000Y-72112408D01*
X113685000Y-72112408D01*
X113685000Y-69025000D01*
X115636928Y-69025000D01*
X115636928Y-70975000D01*
X115649188Y-71099482D01*
X115685498Y-71219180D01*
X115744463Y-71329494D01*
X115823815Y-71426185D01*
X115920506Y-71505537D01*
X116030820Y-71564502D01*
X116150518Y-71600812D01*
X116275000Y-71613072D01*
X118225000Y-71613072D01*
X118349482Y-71600812D01*
X118469180Y-71564502D01*
X118579494Y-71505537D01*
X118676185Y-71426185D01*
X118755537Y-71329494D01*
X118814502Y-71219180D01*
X118850812Y-71099482D01*
X118863072Y-70975000D01*
X118863072Y-69025000D01*
X118850812Y-68900518D01*
X118814502Y-68780820D01*
X118755537Y-68670506D01*
X118676185Y-68573815D01*
X118579494Y-68494463D01*
X118469180Y-68435498D01*
X118349482Y-68399188D01*
X118225000Y-68386928D01*
X116275000Y-68386928D01*
X116150518Y-68399188D01*
X116030820Y-68435498D01*
X115920506Y-68494463D01*
X115823815Y-68573815D01*
X115744463Y-68670506D01*
X115685498Y-68780820D01*
X115649188Y-68900518D01*
X115636928Y-69025000D01*
X113685000Y-69025000D01*
X113685000Y-66054057D01*
X113814886Y-66248446D01*
X114251554Y-66685114D01*
X114765021Y-67028201D01*
X115335554Y-67264524D01*
X115941229Y-67385000D01*
X116558771Y-67385000D01*
X116672348Y-67362408D01*
X122353000Y-67362408D01*
X122353000Y-67637592D01*
X122406686Y-67907490D01*
X122511995Y-68161727D01*
X122664880Y-68390535D01*
X122859465Y-68585120D01*
X123088273Y-68738005D01*
X123342510Y-68843314D01*
X123612408Y-68897000D01*
X123887592Y-68897000D01*
X124157490Y-68843314D01*
X124411727Y-68738005D01*
X124640535Y-68585120D01*
X124760090Y-68465565D01*
X130964040Y-68465565D01*
X131031020Y-68705656D01*
X131280048Y-68822756D01*
X131547135Y-68889023D01*
X131822017Y-68901910D01*
X132094133Y-68860922D01*
X132353023Y-68767636D01*
X132468980Y-68705656D01*
X132535960Y-68465565D01*
X131750000Y-67679605D01*
X130964040Y-68465565D01*
X124760090Y-68465565D01*
X124835120Y-68390535D01*
X124988005Y-68161727D01*
X125093314Y-67907490D01*
X125147000Y-67637592D01*
X125147000Y-67572017D01*
X130348090Y-67572017D01*
X130389078Y-67844133D01*
X130482364Y-68103023D01*
X130544344Y-68218980D01*
X130784435Y-68285960D01*
X131570395Y-67500000D01*
X131929605Y-67500000D01*
X132715565Y-68285960D01*
X132955656Y-68218980D01*
X133072756Y-67969952D01*
X133139023Y-67702865D01*
X133151910Y-67427983D01*
X133110922Y-67155867D01*
X133017636Y-66896977D01*
X132955656Y-66781020D01*
X132715565Y-66714040D01*
X131929605Y-67500000D01*
X131570395Y-67500000D01*
X130784435Y-66714040D01*
X130544344Y-66781020D01*
X130427244Y-67030048D01*
X130360977Y-67297135D01*
X130348090Y-67572017D01*
X125147000Y-67572017D01*
X125147000Y-67362408D01*
X125093314Y-67092510D01*
X124988005Y-66838273D01*
X124835120Y-66609465D01*
X124760090Y-66534435D01*
X130964040Y-66534435D01*
X131750000Y-67320395D01*
X132535960Y-66534435D01*
X132468980Y-66294344D01*
X132221349Y-66177901D01*
X132373000Y-66026250D01*
X132373000Y-64877000D01*
X132627000Y-64877000D01*
X132627000Y-66026250D01*
X132785750Y-66185000D01*
X133300000Y-66188072D01*
X133424482Y-66175812D01*
X133544180Y-66139502D01*
X133654494Y-66080537D01*
X133751185Y-66001185D01*
X133830537Y-65904494D01*
X133889502Y-65794180D01*
X133925812Y-65674482D01*
X133938072Y-65550000D01*
X133935000Y-65035750D01*
X133776250Y-64877000D01*
X132627000Y-64877000D01*
X132373000Y-64877000D01*
X131223750Y-64877000D01*
X131065000Y-65035750D01*
X131061928Y-65550000D01*
X131074188Y-65674482D01*
X131110498Y-65794180D01*
X131169463Y-65904494D01*
X131248815Y-66001185D01*
X131345506Y-66080537D01*
X131444219Y-66133301D01*
X131405867Y-66139078D01*
X131146977Y-66232364D01*
X131031020Y-66294344D01*
X130964040Y-66534435D01*
X124760090Y-66534435D01*
X124640535Y-66414880D01*
X124411727Y-66261995D01*
X124157490Y-66156686D01*
X123887592Y-66103000D01*
X123612408Y-66103000D01*
X123342510Y-66156686D01*
X123088273Y-66261995D01*
X122859465Y-66414880D01*
X122664880Y-66609465D01*
X122511995Y-66838273D01*
X122406686Y-67092510D01*
X122353000Y-67362408D01*
X116672348Y-67362408D01*
X117164446Y-67264524D01*
X117734979Y-67028201D01*
X118248446Y-66685114D01*
X118685114Y-66248446D01*
X119028201Y-65734979D01*
X119264524Y-65164446D01*
X119385000Y-64558771D01*
X119385000Y-63941229D01*
X119264524Y-63335554D01*
X119028201Y-62765021D01*
X118685114Y-62251554D01*
X118248446Y-61814886D01*
X118054057Y-61685000D01*
X121035604Y-61685000D01*
X120885363Y-61835241D01*
X120885363Y-61835241D01*
G37*
X120885363Y-61835241D02*
X120728320Y-62070273D01*
X120620147Y-62331426D01*
X120565000Y-62608665D01*
X120565000Y-62891335D01*
X120620147Y-63168574D01*
X120728320Y-63429727D01*
X120765393Y-63485210D01*
X120748815Y-63498815D01*
X120669463Y-63595506D01*
X120610498Y-63705820D01*
X120574188Y-63825518D01*
X120561928Y-63950000D01*
X120561928Y-65550000D01*
X120574188Y-65674482D01*
X120610498Y-65794180D01*
X120669463Y-65904494D01*
X120748815Y-66001185D01*
X120845506Y-66080537D01*
X120955820Y-66139502D01*
X121075518Y-66175812D01*
X121200000Y-66188072D01*
X122800000Y-66188072D01*
X122924482Y-66175812D01*
X123044180Y-66139502D01*
X123154494Y-66080537D01*
X123251185Y-66001185D01*
X123330537Y-65904494D01*
X123389502Y-65794180D01*
X123425812Y-65674482D01*
X123438072Y-65550000D01*
X123438072Y-63950000D01*
X123425812Y-63825518D01*
X123389502Y-63705820D01*
X123330537Y-63595506D01*
X123251185Y-63498815D01*
X123234607Y-63485210D01*
X123271680Y-63429727D01*
X123379853Y-63168574D01*
X123435000Y-62891335D01*
X123435000Y-62608665D01*
X123379853Y-62331426D01*
X123271680Y-62070273D01*
X123114637Y-61835241D01*
X122964396Y-61685000D01*
X131535604Y-61685000D01*
X131385363Y-61835241D01*
X131228320Y-62070273D01*
X131120147Y-62331426D01*
X131065000Y-62608665D01*
X131065000Y-62891335D01*
X131120147Y-63168574D01*
X131228320Y-63429727D01*
X131265393Y-63485210D01*
X131248815Y-63498815D01*
X131169463Y-63595506D01*
X131110498Y-63705820D01*
X131074188Y-63825518D01*
X131061928Y-63950000D01*
X131065000Y-64464250D01*
X131223750Y-64623000D01*
X132373000Y-64623000D01*
X132373000Y-64603000D01*
X132627000Y-64603000D01*
X132627000Y-64623000D01*
X133776250Y-64623000D01*
X133935000Y-64464250D01*
X133938072Y-63950000D01*
X133925812Y-63825518D01*
X133889502Y-63705820D01*
X133830537Y-63595506D01*
X133751185Y-63498815D01*
X133734607Y-63485210D01*
X133771680Y-63429727D01*
X133879853Y-63168574D01*
X133935000Y-62891335D01*
X133935000Y-62608665D01*
X133879853Y-62331426D01*
X133771680Y-62070273D01*
X133614637Y-61835241D01*
X133464396Y-61685000D01*
X135873000Y-61685000D01*
X135873000Y-71049369D01*
X130617654Y-76304716D01*
X130588578Y-76328578D01*
X130537732Y-76390535D01*
X130493355Y-76444608D01*
X130455535Y-76515365D01*
X130422598Y-76576986D01*
X130379026Y-76720623D01*
X130368000Y-76832574D01*
X130364314Y-76870000D01*
X130368000Y-76907423D01*
X130368001Y-80109318D01*
X126750641Y-80105669D01*
X126626118Y-80117870D01*
X126609207Y-80123000D01*
X126250000Y-80123000D01*
X126225224Y-80125440D01*
X126201399Y-80132667D01*
X126179443Y-80144403D01*
X126160197Y-80160197D01*
X126144403Y-80179443D01*
X126132667Y-80201399D01*
X126125440Y-80225224D01*
X126123000Y-80250000D01*
X126123000Y-80659442D01*
X126115000Y-80740669D01*
X126115000Y-82467595D01*
X126101953Y-82465000D01*
X125898075Y-82465000D01*
X125698116Y-82504774D01*
X125509758Y-82582795D01*
X125340240Y-82696063D01*
X125196077Y-82840226D01*
X125082809Y-83009744D01*
X125004788Y-83198102D01*
X124965014Y-83398061D01*
X124965014Y-83601939D01*
X125004788Y-83801898D01*
X125082809Y-83990256D01*
X125196077Y-84159774D01*
X125340240Y-84303937D01*
X125509758Y-84417205D01*
X125698116Y-84495226D01*
X125898075Y-84535000D01*
X126101953Y-84535000D01*
X126115000Y-84532405D01*
X126115000Y-88868620D01*
X123986690Y-88865115D01*
X124021255Y-88800449D01*
X124112030Y-88501204D01*
X124142681Y-88190000D01*
X124112030Y-87878796D01*
X124021255Y-87579551D01*
X123873845Y-87303765D01*
X123770554Y-87177905D01*
X123854494Y-87133037D01*
X123951185Y-87053685D01*
X124030537Y-86956994D01*
X124089502Y-86846680D01*
X124125812Y-86726982D01*
X124138072Y-86602500D01*
X124135000Y-85935750D01*
X123976250Y-85777000D01*
X122627000Y-85777000D01*
X122627000Y-85797000D01*
X122373000Y-85797000D01*
X122373000Y-85777000D01*
X121023750Y-85777000D01*
X120865000Y-85935750D01*
X120861928Y-86602500D01*
X120874188Y-86726982D01*
X120910498Y-86846680D01*
X120969463Y-86956994D01*
X121048815Y-87053685D01*
X121145506Y-87133037D01*
X121229446Y-87177905D01*
X121126155Y-87303765D01*
X120978745Y-87579551D01*
X120887970Y-87878796D01*
X120857319Y-88190000D01*
X120887970Y-88501204D01*
X120978745Y-88800449D01*
X121013248Y-88865000D01*
X118736752Y-88865000D01*
X118771255Y-88800449D01*
X118862030Y-88501204D01*
X118892681Y-88190000D01*
X118862030Y-87878796D01*
X118771255Y-87579551D01*
X118623845Y-87303765D01*
X118520554Y-87177905D01*
X118604494Y-87133037D01*
X118701185Y-87053685D01*
X118780537Y-86956994D01*
X118839502Y-86846680D01*
X118875812Y-86726982D01*
X118888072Y-86602500D01*
X118888072Y-84697500D01*
X120861928Y-84697500D01*
X120865000Y-85364250D01*
X121023750Y-85523000D01*
X122373000Y-85523000D01*
X122373000Y-84221250D01*
X122627000Y-84221250D01*
X122627000Y-85523000D01*
X123976250Y-85523000D01*
X124135000Y-85364250D01*
X124138072Y-84697500D01*
X124125812Y-84573018D01*
X124089502Y-84453320D01*
X124030537Y-84343006D01*
X123951185Y-84246315D01*
X123854494Y-84166963D01*
X123744180Y-84107998D01*
X123624482Y-84071688D01*
X123500000Y-84059428D01*
X122785750Y-84062500D01*
X122627000Y-84221250D01*
X122373000Y-84221250D01*
X122214250Y-84062500D01*
X121500000Y-84059428D01*
X121375518Y-84071688D01*
X121255820Y-84107998D01*
X121145506Y-84166963D01*
X121048815Y-84246315D01*
X120969463Y-84343006D01*
X120910498Y-84453320D01*
X120874188Y-84573018D01*
X120861928Y-84697500D01*
X118888072Y-84697500D01*
X118875812Y-84573018D01*
X118846598Y-84476711D01*
X118990256Y-84417205D01*
X119159774Y-84303937D01*
X119303937Y-84159774D01*
X119417205Y-83990256D01*
X119495226Y-83801898D01*
X119535000Y-83601939D01*
X119535000Y-83398061D01*
X119495226Y-83198102D01*
X119417205Y-83009744D01*
X119303937Y-82840226D01*
X119159774Y-82696063D01*
X118990256Y-82582795D01*
X118801898Y-82504774D01*
X118601939Y-82465000D01*
X118398061Y-82465000D01*
X118198102Y-82504774D01*
X118009744Y-82582795D01*
X117840226Y-82696063D01*
X117696063Y-82840226D01*
X117582795Y-83009744D01*
X117504774Y-83198102D01*
X117465000Y-83398061D01*
X117465000Y-83601939D01*
X117504774Y-83801898D01*
X117582795Y-83990256D01*
X117629014Y-84059428D01*
X116250000Y-84059428D01*
X116125518Y-84071688D01*
X116005820Y-84107998D01*
X115895506Y-84166963D01*
X115798815Y-84246315D01*
X115719463Y-84343006D01*
X115660498Y-84453320D01*
X115650820Y-84485223D01*
X115553937Y-84340226D01*
X115409774Y-84196063D01*
X115240256Y-84082795D01*
X115051898Y-84004774D01*
X114851939Y-83965000D01*
X114648061Y-83965000D01*
X114448102Y-84004774D01*
X114259744Y-84082795D01*
X114090226Y-84196063D01*
X113946063Y-84340226D01*
X113832795Y-84509744D01*
X113754774Y-84698102D01*
X113715000Y-84898061D01*
X113715000Y-85101939D01*
X113754774Y-85301898D01*
X113832795Y-85490256D01*
X113946063Y-85659774D01*
X114090226Y-85803937D01*
X114259744Y-85917205D01*
X114448102Y-85995226D01*
X114648061Y-86035000D01*
X114851939Y-86035000D01*
X115051898Y-85995226D01*
X115240256Y-85917205D01*
X115409774Y-85803937D01*
X115553937Y-85659774D01*
X115611928Y-85572984D01*
X115611928Y-86602500D01*
X115624188Y-86726982D01*
X115660498Y-86846680D01*
X115719463Y-86956994D01*
X115798815Y-87053685D01*
X115895506Y-87133037D01*
X115979446Y-87177905D01*
X115876155Y-87303765D01*
X115728745Y-87579551D01*
X115637970Y-87878796D01*
X115607319Y-88190000D01*
X115637970Y-88501204D01*
X115728745Y-88800449D01*
X115763248Y-88865000D01*
X113685000Y-88865000D01*
X113685000Y-79841429D01*
X115640000Y-79841429D01*
X115640000Y-80158571D01*
X115701871Y-80469620D01*
X115823237Y-80762621D01*
X115999431Y-81026315D01*
X116223685Y-81250569D01*
X116487379Y-81426763D01*
X116780380Y-81548129D01*
X117091429Y-81610000D01*
X117408571Y-81610000D01*
X117719620Y-81548129D01*
X118012621Y-81426763D01*
X118276315Y-81250569D01*
X118500569Y-81026315D01*
X118676763Y-80762621D01*
X118798129Y-80469620D01*
X118860000Y-80158571D01*
X118860000Y-79841429D01*
X118798129Y-79530380D01*
X118676763Y-79237379D01*
X118500569Y-78973685D01*
X118276315Y-78749431D01*
X118071245Y-78612408D01*
X122353000Y-78612408D01*
X122353000Y-78887592D01*
X122406686Y-79157490D01*
X122511995Y-79411727D01*
X122664880Y-79640535D01*
X122859465Y-79835120D01*
X122987184Y-79920459D01*
X122895506Y-79969463D01*
X122798815Y-80048815D01*
X122719463Y-80145506D01*
X122660498Y-80255820D01*
X122624188Y-80375518D01*
X122611928Y-80500000D01*
X122611928Y-81500000D01*
X122624188Y-81624482D01*
X122660498Y-81744180D01*
X122719463Y-81854494D01*
X122798815Y-81951185D01*
X122895506Y-82030537D01*
X123005820Y-82089502D01*
X123125518Y-82125812D01*
X123250000Y-82138072D01*
X124250000Y-82138072D01*
X124374482Y-82125812D01*
X124494180Y-82089502D01*
X124604494Y-82030537D01*
X124701185Y-81951185D01*
X124780537Y-81854494D01*
X124839502Y-81744180D01*
X124875812Y-81624482D01*
X124888072Y-81500000D01*
X124888072Y-80500000D01*
X124875812Y-80375518D01*
X124839502Y-80255820D01*
X124780537Y-80145506D01*
X124701185Y-80048815D01*
X124604494Y-79969463D01*
X124512816Y-79920459D01*
X124640535Y-79835120D01*
X124835120Y-79640535D01*
X124988005Y-79411727D01*
X125093314Y-79157490D01*
X125147000Y-78887592D01*
X125147000Y-78612408D01*
X125093314Y-78342510D01*
X124988005Y-78088273D01*
X124835120Y-77859465D01*
X124640535Y-77664880D01*
X124411727Y-77511995D01*
X124157490Y-77406686D01*
X123887592Y-77353000D01*
X123612408Y-77353000D01*
X123342510Y-77406686D01*
X123088273Y-77511995D01*
X122859465Y-77664880D01*
X122664880Y-77859465D01*
X122511995Y-78088273D01*
X122406686Y-78342510D01*
X122353000Y-78612408D01*
X118071245Y-78612408D01*
X118012621Y-78573237D01*
X117719620Y-78451871D01*
X117408571Y-78390000D01*
X117091429Y-78390000D01*
X116780380Y-78451871D01*
X116487379Y-78573237D01*
X116223685Y-78749431D01*
X115999431Y-78973685D01*
X115823237Y-79237379D01*
X115701871Y-79530380D01*
X115640000Y-79841429D01*
X113685000Y-79841429D01*
X113685000Y-74841429D01*
X115640000Y-74841429D01*
X115640000Y-75158571D01*
X115701871Y-75469620D01*
X115823237Y-75762621D01*
X115999431Y-76026315D01*
X116223685Y-76250569D01*
X116487379Y-76426763D01*
X116780380Y-76548129D01*
X117091429Y-76610000D01*
X117408571Y-76610000D01*
X117719620Y-76548129D01*
X118012621Y-76426763D01*
X118276315Y-76250569D01*
X118500569Y-76026315D01*
X118676763Y-75762621D01*
X118798129Y-75469620D01*
X118819454Y-75362408D01*
X122353000Y-75362408D01*
X122353000Y-75637592D01*
X122406686Y-75907490D01*
X122511995Y-76161727D01*
X122664880Y-76390535D01*
X122859465Y-76585120D01*
X123088273Y-76738005D01*
X123342510Y-76843314D01*
X123612408Y-76897000D01*
X123887592Y-76897000D01*
X124157490Y-76843314D01*
X124411727Y-76738005D01*
X124640535Y-76585120D01*
X124835120Y-76390535D01*
X124988005Y-76161727D01*
X125093314Y-75907490D01*
X125147000Y-75637592D01*
X125147000Y-75362408D01*
X125093314Y-75092510D01*
X124988005Y-74838273D01*
X124835120Y-74609465D01*
X124640535Y-74414880D01*
X124411727Y-74261995D01*
X124157490Y-74156686D01*
X123887592Y-74103000D01*
X123612408Y-74103000D01*
X123342510Y-74156686D01*
X123088273Y-74261995D01*
X122859465Y-74414880D01*
X122664880Y-74609465D01*
X122511995Y-74838273D01*
X122406686Y-75092510D01*
X122353000Y-75362408D01*
X118819454Y-75362408D01*
X118860000Y-75158571D01*
X118860000Y-74841429D01*
X118798129Y-74530380D01*
X118676763Y-74237379D01*
X118500569Y-73973685D01*
X118276315Y-73749431D01*
X118012621Y-73573237D01*
X117719620Y-73451871D01*
X117408571Y-73390000D01*
X117091429Y-73390000D01*
X116780380Y-73451871D01*
X116487379Y-73573237D01*
X116223685Y-73749431D01*
X115999431Y-73973685D01*
X115823237Y-74237379D01*
X115701871Y-74530380D01*
X115640000Y-74841429D01*
X113685000Y-74841429D01*
X113685000Y-72112408D01*
X122353000Y-72112408D01*
X122353000Y-72387592D01*
X122406686Y-72657490D01*
X122511995Y-72911727D01*
X122664880Y-73140535D01*
X122859465Y-73335120D01*
X123088273Y-73488005D01*
X123342510Y-73593314D01*
X123612408Y-73647000D01*
X123887592Y-73647000D01*
X124157490Y-73593314D01*
X124411727Y-73488005D01*
X124640535Y-73335120D01*
X124835120Y-73140535D01*
X124988005Y-72911727D01*
X125093314Y-72657490D01*
X125147000Y-72387592D01*
X125147000Y-72112408D01*
X125093314Y-71842510D01*
X124988005Y-71588273D01*
X124835120Y-71359465D01*
X124640535Y-71164880D01*
X124411727Y-71011995D01*
X124157490Y-70906686D01*
X123887592Y-70853000D01*
X123612408Y-70853000D01*
X123342510Y-70906686D01*
X123088273Y-71011995D01*
X122859465Y-71164880D01*
X122664880Y-71359465D01*
X122511995Y-71588273D01*
X122406686Y-71842510D01*
X122353000Y-72112408D01*
X113685000Y-72112408D01*
X113685000Y-69025000D01*
X115636928Y-69025000D01*
X115636928Y-70975000D01*
X115649188Y-71099482D01*
X115685498Y-71219180D01*
X115744463Y-71329494D01*
X115823815Y-71426185D01*
X115920506Y-71505537D01*
X116030820Y-71564502D01*
X116150518Y-71600812D01*
X116275000Y-71613072D01*
X118225000Y-71613072D01*
X118349482Y-71600812D01*
X118469180Y-71564502D01*
X118579494Y-71505537D01*
X118676185Y-71426185D01*
X118755537Y-71329494D01*
X118814502Y-71219180D01*
X118850812Y-71099482D01*
X118863072Y-70975000D01*
X118863072Y-69025000D01*
X118850812Y-68900518D01*
X118814502Y-68780820D01*
X118755537Y-68670506D01*
X118676185Y-68573815D01*
X118579494Y-68494463D01*
X118469180Y-68435498D01*
X118349482Y-68399188D01*
X118225000Y-68386928D01*
X116275000Y-68386928D01*
X116150518Y-68399188D01*
X116030820Y-68435498D01*
X115920506Y-68494463D01*
X115823815Y-68573815D01*
X115744463Y-68670506D01*
X115685498Y-68780820D01*
X115649188Y-68900518D01*
X115636928Y-69025000D01*
X113685000Y-69025000D01*
X113685000Y-66054057D01*
X113814886Y-66248446D01*
X114251554Y-66685114D01*
X114765021Y-67028201D01*
X115335554Y-67264524D01*
X115941229Y-67385000D01*
X116558771Y-67385000D01*
X116672348Y-67362408D01*
X122353000Y-67362408D01*
X122353000Y-67637592D01*
X122406686Y-67907490D01*
X122511995Y-68161727D01*
X122664880Y-68390535D01*
X122859465Y-68585120D01*
X123088273Y-68738005D01*
X123342510Y-68843314D01*
X123612408Y-68897000D01*
X123887592Y-68897000D01*
X124157490Y-68843314D01*
X124411727Y-68738005D01*
X124640535Y-68585120D01*
X124760090Y-68465565D01*
X130964040Y-68465565D01*
X131031020Y-68705656D01*
X131280048Y-68822756D01*
X131547135Y-68889023D01*
X131822017Y-68901910D01*
X132094133Y-68860922D01*
X132353023Y-68767636D01*
X132468980Y-68705656D01*
X132535960Y-68465565D01*
X131750000Y-67679605D01*
X130964040Y-68465565D01*
X124760090Y-68465565D01*
X124835120Y-68390535D01*
X124988005Y-68161727D01*
X125093314Y-67907490D01*
X125147000Y-67637592D01*
X125147000Y-67572017D01*
X130348090Y-67572017D01*
X130389078Y-67844133D01*
X130482364Y-68103023D01*
X130544344Y-68218980D01*
X130784435Y-68285960D01*
X131570395Y-67500000D01*
X131929605Y-67500000D01*
X132715565Y-68285960D01*
X132955656Y-68218980D01*
X133072756Y-67969952D01*
X133139023Y-67702865D01*
X133151910Y-67427983D01*
X133110922Y-67155867D01*
X133017636Y-66896977D01*
X132955656Y-66781020D01*
X132715565Y-66714040D01*
X131929605Y-67500000D01*
X131570395Y-67500000D01*
X130784435Y-66714040D01*
X130544344Y-66781020D01*
X130427244Y-67030048D01*
X130360977Y-67297135D01*
X130348090Y-67572017D01*
X125147000Y-67572017D01*
X125147000Y-67362408D01*
X125093314Y-67092510D01*
X124988005Y-66838273D01*
X124835120Y-66609465D01*
X124760090Y-66534435D01*
X130964040Y-66534435D01*
X131750000Y-67320395D01*
X132535960Y-66534435D01*
X132468980Y-66294344D01*
X132221349Y-66177901D01*
X132373000Y-66026250D01*
X132373000Y-64877000D01*
X132627000Y-64877000D01*
X132627000Y-66026250D01*
X132785750Y-66185000D01*
X133300000Y-66188072D01*
X133424482Y-66175812D01*
X133544180Y-66139502D01*
X133654494Y-66080537D01*
X133751185Y-66001185D01*
X133830537Y-65904494D01*
X133889502Y-65794180D01*
X133925812Y-65674482D01*
X133938072Y-65550000D01*
X133935000Y-65035750D01*
X133776250Y-64877000D01*
X132627000Y-64877000D01*
X132373000Y-64877000D01*
X131223750Y-64877000D01*
X131065000Y-65035750D01*
X131061928Y-65550000D01*
X131074188Y-65674482D01*
X131110498Y-65794180D01*
X131169463Y-65904494D01*
X131248815Y-66001185D01*
X131345506Y-66080537D01*
X131444219Y-66133301D01*
X131405867Y-66139078D01*
X131146977Y-66232364D01*
X131031020Y-66294344D01*
X130964040Y-66534435D01*
X124760090Y-66534435D01*
X124640535Y-66414880D01*
X124411727Y-66261995D01*
X124157490Y-66156686D01*
X123887592Y-66103000D01*
X123612408Y-66103000D01*
X123342510Y-66156686D01*
X123088273Y-66261995D01*
X122859465Y-66414880D01*
X122664880Y-66609465D01*
X122511995Y-66838273D01*
X122406686Y-67092510D01*
X122353000Y-67362408D01*
X116672348Y-67362408D01*
X117164446Y-67264524D01*
X117734979Y-67028201D01*
X118248446Y-66685114D01*
X118685114Y-66248446D01*
X119028201Y-65734979D01*
X119264524Y-65164446D01*
X119385000Y-64558771D01*
X119385000Y-63941229D01*
X119264524Y-63335554D01*
X119028201Y-62765021D01*
X118685114Y-62251554D01*
X118248446Y-61814886D01*
X118054057Y-61685000D01*
X121035604Y-61685000D01*
X120885363Y-61835241D01*
G36*
X121126155Y-89843765D02*
G01*
X120978745Y-90119551D01*
X120887970Y-90418796D01*
X120857319Y-90730000D01*
X120887970Y-91041204D01*
X120978745Y-91340449D01*
X121126155Y-91616235D01*
X121324537Y-91857963D01*
X121566265Y-92056345D01*
X121842051Y-92203755D01*
X121865000Y-92210717D01*
X121865000Y-95002333D01*
X121873000Y-95083333D01*
X121873000Y-104209826D01*
X121637592Y-104163000D01*
X121362408Y-104163000D01*
X121092510Y-104216686D01*
X120838273Y-104321995D01*
X120609465Y-104474880D01*
X120414880Y-104669465D01*
X120261995Y-104898273D01*
X120156686Y-105152510D01*
X120103000Y-105422408D01*
X120103000Y-105697592D01*
X120156686Y-105967490D01*
X120261995Y-106221727D01*
X120414880Y-106450535D01*
X120609465Y-106645120D01*
X120838273Y-106798005D01*
X121092510Y-106903314D01*
X121362408Y-106957000D01*
X121637592Y-106957000D01*
X121873000Y-106910174D01*
X121873000Y-109089826D01*
X121637592Y-109043000D01*
X121362408Y-109043000D01*
X121092510Y-109096686D01*
X120838273Y-109201995D01*
X120609465Y-109354880D01*
X120414880Y-109549465D01*
X120261995Y-109778273D01*
X120156686Y-110032510D01*
X120103000Y-110302408D01*
X120103000Y-110577592D01*
X120156686Y-110847490D01*
X120261995Y-111101727D01*
X120414880Y-111330535D01*
X120609465Y-111525120D01*
X120838273Y-111678005D01*
X121092510Y-111783314D01*
X121362408Y-111837000D01*
X121637592Y-111837000D01*
X121873000Y-111790174D01*
X121873000Y-113623000D01*
X119877000Y-113623000D01*
X119877000Y-89627000D01*
X121304050Y-89627000D01*
X121126155Y-89843765D01*
X121126155Y-89843765D01*
G37*
X121126155Y-89843765D02*
X120978745Y-90119551D01*
X120887970Y-90418796D01*
X120857319Y-90730000D01*
X120887970Y-91041204D01*
X120978745Y-91340449D01*
X121126155Y-91616235D01*
X121324537Y-91857963D01*
X121566265Y-92056345D01*
X121842051Y-92203755D01*
X121865000Y-92210717D01*
X121865000Y-95002333D01*
X121873000Y-95083333D01*
X121873000Y-104209826D01*
X121637592Y-104163000D01*
X121362408Y-104163000D01*
X121092510Y-104216686D01*
X120838273Y-104321995D01*
X120609465Y-104474880D01*
X120414880Y-104669465D01*
X120261995Y-104898273D01*
X120156686Y-105152510D01*
X120103000Y-105422408D01*
X120103000Y-105697592D01*
X120156686Y-105967490D01*
X120261995Y-106221727D01*
X120414880Y-106450535D01*
X120609465Y-106645120D01*
X120838273Y-106798005D01*
X121092510Y-106903314D01*
X121362408Y-106957000D01*
X121637592Y-106957000D01*
X121873000Y-106910174D01*
X121873000Y-109089826D01*
X121637592Y-109043000D01*
X121362408Y-109043000D01*
X121092510Y-109096686D01*
X120838273Y-109201995D01*
X120609465Y-109354880D01*
X120414880Y-109549465D01*
X120261995Y-109778273D01*
X120156686Y-110032510D01*
X120103000Y-110302408D01*
X120103000Y-110577592D01*
X120156686Y-110847490D01*
X120261995Y-111101727D01*
X120414880Y-111330535D01*
X120609465Y-111525120D01*
X120838273Y-111678005D01*
X121092510Y-111783314D01*
X121362408Y-111837000D01*
X121637592Y-111837000D01*
X121873000Y-111790174D01*
X121873000Y-113623000D01*
X119877000Y-113623000D01*
X119877000Y-89627000D01*
X121304050Y-89627000D01*
X121126155Y-89843765D01*
M02*
