G04 #@! TF.GenerationSoftware,KiCad,Pcbnew,(5.1.4)-1*
G04 #@! TF.CreationDate,2020-01-01T15:02:53-06:00*
G04 #@! TF.ProjectId,bldc_controller_v2,626c6463-5f63-46f6-9e74-726f6c6c6572,rev?*
G04 #@! TF.SameCoordinates,Original*
G04 #@! TF.FileFunction,Soldermask,Top*
G04 #@! TF.FilePolarity,Negative*
%FSLAX46Y46*%
G04 Gerber Fmt 4.6, Leading zero omitted, Abs format (unit mm)*
G04 Created by KiCad (PCBNEW (5.1.4)-1) date 2020-01-01 15:02:53*
%MOMM*%
%LPD*%
G04 APERTURE LIST*
%ADD10R,1.000000X1.000000*%
%ADD11C,2.000000*%
%ADD12O,1.700000X1.700000*%
%ADD13R,1.700000X1.700000*%
%ADD14O,1.600000X1.600000*%
%ADD15R,1.600000X1.600000*%
%ADD16C,1.950000*%
%ADD17R,1.950000X1.950000*%
%ADD18C,1.524000*%
%ADD19C,2.200000*%
%ADD20R,2.000000X1.905000*%
%ADD21O,2.000000X1.905000*%
%ADD22R,2.500000X1.200000*%
%ADD23R,1.400000X2.100000*%
%ADD24C,0.100000*%
%ADD25C,1.150000*%
%ADD26O,1.905000X2.000000*%
%ADD27R,1.905000X2.000000*%
%ADD28C,1.600000*%
%ADD29C,5.000000*%
%ADD30C,0.800000*%
G04 APERTURE END LIST*
D10*
X157250000Y-138750000D03*
X160750000Y-110250000D03*
X163250000Y-138750000D03*
X114750000Y-104250000D03*
D11*
X162500000Y-75750000D03*
D10*
X156250000Y-114250000D03*
X145750000Y-99250000D03*
X134000000Y-114500000D03*
X161250000Y-138750000D03*
X114750000Y-106250000D03*
X160750000Y-98750000D03*
X136000000Y-114500000D03*
X159250000Y-138750000D03*
X114750000Y-98500000D03*
X162750000Y-110250000D03*
X145750000Y-88500000D03*
X138000000Y-114500000D03*
X133000000Y-130250000D03*
X114750000Y-102250000D03*
X162500000Y-72750000D03*
D11*
X133750000Y-124000000D03*
D10*
X114750000Y-108250000D03*
X162750000Y-98750000D03*
X160750000Y-87500000D03*
X140000000Y-114500000D03*
X135000000Y-130250000D03*
X114750000Y-96500000D03*
X147750000Y-70750000D03*
X162750000Y-87500000D03*
X145750000Y-79750000D03*
X142000000Y-114500000D03*
X131000000Y-130250000D03*
X114750000Y-100500000D03*
X123750000Y-81000000D03*
D11*
X116250000Y-142000000D03*
D10*
X128250000Y-97000000D03*
D11*
X161250000Y-142000000D03*
D10*
X147750000Y-68750000D03*
D12*
X162290000Y-135250000D03*
D13*
X159750000Y-135250000D03*
D12*
X140960000Y-135250000D03*
D13*
X143500000Y-135250000D03*
D12*
X159710000Y-131500000D03*
D13*
X162250000Y-131500000D03*
D12*
X153460000Y-135250000D03*
D13*
X156000000Y-135250000D03*
D12*
X149790000Y-135250000D03*
D13*
X147250000Y-135250000D03*
D12*
X159710000Y-128000000D03*
D13*
X162250000Y-128000000D03*
D12*
X128660000Y-119400000D03*
D13*
X131200000Y-119400000D03*
D14*
X138750000Y-82250000D03*
X131130000Y-89870000D03*
X138750000Y-84790000D03*
X131130000Y-87330000D03*
X138750000Y-87330000D03*
X131130000Y-84790000D03*
X138750000Y-89870000D03*
D15*
X131130000Y-82250000D03*
D13*
X137000000Y-135250000D03*
D12*
X134460000Y-135250000D03*
X131920000Y-135250000D03*
X129380000Y-135250000D03*
X126840000Y-135250000D03*
D16*
X117250000Y-80000000D03*
X117250000Y-75000000D03*
D17*
X117250000Y-70000000D03*
D18*
X131750000Y-67500000D03*
X123750000Y-67500000D03*
X123750000Y-75500000D03*
X138750000Y-75500000D03*
X123750000Y-72250000D03*
X138750000Y-72250000D03*
X123750000Y-78750000D03*
X138750000Y-78750000D03*
D19*
X153700000Y-146200000D03*
X153700000Y-141200000D03*
X148700000Y-141200000D03*
X148700000Y-146200000D03*
D18*
X121500000Y-110440000D03*
X121500000Y-105560000D03*
D14*
X138720000Y-103750000D03*
X131100000Y-111370000D03*
X138720000Y-106290000D03*
X131100000Y-108830000D03*
X138720000Y-108830000D03*
X131100000Y-106290000D03*
X138720000Y-111370000D03*
D15*
X131100000Y-103750000D03*
D14*
X138720000Y-92960000D03*
X131100000Y-100580000D03*
X138720000Y-95500000D03*
X131100000Y-98040000D03*
X138720000Y-98040000D03*
X131100000Y-95500000D03*
X138720000Y-100580000D03*
D15*
X131100000Y-92960000D03*
D14*
X138100000Y-124180000D03*
X153340000Y-131800000D03*
X140640000Y-124180000D03*
X150800000Y-131800000D03*
X143180000Y-124180000D03*
X148260000Y-131800000D03*
X145720000Y-124180000D03*
X145720000Y-131800000D03*
X148260000Y-124180000D03*
X143180000Y-131800000D03*
X150800000Y-124180000D03*
X140640000Y-131800000D03*
X153340000Y-124180000D03*
D15*
X138100000Y-131800000D03*
X153300000Y-114200000D03*
D14*
X145680000Y-121820000D03*
X150760000Y-114200000D03*
X148220000Y-121820000D03*
X148220000Y-114200000D03*
X150760000Y-121820000D03*
X145680000Y-114200000D03*
X153300000Y-121820000D03*
D20*
X117250000Y-85650000D03*
D21*
X117250000Y-88190000D03*
X117250000Y-90730000D03*
D20*
X122500000Y-85650000D03*
D21*
X122500000Y-88190000D03*
X122500000Y-90730000D03*
D15*
X125350000Y-129600000D03*
D14*
X117730000Y-96580000D03*
X125350000Y-127060000D03*
X117730000Y-99120000D03*
X125350000Y-124520000D03*
X117730000Y-101660000D03*
X125350000Y-121980000D03*
X117730000Y-104200000D03*
X125350000Y-119440000D03*
X117730000Y-106740000D03*
X125350000Y-116900000D03*
X117730000Y-109280000D03*
X125350000Y-114360000D03*
X117730000Y-111820000D03*
X125350000Y-111820000D03*
X117730000Y-114360000D03*
X125350000Y-109280000D03*
X117730000Y-116900000D03*
X125350000Y-106740000D03*
X117730000Y-119440000D03*
X125350000Y-104200000D03*
X117730000Y-121980000D03*
X125350000Y-101660000D03*
X117730000Y-124520000D03*
X125350000Y-99120000D03*
X117730000Y-127060000D03*
X125350000Y-96580000D03*
X117730000Y-129600000D03*
D22*
X121750000Y-146000000D03*
X121750000Y-143500000D03*
X121750000Y-141000000D03*
X127250000Y-141000000D03*
X127250000Y-146000000D03*
X127250000Y-143500000D03*
D23*
X138250000Y-148500000D03*
X142750000Y-148500000D03*
X138250000Y-138500000D03*
X142750000Y-138500000D03*
X130750000Y-148500000D03*
X135250000Y-148500000D03*
X130750000Y-138500000D03*
X135250000Y-138500000D03*
D24*
G36*
X160224505Y-121651204D02*
G01*
X160248773Y-121654804D01*
X160272572Y-121660765D01*
X160295671Y-121669030D01*
X160317850Y-121679520D01*
X160338893Y-121692132D01*
X160358599Y-121706747D01*
X160376777Y-121723223D01*
X160393253Y-121741401D01*
X160407868Y-121761107D01*
X160420480Y-121782150D01*
X160430970Y-121804329D01*
X160439235Y-121827428D01*
X160445196Y-121851227D01*
X160448796Y-121875495D01*
X160450000Y-121899999D01*
X160450000Y-122550001D01*
X160448796Y-122574505D01*
X160445196Y-122598773D01*
X160439235Y-122622572D01*
X160430970Y-122645671D01*
X160420480Y-122667850D01*
X160407868Y-122688893D01*
X160393253Y-122708599D01*
X160376777Y-122726777D01*
X160358599Y-122743253D01*
X160338893Y-122757868D01*
X160317850Y-122770480D01*
X160295671Y-122780970D01*
X160272572Y-122789235D01*
X160248773Y-122795196D01*
X160224505Y-122798796D01*
X160200001Y-122800000D01*
X159299999Y-122800000D01*
X159275495Y-122798796D01*
X159251227Y-122795196D01*
X159227428Y-122789235D01*
X159204329Y-122780970D01*
X159182150Y-122770480D01*
X159161107Y-122757868D01*
X159141401Y-122743253D01*
X159123223Y-122726777D01*
X159106747Y-122708599D01*
X159092132Y-122688893D01*
X159079520Y-122667850D01*
X159069030Y-122645671D01*
X159060765Y-122622572D01*
X159054804Y-122598773D01*
X159051204Y-122574505D01*
X159050000Y-122550001D01*
X159050000Y-121899999D01*
X159051204Y-121875495D01*
X159054804Y-121851227D01*
X159060765Y-121827428D01*
X159069030Y-121804329D01*
X159079520Y-121782150D01*
X159092132Y-121761107D01*
X159106747Y-121741401D01*
X159123223Y-121723223D01*
X159141401Y-121706747D01*
X159161107Y-121692132D01*
X159182150Y-121679520D01*
X159204329Y-121669030D01*
X159227428Y-121660765D01*
X159251227Y-121654804D01*
X159275495Y-121651204D01*
X159299999Y-121650000D01*
X160200001Y-121650000D01*
X160224505Y-121651204D01*
X160224505Y-121651204D01*
G37*
D25*
X159750000Y-122225000D03*
D24*
G36*
X160224505Y-123701204D02*
G01*
X160248773Y-123704804D01*
X160272572Y-123710765D01*
X160295671Y-123719030D01*
X160317850Y-123729520D01*
X160338893Y-123742132D01*
X160358599Y-123756747D01*
X160376777Y-123773223D01*
X160393253Y-123791401D01*
X160407868Y-123811107D01*
X160420480Y-123832150D01*
X160430970Y-123854329D01*
X160439235Y-123877428D01*
X160445196Y-123901227D01*
X160448796Y-123925495D01*
X160450000Y-123949999D01*
X160450000Y-124600001D01*
X160448796Y-124624505D01*
X160445196Y-124648773D01*
X160439235Y-124672572D01*
X160430970Y-124695671D01*
X160420480Y-124717850D01*
X160407868Y-124738893D01*
X160393253Y-124758599D01*
X160376777Y-124776777D01*
X160358599Y-124793253D01*
X160338893Y-124807868D01*
X160317850Y-124820480D01*
X160295671Y-124830970D01*
X160272572Y-124839235D01*
X160248773Y-124845196D01*
X160224505Y-124848796D01*
X160200001Y-124850000D01*
X159299999Y-124850000D01*
X159275495Y-124848796D01*
X159251227Y-124845196D01*
X159227428Y-124839235D01*
X159204329Y-124830970D01*
X159182150Y-124820480D01*
X159161107Y-124807868D01*
X159141401Y-124793253D01*
X159123223Y-124776777D01*
X159106747Y-124758599D01*
X159092132Y-124738893D01*
X159079520Y-124717850D01*
X159069030Y-124695671D01*
X159060765Y-124672572D01*
X159054804Y-124648773D01*
X159051204Y-124624505D01*
X159050000Y-124600001D01*
X159050000Y-123949999D01*
X159051204Y-123925495D01*
X159054804Y-123901227D01*
X159060765Y-123877428D01*
X159069030Y-123854329D01*
X159079520Y-123832150D01*
X159092132Y-123811107D01*
X159106747Y-123791401D01*
X159123223Y-123773223D01*
X159141401Y-123756747D01*
X159161107Y-123742132D01*
X159182150Y-123729520D01*
X159204329Y-123719030D01*
X159227428Y-123710765D01*
X159251227Y-123704804D01*
X159275495Y-123701204D01*
X159299999Y-123700000D01*
X160200001Y-123700000D01*
X160224505Y-123701204D01*
X160224505Y-123701204D01*
G37*
D25*
X159750000Y-124275000D03*
D24*
G36*
X156974505Y-121651204D02*
G01*
X156998773Y-121654804D01*
X157022572Y-121660765D01*
X157045671Y-121669030D01*
X157067850Y-121679520D01*
X157088893Y-121692132D01*
X157108599Y-121706747D01*
X157126777Y-121723223D01*
X157143253Y-121741401D01*
X157157868Y-121761107D01*
X157170480Y-121782150D01*
X157180970Y-121804329D01*
X157189235Y-121827428D01*
X157195196Y-121851227D01*
X157198796Y-121875495D01*
X157200000Y-121899999D01*
X157200000Y-122550001D01*
X157198796Y-122574505D01*
X157195196Y-122598773D01*
X157189235Y-122622572D01*
X157180970Y-122645671D01*
X157170480Y-122667850D01*
X157157868Y-122688893D01*
X157143253Y-122708599D01*
X157126777Y-122726777D01*
X157108599Y-122743253D01*
X157088893Y-122757868D01*
X157067850Y-122770480D01*
X157045671Y-122780970D01*
X157022572Y-122789235D01*
X156998773Y-122795196D01*
X156974505Y-122798796D01*
X156950001Y-122800000D01*
X156049999Y-122800000D01*
X156025495Y-122798796D01*
X156001227Y-122795196D01*
X155977428Y-122789235D01*
X155954329Y-122780970D01*
X155932150Y-122770480D01*
X155911107Y-122757868D01*
X155891401Y-122743253D01*
X155873223Y-122726777D01*
X155856747Y-122708599D01*
X155842132Y-122688893D01*
X155829520Y-122667850D01*
X155819030Y-122645671D01*
X155810765Y-122622572D01*
X155804804Y-122598773D01*
X155801204Y-122574505D01*
X155800000Y-122550001D01*
X155800000Y-121899999D01*
X155801204Y-121875495D01*
X155804804Y-121851227D01*
X155810765Y-121827428D01*
X155819030Y-121804329D01*
X155829520Y-121782150D01*
X155842132Y-121761107D01*
X155856747Y-121741401D01*
X155873223Y-121723223D01*
X155891401Y-121706747D01*
X155911107Y-121692132D01*
X155932150Y-121679520D01*
X155954329Y-121669030D01*
X155977428Y-121660765D01*
X156001227Y-121654804D01*
X156025495Y-121651204D01*
X156049999Y-121650000D01*
X156950001Y-121650000D01*
X156974505Y-121651204D01*
X156974505Y-121651204D01*
G37*
D25*
X156500000Y-122225000D03*
D24*
G36*
X156974505Y-123701204D02*
G01*
X156998773Y-123704804D01*
X157022572Y-123710765D01*
X157045671Y-123719030D01*
X157067850Y-123729520D01*
X157088893Y-123742132D01*
X157108599Y-123756747D01*
X157126777Y-123773223D01*
X157143253Y-123791401D01*
X157157868Y-123811107D01*
X157170480Y-123832150D01*
X157180970Y-123854329D01*
X157189235Y-123877428D01*
X157195196Y-123901227D01*
X157198796Y-123925495D01*
X157200000Y-123949999D01*
X157200000Y-124600001D01*
X157198796Y-124624505D01*
X157195196Y-124648773D01*
X157189235Y-124672572D01*
X157180970Y-124695671D01*
X157170480Y-124717850D01*
X157157868Y-124738893D01*
X157143253Y-124758599D01*
X157126777Y-124776777D01*
X157108599Y-124793253D01*
X157088893Y-124807868D01*
X157067850Y-124820480D01*
X157045671Y-124830970D01*
X157022572Y-124839235D01*
X156998773Y-124845196D01*
X156974505Y-124848796D01*
X156950001Y-124850000D01*
X156049999Y-124850000D01*
X156025495Y-124848796D01*
X156001227Y-124845196D01*
X155977428Y-124839235D01*
X155954329Y-124830970D01*
X155932150Y-124820480D01*
X155911107Y-124807868D01*
X155891401Y-124793253D01*
X155873223Y-124776777D01*
X155856747Y-124758599D01*
X155842132Y-124738893D01*
X155829520Y-124717850D01*
X155819030Y-124695671D01*
X155810765Y-124672572D01*
X155804804Y-124648773D01*
X155801204Y-124624505D01*
X155800000Y-124600001D01*
X155800000Y-123949999D01*
X155801204Y-123925495D01*
X155804804Y-123901227D01*
X155810765Y-123877428D01*
X155819030Y-123854329D01*
X155829520Y-123832150D01*
X155842132Y-123811107D01*
X155856747Y-123791401D01*
X155873223Y-123773223D01*
X155891401Y-123756747D01*
X155911107Y-123742132D01*
X155932150Y-123729520D01*
X155954329Y-123719030D01*
X155977428Y-123710765D01*
X156001227Y-123704804D01*
X156025495Y-123701204D01*
X156049999Y-123700000D01*
X156950001Y-123700000D01*
X156974505Y-123701204D01*
X156974505Y-123701204D01*
G37*
D25*
X156500000Y-124275000D03*
D24*
G36*
X163474505Y-121676204D02*
G01*
X163498773Y-121679804D01*
X163522572Y-121685765D01*
X163545671Y-121694030D01*
X163567850Y-121704520D01*
X163588893Y-121717132D01*
X163608599Y-121731747D01*
X163626777Y-121748223D01*
X163643253Y-121766401D01*
X163657868Y-121786107D01*
X163670480Y-121807150D01*
X163680970Y-121829329D01*
X163689235Y-121852428D01*
X163695196Y-121876227D01*
X163698796Y-121900495D01*
X163700000Y-121924999D01*
X163700000Y-122575001D01*
X163698796Y-122599505D01*
X163695196Y-122623773D01*
X163689235Y-122647572D01*
X163680970Y-122670671D01*
X163670480Y-122692850D01*
X163657868Y-122713893D01*
X163643253Y-122733599D01*
X163626777Y-122751777D01*
X163608599Y-122768253D01*
X163588893Y-122782868D01*
X163567850Y-122795480D01*
X163545671Y-122805970D01*
X163522572Y-122814235D01*
X163498773Y-122820196D01*
X163474505Y-122823796D01*
X163450001Y-122825000D01*
X162549999Y-122825000D01*
X162525495Y-122823796D01*
X162501227Y-122820196D01*
X162477428Y-122814235D01*
X162454329Y-122805970D01*
X162432150Y-122795480D01*
X162411107Y-122782868D01*
X162391401Y-122768253D01*
X162373223Y-122751777D01*
X162356747Y-122733599D01*
X162342132Y-122713893D01*
X162329520Y-122692850D01*
X162319030Y-122670671D01*
X162310765Y-122647572D01*
X162304804Y-122623773D01*
X162301204Y-122599505D01*
X162300000Y-122575001D01*
X162300000Y-121924999D01*
X162301204Y-121900495D01*
X162304804Y-121876227D01*
X162310765Y-121852428D01*
X162319030Y-121829329D01*
X162329520Y-121807150D01*
X162342132Y-121786107D01*
X162356747Y-121766401D01*
X162373223Y-121748223D01*
X162391401Y-121731747D01*
X162411107Y-121717132D01*
X162432150Y-121704520D01*
X162454329Y-121694030D01*
X162477428Y-121685765D01*
X162501227Y-121679804D01*
X162525495Y-121676204D01*
X162549999Y-121675000D01*
X163450001Y-121675000D01*
X163474505Y-121676204D01*
X163474505Y-121676204D01*
G37*
D25*
X163000000Y-122250000D03*
D24*
G36*
X163474505Y-123726204D02*
G01*
X163498773Y-123729804D01*
X163522572Y-123735765D01*
X163545671Y-123744030D01*
X163567850Y-123754520D01*
X163588893Y-123767132D01*
X163608599Y-123781747D01*
X163626777Y-123798223D01*
X163643253Y-123816401D01*
X163657868Y-123836107D01*
X163670480Y-123857150D01*
X163680970Y-123879329D01*
X163689235Y-123902428D01*
X163695196Y-123926227D01*
X163698796Y-123950495D01*
X163700000Y-123974999D01*
X163700000Y-124625001D01*
X163698796Y-124649505D01*
X163695196Y-124673773D01*
X163689235Y-124697572D01*
X163680970Y-124720671D01*
X163670480Y-124742850D01*
X163657868Y-124763893D01*
X163643253Y-124783599D01*
X163626777Y-124801777D01*
X163608599Y-124818253D01*
X163588893Y-124832868D01*
X163567850Y-124845480D01*
X163545671Y-124855970D01*
X163522572Y-124864235D01*
X163498773Y-124870196D01*
X163474505Y-124873796D01*
X163450001Y-124875000D01*
X162549999Y-124875000D01*
X162525495Y-124873796D01*
X162501227Y-124870196D01*
X162477428Y-124864235D01*
X162454329Y-124855970D01*
X162432150Y-124845480D01*
X162411107Y-124832868D01*
X162391401Y-124818253D01*
X162373223Y-124801777D01*
X162356747Y-124783599D01*
X162342132Y-124763893D01*
X162329520Y-124742850D01*
X162319030Y-124720671D01*
X162310765Y-124697572D01*
X162304804Y-124673773D01*
X162301204Y-124649505D01*
X162300000Y-124625001D01*
X162300000Y-123974999D01*
X162301204Y-123950495D01*
X162304804Y-123926227D01*
X162310765Y-123902428D01*
X162319030Y-123879329D01*
X162329520Y-123857150D01*
X162342132Y-123836107D01*
X162356747Y-123816401D01*
X162373223Y-123798223D01*
X162391401Y-123781747D01*
X162411107Y-123767132D01*
X162432150Y-123754520D01*
X162454329Y-123744030D01*
X162477428Y-123735765D01*
X162501227Y-123729804D01*
X162525495Y-123726204D01*
X162549999Y-123725000D01*
X163450001Y-123725000D01*
X163474505Y-123726204D01*
X163474505Y-123726204D01*
G37*
D25*
X163000000Y-124300000D03*
D24*
G36*
X162599505Y-69801204D02*
G01*
X162623773Y-69804804D01*
X162647572Y-69810765D01*
X162670671Y-69819030D01*
X162692850Y-69829520D01*
X162713893Y-69842132D01*
X162733599Y-69856747D01*
X162751777Y-69873223D01*
X162768253Y-69891401D01*
X162782868Y-69911107D01*
X162795480Y-69932150D01*
X162805970Y-69954329D01*
X162814235Y-69977428D01*
X162820196Y-70001227D01*
X162823796Y-70025495D01*
X162825000Y-70049999D01*
X162825000Y-70950001D01*
X162823796Y-70974505D01*
X162820196Y-70998773D01*
X162814235Y-71022572D01*
X162805970Y-71045671D01*
X162795480Y-71067850D01*
X162782868Y-71088893D01*
X162768253Y-71108599D01*
X162751777Y-71126777D01*
X162733599Y-71143253D01*
X162713893Y-71157868D01*
X162692850Y-71170480D01*
X162670671Y-71180970D01*
X162647572Y-71189235D01*
X162623773Y-71195196D01*
X162599505Y-71198796D01*
X162575001Y-71200000D01*
X161924999Y-71200000D01*
X161900495Y-71198796D01*
X161876227Y-71195196D01*
X161852428Y-71189235D01*
X161829329Y-71180970D01*
X161807150Y-71170480D01*
X161786107Y-71157868D01*
X161766401Y-71143253D01*
X161748223Y-71126777D01*
X161731747Y-71108599D01*
X161717132Y-71088893D01*
X161704520Y-71067850D01*
X161694030Y-71045671D01*
X161685765Y-71022572D01*
X161679804Y-70998773D01*
X161676204Y-70974505D01*
X161675000Y-70950001D01*
X161675000Y-70049999D01*
X161676204Y-70025495D01*
X161679804Y-70001227D01*
X161685765Y-69977428D01*
X161694030Y-69954329D01*
X161704520Y-69932150D01*
X161717132Y-69911107D01*
X161731747Y-69891401D01*
X161748223Y-69873223D01*
X161766401Y-69856747D01*
X161786107Y-69842132D01*
X161807150Y-69829520D01*
X161829329Y-69819030D01*
X161852428Y-69810765D01*
X161876227Y-69804804D01*
X161900495Y-69801204D01*
X161924999Y-69800000D01*
X162575001Y-69800000D01*
X162599505Y-69801204D01*
X162599505Y-69801204D01*
G37*
D25*
X162250000Y-70500000D03*
D24*
G36*
X160549505Y-69801204D02*
G01*
X160573773Y-69804804D01*
X160597572Y-69810765D01*
X160620671Y-69819030D01*
X160642850Y-69829520D01*
X160663893Y-69842132D01*
X160683599Y-69856747D01*
X160701777Y-69873223D01*
X160718253Y-69891401D01*
X160732868Y-69911107D01*
X160745480Y-69932150D01*
X160755970Y-69954329D01*
X160764235Y-69977428D01*
X160770196Y-70001227D01*
X160773796Y-70025495D01*
X160775000Y-70049999D01*
X160775000Y-70950001D01*
X160773796Y-70974505D01*
X160770196Y-70998773D01*
X160764235Y-71022572D01*
X160755970Y-71045671D01*
X160745480Y-71067850D01*
X160732868Y-71088893D01*
X160718253Y-71108599D01*
X160701777Y-71126777D01*
X160683599Y-71143253D01*
X160663893Y-71157868D01*
X160642850Y-71170480D01*
X160620671Y-71180970D01*
X160597572Y-71189235D01*
X160573773Y-71195196D01*
X160549505Y-71198796D01*
X160525001Y-71200000D01*
X159874999Y-71200000D01*
X159850495Y-71198796D01*
X159826227Y-71195196D01*
X159802428Y-71189235D01*
X159779329Y-71180970D01*
X159757150Y-71170480D01*
X159736107Y-71157868D01*
X159716401Y-71143253D01*
X159698223Y-71126777D01*
X159681747Y-71108599D01*
X159667132Y-71088893D01*
X159654520Y-71067850D01*
X159644030Y-71045671D01*
X159635765Y-71022572D01*
X159629804Y-70998773D01*
X159626204Y-70974505D01*
X159625000Y-70950001D01*
X159625000Y-70049999D01*
X159626204Y-70025495D01*
X159629804Y-70001227D01*
X159635765Y-69977428D01*
X159644030Y-69954329D01*
X159654520Y-69932150D01*
X159667132Y-69911107D01*
X159681747Y-69891401D01*
X159698223Y-69873223D01*
X159716401Y-69856747D01*
X159736107Y-69842132D01*
X159757150Y-69829520D01*
X159779329Y-69819030D01*
X159802428Y-69810765D01*
X159826227Y-69804804D01*
X159850495Y-69801204D01*
X159874999Y-69800000D01*
X160525001Y-69800000D01*
X160549505Y-69801204D01*
X160549505Y-69801204D01*
G37*
D25*
X160200000Y-70500000D03*
D24*
G36*
X162624505Y-67551204D02*
G01*
X162648773Y-67554804D01*
X162672572Y-67560765D01*
X162695671Y-67569030D01*
X162717850Y-67579520D01*
X162738893Y-67592132D01*
X162758599Y-67606747D01*
X162776777Y-67623223D01*
X162793253Y-67641401D01*
X162807868Y-67661107D01*
X162820480Y-67682150D01*
X162830970Y-67704329D01*
X162839235Y-67727428D01*
X162845196Y-67751227D01*
X162848796Y-67775495D01*
X162850000Y-67799999D01*
X162850000Y-68700001D01*
X162848796Y-68724505D01*
X162845196Y-68748773D01*
X162839235Y-68772572D01*
X162830970Y-68795671D01*
X162820480Y-68817850D01*
X162807868Y-68838893D01*
X162793253Y-68858599D01*
X162776777Y-68876777D01*
X162758599Y-68893253D01*
X162738893Y-68907868D01*
X162717850Y-68920480D01*
X162695671Y-68930970D01*
X162672572Y-68939235D01*
X162648773Y-68945196D01*
X162624505Y-68948796D01*
X162600001Y-68950000D01*
X161949999Y-68950000D01*
X161925495Y-68948796D01*
X161901227Y-68945196D01*
X161877428Y-68939235D01*
X161854329Y-68930970D01*
X161832150Y-68920480D01*
X161811107Y-68907868D01*
X161791401Y-68893253D01*
X161773223Y-68876777D01*
X161756747Y-68858599D01*
X161742132Y-68838893D01*
X161729520Y-68817850D01*
X161719030Y-68795671D01*
X161710765Y-68772572D01*
X161704804Y-68748773D01*
X161701204Y-68724505D01*
X161700000Y-68700001D01*
X161700000Y-67799999D01*
X161701204Y-67775495D01*
X161704804Y-67751227D01*
X161710765Y-67727428D01*
X161719030Y-67704329D01*
X161729520Y-67682150D01*
X161742132Y-67661107D01*
X161756747Y-67641401D01*
X161773223Y-67623223D01*
X161791401Y-67606747D01*
X161811107Y-67592132D01*
X161832150Y-67579520D01*
X161854329Y-67569030D01*
X161877428Y-67560765D01*
X161901227Y-67554804D01*
X161925495Y-67551204D01*
X161949999Y-67550000D01*
X162600001Y-67550000D01*
X162624505Y-67551204D01*
X162624505Y-67551204D01*
G37*
D25*
X162275000Y-68250000D03*
D24*
G36*
X160574505Y-67551204D02*
G01*
X160598773Y-67554804D01*
X160622572Y-67560765D01*
X160645671Y-67569030D01*
X160667850Y-67579520D01*
X160688893Y-67592132D01*
X160708599Y-67606747D01*
X160726777Y-67623223D01*
X160743253Y-67641401D01*
X160757868Y-67661107D01*
X160770480Y-67682150D01*
X160780970Y-67704329D01*
X160789235Y-67727428D01*
X160795196Y-67751227D01*
X160798796Y-67775495D01*
X160800000Y-67799999D01*
X160800000Y-68700001D01*
X160798796Y-68724505D01*
X160795196Y-68748773D01*
X160789235Y-68772572D01*
X160780970Y-68795671D01*
X160770480Y-68817850D01*
X160757868Y-68838893D01*
X160743253Y-68858599D01*
X160726777Y-68876777D01*
X160708599Y-68893253D01*
X160688893Y-68907868D01*
X160667850Y-68920480D01*
X160645671Y-68930970D01*
X160622572Y-68939235D01*
X160598773Y-68945196D01*
X160574505Y-68948796D01*
X160550001Y-68950000D01*
X159899999Y-68950000D01*
X159875495Y-68948796D01*
X159851227Y-68945196D01*
X159827428Y-68939235D01*
X159804329Y-68930970D01*
X159782150Y-68920480D01*
X159761107Y-68907868D01*
X159741401Y-68893253D01*
X159723223Y-68876777D01*
X159706747Y-68858599D01*
X159692132Y-68838893D01*
X159679520Y-68817850D01*
X159669030Y-68795671D01*
X159660765Y-68772572D01*
X159654804Y-68748773D01*
X159651204Y-68724505D01*
X159650000Y-68700001D01*
X159650000Y-67799999D01*
X159651204Y-67775495D01*
X159654804Y-67751227D01*
X159660765Y-67727428D01*
X159669030Y-67704329D01*
X159679520Y-67682150D01*
X159692132Y-67661107D01*
X159706747Y-67641401D01*
X159723223Y-67623223D01*
X159741401Y-67606747D01*
X159761107Y-67592132D01*
X159782150Y-67579520D01*
X159804329Y-67569030D01*
X159827428Y-67560765D01*
X159851227Y-67554804D01*
X159875495Y-67551204D01*
X159899999Y-67550000D01*
X160550001Y-67550000D01*
X160574505Y-67551204D01*
X160574505Y-67551204D01*
G37*
D25*
X160225000Y-68250000D03*
D21*
X155750000Y-102670000D03*
X155750000Y-105210000D03*
D20*
X155750000Y-107750000D03*
D21*
X148250000Y-107830000D03*
X148250000Y-105290000D03*
D20*
X148250000Y-102750000D03*
D21*
X155750000Y-91420000D03*
X155750000Y-93960000D03*
D20*
X155750000Y-96500000D03*
D21*
X148250000Y-96580000D03*
X148250000Y-94040000D03*
D20*
X148250000Y-91500000D03*
D21*
X155750000Y-80170000D03*
X155750000Y-82710000D03*
D20*
X155750000Y-85250000D03*
X148250000Y-80210000D03*
D21*
X148250000Y-82750000D03*
X148250000Y-85290000D03*
D26*
X138460000Y-68250000D03*
X141000000Y-68250000D03*
D27*
X143540000Y-68250000D03*
D12*
X122740000Y-135250000D03*
X120200000Y-135250000D03*
X117660000Y-135250000D03*
D13*
X115120000Y-135250000D03*
X114750000Y-119500000D03*
D12*
X114750000Y-116960000D03*
X114750000Y-114420000D03*
D13*
X137170000Y-119500000D03*
D12*
X139710000Y-119500000D03*
X142250000Y-119500000D03*
D24*
G36*
X151324505Y-73301204D02*
G01*
X151348773Y-73304804D01*
X151372572Y-73310765D01*
X151395671Y-73319030D01*
X151417850Y-73329520D01*
X151438893Y-73342132D01*
X151458599Y-73356747D01*
X151476777Y-73373223D01*
X151493253Y-73391401D01*
X151507868Y-73411107D01*
X151520480Y-73432150D01*
X151530970Y-73454329D01*
X151539235Y-73477428D01*
X151545196Y-73501227D01*
X151548796Y-73525495D01*
X151550000Y-73549999D01*
X151550000Y-74450001D01*
X151548796Y-74474505D01*
X151545196Y-74498773D01*
X151539235Y-74522572D01*
X151530970Y-74545671D01*
X151520480Y-74567850D01*
X151507868Y-74588893D01*
X151493253Y-74608599D01*
X151476777Y-74626777D01*
X151458599Y-74643253D01*
X151438893Y-74657868D01*
X151417850Y-74670480D01*
X151395671Y-74680970D01*
X151372572Y-74689235D01*
X151348773Y-74695196D01*
X151324505Y-74698796D01*
X151300001Y-74700000D01*
X150649999Y-74700000D01*
X150625495Y-74698796D01*
X150601227Y-74695196D01*
X150577428Y-74689235D01*
X150554329Y-74680970D01*
X150532150Y-74670480D01*
X150511107Y-74657868D01*
X150491401Y-74643253D01*
X150473223Y-74626777D01*
X150456747Y-74608599D01*
X150442132Y-74588893D01*
X150429520Y-74567850D01*
X150419030Y-74545671D01*
X150410765Y-74522572D01*
X150404804Y-74498773D01*
X150401204Y-74474505D01*
X150400000Y-74450001D01*
X150400000Y-73549999D01*
X150401204Y-73525495D01*
X150404804Y-73501227D01*
X150410765Y-73477428D01*
X150419030Y-73454329D01*
X150429520Y-73432150D01*
X150442132Y-73411107D01*
X150456747Y-73391401D01*
X150473223Y-73373223D01*
X150491401Y-73356747D01*
X150511107Y-73342132D01*
X150532150Y-73329520D01*
X150554329Y-73319030D01*
X150577428Y-73310765D01*
X150601227Y-73304804D01*
X150625495Y-73301204D01*
X150649999Y-73300000D01*
X151300001Y-73300000D01*
X151324505Y-73301204D01*
X151324505Y-73301204D01*
G37*
D25*
X150975000Y-74000000D03*
D24*
G36*
X153374505Y-73301204D02*
G01*
X153398773Y-73304804D01*
X153422572Y-73310765D01*
X153445671Y-73319030D01*
X153467850Y-73329520D01*
X153488893Y-73342132D01*
X153508599Y-73356747D01*
X153526777Y-73373223D01*
X153543253Y-73391401D01*
X153557868Y-73411107D01*
X153570480Y-73432150D01*
X153580970Y-73454329D01*
X153589235Y-73477428D01*
X153595196Y-73501227D01*
X153598796Y-73525495D01*
X153600000Y-73549999D01*
X153600000Y-74450001D01*
X153598796Y-74474505D01*
X153595196Y-74498773D01*
X153589235Y-74522572D01*
X153580970Y-74545671D01*
X153570480Y-74567850D01*
X153557868Y-74588893D01*
X153543253Y-74608599D01*
X153526777Y-74626777D01*
X153508599Y-74643253D01*
X153488893Y-74657868D01*
X153467850Y-74670480D01*
X153445671Y-74680970D01*
X153422572Y-74689235D01*
X153398773Y-74695196D01*
X153374505Y-74698796D01*
X153350001Y-74700000D01*
X152699999Y-74700000D01*
X152675495Y-74698796D01*
X152651227Y-74695196D01*
X152627428Y-74689235D01*
X152604329Y-74680970D01*
X152582150Y-74670480D01*
X152561107Y-74657868D01*
X152541401Y-74643253D01*
X152523223Y-74626777D01*
X152506747Y-74608599D01*
X152492132Y-74588893D01*
X152479520Y-74567850D01*
X152469030Y-74545671D01*
X152460765Y-74522572D01*
X152454804Y-74498773D01*
X152451204Y-74474505D01*
X152450000Y-74450001D01*
X152450000Y-73549999D01*
X152451204Y-73525495D01*
X152454804Y-73501227D01*
X152460765Y-73477428D01*
X152469030Y-73454329D01*
X152479520Y-73432150D01*
X152492132Y-73411107D01*
X152506747Y-73391401D01*
X152523223Y-73373223D01*
X152541401Y-73356747D01*
X152561107Y-73342132D01*
X152582150Y-73329520D01*
X152604329Y-73319030D01*
X152627428Y-73310765D01*
X152651227Y-73304804D01*
X152675495Y-73301204D01*
X152699999Y-73300000D01*
X153350001Y-73300000D01*
X153374505Y-73301204D01*
X153374505Y-73301204D01*
G37*
D25*
X153025000Y-74000000D03*
D24*
G36*
X151324505Y-68801204D02*
G01*
X151348773Y-68804804D01*
X151372572Y-68810765D01*
X151395671Y-68819030D01*
X151417850Y-68829520D01*
X151438893Y-68842132D01*
X151458599Y-68856747D01*
X151476777Y-68873223D01*
X151493253Y-68891401D01*
X151507868Y-68911107D01*
X151520480Y-68932150D01*
X151530970Y-68954329D01*
X151539235Y-68977428D01*
X151545196Y-69001227D01*
X151548796Y-69025495D01*
X151550000Y-69049999D01*
X151550000Y-69950001D01*
X151548796Y-69974505D01*
X151545196Y-69998773D01*
X151539235Y-70022572D01*
X151530970Y-70045671D01*
X151520480Y-70067850D01*
X151507868Y-70088893D01*
X151493253Y-70108599D01*
X151476777Y-70126777D01*
X151458599Y-70143253D01*
X151438893Y-70157868D01*
X151417850Y-70170480D01*
X151395671Y-70180970D01*
X151372572Y-70189235D01*
X151348773Y-70195196D01*
X151324505Y-70198796D01*
X151300001Y-70200000D01*
X150649999Y-70200000D01*
X150625495Y-70198796D01*
X150601227Y-70195196D01*
X150577428Y-70189235D01*
X150554329Y-70180970D01*
X150532150Y-70170480D01*
X150511107Y-70157868D01*
X150491401Y-70143253D01*
X150473223Y-70126777D01*
X150456747Y-70108599D01*
X150442132Y-70088893D01*
X150429520Y-70067850D01*
X150419030Y-70045671D01*
X150410765Y-70022572D01*
X150404804Y-69998773D01*
X150401204Y-69974505D01*
X150400000Y-69950001D01*
X150400000Y-69049999D01*
X150401204Y-69025495D01*
X150404804Y-69001227D01*
X150410765Y-68977428D01*
X150419030Y-68954329D01*
X150429520Y-68932150D01*
X150442132Y-68911107D01*
X150456747Y-68891401D01*
X150473223Y-68873223D01*
X150491401Y-68856747D01*
X150511107Y-68842132D01*
X150532150Y-68829520D01*
X150554329Y-68819030D01*
X150577428Y-68810765D01*
X150601227Y-68804804D01*
X150625495Y-68801204D01*
X150649999Y-68800000D01*
X151300001Y-68800000D01*
X151324505Y-68801204D01*
X151324505Y-68801204D01*
G37*
D25*
X150975000Y-69500000D03*
D24*
G36*
X153374505Y-68801204D02*
G01*
X153398773Y-68804804D01*
X153422572Y-68810765D01*
X153445671Y-68819030D01*
X153467850Y-68829520D01*
X153488893Y-68842132D01*
X153508599Y-68856747D01*
X153526777Y-68873223D01*
X153543253Y-68891401D01*
X153557868Y-68911107D01*
X153570480Y-68932150D01*
X153580970Y-68954329D01*
X153589235Y-68977428D01*
X153595196Y-69001227D01*
X153598796Y-69025495D01*
X153600000Y-69049999D01*
X153600000Y-69950001D01*
X153598796Y-69974505D01*
X153595196Y-69998773D01*
X153589235Y-70022572D01*
X153580970Y-70045671D01*
X153570480Y-70067850D01*
X153557868Y-70088893D01*
X153543253Y-70108599D01*
X153526777Y-70126777D01*
X153508599Y-70143253D01*
X153488893Y-70157868D01*
X153467850Y-70170480D01*
X153445671Y-70180970D01*
X153422572Y-70189235D01*
X153398773Y-70195196D01*
X153374505Y-70198796D01*
X153350001Y-70200000D01*
X152699999Y-70200000D01*
X152675495Y-70198796D01*
X152651227Y-70195196D01*
X152627428Y-70189235D01*
X152604329Y-70180970D01*
X152582150Y-70170480D01*
X152561107Y-70157868D01*
X152541401Y-70143253D01*
X152523223Y-70126777D01*
X152506747Y-70108599D01*
X152492132Y-70088893D01*
X152479520Y-70067850D01*
X152469030Y-70045671D01*
X152460765Y-70022572D01*
X152454804Y-69998773D01*
X152451204Y-69974505D01*
X152450000Y-69950001D01*
X152450000Y-69049999D01*
X152451204Y-69025495D01*
X152454804Y-69001227D01*
X152460765Y-68977428D01*
X152469030Y-68954329D01*
X152479520Y-68932150D01*
X152492132Y-68911107D01*
X152506747Y-68891401D01*
X152523223Y-68873223D01*
X152541401Y-68856747D01*
X152561107Y-68842132D01*
X152582150Y-68829520D01*
X152604329Y-68819030D01*
X152627428Y-68810765D01*
X152651227Y-68804804D01*
X152675495Y-68801204D01*
X152699999Y-68800000D01*
X153350001Y-68800000D01*
X153374505Y-68801204D01*
X153374505Y-68801204D01*
G37*
D25*
X153025000Y-69500000D03*
D24*
G36*
X151324505Y-66551204D02*
G01*
X151348773Y-66554804D01*
X151372572Y-66560765D01*
X151395671Y-66569030D01*
X151417850Y-66579520D01*
X151438893Y-66592132D01*
X151458599Y-66606747D01*
X151476777Y-66623223D01*
X151493253Y-66641401D01*
X151507868Y-66661107D01*
X151520480Y-66682150D01*
X151530970Y-66704329D01*
X151539235Y-66727428D01*
X151545196Y-66751227D01*
X151548796Y-66775495D01*
X151550000Y-66799999D01*
X151550000Y-67700001D01*
X151548796Y-67724505D01*
X151545196Y-67748773D01*
X151539235Y-67772572D01*
X151530970Y-67795671D01*
X151520480Y-67817850D01*
X151507868Y-67838893D01*
X151493253Y-67858599D01*
X151476777Y-67876777D01*
X151458599Y-67893253D01*
X151438893Y-67907868D01*
X151417850Y-67920480D01*
X151395671Y-67930970D01*
X151372572Y-67939235D01*
X151348773Y-67945196D01*
X151324505Y-67948796D01*
X151300001Y-67950000D01*
X150649999Y-67950000D01*
X150625495Y-67948796D01*
X150601227Y-67945196D01*
X150577428Y-67939235D01*
X150554329Y-67930970D01*
X150532150Y-67920480D01*
X150511107Y-67907868D01*
X150491401Y-67893253D01*
X150473223Y-67876777D01*
X150456747Y-67858599D01*
X150442132Y-67838893D01*
X150429520Y-67817850D01*
X150419030Y-67795671D01*
X150410765Y-67772572D01*
X150404804Y-67748773D01*
X150401204Y-67724505D01*
X150400000Y-67700001D01*
X150400000Y-66799999D01*
X150401204Y-66775495D01*
X150404804Y-66751227D01*
X150410765Y-66727428D01*
X150419030Y-66704329D01*
X150429520Y-66682150D01*
X150442132Y-66661107D01*
X150456747Y-66641401D01*
X150473223Y-66623223D01*
X150491401Y-66606747D01*
X150511107Y-66592132D01*
X150532150Y-66579520D01*
X150554329Y-66569030D01*
X150577428Y-66560765D01*
X150601227Y-66554804D01*
X150625495Y-66551204D01*
X150649999Y-66550000D01*
X151300001Y-66550000D01*
X151324505Y-66551204D01*
X151324505Y-66551204D01*
G37*
D25*
X150975000Y-67250000D03*
D24*
G36*
X153374505Y-66551204D02*
G01*
X153398773Y-66554804D01*
X153422572Y-66560765D01*
X153445671Y-66569030D01*
X153467850Y-66579520D01*
X153488893Y-66592132D01*
X153508599Y-66606747D01*
X153526777Y-66623223D01*
X153543253Y-66641401D01*
X153557868Y-66661107D01*
X153570480Y-66682150D01*
X153580970Y-66704329D01*
X153589235Y-66727428D01*
X153595196Y-66751227D01*
X153598796Y-66775495D01*
X153600000Y-66799999D01*
X153600000Y-67700001D01*
X153598796Y-67724505D01*
X153595196Y-67748773D01*
X153589235Y-67772572D01*
X153580970Y-67795671D01*
X153570480Y-67817850D01*
X153557868Y-67838893D01*
X153543253Y-67858599D01*
X153526777Y-67876777D01*
X153508599Y-67893253D01*
X153488893Y-67907868D01*
X153467850Y-67920480D01*
X153445671Y-67930970D01*
X153422572Y-67939235D01*
X153398773Y-67945196D01*
X153374505Y-67948796D01*
X153350001Y-67950000D01*
X152699999Y-67950000D01*
X152675495Y-67948796D01*
X152651227Y-67945196D01*
X152627428Y-67939235D01*
X152604329Y-67930970D01*
X152582150Y-67920480D01*
X152561107Y-67907868D01*
X152541401Y-67893253D01*
X152523223Y-67876777D01*
X152506747Y-67858599D01*
X152492132Y-67838893D01*
X152479520Y-67817850D01*
X152469030Y-67795671D01*
X152460765Y-67772572D01*
X152454804Y-67748773D01*
X152451204Y-67724505D01*
X152450000Y-67700001D01*
X152450000Y-66799999D01*
X152451204Y-66775495D01*
X152454804Y-66751227D01*
X152460765Y-66727428D01*
X152469030Y-66704329D01*
X152479520Y-66682150D01*
X152492132Y-66661107D01*
X152506747Y-66641401D01*
X152523223Y-66623223D01*
X152541401Y-66606747D01*
X152561107Y-66592132D01*
X152582150Y-66579520D01*
X152604329Y-66569030D01*
X152627428Y-66560765D01*
X152651227Y-66554804D01*
X152675495Y-66551204D01*
X152699999Y-66550000D01*
X153350001Y-66550000D01*
X153374505Y-66551204D01*
X153374505Y-66551204D01*
G37*
D25*
X153025000Y-67250000D03*
D24*
G36*
X151324505Y-71051204D02*
G01*
X151348773Y-71054804D01*
X151372572Y-71060765D01*
X151395671Y-71069030D01*
X151417850Y-71079520D01*
X151438893Y-71092132D01*
X151458599Y-71106747D01*
X151476777Y-71123223D01*
X151493253Y-71141401D01*
X151507868Y-71161107D01*
X151520480Y-71182150D01*
X151530970Y-71204329D01*
X151539235Y-71227428D01*
X151545196Y-71251227D01*
X151548796Y-71275495D01*
X151550000Y-71299999D01*
X151550000Y-72200001D01*
X151548796Y-72224505D01*
X151545196Y-72248773D01*
X151539235Y-72272572D01*
X151530970Y-72295671D01*
X151520480Y-72317850D01*
X151507868Y-72338893D01*
X151493253Y-72358599D01*
X151476777Y-72376777D01*
X151458599Y-72393253D01*
X151438893Y-72407868D01*
X151417850Y-72420480D01*
X151395671Y-72430970D01*
X151372572Y-72439235D01*
X151348773Y-72445196D01*
X151324505Y-72448796D01*
X151300001Y-72450000D01*
X150649999Y-72450000D01*
X150625495Y-72448796D01*
X150601227Y-72445196D01*
X150577428Y-72439235D01*
X150554329Y-72430970D01*
X150532150Y-72420480D01*
X150511107Y-72407868D01*
X150491401Y-72393253D01*
X150473223Y-72376777D01*
X150456747Y-72358599D01*
X150442132Y-72338893D01*
X150429520Y-72317850D01*
X150419030Y-72295671D01*
X150410765Y-72272572D01*
X150404804Y-72248773D01*
X150401204Y-72224505D01*
X150400000Y-72200001D01*
X150400000Y-71299999D01*
X150401204Y-71275495D01*
X150404804Y-71251227D01*
X150410765Y-71227428D01*
X150419030Y-71204329D01*
X150429520Y-71182150D01*
X150442132Y-71161107D01*
X150456747Y-71141401D01*
X150473223Y-71123223D01*
X150491401Y-71106747D01*
X150511107Y-71092132D01*
X150532150Y-71079520D01*
X150554329Y-71069030D01*
X150577428Y-71060765D01*
X150601227Y-71054804D01*
X150625495Y-71051204D01*
X150649999Y-71050000D01*
X151300001Y-71050000D01*
X151324505Y-71051204D01*
X151324505Y-71051204D01*
G37*
D25*
X150975000Y-71750000D03*
D24*
G36*
X153374505Y-71051204D02*
G01*
X153398773Y-71054804D01*
X153422572Y-71060765D01*
X153445671Y-71069030D01*
X153467850Y-71079520D01*
X153488893Y-71092132D01*
X153508599Y-71106747D01*
X153526777Y-71123223D01*
X153543253Y-71141401D01*
X153557868Y-71161107D01*
X153570480Y-71182150D01*
X153580970Y-71204329D01*
X153589235Y-71227428D01*
X153595196Y-71251227D01*
X153598796Y-71275495D01*
X153600000Y-71299999D01*
X153600000Y-72200001D01*
X153598796Y-72224505D01*
X153595196Y-72248773D01*
X153589235Y-72272572D01*
X153580970Y-72295671D01*
X153570480Y-72317850D01*
X153557868Y-72338893D01*
X153543253Y-72358599D01*
X153526777Y-72376777D01*
X153508599Y-72393253D01*
X153488893Y-72407868D01*
X153467850Y-72420480D01*
X153445671Y-72430970D01*
X153422572Y-72439235D01*
X153398773Y-72445196D01*
X153374505Y-72448796D01*
X153350001Y-72450000D01*
X152699999Y-72450000D01*
X152675495Y-72448796D01*
X152651227Y-72445196D01*
X152627428Y-72439235D01*
X152604329Y-72430970D01*
X152582150Y-72420480D01*
X152561107Y-72407868D01*
X152541401Y-72393253D01*
X152523223Y-72376777D01*
X152506747Y-72358599D01*
X152492132Y-72338893D01*
X152479520Y-72317850D01*
X152469030Y-72295671D01*
X152460765Y-72272572D01*
X152454804Y-72248773D01*
X152451204Y-72224505D01*
X152450000Y-72200001D01*
X152450000Y-71299999D01*
X152451204Y-71275495D01*
X152454804Y-71251227D01*
X152460765Y-71227428D01*
X152469030Y-71204329D01*
X152479520Y-71182150D01*
X152492132Y-71161107D01*
X152506747Y-71141401D01*
X152523223Y-71123223D01*
X152541401Y-71106747D01*
X152561107Y-71092132D01*
X152582150Y-71079520D01*
X152604329Y-71069030D01*
X152627428Y-71060765D01*
X152651227Y-71054804D01*
X152675495Y-71051204D01*
X152699999Y-71050000D01*
X153350001Y-71050000D01*
X153374505Y-71051204D01*
X153374505Y-71051204D01*
G37*
D25*
X153025000Y-71750000D03*
D24*
G36*
X151349505Y-64301204D02*
G01*
X151373773Y-64304804D01*
X151397572Y-64310765D01*
X151420671Y-64319030D01*
X151442850Y-64329520D01*
X151463893Y-64342132D01*
X151483599Y-64356747D01*
X151501777Y-64373223D01*
X151518253Y-64391401D01*
X151532868Y-64411107D01*
X151545480Y-64432150D01*
X151555970Y-64454329D01*
X151564235Y-64477428D01*
X151570196Y-64501227D01*
X151573796Y-64525495D01*
X151575000Y-64549999D01*
X151575000Y-65450001D01*
X151573796Y-65474505D01*
X151570196Y-65498773D01*
X151564235Y-65522572D01*
X151555970Y-65545671D01*
X151545480Y-65567850D01*
X151532868Y-65588893D01*
X151518253Y-65608599D01*
X151501777Y-65626777D01*
X151483599Y-65643253D01*
X151463893Y-65657868D01*
X151442850Y-65670480D01*
X151420671Y-65680970D01*
X151397572Y-65689235D01*
X151373773Y-65695196D01*
X151349505Y-65698796D01*
X151325001Y-65700000D01*
X150674999Y-65700000D01*
X150650495Y-65698796D01*
X150626227Y-65695196D01*
X150602428Y-65689235D01*
X150579329Y-65680970D01*
X150557150Y-65670480D01*
X150536107Y-65657868D01*
X150516401Y-65643253D01*
X150498223Y-65626777D01*
X150481747Y-65608599D01*
X150467132Y-65588893D01*
X150454520Y-65567850D01*
X150444030Y-65545671D01*
X150435765Y-65522572D01*
X150429804Y-65498773D01*
X150426204Y-65474505D01*
X150425000Y-65450001D01*
X150425000Y-64549999D01*
X150426204Y-64525495D01*
X150429804Y-64501227D01*
X150435765Y-64477428D01*
X150444030Y-64454329D01*
X150454520Y-64432150D01*
X150467132Y-64411107D01*
X150481747Y-64391401D01*
X150498223Y-64373223D01*
X150516401Y-64356747D01*
X150536107Y-64342132D01*
X150557150Y-64329520D01*
X150579329Y-64319030D01*
X150602428Y-64310765D01*
X150626227Y-64304804D01*
X150650495Y-64301204D01*
X150674999Y-64300000D01*
X151325001Y-64300000D01*
X151349505Y-64301204D01*
X151349505Y-64301204D01*
G37*
D25*
X151000000Y-65000000D03*
D24*
G36*
X153399505Y-64301204D02*
G01*
X153423773Y-64304804D01*
X153447572Y-64310765D01*
X153470671Y-64319030D01*
X153492850Y-64329520D01*
X153513893Y-64342132D01*
X153533599Y-64356747D01*
X153551777Y-64373223D01*
X153568253Y-64391401D01*
X153582868Y-64411107D01*
X153595480Y-64432150D01*
X153605970Y-64454329D01*
X153614235Y-64477428D01*
X153620196Y-64501227D01*
X153623796Y-64525495D01*
X153625000Y-64549999D01*
X153625000Y-65450001D01*
X153623796Y-65474505D01*
X153620196Y-65498773D01*
X153614235Y-65522572D01*
X153605970Y-65545671D01*
X153595480Y-65567850D01*
X153582868Y-65588893D01*
X153568253Y-65608599D01*
X153551777Y-65626777D01*
X153533599Y-65643253D01*
X153513893Y-65657868D01*
X153492850Y-65670480D01*
X153470671Y-65680970D01*
X153447572Y-65689235D01*
X153423773Y-65695196D01*
X153399505Y-65698796D01*
X153375001Y-65700000D01*
X152724999Y-65700000D01*
X152700495Y-65698796D01*
X152676227Y-65695196D01*
X152652428Y-65689235D01*
X152629329Y-65680970D01*
X152607150Y-65670480D01*
X152586107Y-65657868D01*
X152566401Y-65643253D01*
X152548223Y-65626777D01*
X152531747Y-65608599D01*
X152517132Y-65588893D01*
X152504520Y-65567850D01*
X152494030Y-65545671D01*
X152485765Y-65522572D01*
X152479804Y-65498773D01*
X152476204Y-65474505D01*
X152475000Y-65450001D01*
X152475000Y-64549999D01*
X152476204Y-64525495D01*
X152479804Y-64501227D01*
X152485765Y-64477428D01*
X152494030Y-64454329D01*
X152504520Y-64432150D01*
X152517132Y-64411107D01*
X152531747Y-64391401D01*
X152548223Y-64373223D01*
X152566401Y-64356747D01*
X152586107Y-64342132D01*
X152607150Y-64329520D01*
X152629329Y-64319030D01*
X152652428Y-64310765D01*
X152676227Y-64304804D01*
X152700495Y-64301204D01*
X152724999Y-64300000D01*
X153375001Y-64300000D01*
X153399505Y-64301204D01*
X153399505Y-64301204D01*
G37*
D25*
X153050000Y-65000000D03*
D24*
G36*
X151324505Y-62051204D02*
G01*
X151348773Y-62054804D01*
X151372572Y-62060765D01*
X151395671Y-62069030D01*
X151417850Y-62079520D01*
X151438893Y-62092132D01*
X151458599Y-62106747D01*
X151476777Y-62123223D01*
X151493253Y-62141401D01*
X151507868Y-62161107D01*
X151520480Y-62182150D01*
X151530970Y-62204329D01*
X151539235Y-62227428D01*
X151545196Y-62251227D01*
X151548796Y-62275495D01*
X151550000Y-62299999D01*
X151550000Y-63200001D01*
X151548796Y-63224505D01*
X151545196Y-63248773D01*
X151539235Y-63272572D01*
X151530970Y-63295671D01*
X151520480Y-63317850D01*
X151507868Y-63338893D01*
X151493253Y-63358599D01*
X151476777Y-63376777D01*
X151458599Y-63393253D01*
X151438893Y-63407868D01*
X151417850Y-63420480D01*
X151395671Y-63430970D01*
X151372572Y-63439235D01*
X151348773Y-63445196D01*
X151324505Y-63448796D01*
X151300001Y-63450000D01*
X150649999Y-63450000D01*
X150625495Y-63448796D01*
X150601227Y-63445196D01*
X150577428Y-63439235D01*
X150554329Y-63430970D01*
X150532150Y-63420480D01*
X150511107Y-63407868D01*
X150491401Y-63393253D01*
X150473223Y-63376777D01*
X150456747Y-63358599D01*
X150442132Y-63338893D01*
X150429520Y-63317850D01*
X150419030Y-63295671D01*
X150410765Y-63272572D01*
X150404804Y-63248773D01*
X150401204Y-63224505D01*
X150400000Y-63200001D01*
X150400000Y-62299999D01*
X150401204Y-62275495D01*
X150404804Y-62251227D01*
X150410765Y-62227428D01*
X150419030Y-62204329D01*
X150429520Y-62182150D01*
X150442132Y-62161107D01*
X150456747Y-62141401D01*
X150473223Y-62123223D01*
X150491401Y-62106747D01*
X150511107Y-62092132D01*
X150532150Y-62079520D01*
X150554329Y-62069030D01*
X150577428Y-62060765D01*
X150601227Y-62054804D01*
X150625495Y-62051204D01*
X150649999Y-62050000D01*
X151300001Y-62050000D01*
X151324505Y-62051204D01*
X151324505Y-62051204D01*
G37*
D25*
X150975000Y-62750000D03*
D24*
G36*
X153374505Y-62051204D02*
G01*
X153398773Y-62054804D01*
X153422572Y-62060765D01*
X153445671Y-62069030D01*
X153467850Y-62079520D01*
X153488893Y-62092132D01*
X153508599Y-62106747D01*
X153526777Y-62123223D01*
X153543253Y-62141401D01*
X153557868Y-62161107D01*
X153570480Y-62182150D01*
X153580970Y-62204329D01*
X153589235Y-62227428D01*
X153595196Y-62251227D01*
X153598796Y-62275495D01*
X153600000Y-62299999D01*
X153600000Y-63200001D01*
X153598796Y-63224505D01*
X153595196Y-63248773D01*
X153589235Y-63272572D01*
X153580970Y-63295671D01*
X153570480Y-63317850D01*
X153557868Y-63338893D01*
X153543253Y-63358599D01*
X153526777Y-63376777D01*
X153508599Y-63393253D01*
X153488893Y-63407868D01*
X153467850Y-63420480D01*
X153445671Y-63430970D01*
X153422572Y-63439235D01*
X153398773Y-63445196D01*
X153374505Y-63448796D01*
X153350001Y-63450000D01*
X152699999Y-63450000D01*
X152675495Y-63448796D01*
X152651227Y-63445196D01*
X152627428Y-63439235D01*
X152604329Y-63430970D01*
X152582150Y-63420480D01*
X152561107Y-63407868D01*
X152541401Y-63393253D01*
X152523223Y-63376777D01*
X152506747Y-63358599D01*
X152492132Y-63338893D01*
X152479520Y-63317850D01*
X152469030Y-63295671D01*
X152460765Y-63272572D01*
X152454804Y-63248773D01*
X152451204Y-63224505D01*
X152450000Y-63200001D01*
X152450000Y-62299999D01*
X152451204Y-62275495D01*
X152454804Y-62251227D01*
X152460765Y-62227428D01*
X152469030Y-62204329D01*
X152479520Y-62182150D01*
X152492132Y-62161107D01*
X152506747Y-62141401D01*
X152523223Y-62123223D01*
X152541401Y-62106747D01*
X152561107Y-62092132D01*
X152582150Y-62079520D01*
X152604329Y-62069030D01*
X152627428Y-62060765D01*
X152651227Y-62054804D01*
X152675495Y-62051204D01*
X152699999Y-62050000D01*
X153350001Y-62050000D01*
X153374505Y-62051204D01*
X153374505Y-62051204D01*
G37*
D25*
X153025000Y-62750000D03*
D24*
G36*
X129399505Y-81551204D02*
G01*
X129423773Y-81554804D01*
X129447572Y-81560765D01*
X129470671Y-81569030D01*
X129492850Y-81579520D01*
X129513893Y-81592132D01*
X129533599Y-81606747D01*
X129551777Y-81623223D01*
X129568253Y-81641401D01*
X129582868Y-81661107D01*
X129595480Y-81682150D01*
X129605970Y-81704329D01*
X129614235Y-81727428D01*
X129620196Y-81751227D01*
X129623796Y-81775495D01*
X129625000Y-81799999D01*
X129625000Y-82700001D01*
X129623796Y-82724505D01*
X129620196Y-82748773D01*
X129614235Y-82772572D01*
X129605970Y-82795671D01*
X129595480Y-82817850D01*
X129582868Y-82838893D01*
X129568253Y-82858599D01*
X129551777Y-82876777D01*
X129533599Y-82893253D01*
X129513893Y-82907868D01*
X129492850Y-82920480D01*
X129470671Y-82930970D01*
X129447572Y-82939235D01*
X129423773Y-82945196D01*
X129399505Y-82948796D01*
X129375001Y-82950000D01*
X128724999Y-82950000D01*
X128700495Y-82948796D01*
X128676227Y-82945196D01*
X128652428Y-82939235D01*
X128629329Y-82930970D01*
X128607150Y-82920480D01*
X128586107Y-82907868D01*
X128566401Y-82893253D01*
X128548223Y-82876777D01*
X128531747Y-82858599D01*
X128517132Y-82838893D01*
X128504520Y-82817850D01*
X128494030Y-82795671D01*
X128485765Y-82772572D01*
X128479804Y-82748773D01*
X128476204Y-82724505D01*
X128475000Y-82700001D01*
X128475000Y-81799999D01*
X128476204Y-81775495D01*
X128479804Y-81751227D01*
X128485765Y-81727428D01*
X128494030Y-81704329D01*
X128504520Y-81682150D01*
X128517132Y-81661107D01*
X128531747Y-81641401D01*
X128548223Y-81623223D01*
X128566401Y-81606747D01*
X128586107Y-81592132D01*
X128607150Y-81579520D01*
X128629329Y-81569030D01*
X128652428Y-81560765D01*
X128676227Y-81554804D01*
X128700495Y-81551204D01*
X128724999Y-81550000D01*
X129375001Y-81550000D01*
X129399505Y-81551204D01*
X129399505Y-81551204D01*
G37*
D25*
X129050000Y-82250000D03*
D24*
G36*
X127349505Y-81551204D02*
G01*
X127373773Y-81554804D01*
X127397572Y-81560765D01*
X127420671Y-81569030D01*
X127442850Y-81579520D01*
X127463893Y-81592132D01*
X127483599Y-81606747D01*
X127501777Y-81623223D01*
X127518253Y-81641401D01*
X127532868Y-81661107D01*
X127545480Y-81682150D01*
X127555970Y-81704329D01*
X127564235Y-81727428D01*
X127570196Y-81751227D01*
X127573796Y-81775495D01*
X127575000Y-81799999D01*
X127575000Y-82700001D01*
X127573796Y-82724505D01*
X127570196Y-82748773D01*
X127564235Y-82772572D01*
X127555970Y-82795671D01*
X127545480Y-82817850D01*
X127532868Y-82838893D01*
X127518253Y-82858599D01*
X127501777Y-82876777D01*
X127483599Y-82893253D01*
X127463893Y-82907868D01*
X127442850Y-82920480D01*
X127420671Y-82930970D01*
X127397572Y-82939235D01*
X127373773Y-82945196D01*
X127349505Y-82948796D01*
X127325001Y-82950000D01*
X126674999Y-82950000D01*
X126650495Y-82948796D01*
X126626227Y-82945196D01*
X126602428Y-82939235D01*
X126579329Y-82930970D01*
X126557150Y-82920480D01*
X126536107Y-82907868D01*
X126516401Y-82893253D01*
X126498223Y-82876777D01*
X126481747Y-82858599D01*
X126467132Y-82838893D01*
X126454520Y-82817850D01*
X126444030Y-82795671D01*
X126435765Y-82772572D01*
X126429804Y-82748773D01*
X126426204Y-82724505D01*
X126425000Y-82700001D01*
X126425000Y-81799999D01*
X126426204Y-81775495D01*
X126429804Y-81751227D01*
X126435765Y-81727428D01*
X126444030Y-81704329D01*
X126454520Y-81682150D01*
X126467132Y-81661107D01*
X126481747Y-81641401D01*
X126498223Y-81623223D01*
X126516401Y-81606747D01*
X126536107Y-81592132D01*
X126557150Y-81579520D01*
X126579329Y-81569030D01*
X126602428Y-81560765D01*
X126626227Y-81554804D01*
X126650495Y-81551204D01*
X126674999Y-81550000D01*
X127325001Y-81550000D01*
X127349505Y-81551204D01*
X127349505Y-81551204D01*
G37*
D25*
X127000000Y-82250000D03*
D15*
X138500000Y-64750000D03*
D28*
X138500000Y-62750000D03*
D15*
X132500000Y-64750000D03*
D28*
X132500000Y-62750000D03*
D15*
X144500000Y-64750000D03*
D28*
X144500000Y-62750000D03*
X122000000Y-62750000D03*
D15*
X122000000Y-64750000D03*
D29*
X116250000Y-64250000D03*
X161250000Y-64250000D03*
X161250000Y-146750000D03*
X116250000Y-146750000D03*
D30*
X126000014Y-83500000D03*
X129275000Y-110475000D03*
X118500000Y-83500000D03*
X114750000Y-85000000D03*
X118500000Y-94250000D03*
X153500000Y-118250000D03*
X149750000Y-139000000D03*
X138250000Y-141750000D03*
X135250000Y-141750000D03*
X158250000Y-75750000D03*
X123000000Y-124500000D03*
X144750000Y-137750000D03*
X146500000Y-143000000D03*
X136250000Y-81750000D03*
X149451849Y-70748852D03*
X123250000Y-83500000D03*
X149750000Y-66000000D03*
X149500006Y-67500000D03*
X119500000Y-122500000D03*
X138250000Y-146250000D03*
X130750000Y-146250000D03*
D28*
X160750000Y-80750000D03*
X162750000Y-80750000D03*
X162750000Y-82750000D03*
X160750000Y-82750000D03*
X162750000Y-84750000D03*
X160750000Y-84750000D03*
X160750000Y-78750000D03*
X162750000Y-78750000D03*
D30*
X163000000Y-121000000D03*
X159875000Y-117875000D03*
D28*
X162750000Y-90000000D03*
X160750000Y-90000000D03*
X160750000Y-96000000D03*
X162750000Y-92000000D03*
X162750000Y-94000000D03*
X162750000Y-96000000D03*
X160750000Y-92000000D03*
X160750000Y-94000000D03*
D30*
X156500000Y-121000000D03*
D28*
X162750000Y-103500000D03*
X162750000Y-101500000D03*
X160750000Y-103500000D03*
X160750000Y-101500000D03*
X160750000Y-107500000D03*
X162750000Y-107500000D03*
X160750000Y-105500000D03*
X162750000Y-105500000D03*
D30*
X159750000Y-121000000D03*
X154250000Y-62750000D03*
X154250000Y-65000000D03*
X154250000Y-67250000D03*
X154250000Y-69500000D03*
X159000000Y-66750000D03*
X124250000Y-93500000D03*
X138000000Y-81000000D03*
X158250000Y-71500000D03*
X139250000Y-80250000D03*
X158500000Y-73750000D03*
X135250000Y-146250000D03*
X142750000Y-146250000D03*
X154250000Y-89500000D03*
X154250000Y-100500000D03*
X154499992Y-111750000D03*
X146000000Y-84750000D03*
X145934527Y-95116397D03*
X145500000Y-106000000D03*
X130000000Y-79750000D03*
X140250000Y-70250000D03*
M02*
