M48
; DRILL file {KiCad (5.1.4)-1} date 1/1/2020 3:02:58 PM
; FORMAT={3:3/ absolute / metric / suppress leading zeros}
; #@! TF.CreationDate,2020-01-01T15:02:58-06:00
; #@! TF.GenerationSoftware,Kicad,Pcbnew,(5.1.4)-1
FMAT,2
METRIC,TZ
T1C0.400
T2C0.500
T3C0.762
T4C0.800
T5C1.000
T6C1.100
T7C1.300
T8C3.500
%
G90
G05
T1
X114750Y-85000
X118500Y-83500
X118500Y-94250
X119500Y-122500
X123000Y-124500
X123250Y-83500
X124250Y-93500
X126000Y-83500
X129275Y-110475
X130000Y-79750
X130750Y-146250
X135250Y-141750
X135250Y-146250
X136250Y-81750
X138000Y-81000
X138250Y-141750
X138250Y-146250
X139250Y-80250
X140250Y-70250
X142750Y-146250
X144750Y-137750
X145500Y-106000
X145935Y-95116
X146000Y-84750
X146500Y-143000
X149452Y-70749
X149500Y-67500
X149750Y-66000
X149750Y-139000
X153500Y-118250
X154250Y-62750
X154250Y-65000
X154250Y-67250
X154250Y-69500
X154250Y-89500
X154250Y-100500
X154500Y-111750
X156500Y-121000
X158250Y-71500
X158250Y-75750
X158500Y-73750
X159000Y-66750
X159750Y-121000
X159875Y-117875
X163000Y-121000
T2
X142000Y-114500
X161250Y-138750
X145750Y-88500
X159250Y-138750
X114750Y-96500
X162500Y-72750
X162750Y-98750
X135000Y-130250
X162750Y-110250
X131000Y-130250
X156250Y-114250
X128250Y-97000
X145750Y-99250
X147750Y-68750
X163250Y-138750
X134000Y-114500
X160750Y-98750
X114750Y-98500
X133000Y-130250
X162750Y-87500
X160750Y-87500
X114750Y-104250
X147750Y-70750
X114750Y-100500
X157250Y-138750
X123750Y-81000
X160750Y-110250
X145750Y-79750
X114750Y-106250
X136000Y-114500
X140000Y-114500
X114750Y-102250
X114750Y-108250
X138000Y-114500
T3
X121500Y-105560
X121500Y-110440
T4
X160750Y-78750
X160750Y-80750
X160750Y-82750
X160750Y-84750
X160750Y-90000
X160750Y-92000
X160750Y-94000
X160750Y-96000
X160750Y-101500
X160750Y-103500
X160750Y-105500
X160750Y-107500
X162750Y-78750
X162750Y-80750
X162750Y-82750
X162750Y-84750
X162750Y-90000
X162750Y-92000
X162750Y-94000
X162750Y-96000
X162750Y-101500
X162750Y-103500
X162750Y-105500
X162750Y-107500
X131130Y-82250
X131130Y-84790
X131130Y-87330
X131130Y-89870
X138750Y-82250
X138750Y-84790
X138750Y-87330
X138750Y-89870
X144500Y-62750
X144500Y-64750
X131100Y-103750
X131100Y-106290
X131100Y-108830
X131100Y-111370
X138720Y-103750
X138720Y-106290
X138720Y-108830
X138720Y-111370
X132500Y-62750
X132500Y-64750
X138100Y-124180
X138100Y-131800
X140640Y-124180
X140640Y-131800
X143180Y-124180
X143180Y-131800
X145720Y-124180
X145720Y-131800
X148260Y-124180
X148260Y-131800
X150800Y-124180
X150800Y-131800
X153340Y-124180
X153340Y-131800
X117730Y-96580
X117730Y-99120
X117730Y-101660
X117730Y-104200
X117730Y-106740
X117730Y-109280
X117730Y-111820
X117730Y-114360
X117730Y-116900
X117730Y-119440
X117730Y-121980
X117730Y-124520
X117730Y-127060
X117730Y-129600
X125350Y-96580
X125350Y-99120
X125350Y-101660
X125350Y-104200
X125350Y-106740
X125350Y-109280
X125350Y-111820
X125350Y-114360
X125350Y-116900
X125350Y-119440
X125350Y-121980
X125350Y-124520
X125350Y-127060
X125350Y-129600
X131100Y-92960
X131100Y-95500
X131100Y-98040
X131100Y-100580
X138720Y-92960
X138720Y-95500
X138720Y-98040
X138720Y-100580
X122000Y-62750
X122000Y-64750
X138500Y-62750
X138500Y-64750
X145680Y-114200
X145680Y-121820
X148220Y-114200
X148220Y-121820
X150760Y-114200
X150760Y-121820
X153300Y-114200
X153300Y-121820
T5
X137170Y-119500
X139710Y-119500
X142250Y-119500
X159710Y-131500
X162250Y-131500
X114750Y-114420
X114750Y-116960
X114750Y-119500
X159710Y-128000
X162250Y-128000
X123750Y-75500
X138750Y-75500
X133750Y-124000
X123750Y-78750
X138750Y-78750
X123750Y-67500
X131750Y-67500
X126840Y-135250
X129380Y-135250
X131920Y-135250
X134460Y-135250
X137000Y-135250
X153460Y-135250
X156000Y-135250
X128660Y-119400
X131200Y-119400
X116250Y-142000
X115120Y-135250
X117660Y-135250
X120200Y-135250
X122740Y-135250
X161250Y-142000
X159750Y-135250
X162290Y-135250
X147250Y-135250
X149790Y-135250
X123750Y-72250
X138750Y-72250
X162500Y-75750
X140960Y-135250
X143500Y-135250
T6
X117250Y-85650
X117250Y-88190
X117250Y-90730
X148250Y-102750
X148250Y-105290
X148250Y-107830
X155750Y-80170
X155750Y-82710
X155750Y-85250
X122500Y-85650
X122500Y-88190
X122500Y-90730
X155750Y-102670
X155750Y-105210
X155750Y-107750
X148250Y-91500
X148250Y-94040
X148250Y-96580
X148700Y-141200
X148700Y-146200
X153700Y-141200
X153700Y-146200
X155750Y-91420
X155750Y-93960
X155750Y-96500
X148250Y-80210
X148250Y-82750
X148250Y-85290
X138460Y-68250
X141000Y-68250
X143540Y-68250
T7
X117250Y-70000
X117250Y-75000
X117250Y-80000
T8
X116250Y-64250
X116250Y-146750
X161250Y-64250
X161250Y-146750
T0
M30
