G04 #@! TF.GenerationSoftware,KiCad,Pcbnew,(5.1.4)-1*
G04 #@! TF.CreationDate,2020-01-02T22:38:01-06:00*
G04 #@! TF.ProjectId,bldc_controller_v2,626c6463-5f63-46f6-9e74-726f6c6c6572,rev?*
G04 #@! TF.SameCoordinates,Original*
G04 #@! TF.FileFunction,Legend,Top*
G04 #@! TF.FilePolarity,Positive*
%FSLAX46Y46*%
G04 Gerber Fmt 4.6, Leading zero omitted, Abs format (unit mm)*
G04 Created by KiCad (PCBNEW (5.1.4)-1) date 2020-01-02 22:38:01*
%MOMM*%
%LPD*%
G04 APERTURE LIST*
%ADD10C,0.150000*%
%ADD11C,0.120000*%
%ADD12C,0.200000*%
%ADD13C,0.254000*%
G04 APERTURE END LIST*
D10*
X148500000Y-148750000D02*
X153750000Y-148750000D01*
X122511904Y-132750000D02*
X122416666Y-132702380D01*
X122273809Y-132702380D01*
X122130952Y-132750000D01*
X122035714Y-132845238D01*
X121988095Y-132940476D01*
X121940476Y-133130952D01*
X121940476Y-133273809D01*
X121988095Y-133464285D01*
X122035714Y-133559523D01*
X122130952Y-133654761D01*
X122273809Y-133702380D01*
X122369047Y-133702380D01*
X122511904Y-133654761D01*
X122559523Y-133607142D01*
X122559523Y-133273809D01*
X122369047Y-133273809D01*
X122988095Y-133702380D02*
X122988095Y-132702380D01*
X123226190Y-132702380D01*
X123369047Y-132750000D01*
X123464285Y-132845238D01*
X123511904Y-132940476D01*
X123559523Y-133130952D01*
X123559523Y-133273809D01*
X123511904Y-133464285D01*
X123464285Y-133559523D01*
X123369047Y-133654761D01*
X123226190Y-133702380D01*
X122988095Y-133702380D01*
X119464285Y-133654761D02*
X119607142Y-133702380D01*
X119845238Y-133702380D01*
X119940476Y-133654761D01*
X119988095Y-133607142D01*
X120035714Y-133511904D01*
X120035714Y-133416666D01*
X119988095Y-133321428D01*
X119940476Y-133273809D01*
X119845238Y-133226190D01*
X119654761Y-133178571D01*
X119559523Y-133130952D01*
X119511904Y-133083333D01*
X119464285Y-132988095D01*
X119464285Y-132892857D01*
X119511904Y-132797619D01*
X119559523Y-132750000D01*
X119654761Y-132702380D01*
X119892857Y-132702380D01*
X120035714Y-132750000D01*
X121035714Y-133607142D02*
X120988095Y-133654761D01*
X120845238Y-133702380D01*
X120750000Y-133702380D01*
X120607142Y-133654761D01*
X120511904Y-133559523D01*
X120464285Y-133464285D01*
X120416666Y-133273809D01*
X120416666Y-133130952D01*
X120464285Y-132940476D01*
X120511904Y-132845238D01*
X120607142Y-132750000D01*
X120750000Y-132702380D01*
X120845238Y-132702380D01*
X120988095Y-132750000D01*
X121035714Y-132797619D01*
X116714285Y-133654761D02*
X116857142Y-133702380D01*
X117095238Y-133702380D01*
X117190476Y-133654761D01*
X117238095Y-133607142D01*
X117285714Y-133511904D01*
X117285714Y-133416666D01*
X117238095Y-133321428D01*
X117190476Y-133273809D01*
X117095238Y-133226190D01*
X116904761Y-133178571D01*
X116809523Y-133130952D01*
X116761904Y-133083333D01*
X116714285Y-132988095D01*
X116714285Y-132892857D01*
X116761904Y-132797619D01*
X116809523Y-132750000D01*
X116904761Y-132702380D01*
X117142857Y-132702380D01*
X117285714Y-132750000D01*
X117714285Y-133702380D02*
X117714285Y-132702380D01*
X117952380Y-132702380D01*
X118095238Y-132750000D01*
X118190476Y-132845238D01*
X118238095Y-132940476D01*
X118285714Y-133130952D01*
X118285714Y-133273809D01*
X118238095Y-133464285D01*
X118190476Y-133559523D01*
X118095238Y-133654761D01*
X117952380Y-133702380D01*
X117714285Y-133702380D01*
X114809523Y-132702380D02*
X114333333Y-132702380D01*
X114285714Y-133178571D01*
X114333333Y-133130952D01*
X114428571Y-133083333D01*
X114666666Y-133083333D01*
X114761904Y-133130952D01*
X114809523Y-133178571D01*
X114857142Y-133273809D01*
X114857142Y-133511904D01*
X114809523Y-133607142D01*
X114761904Y-133654761D01*
X114666666Y-133702380D01*
X114428571Y-133702380D01*
X114333333Y-133654761D01*
X114285714Y-133607142D01*
X115142857Y-132702380D02*
X115476190Y-133702380D01*
X115809523Y-132702380D01*
X136285714Y-133035714D02*
X136285714Y-133702380D01*
X136285714Y-133130952D02*
X136333333Y-133083333D01*
X136428571Y-133035714D01*
X136571428Y-133035714D01*
X136666666Y-133083333D01*
X136714285Y-133178571D01*
X136714285Y-133702380D01*
X137761904Y-133702380D02*
X137428571Y-133226190D01*
X137190476Y-133702380D02*
X137190476Y-132702380D01*
X137571428Y-132702380D01*
X137666666Y-132750000D01*
X137714285Y-132797619D01*
X137761904Y-132892857D01*
X137761904Y-133035714D01*
X137714285Y-133130952D01*
X137666666Y-133178571D01*
X137571428Y-133226190D01*
X137190476Y-133226190D01*
X134309523Y-132702380D02*
X133833333Y-132702380D01*
X133785714Y-133178571D01*
X133833333Y-133130952D01*
X133928571Y-133083333D01*
X134166666Y-133083333D01*
X134261904Y-133130952D01*
X134309523Y-133178571D01*
X134357142Y-133273809D01*
X134357142Y-133511904D01*
X134309523Y-133607142D01*
X134261904Y-133654761D01*
X134166666Y-133702380D01*
X133928571Y-133702380D01*
X133833333Y-133654761D01*
X133785714Y-133607142D01*
X134642857Y-132702380D02*
X134976190Y-133702380D01*
X135309523Y-132702380D01*
X131761904Y-132750000D02*
X131666666Y-132702380D01*
X131523809Y-132702380D01*
X131380952Y-132750000D01*
X131285714Y-132845238D01*
X131238095Y-132940476D01*
X131190476Y-133130952D01*
X131190476Y-133273809D01*
X131238095Y-133464285D01*
X131285714Y-133559523D01*
X131380952Y-133654761D01*
X131523809Y-133702380D01*
X131619047Y-133702380D01*
X131761904Y-133654761D01*
X131809523Y-133607142D01*
X131809523Y-133273809D01*
X131619047Y-133273809D01*
X132238095Y-133702380D02*
X132238095Y-132702380D01*
X132476190Y-132702380D01*
X132619047Y-132750000D01*
X132714285Y-132845238D01*
X132761904Y-132940476D01*
X132809523Y-133130952D01*
X132809523Y-133273809D01*
X132761904Y-133464285D01*
X132714285Y-133559523D01*
X132619047Y-133654761D01*
X132476190Y-133702380D01*
X132238095Y-133702380D01*
X128738095Y-132702380D02*
X129309523Y-132702380D01*
X129023809Y-133702380D02*
X129023809Y-132702380D01*
X129547619Y-132702380D02*
X130214285Y-133702380D01*
X130214285Y-132702380D02*
X129547619Y-133702380D01*
X126583333Y-133702380D02*
X126250000Y-133226190D01*
X126011904Y-133702380D02*
X126011904Y-132702380D01*
X126392857Y-132702380D01*
X126488095Y-132750000D01*
X126535714Y-132797619D01*
X126583333Y-132892857D01*
X126583333Y-133035714D01*
X126535714Y-133130952D01*
X126488095Y-133178571D01*
X126392857Y-133226190D01*
X126011904Y-133226190D01*
X126916666Y-132702380D02*
X127583333Y-133702380D01*
X127583333Y-132702380D02*
X126916666Y-133702380D01*
X141678571Y-133607142D02*
X141630952Y-133654761D01*
X141488095Y-133702380D01*
X141392857Y-133702380D01*
X141250000Y-133654761D01*
X141154761Y-133559523D01*
X141107142Y-133464285D01*
X141059523Y-133273809D01*
X141059523Y-133130952D01*
X141107142Y-132940476D01*
X141154761Y-132845238D01*
X141250000Y-132750000D01*
X141392857Y-132702380D01*
X141488095Y-132702380D01*
X141630952Y-132750000D01*
X141678571Y-132797619D01*
X141869047Y-133797619D02*
X142630952Y-133797619D01*
X143392857Y-132750000D02*
X143297619Y-132702380D01*
X143154761Y-132702380D01*
X143011904Y-132750000D01*
X142916666Y-132845238D01*
X142869047Y-132940476D01*
X142821428Y-133130952D01*
X142821428Y-133273809D01*
X142869047Y-133464285D01*
X142916666Y-133559523D01*
X143011904Y-133654761D01*
X143154761Y-133702380D01*
X143250000Y-133702380D01*
X143392857Y-133654761D01*
X143440476Y-133607142D01*
X143440476Y-133273809D01*
X143250000Y-133273809D01*
X147904761Y-133607142D02*
X147857142Y-133654761D01*
X147714285Y-133702380D01*
X147619047Y-133702380D01*
X147476190Y-133654761D01*
X147380952Y-133559523D01*
X147333333Y-133464285D01*
X147285714Y-133273809D01*
X147285714Y-133130952D01*
X147333333Y-132940476D01*
X147380952Y-132845238D01*
X147476190Y-132750000D01*
X147619047Y-132702380D01*
X147714285Y-132702380D01*
X147857142Y-132750000D01*
X147904761Y-132797619D01*
X148095238Y-133797619D02*
X148857142Y-133797619D01*
X149095238Y-133702380D02*
X149095238Y-132702380D01*
X149666666Y-133702380D01*
X149666666Y-132702380D01*
X153607142Y-133416666D02*
X154083333Y-133416666D01*
X153511904Y-133702380D02*
X153845238Y-132702380D01*
X154178571Y-133702380D01*
X154273809Y-133797619D02*
X155035714Y-133797619D01*
X155273809Y-133702380D02*
X155273809Y-132702380D01*
X155845238Y-133702380D01*
X155845238Y-132702380D01*
X158166666Y-136369047D02*
X158166666Y-135892857D01*
X158452380Y-136464285D02*
X157452380Y-136130952D01*
X158452380Y-135797619D01*
X158547619Y-135702380D02*
X158547619Y-134940476D01*
X157500000Y-134178571D02*
X157452380Y-134273809D01*
X157452380Y-134416666D01*
X157500000Y-134559523D01*
X157595238Y-134654761D01*
X157690476Y-134702380D01*
X157880952Y-134750000D01*
X158023809Y-134750000D01*
X158214285Y-134702380D01*
X158309523Y-134654761D01*
X158404761Y-134559523D01*
X158452380Y-134416666D01*
X158452380Y-134321428D01*
X158404761Y-134178571D01*
X158357142Y-134130952D01*
X158023809Y-134130952D01*
X158023809Y-134321428D01*
X157928571Y-132309523D02*
X157976190Y-132166666D01*
X158023809Y-132119047D01*
X158119047Y-132071428D01*
X158261904Y-132071428D01*
X158357142Y-132119047D01*
X158404761Y-132166666D01*
X158452380Y-132261904D01*
X158452380Y-132642857D01*
X157452380Y-132642857D01*
X157452380Y-132309523D01*
X157500000Y-132214285D01*
X157547619Y-132166666D01*
X157642857Y-132119047D01*
X157738095Y-132119047D01*
X157833333Y-132166666D01*
X157880952Y-132214285D01*
X157928571Y-132309523D01*
X157928571Y-132642857D01*
X158547619Y-131880952D02*
X158547619Y-131119047D01*
X157500000Y-130357142D02*
X157452380Y-130452380D01*
X157452380Y-130595238D01*
X157500000Y-130738095D01*
X157595238Y-130833333D01*
X157690476Y-130880952D01*
X157880952Y-130928571D01*
X158023809Y-130928571D01*
X158214285Y-130880952D01*
X158309523Y-130833333D01*
X158404761Y-130738095D01*
X158452380Y-130595238D01*
X158452380Y-130500000D01*
X158404761Y-130357142D01*
X158357142Y-130309523D01*
X158023809Y-130309523D01*
X158023809Y-130500000D01*
X157928571Y-128833333D02*
X157976190Y-128690476D01*
X158023809Y-128642857D01*
X158119047Y-128595238D01*
X158261904Y-128595238D01*
X158357142Y-128642857D01*
X158404761Y-128690476D01*
X158452380Y-128785714D01*
X158452380Y-129166666D01*
X157452380Y-129166666D01*
X157452380Y-128833333D01*
X157500000Y-128738095D01*
X157547619Y-128690476D01*
X157642857Y-128642857D01*
X157738095Y-128642857D01*
X157833333Y-128690476D01*
X157880952Y-128738095D01*
X157928571Y-128833333D01*
X157928571Y-129166666D01*
X158547619Y-128404761D02*
X158547619Y-127642857D01*
X158452380Y-127404761D02*
X157452380Y-127404761D01*
X158452380Y-126833333D01*
X157452380Y-126833333D01*
X136654761Y-121202380D02*
X137226190Y-121202380D01*
X136940476Y-122202380D02*
X136940476Y-121202380D01*
X137559523Y-122202380D02*
X137559523Y-121202380D01*
X137559523Y-121678571D02*
X138130952Y-121678571D01*
X138130952Y-122202380D02*
X138130952Y-121202380D01*
X139178571Y-122202380D02*
X138845238Y-121726190D01*
X138607142Y-122202380D02*
X138607142Y-121202380D01*
X138988095Y-121202380D01*
X139083333Y-121250000D01*
X139130952Y-121297619D01*
X139178571Y-121392857D01*
X139178571Y-121535714D01*
X139130952Y-121630952D01*
X139083333Y-121678571D01*
X138988095Y-121726190D01*
X138607142Y-121726190D01*
X139369047Y-122297619D02*
X140130952Y-122297619D01*
X140369047Y-122202380D02*
X140369047Y-121202380D01*
X140750000Y-121202380D01*
X140845238Y-121250000D01*
X140892857Y-121297619D01*
X140940476Y-121392857D01*
X140940476Y-121535714D01*
X140892857Y-121630952D01*
X140845238Y-121678571D01*
X140750000Y-121726190D01*
X140369047Y-121726190D01*
X141559523Y-121202380D02*
X141750000Y-121202380D01*
X141845238Y-121250000D01*
X141940476Y-121345238D01*
X141988095Y-121535714D01*
X141988095Y-121869047D01*
X141940476Y-122059523D01*
X141845238Y-122154761D01*
X141750000Y-122202380D01*
X141559523Y-122202380D01*
X141464285Y-122154761D01*
X141369047Y-122059523D01*
X141321428Y-121869047D01*
X141321428Y-121535714D01*
X141369047Y-121345238D01*
X141464285Y-121250000D01*
X141559523Y-121202380D01*
X142273809Y-121202380D02*
X142845238Y-121202380D01*
X142559523Y-122202380D02*
X142559523Y-121202380D01*
X113511904Y-112166666D02*
X113988095Y-112166666D01*
X113416666Y-112452380D02*
X113750000Y-111452380D01*
X114083333Y-112452380D01*
X114416666Y-111452380D02*
X114416666Y-112261904D01*
X114464285Y-112357142D01*
X114511904Y-112404761D01*
X114607142Y-112452380D01*
X114797619Y-112452380D01*
X114892857Y-112404761D01*
X114940476Y-112357142D01*
X114988095Y-112261904D01*
X114988095Y-111452380D01*
X115369047Y-111452380D02*
X116035714Y-112452380D01*
X116035714Y-111452380D02*
X115369047Y-112452380D01*
X128071428Y-122107142D02*
X128023809Y-122154761D01*
X127880952Y-122202380D01*
X127785714Y-122202380D01*
X127642857Y-122154761D01*
X127547619Y-122059523D01*
X127500000Y-121964285D01*
X127452380Y-121773809D01*
X127452380Y-121630952D01*
X127500000Y-121440476D01*
X127547619Y-121345238D01*
X127642857Y-121250000D01*
X127785714Y-121202380D01*
X127880952Y-121202380D01*
X128023809Y-121250000D01*
X128071428Y-121297619D01*
X128261904Y-122297619D02*
X129023809Y-122297619D01*
X129261904Y-122202380D02*
X129261904Y-121202380D01*
X129595238Y-121202380D02*
X130166666Y-121202380D01*
X129880952Y-122202380D02*
X129880952Y-121202380D01*
X131071428Y-122202380D02*
X130738095Y-121726190D01*
X130500000Y-122202380D02*
X130500000Y-121202380D01*
X130880952Y-121202380D01*
X130976190Y-121250000D01*
X131023809Y-121297619D01*
X131071428Y-121392857D01*
X131071428Y-121535714D01*
X131023809Y-121630952D01*
X130976190Y-121678571D01*
X130880952Y-121726190D01*
X130500000Y-121726190D01*
X131500000Y-122202380D02*
X131500000Y-121202380D01*
X132500000Y-121250000D02*
X132404761Y-121202380D01*
X132261904Y-121202380D01*
X132119047Y-121250000D01*
X132023809Y-121345238D01*
X131976190Y-121440476D01*
X131928571Y-121630952D01*
X131928571Y-121773809D01*
X131976190Y-121964285D01*
X132023809Y-122059523D01*
X132119047Y-122154761D01*
X132261904Y-122202380D01*
X132357142Y-122202380D01*
X132500000Y-122154761D01*
X132547619Y-122107142D01*
X132547619Y-121773809D01*
X132357142Y-121773809D01*
X155037976Y-74166666D02*
X155514166Y-74166666D01*
X154942738Y-74452380D02*
X155276071Y-73452380D01*
X155609404Y-74452380D01*
X155942738Y-73452380D02*
X155942738Y-74261904D01*
X155990357Y-74357142D01*
X156037976Y-74404761D01*
X156133214Y-74452380D01*
X156323690Y-74452380D01*
X156418928Y-74404761D01*
X156466547Y-74357142D01*
X156514166Y-74261904D01*
X156514166Y-73452380D01*
X156895119Y-73452380D02*
X157561785Y-74452380D01*
X157561785Y-73452380D02*
X156895119Y-74452380D01*
X155085595Y-71678571D02*
X155418928Y-71678571D01*
X155561785Y-72202380D02*
X155085595Y-72202380D01*
X155085595Y-71202380D01*
X155561785Y-71202380D01*
X155990357Y-72202380D02*
X155990357Y-71202380D01*
X156561785Y-72202380D01*
X156561785Y-71202380D01*
X155561785Y-68952380D02*
X155085595Y-68952380D01*
X155037976Y-69428571D01*
X155085595Y-69380952D01*
X155180833Y-69333333D01*
X155418928Y-69333333D01*
X155514166Y-69380952D01*
X155561785Y-69428571D01*
X155609404Y-69523809D01*
X155609404Y-69761904D01*
X155561785Y-69857142D01*
X155514166Y-69904761D01*
X155418928Y-69952380D01*
X155180833Y-69952380D01*
X155085595Y-69904761D01*
X155037976Y-69857142D01*
X155895119Y-68952380D02*
X156228452Y-69952380D01*
X156561785Y-68952380D01*
X155609404Y-67702380D02*
X155037976Y-67702380D01*
X155323690Y-67702380D02*
X155323690Y-66702380D01*
X155228452Y-66845238D01*
X155133214Y-66940476D01*
X155037976Y-66988095D01*
X156228452Y-66702380D02*
X156323690Y-66702380D01*
X156418928Y-66750000D01*
X156466547Y-66797619D01*
X156514166Y-66892857D01*
X156561785Y-67083333D01*
X156561785Y-67321428D01*
X156514166Y-67511904D01*
X156466547Y-67607142D01*
X156418928Y-67654761D01*
X156323690Y-67702380D01*
X156228452Y-67702380D01*
X156133214Y-67654761D01*
X156085595Y-67607142D01*
X156037976Y-67511904D01*
X155990357Y-67321428D01*
X155990357Y-67083333D01*
X156037976Y-66892857D01*
X156085595Y-66797619D01*
X156133214Y-66750000D01*
X156228452Y-66702380D01*
X156847500Y-66702380D02*
X157180833Y-67702380D01*
X157514166Y-66702380D01*
X155609404Y-65452380D02*
X155037976Y-65452380D01*
X155323690Y-65452380D02*
X155323690Y-64452380D01*
X155228452Y-64595238D01*
X155133214Y-64690476D01*
X155037976Y-64738095D01*
X155990357Y-64547619D02*
X156037976Y-64500000D01*
X156133214Y-64452380D01*
X156371309Y-64452380D01*
X156466547Y-64500000D01*
X156514166Y-64547619D01*
X156561785Y-64642857D01*
X156561785Y-64738095D01*
X156514166Y-64880952D01*
X155942738Y-65452380D01*
X156561785Y-65452380D01*
X156847500Y-64452380D02*
X157180833Y-65452380D01*
X157514166Y-64452380D01*
X154942738Y-62202380D02*
X155276071Y-63202380D01*
X155609404Y-62202380D01*
X156276071Y-62678571D02*
X156418928Y-62726190D01*
X156466547Y-62773809D01*
X156514166Y-62869047D01*
X156514166Y-63011904D01*
X156466547Y-63107142D01*
X156418928Y-63154761D01*
X156323690Y-63202380D01*
X155942738Y-63202380D01*
X155942738Y-62202380D01*
X156276071Y-62202380D01*
X156371309Y-62250000D01*
X156418928Y-62297619D01*
X156466547Y-62392857D01*
X156466547Y-62488095D01*
X156418928Y-62583333D01*
X156371309Y-62630952D01*
X156276071Y-62678571D01*
X155942738Y-62678571D01*
X156942738Y-62202380D02*
X156942738Y-63011904D01*
X156990357Y-63107142D01*
X157037976Y-63154761D01*
X157133214Y-63202380D01*
X157323690Y-63202380D01*
X157418928Y-63154761D01*
X157466547Y-63107142D01*
X157514166Y-63011904D01*
X157514166Y-62202380D01*
X157942738Y-63154761D02*
X158085595Y-63202380D01*
X158323690Y-63202380D01*
X158418928Y-63154761D01*
X158466547Y-63107142D01*
X158514166Y-63011904D01*
X158514166Y-62916666D01*
X158466547Y-62821428D01*
X158418928Y-62773809D01*
X158323690Y-62726190D01*
X158133214Y-62678571D01*
X158037976Y-62630952D01*
X157990357Y-62583333D01*
X157942738Y-62488095D01*
X157942738Y-62392857D01*
X157990357Y-62297619D01*
X158037976Y-62250000D01*
X158133214Y-62202380D01*
X158371309Y-62202380D01*
X158514166Y-62250000D01*
X113583333Y-122202380D02*
X113583333Y-121202380D01*
X113964285Y-121202380D01*
X114059523Y-121250000D01*
X114107142Y-121297619D01*
X114154761Y-121392857D01*
X114154761Y-121535714D01*
X114107142Y-121630952D01*
X114059523Y-121678571D01*
X113964285Y-121726190D01*
X113583333Y-121726190D01*
X114773809Y-121202380D02*
X114964285Y-121202380D01*
X115059523Y-121250000D01*
X115154761Y-121345238D01*
X115202380Y-121535714D01*
X115202380Y-121869047D01*
X115154761Y-122059523D01*
X115059523Y-122154761D01*
X114964285Y-122202380D01*
X114773809Y-122202380D01*
X114678571Y-122154761D01*
X114583333Y-122059523D01*
X114535714Y-121869047D01*
X114535714Y-121535714D01*
X114583333Y-121345238D01*
X114678571Y-121250000D01*
X114773809Y-121202380D01*
X115488095Y-121202380D02*
X116059523Y-121202380D01*
X115773809Y-122202380D02*
X115773809Y-121202380D01*
X115785714Y-100428571D02*
X116119047Y-100428571D01*
X116261904Y-100952380D02*
X115785714Y-100952380D01*
X115785714Y-99952380D01*
X116261904Y-99952380D01*
X115785714Y-102178571D02*
X116119047Y-102178571D01*
X116261904Y-102702380D02*
X115785714Y-102702380D01*
X115785714Y-101702380D01*
X116261904Y-101702380D01*
X115714285Y-104654761D02*
X115857142Y-104702380D01*
X116095238Y-104702380D01*
X116190476Y-104654761D01*
X116238095Y-104607142D01*
X116285714Y-104511904D01*
X116285714Y-104416666D01*
X116238095Y-104321428D01*
X116190476Y-104273809D01*
X116095238Y-104226190D01*
X115904761Y-104178571D01*
X115809523Y-104130952D01*
X115761904Y-104083333D01*
X115714285Y-103988095D01*
X115714285Y-103892857D01*
X115761904Y-103797619D01*
X115809523Y-103750000D01*
X115904761Y-103702380D01*
X116142857Y-103702380D01*
X116285714Y-103750000D01*
X115714285Y-98904761D02*
X115857142Y-98952380D01*
X116095238Y-98952380D01*
X116190476Y-98904761D01*
X116238095Y-98857142D01*
X116285714Y-98761904D01*
X116285714Y-98666666D01*
X116238095Y-98571428D01*
X116190476Y-98523809D01*
X116095238Y-98476190D01*
X115904761Y-98428571D01*
X115809523Y-98380952D01*
X115761904Y-98333333D01*
X115714285Y-98238095D01*
X115714285Y-98142857D01*
X115761904Y-98047619D01*
X115809523Y-98000000D01*
X115904761Y-97952380D01*
X116142857Y-97952380D01*
X116285714Y-98000000D01*
X115666666Y-107702380D02*
X116000000Y-108702380D01*
X116333333Y-107702380D01*
X113809523Y-106607142D02*
X113761904Y-106654761D01*
X113619047Y-106702380D01*
X113523809Y-106702380D01*
X113380952Y-106654761D01*
X113285714Y-106559523D01*
X113238095Y-106464285D01*
X113190476Y-106273809D01*
X113190476Y-106130952D01*
X113238095Y-105940476D01*
X113285714Y-105845238D01*
X113380952Y-105750000D01*
X113523809Y-105702380D01*
X113619047Y-105702380D01*
X113761904Y-105750000D01*
X113809523Y-105797619D01*
X113809523Y-104607142D02*
X113761904Y-104654761D01*
X113619047Y-104702380D01*
X113523809Y-104702380D01*
X113380952Y-104654761D01*
X113285714Y-104559523D01*
X113238095Y-104464285D01*
X113190476Y-104273809D01*
X113190476Y-104130952D01*
X113238095Y-103940476D01*
X113285714Y-103845238D01*
X113380952Y-103750000D01*
X113523809Y-103702380D01*
X113619047Y-103702380D01*
X113761904Y-103750000D01*
X113809523Y-103797619D01*
X113571428Y-102178571D02*
X113714285Y-102226190D01*
X113761904Y-102273809D01*
X113809523Y-102369047D01*
X113809523Y-102511904D01*
X113761904Y-102607142D01*
X113714285Y-102654761D01*
X113619047Y-102702380D01*
X113238095Y-102702380D01*
X113238095Y-101702380D01*
X113571428Y-101702380D01*
X113666666Y-101750000D01*
X113714285Y-101797619D01*
X113761904Y-101892857D01*
X113761904Y-101988095D01*
X113714285Y-102083333D01*
X113666666Y-102130952D01*
X113571428Y-102178571D01*
X113238095Y-102178571D01*
X113261904Y-100666666D02*
X113738095Y-100666666D01*
X113166666Y-100952380D02*
X113500000Y-99952380D01*
X113833333Y-100952380D01*
X113261904Y-96666666D02*
X113738095Y-96666666D01*
X113166666Y-96952380D02*
X113500000Y-95952380D01*
X113833333Y-96952380D01*
X113738095Y-107702380D02*
X113261904Y-107702380D01*
X113214285Y-108178571D01*
X113261904Y-108130952D01*
X113357142Y-108083333D01*
X113595238Y-108083333D01*
X113690476Y-108130952D01*
X113738095Y-108178571D01*
X113785714Y-108273809D01*
X113785714Y-108511904D01*
X113738095Y-108607142D01*
X113690476Y-108654761D01*
X113595238Y-108702380D01*
X113357142Y-108702380D01*
X113261904Y-108654761D01*
X113214285Y-108607142D01*
X115785714Y-106178571D02*
X116119047Y-106178571D01*
X116261904Y-106702380D02*
X115785714Y-106702380D01*
X115785714Y-105702380D01*
X116261904Y-105702380D01*
X113571428Y-98428571D02*
X113714285Y-98476190D01*
X113761904Y-98523809D01*
X113809523Y-98619047D01*
X113809523Y-98761904D01*
X113761904Y-98857142D01*
X113714285Y-98904761D01*
X113619047Y-98952380D01*
X113238095Y-98952380D01*
X113238095Y-97952380D01*
X113571428Y-97952380D01*
X113666666Y-98000000D01*
X113714285Y-98047619D01*
X113761904Y-98142857D01*
X113761904Y-98238095D01*
X113714285Y-98333333D01*
X113666666Y-98380952D01*
X113571428Y-98428571D01*
X113238095Y-98428571D01*
X115714285Y-96904761D02*
X115857142Y-96952380D01*
X116095238Y-96952380D01*
X116190476Y-96904761D01*
X116238095Y-96857142D01*
X116285714Y-96761904D01*
X116285714Y-96666666D01*
X116238095Y-96571428D01*
X116190476Y-96523809D01*
X116095238Y-96476190D01*
X115904761Y-96428571D01*
X115809523Y-96380952D01*
X115761904Y-96333333D01*
X115714285Y-96238095D01*
X115714285Y-96142857D01*
X115761904Y-96047619D01*
X115809523Y-96000000D01*
X115904761Y-95952380D01*
X116142857Y-95952380D01*
X116285714Y-96000000D01*
X135071428Y-128428571D02*
X135214285Y-128476190D01*
X135261904Y-128523809D01*
X135309523Y-128619047D01*
X135309523Y-128761904D01*
X135261904Y-128857142D01*
X135214285Y-128904761D01*
X135119047Y-128952380D01*
X134738095Y-128952380D01*
X134738095Y-127952380D01*
X135071428Y-127952380D01*
X135166666Y-128000000D01*
X135214285Y-128047619D01*
X135261904Y-128142857D01*
X135261904Y-128238095D01*
X135214285Y-128333333D01*
X135166666Y-128380952D01*
X135071428Y-128428571D01*
X134738095Y-128428571D01*
X133309523Y-128857142D02*
X133261904Y-128904761D01*
X133119047Y-128952380D01*
X133023809Y-128952380D01*
X132880952Y-128904761D01*
X132785714Y-128809523D01*
X132738095Y-128714285D01*
X132690476Y-128523809D01*
X132690476Y-128380952D01*
X132738095Y-128190476D01*
X132785714Y-128095238D01*
X132880952Y-128000000D01*
X133023809Y-127952380D01*
X133119047Y-127952380D01*
X133261904Y-128000000D01*
X133309523Y-128047619D01*
X130761904Y-128666666D02*
X131238095Y-128666666D01*
X130666666Y-128952380D02*
X131000000Y-127952380D01*
X131333333Y-128952380D01*
X163559523Y-137857142D02*
X163511904Y-137904761D01*
X163369047Y-137952380D01*
X163273809Y-137952380D01*
X163130952Y-137904761D01*
X163035714Y-137809523D01*
X162988095Y-137714285D01*
X162940476Y-137523809D01*
X162940476Y-137380952D01*
X162988095Y-137190476D01*
X163035714Y-137095238D01*
X163130952Y-137000000D01*
X163273809Y-136952380D01*
X163369047Y-136952380D01*
X163511904Y-137000000D01*
X163559523Y-137047619D01*
X161321428Y-137428571D02*
X161464285Y-137476190D01*
X161511904Y-137523809D01*
X161559523Y-137619047D01*
X161559523Y-137761904D01*
X161511904Y-137857142D01*
X161464285Y-137904761D01*
X161369047Y-137952380D01*
X160988095Y-137952380D01*
X160988095Y-136952380D01*
X161321428Y-136952380D01*
X161416666Y-137000000D01*
X161464285Y-137047619D01*
X161511904Y-137142857D01*
X161511904Y-137238095D01*
X161464285Y-137333333D01*
X161416666Y-137380952D01*
X161321428Y-137428571D01*
X160988095Y-137428571D01*
X159011904Y-137666666D02*
X159488095Y-137666666D01*
X158916666Y-137952380D02*
X159250000Y-136952380D01*
X159583333Y-137952380D01*
X156964285Y-137952380D02*
X156964285Y-136952380D01*
X157535714Y-137952380D01*
X157535714Y-136952380D01*
X127580952Y-95852380D02*
X127009523Y-95852380D01*
X127295238Y-95852380D02*
X127295238Y-94852380D01*
X127200000Y-94995238D01*
X127104761Y-95090476D01*
X127009523Y-95138095D01*
X128200000Y-94852380D02*
X128295238Y-94852380D01*
X128390476Y-94900000D01*
X128438095Y-94947619D01*
X128485714Y-95042857D01*
X128533333Y-95233333D01*
X128533333Y-95471428D01*
X128485714Y-95661904D01*
X128438095Y-95757142D01*
X128390476Y-95804761D01*
X128295238Y-95852380D01*
X128200000Y-95852380D01*
X128104761Y-95804761D01*
X128057142Y-95757142D01*
X128009523Y-95661904D01*
X127961904Y-95471428D01*
X127961904Y-95233333D01*
X128009523Y-95042857D01*
X128057142Y-94947619D01*
X128104761Y-94900000D01*
X128200000Y-94852380D01*
X128819047Y-94852380D02*
X129152380Y-95852380D01*
X129485714Y-94852380D01*
X141738095Y-116702380D02*
X141404761Y-116226190D01*
X141166666Y-116702380D02*
X141166666Y-115702380D01*
X141547619Y-115702380D01*
X141642857Y-115750000D01*
X141690476Y-115797619D01*
X141738095Y-115892857D01*
X141738095Y-116035714D01*
X141690476Y-116130952D01*
X141642857Y-116178571D01*
X141547619Y-116226190D01*
X141166666Y-116226190D01*
X142071428Y-115702380D02*
X142309523Y-116702380D01*
X142500000Y-115988095D01*
X142690476Y-116702380D01*
X142928571Y-115702380D01*
X139738095Y-116178571D02*
X139404761Y-116178571D01*
X139404761Y-116702380D02*
X139404761Y-115702380D01*
X139880952Y-115702380D01*
X140738095Y-116702380D02*
X140261904Y-116702380D01*
X140261904Y-115702380D01*
X137190476Y-116654761D02*
X137333333Y-116702380D01*
X137571428Y-116702380D01*
X137666666Y-116654761D01*
X137714285Y-116607142D01*
X137761904Y-116511904D01*
X137761904Y-116416666D01*
X137714285Y-116321428D01*
X137666666Y-116273809D01*
X137571428Y-116226190D01*
X137380952Y-116178571D01*
X137285714Y-116130952D01*
X137238095Y-116083333D01*
X137190476Y-115988095D01*
X137190476Y-115892857D01*
X137238095Y-115797619D01*
X137285714Y-115750000D01*
X137380952Y-115702380D01*
X137619047Y-115702380D01*
X137761904Y-115750000D01*
X138190476Y-116702380D02*
X138190476Y-115702380D01*
X138761904Y-116702380D01*
X138761904Y-115702380D01*
X135190476Y-115702380D02*
X135761904Y-115702380D01*
X135476190Y-116702380D02*
X135476190Y-115702380D01*
X136095238Y-116702380D02*
X136095238Y-115702380D01*
X136095238Y-116178571D02*
X136666666Y-116178571D01*
X136666666Y-116702380D02*
X136666666Y-115702380D01*
X133214285Y-115702380D02*
X133785714Y-115702380D01*
X133500000Y-116702380D02*
X133500000Y-115702380D01*
X134690476Y-116702380D02*
X134357142Y-116226190D01*
X134119047Y-116702380D02*
X134119047Y-115702380D01*
X134500000Y-115702380D01*
X134595238Y-115750000D01*
X134642857Y-115797619D01*
X134690476Y-115892857D01*
X134690476Y-116035714D01*
X134642857Y-116130952D01*
X134595238Y-116178571D01*
X134500000Y-116226190D01*
X134119047Y-116226190D01*
X157416666Y-113702380D02*
X157750000Y-114702380D01*
X158083333Y-113702380D01*
X158750000Y-114178571D02*
X158892857Y-114226190D01*
X158940476Y-114273809D01*
X158988095Y-114369047D01*
X158988095Y-114511904D01*
X158940476Y-114607142D01*
X158892857Y-114654761D01*
X158797619Y-114702380D01*
X158416666Y-114702380D01*
X158416666Y-113702380D01*
X158750000Y-113702380D01*
X158845238Y-113750000D01*
X158892857Y-113797619D01*
X158940476Y-113892857D01*
X158940476Y-113988095D01*
X158892857Y-114083333D01*
X158845238Y-114130952D01*
X158750000Y-114178571D01*
X158416666Y-114178571D01*
X159416666Y-113702380D02*
X159416666Y-114511904D01*
X159464285Y-114607142D01*
X159511904Y-114654761D01*
X159607142Y-114702380D01*
X159797619Y-114702380D01*
X159892857Y-114654761D01*
X159940476Y-114607142D01*
X159988095Y-114511904D01*
X159988095Y-113702380D01*
X160416666Y-114654761D02*
X160559523Y-114702380D01*
X160797619Y-114702380D01*
X160892857Y-114654761D01*
X160940476Y-114607142D01*
X160988095Y-114511904D01*
X160988095Y-114416666D01*
X160940476Y-114321428D01*
X160892857Y-114273809D01*
X160797619Y-114226190D01*
X160607142Y-114178571D01*
X160511904Y-114130952D01*
X160464285Y-114083333D01*
X160416666Y-113988095D01*
X160416666Y-113892857D01*
X160464285Y-113797619D01*
X160511904Y-113750000D01*
X160607142Y-113702380D01*
X160845238Y-113702380D01*
X160988095Y-113750000D01*
X129988095Y-124452380D02*
X129988095Y-123452380D01*
X130226190Y-123452380D01*
X130369047Y-123500000D01*
X130464285Y-123595238D01*
X130511904Y-123690476D01*
X130559523Y-123880952D01*
X130559523Y-124023809D01*
X130511904Y-124214285D01*
X130464285Y-124309523D01*
X130369047Y-124404761D01*
X130226190Y-124452380D01*
X129988095Y-124452380D01*
X131511904Y-123500000D02*
X131416666Y-123452380D01*
X131273809Y-123452380D01*
X131130952Y-123500000D01*
X131035714Y-123595238D01*
X130988095Y-123690476D01*
X130940476Y-123880952D01*
X130940476Y-124023809D01*
X130988095Y-124214285D01*
X131035714Y-124309523D01*
X131130952Y-124404761D01*
X131273809Y-124452380D01*
X131369047Y-124452380D01*
X131511904Y-124404761D01*
X131559523Y-124357142D01*
X131559523Y-124023809D01*
X131369047Y-124023809D01*
X118238095Y-142452380D02*
X118238095Y-141452380D01*
X118476190Y-141452380D01*
X118619047Y-141500000D01*
X118714285Y-141595238D01*
X118761904Y-141690476D01*
X118809523Y-141880952D01*
X118809523Y-142023809D01*
X118761904Y-142214285D01*
X118714285Y-142309523D01*
X118619047Y-142404761D01*
X118476190Y-142452380D01*
X118238095Y-142452380D01*
X119761904Y-141500000D02*
X119666666Y-141452380D01*
X119523809Y-141452380D01*
X119380952Y-141500000D01*
X119285714Y-141595238D01*
X119238095Y-141690476D01*
X119190476Y-141880952D01*
X119190476Y-142023809D01*
X119238095Y-142214285D01*
X119285714Y-142309523D01*
X119380952Y-142404761D01*
X119523809Y-142452380D01*
X119619047Y-142452380D01*
X119761904Y-142404761D01*
X119809523Y-142357142D01*
X119809523Y-142023809D01*
X119619047Y-142023809D01*
X157738095Y-142452380D02*
X157738095Y-141452380D01*
X157976190Y-141452380D01*
X158119047Y-141500000D01*
X158214285Y-141595238D01*
X158261904Y-141690476D01*
X158309523Y-141880952D01*
X158309523Y-142023809D01*
X158261904Y-142214285D01*
X158214285Y-142309523D01*
X158119047Y-142404761D01*
X157976190Y-142452380D01*
X157738095Y-142452380D01*
X159261904Y-141500000D02*
X159166666Y-141452380D01*
X159023809Y-141452380D01*
X158880952Y-141500000D01*
X158785714Y-141595238D01*
X158738095Y-141690476D01*
X158690476Y-141880952D01*
X158690476Y-142023809D01*
X158738095Y-142214285D01*
X158785714Y-142309523D01*
X158880952Y-142404761D01*
X159023809Y-142452380D01*
X159119047Y-142452380D01*
X159261904Y-142404761D01*
X159309523Y-142357142D01*
X159309523Y-142023809D01*
X159119047Y-142023809D01*
X122845238Y-81952380D02*
X123178571Y-82952380D01*
X123511904Y-81952380D01*
X123845238Y-82952380D02*
X123845238Y-81952380D01*
X124178571Y-82666666D01*
X124511904Y-81952380D01*
X124511904Y-82952380D01*
X158404761Y-110607142D02*
X158357142Y-110654761D01*
X158214285Y-110702380D01*
X158119047Y-110702380D01*
X157976190Y-110654761D01*
X157880952Y-110559523D01*
X157833333Y-110464285D01*
X157785714Y-110273809D01*
X157785714Y-110130952D01*
X157833333Y-109940476D01*
X157880952Y-109845238D01*
X157976190Y-109750000D01*
X158119047Y-109702380D01*
X158214285Y-109702380D01*
X158357142Y-109750000D01*
X158404761Y-109797619D01*
X159309523Y-110702380D02*
X158833333Y-110702380D01*
X158833333Y-109702380D01*
X158166666Y-98678571D02*
X158309523Y-98726190D01*
X158357142Y-98773809D01*
X158404761Y-98869047D01*
X158404761Y-99011904D01*
X158357142Y-99107142D01*
X158309523Y-99154761D01*
X158214285Y-99202380D01*
X157833333Y-99202380D01*
X157833333Y-98202380D01*
X158166666Y-98202380D01*
X158261904Y-98250000D01*
X158309523Y-98297619D01*
X158357142Y-98392857D01*
X158357142Y-98488095D01*
X158309523Y-98583333D01*
X158261904Y-98630952D01*
X158166666Y-98678571D01*
X157833333Y-98678571D01*
X159309523Y-99202380D02*
X158833333Y-99202380D01*
X158833333Y-98202380D01*
X157857142Y-87666666D02*
X158333333Y-87666666D01*
X157761904Y-87952380D02*
X158095238Y-86952380D01*
X158428571Y-87952380D01*
X159238095Y-87952380D02*
X158761904Y-87952380D01*
X158761904Y-86952380D01*
X143535714Y-99607142D02*
X143488095Y-99654761D01*
X143345238Y-99702380D01*
X143250000Y-99702380D01*
X143107142Y-99654761D01*
X143011904Y-99559523D01*
X142964285Y-99464285D01*
X142916666Y-99273809D01*
X142916666Y-99130952D01*
X142964285Y-98940476D01*
X143011904Y-98845238D01*
X143107142Y-98750000D01*
X143250000Y-98702380D01*
X143345238Y-98702380D01*
X143488095Y-98750000D01*
X143535714Y-98797619D01*
X143964285Y-99702380D02*
X143964285Y-98702380D01*
X143964285Y-99178571D02*
X144535714Y-99178571D01*
X144535714Y-99702380D02*
X144535714Y-98702380D01*
X143297619Y-88428571D02*
X143440476Y-88476190D01*
X143488095Y-88523809D01*
X143535714Y-88619047D01*
X143535714Y-88761904D01*
X143488095Y-88857142D01*
X143440476Y-88904761D01*
X143345238Y-88952380D01*
X142964285Y-88952380D01*
X142964285Y-87952380D01*
X143297619Y-87952380D01*
X143392857Y-88000000D01*
X143440476Y-88047619D01*
X143488095Y-88142857D01*
X143488095Y-88238095D01*
X143440476Y-88333333D01*
X143392857Y-88380952D01*
X143297619Y-88428571D01*
X142964285Y-88428571D01*
X143964285Y-88952380D02*
X143964285Y-87952380D01*
X143964285Y-88428571D02*
X144535714Y-88428571D01*
X144535714Y-88952380D02*
X144535714Y-87952380D01*
X142988095Y-79916666D02*
X143464285Y-79916666D01*
X142892857Y-80202380D02*
X143226190Y-79202380D01*
X143559523Y-80202380D01*
X143892857Y-80202380D02*
X143892857Y-79202380D01*
X143892857Y-79678571D02*
X144464285Y-79678571D01*
X144464285Y-80202380D02*
X144464285Y-79202380D01*
X159761904Y-72678571D02*
X160095238Y-72678571D01*
X160238095Y-73202380D02*
X159761904Y-73202380D01*
X159761904Y-72202380D01*
X160238095Y-72202380D01*
X160666666Y-73202380D02*
X160666666Y-72202380D01*
X161238095Y-73202380D01*
X161238095Y-72202380D01*
X148202380Y-66869047D02*
X148202380Y-67440476D01*
X148202380Y-67154761D02*
X147202380Y-67154761D01*
X147345238Y-67250000D01*
X147440476Y-67345238D01*
X147488095Y-67440476D01*
X147297619Y-66488095D02*
X147250000Y-66440476D01*
X147202380Y-66345238D01*
X147202380Y-66107142D01*
X147250000Y-66011904D01*
X147297619Y-65964285D01*
X147392857Y-65916666D01*
X147488095Y-65916666D01*
X147630952Y-65964285D01*
X148202380Y-66535714D01*
X148202380Y-65916666D01*
X147202380Y-65630952D02*
X148202380Y-65297619D01*
X147202380Y-64964285D01*
X147678571Y-76000000D02*
X147678571Y-75666666D01*
X148202380Y-75523809D02*
X148202380Y-76000000D01*
X147202380Y-76000000D01*
X147202380Y-75523809D01*
X147678571Y-74761904D02*
X147678571Y-75095238D01*
X148202380Y-75095238D02*
X147202380Y-75095238D01*
X147202380Y-74619047D01*
X148154761Y-74285714D02*
X148202380Y-74142857D01*
X148202380Y-73904761D01*
X148154761Y-73809523D01*
X148107142Y-73761904D01*
X148011904Y-73714285D01*
X147916666Y-73714285D01*
X147821428Y-73761904D01*
X147773809Y-73809523D01*
X147726190Y-73904761D01*
X147678571Y-74095238D01*
X147630952Y-74190476D01*
X147583333Y-74238095D01*
X147488095Y-74285714D01*
X147392857Y-74285714D01*
X147297619Y-74238095D01*
X147250000Y-74190476D01*
X147202380Y-74095238D01*
X147202380Y-73857142D01*
X147250000Y-73714285D01*
X148297619Y-73523809D02*
X148297619Y-72761904D01*
X147250000Y-72000000D02*
X147202380Y-72095238D01*
X147202380Y-72238095D01*
X147250000Y-72380952D01*
X147345238Y-72476190D01*
X147440476Y-72523809D01*
X147630952Y-72571428D01*
X147773809Y-72571428D01*
X147964285Y-72523809D01*
X148059523Y-72476190D01*
X148154761Y-72380952D01*
X148202380Y-72238095D01*
X148202380Y-72142857D01*
X148154761Y-72000000D01*
X148107142Y-71952380D01*
X147773809Y-71952380D01*
X147773809Y-72142857D01*
X158988095Y-76202380D02*
X158988095Y-75202380D01*
X159369047Y-75202380D01*
X159464285Y-75250000D01*
X159511904Y-75297619D01*
X159559523Y-75392857D01*
X159559523Y-75535714D01*
X159511904Y-75630952D01*
X159464285Y-75678571D01*
X159369047Y-75726190D01*
X158988095Y-75726190D01*
X160511904Y-75250000D02*
X160416666Y-75202380D01*
X160273809Y-75202380D01*
X160130952Y-75250000D01*
X160035714Y-75345238D01*
X159988095Y-75440476D01*
X159940476Y-75630952D01*
X159940476Y-75773809D01*
X159988095Y-75964285D01*
X160035714Y-76059523D01*
X160130952Y-76154761D01*
X160273809Y-76202380D01*
X160369047Y-76202380D01*
X160511904Y-76154761D01*
X160559523Y-76107142D01*
X160559523Y-75773809D01*
X160369047Y-75773809D01*
D11*
X156550000Y-139450000D02*
X156550000Y-138050000D01*
X157950000Y-139450000D02*
X156550000Y-139450000D01*
X157950000Y-138050000D02*
X157950000Y-139450000D01*
X156550000Y-138050000D02*
X157950000Y-138050000D01*
X160050000Y-110950000D02*
X160050000Y-109550000D01*
X161450000Y-110950000D02*
X160050000Y-110950000D01*
X161450000Y-109550000D02*
X161450000Y-110950000D01*
X160050000Y-109550000D02*
X161450000Y-109550000D01*
X162550000Y-139450000D02*
X162550000Y-138050000D01*
X163950000Y-139450000D02*
X162550000Y-139450000D01*
X163950000Y-138050000D02*
X163950000Y-139450000D01*
X162550000Y-138050000D02*
X163950000Y-138050000D01*
X114050000Y-104950000D02*
X114050000Y-103550000D01*
X115450000Y-104950000D02*
X114050000Y-104950000D01*
X115450000Y-103550000D02*
X115450000Y-104950000D01*
X114050000Y-103550000D02*
X115450000Y-103550000D01*
D10*
X163900000Y-75750000D02*
G75*
G03X163900000Y-75750000I-1400000J0D01*
G01*
D11*
X155550000Y-114950000D02*
X155550000Y-113550000D01*
X156950000Y-114950000D02*
X155550000Y-114950000D01*
X156950000Y-113550000D02*
X156950000Y-114950000D01*
X155550000Y-113550000D02*
X156950000Y-113550000D01*
X145050000Y-99950000D02*
X145050000Y-98550000D01*
X146450000Y-99950000D02*
X145050000Y-99950000D01*
X146450000Y-98550000D02*
X146450000Y-99950000D01*
X145050000Y-98550000D02*
X146450000Y-98550000D01*
X133300000Y-115200000D02*
X133300000Y-113800000D01*
X134700000Y-115200000D02*
X133300000Y-115200000D01*
X134700000Y-113800000D02*
X134700000Y-115200000D01*
X133300000Y-113800000D02*
X134700000Y-113800000D01*
X160550000Y-139450000D02*
X160550000Y-138050000D01*
X161950000Y-139450000D02*
X160550000Y-139450000D01*
X161950000Y-138050000D02*
X161950000Y-139450000D01*
X160550000Y-138050000D02*
X161950000Y-138050000D01*
X114050000Y-106950000D02*
X114050000Y-105550000D01*
X115450000Y-106950000D02*
X114050000Y-106950000D01*
X115450000Y-105550000D02*
X115450000Y-106950000D01*
X114050000Y-105550000D02*
X115450000Y-105550000D01*
X160050000Y-99450000D02*
X160050000Y-98050000D01*
X161450000Y-99450000D02*
X160050000Y-99450000D01*
X161450000Y-98050000D02*
X161450000Y-99450000D01*
X160050000Y-98050000D02*
X161450000Y-98050000D01*
X135300000Y-115200000D02*
X135300000Y-113800000D01*
X136700000Y-115200000D02*
X135300000Y-115200000D01*
X136700000Y-113800000D02*
X136700000Y-115200000D01*
X135300000Y-113800000D02*
X136700000Y-113800000D01*
X158550000Y-139450000D02*
X158550000Y-138050000D01*
X159950000Y-139450000D02*
X158550000Y-139450000D01*
X159950000Y-138050000D02*
X159950000Y-139450000D01*
X158550000Y-138050000D02*
X159950000Y-138050000D01*
X115450000Y-97800000D02*
X115450000Y-99200000D01*
X114050000Y-97800000D02*
X115450000Y-97800000D01*
X114050000Y-99200000D02*
X114050000Y-97800000D01*
X115450000Y-99200000D02*
X114050000Y-99200000D01*
X162050000Y-110950000D02*
X162050000Y-109550000D01*
X163450000Y-110950000D02*
X162050000Y-110950000D01*
X163450000Y-109550000D02*
X163450000Y-110950000D01*
X162050000Y-109550000D02*
X163450000Y-109550000D01*
X145050000Y-89200000D02*
X145050000Y-87800000D01*
X146450000Y-89200000D02*
X145050000Y-89200000D01*
X146450000Y-87800000D02*
X146450000Y-89200000D01*
X145050000Y-87800000D02*
X146450000Y-87800000D01*
X137300000Y-115200000D02*
X137300000Y-113800000D01*
X138700000Y-115200000D02*
X137300000Y-115200000D01*
X138700000Y-113800000D02*
X138700000Y-115200000D01*
X137300000Y-113800000D02*
X138700000Y-113800000D01*
X132300000Y-130950000D02*
X132300000Y-129550000D01*
X133700000Y-130950000D02*
X132300000Y-130950000D01*
X133700000Y-129550000D02*
X133700000Y-130950000D01*
X132300000Y-129550000D02*
X133700000Y-129550000D01*
X115450000Y-101550000D02*
X115450000Y-102950000D01*
X114050000Y-101550000D02*
X115450000Y-101550000D01*
X114050000Y-102950000D02*
X114050000Y-101550000D01*
X115450000Y-102950000D02*
X114050000Y-102950000D01*
X161800000Y-73450000D02*
X161800000Y-72050000D01*
X163200000Y-73450000D02*
X161800000Y-73450000D01*
X163200000Y-72050000D02*
X163200000Y-73450000D01*
X161800000Y-72050000D02*
X163200000Y-72050000D01*
D10*
X135150000Y-124000000D02*
G75*
G03X135150000Y-124000000I-1400000J0D01*
G01*
D11*
X114050000Y-108950000D02*
X114050000Y-107550000D01*
X115450000Y-108950000D02*
X114050000Y-108950000D01*
X115450000Y-107550000D02*
X115450000Y-108950000D01*
X114050000Y-107550000D02*
X115450000Y-107550000D01*
X162050000Y-99450000D02*
X162050000Y-98050000D01*
X163450000Y-99450000D02*
X162050000Y-99450000D01*
X163450000Y-98050000D02*
X163450000Y-99450000D01*
X162050000Y-98050000D02*
X163450000Y-98050000D01*
X160050000Y-88200000D02*
X160050000Y-86800000D01*
X161450000Y-88200000D02*
X160050000Y-88200000D01*
X161450000Y-86800000D02*
X161450000Y-88200000D01*
X160050000Y-86800000D02*
X161450000Y-86800000D01*
X139300000Y-115200000D02*
X139300000Y-113800000D01*
X140700000Y-115200000D02*
X139300000Y-115200000D01*
X140700000Y-113800000D02*
X140700000Y-115200000D01*
X139300000Y-113800000D02*
X140700000Y-113800000D01*
X134300000Y-130950000D02*
X134300000Y-129550000D01*
X135700000Y-130950000D02*
X134300000Y-130950000D01*
X135700000Y-129550000D02*
X135700000Y-130950000D01*
X134300000Y-129550000D02*
X135700000Y-129550000D01*
X114050000Y-97200000D02*
X114050000Y-95800000D01*
X115450000Y-97200000D02*
X114050000Y-97200000D01*
X115450000Y-95800000D02*
X115450000Y-97200000D01*
X114050000Y-95800000D02*
X115450000Y-95800000D01*
X147050000Y-70050000D02*
X148450000Y-70050000D01*
X148450000Y-70050000D02*
X148450000Y-71450000D01*
X148450000Y-71450000D02*
X147050000Y-71450000D01*
X147050000Y-71450000D02*
X147050000Y-70050000D01*
X162050000Y-88200000D02*
X162050000Y-86800000D01*
X163450000Y-88200000D02*
X162050000Y-88200000D01*
X163450000Y-86800000D02*
X163450000Y-88200000D01*
X162050000Y-86800000D02*
X163450000Y-86800000D01*
X145050000Y-80450000D02*
X145050000Y-79050000D01*
X146450000Y-80450000D02*
X145050000Y-80450000D01*
X146450000Y-79050000D02*
X146450000Y-80450000D01*
X145050000Y-79050000D02*
X146450000Y-79050000D01*
X141300000Y-115200000D02*
X141300000Y-113800000D01*
X142700000Y-115200000D02*
X141300000Y-115200000D01*
X142700000Y-113800000D02*
X142700000Y-115200000D01*
X141300000Y-113800000D02*
X142700000Y-113800000D01*
X130300000Y-130950000D02*
X130300000Y-129550000D01*
X131700000Y-130950000D02*
X130300000Y-130950000D01*
X131700000Y-129550000D02*
X131700000Y-130950000D01*
X130300000Y-129550000D02*
X131700000Y-129550000D01*
X114050000Y-101200000D02*
X114050000Y-99800000D01*
X115450000Y-101200000D02*
X114050000Y-101200000D01*
X115450000Y-99800000D02*
X115450000Y-101200000D01*
X114050000Y-99800000D02*
X115450000Y-99800000D01*
X123050000Y-81700000D02*
X123050000Y-80300000D01*
X124450000Y-81700000D02*
X123050000Y-81700000D01*
X124450000Y-80300000D02*
X124450000Y-81700000D01*
X123050000Y-80300000D02*
X124450000Y-80300000D01*
D10*
X117650000Y-142000000D02*
G75*
G03X117650000Y-142000000I-1400000J0D01*
G01*
D11*
X127550000Y-97700000D02*
X127550000Y-96300000D01*
X128950000Y-97700000D02*
X127550000Y-97700000D01*
X128950000Y-96300000D02*
X128950000Y-97700000D01*
X127550000Y-96300000D02*
X128950000Y-96300000D01*
D10*
X162650000Y-142000000D02*
G75*
G03X162650000Y-142000000I-1400000J0D01*
G01*
D11*
X147050000Y-69450000D02*
X147050000Y-68050000D01*
X148450000Y-69450000D02*
X147050000Y-69450000D01*
X148450000Y-68050000D02*
X148450000Y-69450000D01*
X147050000Y-68050000D02*
X148450000Y-68050000D01*
X158420000Y-135250000D02*
X158420000Y-133920000D01*
X158420000Y-133920000D02*
X159750000Y-133920000D01*
X161020000Y-133920000D02*
X163620000Y-133920000D01*
X163620000Y-136580000D02*
X163620000Y-133920000D01*
X161020000Y-136580000D02*
X163620000Y-136580000D01*
X161020000Y-136580000D02*
X161020000Y-133920000D01*
X144830000Y-135250000D02*
X144830000Y-136580000D01*
X144830000Y-136580000D02*
X143500000Y-136580000D01*
X142230000Y-136580000D02*
X139630000Y-136580000D01*
X139630000Y-133920000D02*
X139630000Y-136580000D01*
X142230000Y-133920000D02*
X139630000Y-133920000D01*
X142230000Y-133920000D02*
X142230000Y-136580000D01*
X163580000Y-131500000D02*
X163580000Y-132830000D01*
X163580000Y-132830000D02*
X162250000Y-132830000D01*
X160980000Y-132830000D02*
X158380000Y-132830000D01*
X158380000Y-130170000D02*
X158380000Y-132830000D01*
X160980000Y-130170000D02*
X158380000Y-130170000D01*
X160980000Y-130170000D02*
X160980000Y-132830000D01*
X157330000Y-135250000D02*
X157330000Y-136580000D01*
X157330000Y-136580000D02*
X156000000Y-136580000D01*
X154730000Y-136580000D02*
X152130000Y-136580000D01*
X152130000Y-133920000D02*
X152130000Y-136580000D01*
X154730000Y-133920000D02*
X152130000Y-133920000D01*
X154730000Y-133920000D02*
X154730000Y-136580000D01*
X145920000Y-135250000D02*
X145920000Y-133920000D01*
X145920000Y-133920000D02*
X147250000Y-133920000D01*
X148520000Y-133920000D02*
X151120000Y-133920000D01*
X151120000Y-136580000D02*
X151120000Y-133920000D01*
X148520000Y-136580000D02*
X151120000Y-136580000D01*
X148520000Y-136580000D02*
X148520000Y-133920000D01*
X163580000Y-128000000D02*
X163580000Y-129330000D01*
X163580000Y-129330000D02*
X162250000Y-129330000D01*
X160980000Y-129330000D02*
X158380000Y-129330000D01*
X158380000Y-126670000D02*
X158380000Y-129330000D01*
X160980000Y-126670000D02*
X158380000Y-126670000D01*
X160980000Y-126670000D02*
X160980000Y-129330000D01*
X132530000Y-119400000D02*
X132530000Y-120730000D01*
X132530000Y-120730000D02*
X131200000Y-120730000D01*
X129930000Y-120730000D02*
X127330000Y-120730000D01*
X127330000Y-118070000D02*
X127330000Y-120730000D01*
X129930000Y-118070000D02*
X127330000Y-118070000D01*
X129930000Y-118070000D02*
X129930000Y-120730000D01*
X137590000Y-80920000D02*
X135940000Y-80920000D01*
X137590000Y-91200000D02*
X137590000Y-80920000D01*
X132290000Y-91200000D02*
X137590000Y-91200000D01*
X132290000Y-80920000D02*
X132290000Y-91200000D01*
X133940000Y-80920000D02*
X132290000Y-80920000D01*
X135940000Y-80920000D02*
G75*
G02X133940000Y-80920000I-1000000J0D01*
G01*
X125510000Y-133920000D02*
X125510000Y-136580000D01*
X135730000Y-133920000D02*
X125510000Y-133920000D01*
X135730000Y-136580000D02*
X125510000Y-136580000D01*
X135730000Y-133920000D02*
X135730000Y-136580000D01*
X137000000Y-133920000D02*
X138330000Y-133920000D01*
X138330000Y-133920000D02*
X138330000Y-135250000D01*
D12*
X122250000Y-67500000D02*
X117250000Y-67500000D01*
X122250000Y-82500000D02*
X122250000Y-67500000D01*
X113250000Y-82500000D02*
X122250000Y-82500000D01*
X113250000Y-70000000D02*
X113250000Y-82500000D01*
D11*
X125250000Y-69500000D02*
X130250000Y-69500000D01*
X125250000Y-65500000D02*
X125250000Y-69500000D01*
X130250000Y-65500000D02*
X125250000Y-65500000D01*
X130250000Y-69500000D02*
X130250000Y-65500000D01*
X137250000Y-75500000D02*
X137250000Y-77800000D01*
X137250000Y-77800000D02*
X137250000Y-77900000D01*
X137250000Y-77900000D02*
X137250000Y-78000000D01*
X137250000Y-78000000D02*
X125250000Y-78000000D01*
X125250000Y-78000000D02*
X125350000Y-78000000D01*
X125350000Y-78000000D02*
X125250000Y-78000000D01*
X125250000Y-78000000D02*
X125250000Y-73000000D01*
X125250000Y-73000000D02*
X137250000Y-73000000D01*
X137250000Y-73000000D02*
X137250000Y-75500000D01*
X137250000Y-72250000D02*
X137250000Y-74550000D01*
X137250000Y-74550000D02*
X137250000Y-74650000D01*
X137250000Y-74650000D02*
X137250000Y-74750000D01*
X137250000Y-74750000D02*
X125250000Y-74750000D01*
X125250000Y-74750000D02*
X125350000Y-74750000D01*
X125350000Y-74750000D02*
X125250000Y-74750000D01*
X125250000Y-74750000D02*
X125250000Y-69750000D01*
X125250000Y-69750000D02*
X137250000Y-69750000D01*
X137250000Y-69750000D02*
X137250000Y-72250000D01*
X137250000Y-78750000D02*
X137250000Y-81050000D01*
X137250000Y-81050000D02*
X137250000Y-81150000D01*
X137250000Y-81150000D02*
X137250000Y-81250000D01*
X137250000Y-81250000D02*
X125250000Y-81250000D01*
X125250000Y-81250000D02*
X125350000Y-81250000D01*
X125350000Y-81250000D02*
X125250000Y-81250000D01*
X125250000Y-81250000D02*
X125250000Y-76250000D01*
X125250000Y-76250000D02*
X137250000Y-76250000D01*
X137250000Y-76250000D02*
X137250000Y-78750000D01*
X151299986Y-137600833D02*
G75*
G02X151200000Y-137600000I-99986J-5999167D01*
G01*
X137560000Y-102420000D02*
X135910000Y-102420000D01*
X137560000Y-112700000D02*
X137560000Y-102420000D01*
X132260000Y-112700000D02*
X137560000Y-112700000D01*
X132260000Y-102420000D02*
X132260000Y-112700000D01*
X133910000Y-102420000D02*
X132260000Y-102420000D01*
X135910000Y-102420000D02*
G75*
G02X133910000Y-102420000I-1000000J0D01*
G01*
X137560000Y-91630000D02*
X135910000Y-91630000D01*
X137560000Y-101910000D02*
X137560000Y-91630000D01*
X132260000Y-101910000D02*
X137560000Y-101910000D01*
X132260000Y-91630000D02*
X132260000Y-101910000D01*
X133910000Y-91630000D02*
X132260000Y-91630000D01*
X135910000Y-91630000D02*
G75*
G02X133910000Y-91630000I-1000000J0D01*
G01*
X136770000Y-125340000D02*
X136770000Y-126990000D01*
X154670000Y-125340000D02*
X136770000Y-125340000D01*
X154670000Y-130640000D02*
X154670000Y-125340000D01*
X136770000Y-130640000D02*
X154670000Y-130640000D01*
X136770000Y-128990000D02*
X136770000Y-130640000D01*
X136770000Y-126990000D02*
G75*
G02X136770000Y-128990000I0J-1000000D01*
G01*
X154630000Y-119010000D02*
G75*
G02X154630000Y-117010000I0J1000000D01*
G01*
X154630000Y-117010000D02*
X154630000Y-115360000D01*
X154630000Y-115360000D02*
X144350000Y-115360000D01*
X144350000Y-115360000D02*
X144350000Y-120660000D01*
X144350000Y-120660000D02*
X154630000Y-120660000D01*
X154630000Y-120660000D02*
X154630000Y-119010000D01*
X120520000Y-83070000D02*
X120520000Y-93310000D01*
X115879000Y-83070000D02*
X115879000Y-93310000D01*
X120520000Y-83070000D02*
X115879000Y-83070000D01*
X120520000Y-93310000D02*
X115879000Y-93310000D01*
X119010000Y-83070000D02*
X119010000Y-93310000D01*
X120520000Y-86340000D02*
X119010000Y-86340000D01*
X120520000Y-90041000D02*
X119010000Y-90041000D01*
X125770000Y-83070000D02*
X125770000Y-93310000D01*
X121129000Y-83070000D02*
X121129000Y-93310000D01*
X125770000Y-83070000D02*
X121129000Y-83070000D01*
X125770000Y-93310000D02*
X121129000Y-93310000D01*
X124260000Y-83070000D02*
X124260000Y-93310000D01*
X125770000Y-86340000D02*
X124260000Y-86340000D01*
X125770000Y-90041000D02*
X124260000Y-90041000D01*
X120540000Y-130930000D02*
G75*
G02X122540000Y-130930000I1000000J0D01*
G01*
X122540000Y-130930000D02*
X124190000Y-130930000D01*
X124190000Y-130930000D02*
X124190000Y-95250000D01*
X124190000Y-95250000D02*
X118890000Y-95250000D01*
X118890000Y-95250000D02*
X118890000Y-130930000D01*
X118890000Y-130930000D02*
X120540000Y-130930000D01*
X126300000Y-148000000D02*
X126300000Y-147000000D01*
X124500000Y-148000000D02*
X126300000Y-148000000D01*
X126300000Y-139000000D02*
X126300000Y-140000000D01*
X124500000Y-139000000D02*
X126300000Y-139000000D01*
X122700000Y-139000000D02*
X122700000Y-140000000D01*
X124500000Y-139000000D02*
X122700000Y-139000000D01*
X122700000Y-147000000D02*
X122700000Y-147100000D01*
X122700000Y-148000000D02*
X122700000Y-147100000D01*
X124500000Y-148000000D02*
X122700000Y-148000000D01*
X160460000Y-123511252D02*
X160460000Y-122988748D01*
X159040000Y-123511252D02*
X159040000Y-122988748D01*
X157210000Y-123511252D02*
X157210000Y-122988748D01*
X155790000Y-123511252D02*
X155790000Y-122988748D01*
X163710000Y-123536252D02*
X163710000Y-123013748D01*
X162290000Y-123536252D02*
X162290000Y-123013748D01*
X160963748Y-71210000D02*
X161486252Y-71210000D01*
X160963748Y-69790000D02*
X161486252Y-69790000D01*
X160988748Y-68960000D02*
X161511252Y-68960000D01*
X160988748Y-67540000D02*
X161511252Y-67540000D01*
X152480000Y-103359000D02*
X153990000Y-103359000D01*
X152480000Y-107060000D02*
X153990000Y-107060000D01*
X153990000Y-110330000D02*
X153990000Y-100090000D01*
X152480000Y-100090000D02*
X157121000Y-100090000D01*
X152480000Y-110330000D02*
X157121000Y-110330000D01*
X157121000Y-110330000D02*
X157121000Y-100090000D01*
X152480000Y-110330000D02*
X152480000Y-100090000D01*
X151520000Y-107141000D02*
X150010000Y-107141000D01*
X151520000Y-103440000D02*
X150010000Y-103440000D01*
X150010000Y-100170000D02*
X150010000Y-110410000D01*
X151520000Y-110410000D02*
X146879000Y-110410000D01*
X151520000Y-100170000D02*
X146879000Y-100170000D01*
X146879000Y-100170000D02*
X146879000Y-110410000D01*
X151520000Y-100170000D02*
X151520000Y-110410000D01*
X152480000Y-92109000D02*
X153990000Y-92109000D01*
X152480000Y-95810000D02*
X153990000Y-95810000D01*
X153990000Y-99080000D02*
X153990000Y-88840000D01*
X152480000Y-88840000D02*
X157121000Y-88840000D01*
X152480000Y-99080000D02*
X157121000Y-99080000D01*
X157121000Y-99080000D02*
X157121000Y-88840000D01*
X152480000Y-99080000D02*
X152480000Y-88840000D01*
X151520000Y-95891000D02*
X150010000Y-95891000D01*
X151520000Y-92190000D02*
X150010000Y-92190000D01*
X150010000Y-88920000D02*
X150010000Y-99160000D01*
X151520000Y-99160000D02*
X146879000Y-99160000D01*
X151520000Y-88920000D02*
X146879000Y-88920000D01*
X146879000Y-88920000D02*
X146879000Y-99160000D01*
X151520000Y-88920000D02*
X151520000Y-99160000D01*
X152480000Y-80859000D02*
X153990000Y-80859000D01*
X152480000Y-84560000D02*
X153990000Y-84560000D01*
X153990000Y-87830000D02*
X153990000Y-77590000D01*
X152480000Y-77590000D02*
X157121000Y-77590000D01*
X152480000Y-87830000D02*
X157121000Y-87830000D01*
X157121000Y-87830000D02*
X157121000Y-77590000D01*
X152480000Y-87830000D02*
X152480000Y-77590000D01*
X151520000Y-77630000D02*
X151520000Y-87870000D01*
X146879000Y-77630000D02*
X146879000Y-87870000D01*
X151520000Y-77630000D02*
X146879000Y-77630000D01*
X151520000Y-87870000D02*
X146879000Y-87870000D01*
X150010000Y-77630000D02*
X150010000Y-87870000D01*
X151520000Y-80900000D02*
X150010000Y-80900000D01*
X151520000Y-84601000D02*
X150010000Y-84601000D01*
X139149000Y-71520000D02*
X139149000Y-70010000D01*
X142850000Y-71520000D02*
X142850000Y-70010000D01*
X146120000Y-70010000D02*
X135880000Y-70010000D01*
X135880000Y-71520000D02*
X135880000Y-66879000D01*
X146120000Y-71520000D02*
X146120000Y-66879000D01*
X146120000Y-66879000D02*
X135880000Y-66879000D01*
X146120000Y-71520000D02*
X135880000Y-71520000D01*
X113790000Y-136580000D02*
X113790000Y-135250000D01*
X115120000Y-136580000D02*
X113790000Y-136580000D01*
X116390000Y-136580000D02*
X116390000Y-133920000D01*
X116390000Y-133920000D02*
X124070000Y-133920000D01*
X116390000Y-136580000D02*
X124070000Y-136580000D01*
X124070000Y-136580000D02*
X124070000Y-133920000D01*
X116080000Y-113090000D02*
X113420000Y-113090000D01*
X116080000Y-118230000D02*
X116080000Y-113090000D01*
X113420000Y-118230000D02*
X113420000Y-113090000D01*
X116080000Y-118230000D02*
X113420000Y-118230000D01*
X116080000Y-119500000D02*
X116080000Y-120830000D01*
X116080000Y-120830000D02*
X114750000Y-120830000D01*
X143580000Y-120830000D02*
X143580000Y-118170000D01*
X138440000Y-120830000D02*
X143580000Y-120830000D01*
X138440000Y-118170000D02*
X143580000Y-118170000D01*
X138440000Y-120830000D02*
X138440000Y-118170000D01*
X137170000Y-120830000D02*
X135840000Y-120830000D01*
X135840000Y-120830000D02*
X135840000Y-119500000D01*
X153860000Y-73040000D02*
X151000000Y-73040000D01*
X153860000Y-74960000D02*
X153860000Y-73040000D01*
X151000000Y-74960000D02*
X153860000Y-74960000D01*
X153860000Y-68540000D02*
X151000000Y-68540000D01*
X153860000Y-70460000D02*
X153860000Y-68540000D01*
X151000000Y-70460000D02*
X153860000Y-70460000D01*
X153860000Y-66290000D02*
X151000000Y-66290000D01*
X153860000Y-68210000D02*
X153860000Y-66290000D01*
X151000000Y-68210000D02*
X153860000Y-68210000D01*
X153860000Y-70790000D02*
X151000000Y-70790000D01*
X153860000Y-72710000D02*
X153860000Y-70790000D01*
X151000000Y-72710000D02*
X153860000Y-72710000D01*
X153885000Y-64040000D02*
X151025000Y-64040000D01*
X153885000Y-65960000D02*
X153885000Y-64040000D01*
X151025000Y-65960000D02*
X153885000Y-65960000D01*
X153860000Y-61790000D02*
X151000000Y-61790000D01*
X153860000Y-63710000D02*
X153860000Y-61790000D01*
X151000000Y-63710000D02*
X153860000Y-63710000D01*
X127763748Y-82960000D02*
X128286252Y-82960000D01*
X127763748Y-81540000D02*
X128286252Y-81540000D01*
X141120000Y-63750000D02*
G75*
G03X141120000Y-63750000I-2620000J0D01*
G01*
X139540000Y-63750000D02*
X141080000Y-63750000D01*
X135920000Y-63750000D02*
X137460000Y-63750000D01*
X139540000Y-63710000D02*
X141080000Y-63710000D01*
X135920000Y-63710000D02*
X137460000Y-63710000D01*
X135921000Y-63670000D02*
X137460000Y-63670000D01*
X139540000Y-63670000D02*
X141079000Y-63670000D01*
X135922000Y-63630000D02*
X137460000Y-63630000D01*
X139540000Y-63630000D02*
X141078000Y-63630000D01*
X135924000Y-63590000D02*
X137460000Y-63590000D01*
X139540000Y-63590000D02*
X141076000Y-63590000D01*
X135927000Y-63550000D02*
X137460000Y-63550000D01*
X139540000Y-63550000D02*
X141073000Y-63550000D01*
X135931000Y-63510000D02*
X137460000Y-63510000D01*
X139540000Y-63510000D02*
X141069000Y-63510000D01*
X135935000Y-63470000D02*
X137460000Y-63470000D01*
X139540000Y-63470000D02*
X141065000Y-63470000D01*
X135939000Y-63430000D02*
X137460000Y-63430000D01*
X139540000Y-63430000D02*
X141061000Y-63430000D01*
X135944000Y-63390000D02*
X137460000Y-63390000D01*
X139540000Y-63390000D02*
X141056000Y-63390000D01*
X135950000Y-63350000D02*
X137460000Y-63350000D01*
X139540000Y-63350000D02*
X141050000Y-63350000D01*
X135957000Y-63310000D02*
X137460000Y-63310000D01*
X139540000Y-63310000D02*
X141043000Y-63310000D01*
X135964000Y-63270000D02*
X137460000Y-63270000D01*
X139540000Y-63270000D02*
X141036000Y-63270000D01*
X135972000Y-63230000D02*
X137460000Y-63230000D01*
X139540000Y-63230000D02*
X141028000Y-63230000D01*
X135980000Y-63190000D02*
X137460000Y-63190000D01*
X139540000Y-63190000D02*
X141020000Y-63190000D01*
X135989000Y-63150000D02*
X137460000Y-63150000D01*
X139540000Y-63150000D02*
X141011000Y-63150000D01*
X135999000Y-63110000D02*
X137460000Y-63110000D01*
X139540000Y-63110000D02*
X141001000Y-63110000D01*
X136009000Y-63070000D02*
X137460000Y-63070000D01*
X139540000Y-63070000D02*
X140991000Y-63070000D01*
X136020000Y-63029000D02*
X137460000Y-63029000D01*
X139540000Y-63029000D02*
X140980000Y-63029000D01*
X136032000Y-62989000D02*
X137460000Y-62989000D01*
X139540000Y-62989000D02*
X140968000Y-62989000D01*
X136045000Y-62949000D02*
X137460000Y-62949000D01*
X139540000Y-62949000D02*
X140955000Y-62949000D01*
X136058000Y-62909000D02*
X137460000Y-62909000D01*
X139540000Y-62909000D02*
X140942000Y-62909000D01*
X136072000Y-62869000D02*
X137460000Y-62869000D01*
X139540000Y-62869000D02*
X140928000Y-62869000D01*
X136086000Y-62829000D02*
X137460000Y-62829000D01*
X139540000Y-62829000D02*
X140914000Y-62829000D01*
X136102000Y-62789000D02*
X137460000Y-62789000D01*
X139540000Y-62789000D02*
X140898000Y-62789000D01*
X136118000Y-62749000D02*
X137460000Y-62749000D01*
X139540000Y-62749000D02*
X140882000Y-62749000D01*
X136135000Y-62709000D02*
X137460000Y-62709000D01*
X139540000Y-62709000D02*
X140865000Y-62709000D01*
X136152000Y-62669000D02*
X137460000Y-62669000D01*
X139540000Y-62669000D02*
X140848000Y-62669000D01*
X136171000Y-62629000D02*
X137460000Y-62629000D01*
X139540000Y-62629000D02*
X140829000Y-62629000D01*
X136190000Y-62589000D02*
X137460000Y-62589000D01*
X139540000Y-62589000D02*
X140810000Y-62589000D01*
X136210000Y-62549000D02*
X137460000Y-62549000D01*
X139540000Y-62549000D02*
X140790000Y-62549000D01*
X136232000Y-62509000D02*
X137460000Y-62509000D01*
X139540000Y-62509000D02*
X140768000Y-62509000D01*
X136253000Y-62469000D02*
X137460000Y-62469000D01*
X139540000Y-62469000D02*
X140747000Y-62469000D01*
X136276000Y-62429000D02*
X137460000Y-62429000D01*
X139540000Y-62429000D02*
X140724000Y-62429000D01*
X136300000Y-62389000D02*
X137460000Y-62389000D01*
X139540000Y-62389000D02*
X140700000Y-62389000D01*
X136325000Y-62349000D02*
X137460000Y-62349000D01*
X139540000Y-62349000D02*
X140675000Y-62349000D01*
X136351000Y-62309000D02*
X137460000Y-62309000D01*
X139540000Y-62309000D02*
X140649000Y-62309000D01*
X136378000Y-62269000D02*
X137460000Y-62269000D01*
X139540000Y-62269000D02*
X140622000Y-62269000D01*
X136405000Y-62229000D02*
X137460000Y-62229000D01*
X139540000Y-62229000D02*
X140595000Y-62229000D01*
X136435000Y-62189000D02*
X137460000Y-62189000D01*
X139540000Y-62189000D02*
X140565000Y-62189000D01*
X136465000Y-62149000D02*
X137460000Y-62149000D01*
X139540000Y-62149000D02*
X140535000Y-62149000D01*
X136496000Y-62109000D02*
X137460000Y-62109000D01*
X139540000Y-62109000D02*
X140504000Y-62109000D01*
X136529000Y-62069000D02*
X137460000Y-62069000D01*
X139540000Y-62069000D02*
X140471000Y-62069000D01*
X136563000Y-62029000D02*
X137460000Y-62029000D01*
X139540000Y-62029000D02*
X140437000Y-62029000D01*
X136599000Y-61989000D02*
X137460000Y-61989000D01*
X139540000Y-61989000D02*
X140401000Y-61989000D01*
X136636000Y-61949000D02*
X137460000Y-61949000D01*
X139540000Y-61949000D02*
X140364000Y-61949000D01*
X136674000Y-61909000D02*
X137460000Y-61909000D01*
X139540000Y-61909000D02*
X140326000Y-61909000D01*
X136715000Y-61869000D02*
X137460000Y-61869000D01*
X139540000Y-61869000D02*
X140285000Y-61869000D01*
X136757000Y-61829000D02*
X137460000Y-61829000D01*
X139540000Y-61829000D02*
X140243000Y-61829000D01*
X136801000Y-61789000D02*
X137460000Y-61789000D01*
X139540000Y-61789000D02*
X140199000Y-61789000D01*
X136847000Y-61749000D02*
X137460000Y-61749000D01*
X139540000Y-61749000D02*
X140153000Y-61749000D01*
X136895000Y-61709000D02*
X140105000Y-61709000D01*
X136946000Y-61669000D02*
X140054000Y-61669000D01*
X137000000Y-61629000D02*
X140000000Y-61629000D01*
X137057000Y-61589000D02*
X139943000Y-61589000D01*
X137117000Y-61549000D02*
X139883000Y-61549000D01*
X137181000Y-61509000D02*
X139819000Y-61509000D01*
X137249000Y-61469000D02*
X139751000Y-61469000D01*
X137322000Y-61429000D02*
X139678000Y-61429000D01*
X137402000Y-61389000D02*
X139598000Y-61389000D01*
X137489000Y-61349000D02*
X139511000Y-61349000D01*
X137585000Y-61309000D02*
X139415000Y-61309000D01*
X137695000Y-61269000D02*
X139305000Y-61269000D01*
X137823000Y-61229000D02*
X139177000Y-61229000D01*
X137982000Y-61189000D02*
X139018000Y-61189000D01*
X138216000Y-61149000D02*
X138784000Y-61149000D01*
X137025000Y-66554775D02*
X137025000Y-66054775D01*
X136775000Y-66304775D02*
X137275000Y-66304775D01*
X135120000Y-63750000D02*
G75*
G03X135120000Y-63750000I-2620000J0D01*
G01*
X133540000Y-63750000D02*
X135080000Y-63750000D01*
X129920000Y-63750000D02*
X131460000Y-63750000D01*
X133540000Y-63710000D02*
X135080000Y-63710000D01*
X129920000Y-63710000D02*
X131460000Y-63710000D01*
X129921000Y-63670000D02*
X131460000Y-63670000D01*
X133540000Y-63670000D02*
X135079000Y-63670000D01*
X129922000Y-63630000D02*
X131460000Y-63630000D01*
X133540000Y-63630000D02*
X135078000Y-63630000D01*
X129924000Y-63590000D02*
X131460000Y-63590000D01*
X133540000Y-63590000D02*
X135076000Y-63590000D01*
X129927000Y-63550000D02*
X131460000Y-63550000D01*
X133540000Y-63550000D02*
X135073000Y-63550000D01*
X129931000Y-63510000D02*
X131460000Y-63510000D01*
X133540000Y-63510000D02*
X135069000Y-63510000D01*
X129935000Y-63470000D02*
X131460000Y-63470000D01*
X133540000Y-63470000D02*
X135065000Y-63470000D01*
X129939000Y-63430000D02*
X131460000Y-63430000D01*
X133540000Y-63430000D02*
X135061000Y-63430000D01*
X129944000Y-63390000D02*
X131460000Y-63390000D01*
X133540000Y-63390000D02*
X135056000Y-63390000D01*
X129950000Y-63350000D02*
X131460000Y-63350000D01*
X133540000Y-63350000D02*
X135050000Y-63350000D01*
X129957000Y-63310000D02*
X131460000Y-63310000D01*
X133540000Y-63310000D02*
X135043000Y-63310000D01*
X129964000Y-63270000D02*
X131460000Y-63270000D01*
X133540000Y-63270000D02*
X135036000Y-63270000D01*
X129972000Y-63230000D02*
X131460000Y-63230000D01*
X133540000Y-63230000D02*
X135028000Y-63230000D01*
X129980000Y-63190000D02*
X131460000Y-63190000D01*
X133540000Y-63190000D02*
X135020000Y-63190000D01*
X129989000Y-63150000D02*
X131460000Y-63150000D01*
X133540000Y-63150000D02*
X135011000Y-63150000D01*
X129999000Y-63110000D02*
X131460000Y-63110000D01*
X133540000Y-63110000D02*
X135001000Y-63110000D01*
X130009000Y-63070000D02*
X131460000Y-63070000D01*
X133540000Y-63070000D02*
X134991000Y-63070000D01*
X130020000Y-63029000D02*
X131460000Y-63029000D01*
X133540000Y-63029000D02*
X134980000Y-63029000D01*
X130032000Y-62989000D02*
X131460000Y-62989000D01*
X133540000Y-62989000D02*
X134968000Y-62989000D01*
X130045000Y-62949000D02*
X131460000Y-62949000D01*
X133540000Y-62949000D02*
X134955000Y-62949000D01*
X130058000Y-62909000D02*
X131460000Y-62909000D01*
X133540000Y-62909000D02*
X134942000Y-62909000D01*
X130072000Y-62869000D02*
X131460000Y-62869000D01*
X133540000Y-62869000D02*
X134928000Y-62869000D01*
X130086000Y-62829000D02*
X131460000Y-62829000D01*
X133540000Y-62829000D02*
X134914000Y-62829000D01*
X130102000Y-62789000D02*
X131460000Y-62789000D01*
X133540000Y-62789000D02*
X134898000Y-62789000D01*
X130118000Y-62749000D02*
X131460000Y-62749000D01*
X133540000Y-62749000D02*
X134882000Y-62749000D01*
X130135000Y-62709000D02*
X131460000Y-62709000D01*
X133540000Y-62709000D02*
X134865000Y-62709000D01*
X130152000Y-62669000D02*
X131460000Y-62669000D01*
X133540000Y-62669000D02*
X134848000Y-62669000D01*
X130171000Y-62629000D02*
X131460000Y-62629000D01*
X133540000Y-62629000D02*
X134829000Y-62629000D01*
X130190000Y-62589000D02*
X131460000Y-62589000D01*
X133540000Y-62589000D02*
X134810000Y-62589000D01*
X130210000Y-62549000D02*
X131460000Y-62549000D01*
X133540000Y-62549000D02*
X134790000Y-62549000D01*
X130232000Y-62509000D02*
X131460000Y-62509000D01*
X133540000Y-62509000D02*
X134768000Y-62509000D01*
X130253000Y-62469000D02*
X131460000Y-62469000D01*
X133540000Y-62469000D02*
X134747000Y-62469000D01*
X130276000Y-62429000D02*
X131460000Y-62429000D01*
X133540000Y-62429000D02*
X134724000Y-62429000D01*
X130300000Y-62389000D02*
X131460000Y-62389000D01*
X133540000Y-62389000D02*
X134700000Y-62389000D01*
X130325000Y-62349000D02*
X131460000Y-62349000D01*
X133540000Y-62349000D02*
X134675000Y-62349000D01*
X130351000Y-62309000D02*
X131460000Y-62309000D01*
X133540000Y-62309000D02*
X134649000Y-62309000D01*
X130378000Y-62269000D02*
X131460000Y-62269000D01*
X133540000Y-62269000D02*
X134622000Y-62269000D01*
X130405000Y-62229000D02*
X131460000Y-62229000D01*
X133540000Y-62229000D02*
X134595000Y-62229000D01*
X130435000Y-62189000D02*
X131460000Y-62189000D01*
X133540000Y-62189000D02*
X134565000Y-62189000D01*
X130465000Y-62149000D02*
X131460000Y-62149000D01*
X133540000Y-62149000D02*
X134535000Y-62149000D01*
X130496000Y-62109000D02*
X131460000Y-62109000D01*
X133540000Y-62109000D02*
X134504000Y-62109000D01*
X130529000Y-62069000D02*
X131460000Y-62069000D01*
X133540000Y-62069000D02*
X134471000Y-62069000D01*
X130563000Y-62029000D02*
X131460000Y-62029000D01*
X133540000Y-62029000D02*
X134437000Y-62029000D01*
X130599000Y-61989000D02*
X131460000Y-61989000D01*
X133540000Y-61989000D02*
X134401000Y-61989000D01*
X130636000Y-61949000D02*
X131460000Y-61949000D01*
X133540000Y-61949000D02*
X134364000Y-61949000D01*
X130674000Y-61909000D02*
X131460000Y-61909000D01*
X133540000Y-61909000D02*
X134326000Y-61909000D01*
X130715000Y-61869000D02*
X131460000Y-61869000D01*
X133540000Y-61869000D02*
X134285000Y-61869000D01*
X130757000Y-61829000D02*
X131460000Y-61829000D01*
X133540000Y-61829000D02*
X134243000Y-61829000D01*
X130801000Y-61789000D02*
X131460000Y-61789000D01*
X133540000Y-61789000D02*
X134199000Y-61789000D01*
X130847000Y-61749000D02*
X131460000Y-61749000D01*
X133540000Y-61749000D02*
X134153000Y-61749000D01*
X130895000Y-61709000D02*
X134105000Y-61709000D01*
X130946000Y-61669000D02*
X134054000Y-61669000D01*
X131000000Y-61629000D02*
X134000000Y-61629000D01*
X131057000Y-61589000D02*
X133943000Y-61589000D01*
X131117000Y-61549000D02*
X133883000Y-61549000D01*
X131181000Y-61509000D02*
X133819000Y-61509000D01*
X131249000Y-61469000D02*
X133751000Y-61469000D01*
X131322000Y-61429000D02*
X133678000Y-61429000D01*
X131402000Y-61389000D02*
X133598000Y-61389000D01*
X131489000Y-61349000D02*
X133511000Y-61349000D01*
X131585000Y-61309000D02*
X133415000Y-61309000D01*
X131695000Y-61269000D02*
X133305000Y-61269000D01*
X131823000Y-61229000D02*
X133177000Y-61229000D01*
X131982000Y-61189000D02*
X133018000Y-61189000D01*
X132216000Y-61149000D02*
X132784000Y-61149000D01*
X131025000Y-66554775D02*
X131025000Y-66054775D01*
X130775000Y-66304775D02*
X131275000Y-66304775D01*
X147120000Y-63750000D02*
G75*
G03X147120000Y-63750000I-2620000J0D01*
G01*
X145540000Y-63750000D02*
X147080000Y-63750000D01*
X141920000Y-63750000D02*
X143460000Y-63750000D01*
X145540000Y-63710000D02*
X147080000Y-63710000D01*
X141920000Y-63710000D02*
X143460000Y-63710000D01*
X141921000Y-63670000D02*
X143460000Y-63670000D01*
X145540000Y-63670000D02*
X147079000Y-63670000D01*
X141922000Y-63630000D02*
X143460000Y-63630000D01*
X145540000Y-63630000D02*
X147078000Y-63630000D01*
X141924000Y-63590000D02*
X143460000Y-63590000D01*
X145540000Y-63590000D02*
X147076000Y-63590000D01*
X141927000Y-63550000D02*
X143460000Y-63550000D01*
X145540000Y-63550000D02*
X147073000Y-63550000D01*
X141931000Y-63510000D02*
X143460000Y-63510000D01*
X145540000Y-63510000D02*
X147069000Y-63510000D01*
X141935000Y-63470000D02*
X143460000Y-63470000D01*
X145540000Y-63470000D02*
X147065000Y-63470000D01*
X141939000Y-63430000D02*
X143460000Y-63430000D01*
X145540000Y-63430000D02*
X147061000Y-63430000D01*
X141944000Y-63390000D02*
X143460000Y-63390000D01*
X145540000Y-63390000D02*
X147056000Y-63390000D01*
X141950000Y-63350000D02*
X143460000Y-63350000D01*
X145540000Y-63350000D02*
X147050000Y-63350000D01*
X141957000Y-63310000D02*
X143460000Y-63310000D01*
X145540000Y-63310000D02*
X147043000Y-63310000D01*
X141964000Y-63270000D02*
X143460000Y-63270000D01*
X145540000Y-63270000D02*
X147036000Y-63270000D01*
X141972000Y-63230000D02*
X143460000Y-63230000D01*
X145540000Y-63230000D02*
X147028000Y-63230000D01*
X141980000Y-63190000D02*
X143460000Y-63190000D01*
X145540000Y-63190000D02*
X147020000Y-63190000D01*
X141989000Y-63150000D02*
X143460000Y-63150000D01*
X145540000Y-63150000D02*
X147011000Y-63150000D01*
X141999000Y-63110000D02*
X143460000Y-63110000D01*
X145540000Y-63110000D02*
X147001000Y-63110000D01*
X142009000Y-63070000D02*
X143460000Y-63070000D01*
X145540000Y-63070000D02*
X146991000Y-63070000D01*
X142020000Y-63029000D02*
X143460000Y-63029000D01*
X145540000Y-63029000D02*
X146980000Y-63029000D01*
X142032000Y-62989000D02*
X143460000Y-62989000D01*
X145540000Y-62989000D02*
X146968000Y-62989000D01*
X142045000Y-62949000D02*
X143460000Y-62949000D01*
X145540000Y-62949000D02*
X146955000Y-62949000D01*
X142058000Y-62909000D02*
X143460000Y-62909000D01*
X145540000Y-62909000D02*
X146942000Y-62909000D01*
X142072000Y-62869000D02*
X143460000Y-62869000D01*
X145540000Y-62869000D02*
X146928000Y-62869000D01*
X142086000Y-62829000D02*
X143460000Y-62829000D01*
X145540000Y-62829000D02*
X146914000Y-62829000D01*
X142102000Y-62789000D02*
X143460000Y-62789000D01*
X145540000Y-62789000D02*
X146898000Y-62789000D01*
X142118000Y-62749000D02*
X143460000Y-62749000D01*
X145540000Y-62749000D02*
X146882000Y-62749000D01*
X142135000Y-62709000D02*
X143460000Y-62709000D01*
X145540000Y-62709000D02*
X146865000Y-62709000D01*
X142152000Y-62669000D02*
X143460000Y-62669000D01*
X145540000Y-62669000D02*
X146848000Y-62669000D01*
X142171000Y-62629000D02*
X143460000Y-62629000D01*
X145540000Y-62629000D02*
X146829000Y-62629000D01*
X142190000Y-62589000D02*
X143460000Y-62589000D01*
X145540000Y-62589000D02*
X146810000Y-62589000D01*
X142210000Y-62549000D02*
X143460000Y-62549000D01*
X145540000Y-62549000D02*
X146790000Y-62549000D01*
X142232000Y-62509000D02*
X143460000Y-62509000D01*
X145540000Y-62509000D02*
X146768000Y-62509000D01*
X142253000Y-62469000D02*
X143460000Y-62469000D01*
X145540000Y-62469000D02*
X146747000Y-62469000D01*
X142276000Y-62429000D02*
X143460000Y-62429000D01*
X145540000Y-62429000D02*
X146724000Y-62429000D01*
X142300000Y-62389000D02*
X143460000Y-62389000D01*
X145540000Y-62389000D02*
X146700000Y-62389000D01*
X142325000Y-62349000D02*
X143460000Y-62349000D01*
X145540000Y-62349000D02*
X146675000Y-62349000D01*
X142351000Y-62309000D02*
X143460000Y-62309000D01*
X145540000Y-62309000D02*
X146649000Y-62309000D01*
X142378000Y-62269000D02*
X143460000Y-62269000D01*
X145540000Y-62269000D02*
X146622000Y-62269000D01*
X142405000Y-62229000D02*
X143460000Y-62229000D01*
X145540000Y-62229000D02*
X146595000Y-62229000D01*
X142435000Y-62189000D02*
X143460000Y-62189000D01*
X145540000Y-62189000D02*
X146565000Y-62189000D01*
X142465000Y-62149000D02*
X143460000Y-62149000D01*
X145540000Y-62149000D02*
X146535000Y-62149000D01*
X142496000Y-62109000D02*
X143460000Y-62109000D01*
X145540000Y-62109000D02*
X146504000Y-62109000D01*
X142529000Y-62069000D02*
X143460000Y-62069000D01*
X145540000Y-62069000D02*
X146471000Y-62069000D01*
X142563000Y-62029000D02*
X143460000Y-62029000D01*
X145540000Y-62029000D02*
X146437000Y-62029000D01*
X142599000Y-61989000D02*
X143460000Y-61989000D01*
X145540000Y-61989000D02*
X146401000Y-61989000D01*
X142636000Y-61949000D02*
X143460000Y-61949000D01*
X145540000Y-61949000D02*
X146364000Y-61949000D01*
X142674000Y-61909000D02*
X143460000Y-61909000D01*
X145540000Y-61909000D02*
X146326000Y-61909000D01*
X142715000Y-61869000D02*
X143460000Y-61869000D01*
X145540000Y-61869000D02*
X146285000Y-61869000D01*
X142757000Y-61829000D02*
X143460000Y-61829000D01*
X145540000Y-61829000D02*
X146243000Y-61829000D01*
X142801000Y-61789000D02*
X143460000Y-61789000D01*
X145540000Y-61789000D02*
X146199000Y-61789000D01*
X142847000Y-61749000D02*
X143460000Y-61749000D01*
X145540000Y-61749000D02*
X146153000Y-61749000D01*
X142895000Y-61709000D02*
X146105000Y-61709000D01*
X142946000Y-61669000D02*
X146054000Y-61669000D01*
X143000000Y-61629000D02*
X146000000Y-61629000D01*
X143057000Y-61589000D02*
X145943000Y-61589000D01*
X143117000Y-61549000D02*
X145883000Y-61549000D01*
X143181000Y-61509000D02*
X145819000Y-61509000D01*
X143249000Y-61469000D02*
X145751000Y-61469000D01*
X143322000Y-61429000D02*
X145678000Y-61429000D01*
X143402000Y-61389000D02*
X145598000Y-61389000D01*
X143489000Y-61349000D02*
X145511000Y-61349000D01*
X143585000Y-61309000D02*
X145415000Y-61309000D01*
X143695000Y-61269000D02*
X145305000Y-61269000D01*
X143823000Y-61229000D02*
X145177000Y-61229000D01*
X143982000Y-61189000D02*
X145018000Y-61189000D01*
X144216000Y-61149000D02*
X144784000Y-61149000D01*
X143025000Y-66554775D02*
X143025000Y-66054775D01*
X142775000Y-66304775D02*
X143275000Y-66304775D01*
X120275000Y-66304775D02*
X120775000Y-66304775D01*
X120525000Y-66554775D02*
X120525000Y-66054775D01*
X121716000Y-61149000D02*
X122284000Y-61149000D01*
X121482000Y-61189000D02*
X122518000Y-61189000D01*
X121323000Y-61229000D02*
X122677000Y-61229000D01*
X121195000Y-61269000D02*
X122805000Y-61269000D01*
X121085000Y-61309000D02*
X122915000Y-61309000D01*
X120989000Y-61349000D02*
X123011000Y-61349000D01*
X120902000Y-61389000D02*
X123098000Y-61389000D01*
X120822000Y-61429000D02*
X123178000Y-61429000D01*
X120749000Y-61469000D02*
X123251000Y-61469000D01*
X120681000Y-61509000D02*
X123319000Y-61509000D01*
X120617000Y-61549000D02*
X123383000Y-61549000D01*
X120557000Y-61589000D02*
X123443000Y-61589000D01*
X120500000Y-61629000D02*
X123500000Y-61629000D01*
X120446000Y-61669000D02*
X123554000Y-61669000D01*
X120395000Y-61709000D02*
X123605000Y-61709000D01*
X123040000Y-61749000D02*
X123653000Y-61749000D01*
X120347000Y-61749000D02*
X120960000Y-61749000D01*
X123040000Y-61789000D02*
X123699000Y-61789000D01*
X120301000Y-61789000D02*
X120960000Y-61789000D01*
X123040000Y-61829000D02*
X123743000Y-61829000D01*
X120257000Y-61829000D02*
X120960000Y-61829000D01*
X123040000Y-61869000D02*
X123785000Y-61869000D01*
X120215000Y-61869000D02*
X120960000Y-61869000D01*
X123040000Y-61909000D02*
X123826000Y-61909000D01*
X120174000Y-61909000D02*
X120960000Y-61909000D01*
X123040000Y-61949000D02*
X123864000Y-61949000D01*
X120136000Y-61949000D02*
X120960000Y-61949000D01*
X123040000Y-61989000D02*
X123901000Y-61989000D01*
X120099000Y-61989000D02*
X120960000Y-61989000D01*
X123040000Y-62029000D02*
X123937000Y-62029000D01*
X120063000Y-62029000D02*
X120960000Y-62029000D01*
X123040000Y-62069000D02*
X123971000Y-62069000D01*
X120029000Y-62069000D02*
X120960000Y-62069000D01*
X123040000Y-62109000D02*
X124004000Y-62109000D01*
X119996000Y-62109000D02*
X120960000Y-62109000D01*
X123040000Y-62149000D02*
X124035000Y-62149000D01*
X119965000Y-62149000D02*
X120960000Y-62149000D01*
X123040000Y-62189000D02*
X124065000Y-62189000D01*
X119935000Y-62189000D02*
X120960000Y-62189000D01*
X123040000Y-62229000D02*
X124095000Y-62229000D01*
X119905000Y-62229000D02*
X120960000Y-62229000D01*
X123040000Y-62269000D02*
X124122000Y-62269000D01*
X119878000Y-62269000D02*
X120960000Y-62269000D01*
X123040000Y-62309000D02*
X124149000Y-62309000D01*
X119851000Y-62309000D02*
X120960000Y-62309000D01*
X123040000Y-62349000D02*
X124175000Y-62349000D01*
X119825000Y-62349000D02*
X120960000Y-62349000D01*
X123040000Y-62389000D02*
X124200000Y-62389000D01*
X119800000Y-62389000D02*
X120960000Y-62389000D01*
X123040000Y-62429000D02*
X124224000Y-62429000D01*
X119776000Y-62429000D02*
X120960000Y-62429000D01*
X123040000Y-62469000D02*
X124247000Y-62469000D01*
X119753000Y-62469000D02*
X120960000Y-62469000D01*
X123040000Y-62509000D02*
X124268000Y-62509000D01*
X119732000Y-62509000D02*
X120960000Y-62509000D01*
X123040000Y-62549000D02*
X124290000Y-62549000D01*
X119710000Y-62549000D02*
X120960000Y-62549000D01*
X123040000Y-62589000D02*
X124310000Y-62589000D01*
X119690000Y-62589000D02*
X120960000Y-62589000D01*
X123040000Y-62629000D02*
X124329000Y-62629000D01*
X119671000Y-62629000D02*
X120960000Y-62629000D01*
X123040000Y-62669000D02*
X124348000Y-62669000D01*
X119652000Y-62669000D02*
X120960000Y-62669000D01*
X123040000Y-62709000D02*
X124365000Y-62709000D01*
X119635000Y-62709000D02*
X120960000Y-62709000D01*
X123040000Y-62749000D02*
X124382000Y-62749000D01*
X119618000Y-62749000D02*
X120960000Y-62749000D01*
X123040000Y-62789000D02*
X124398000Y-62789000D01*
X119602000Y-62789000D02*
X120960000Y-62789000D01*
X123040000Y-62829000D02*
X124414000Y-62829000D01*
X119586000Y-62829000D02*
X120960000Y-62829000D01*
X123040000Y-62869000D02*
X124428000Y-62869000D01*
X119572000Y-62869000D02*
X120960000Y-62869000D01*
X123040000Y-62909000D02*
X124442000Y-62909000D01*
X119558000Y-62909000D02*
X120960000Y-62909000D01*
X123040000Y-62949000D02*
X124455000Y-62949000D01*
X119545000Y-62949000D02*
X120960000Y-62949000D01*
X123040000Y-62989000D02*
X124468000Y-62989000D01*
X119532000Y-62989000D02*
X120960000Y-62989000D01*
X123040000Y-63029000D02*
X124480000Y-63029000D01*
X119520000Y-63029000D02*
X120960000Y-63029000D01*
X123040000Y-63070000D02*
X124491000Y-63070000D01*
X119509000Y-63070000D02*
X120960000Y-63070000D01*
X123040000Y-63110000D02*
X124501000Y-63110000D01*
X119499000Y-63110000D02*
X120960000Y-63110000D01*
X123040000Y-63150000D02*
X124511000Y-63150000D01*
X119489000Y-63150000D02*
X120960000Y-63150000D01*
X123040000Y-63190000D02*
X124520000Y-63190000D01*
X119480000Y-63190000D02*
X120960000Y-63190000D01*
X123040000Y-63230000D02*
X124528000Y-63230000D01*
X119472000Y-63230000D02*
X120960000Y-63230000D01*
X123040000Y-63270000D02*
X124536000Y-63270000D01*
X119464000Y-63270000D02*
X120960000Y-63270000D01*
X123040000Y-63310000D02*
X124543000Y-63310000D01*
X119457000Y-63310000D02*
X120960000Y-63310000D01*
X123040000Y-63350000D02*
X124550000Y-63350000D01*
X119450000Y-63350000D02*
X120960000Y-63350000D01*
X123040000Y-63390000D02*
X124556000Y-63390000D01*
X119444000Y-63390000D02*
X120960000Y-63390000D01*
X123040000Y-63430000D02*
X124561000Y-63430000D01*
X119439000Y-63430000D02*
X120960000Y-63430000D01*
X123040000Y-63470000D02*
X124565000Y-63470000D01*
X119435000Y-63470000D02*
X120960000Y-63470000D01*
X123040000Y-63510000D02*
X124569000Y-63510000D01*
X119431000Y-63510000D02*
X120960000Y-63510000D01*
X123040000Y-63550000D02*
X124573000Y-63550000D01*
X119427000Y-63550000D02*
X120960000Y-63550000D01*
X123040000Y-63590000D02*
X124576000Y-63590000D01*
X119424000Y-63590000D02*
X120960000Y-63590000D01*
X123040000Y-63630000D02*
X124578000Y-63630000D01*
X119422000Y-63630000D02*
X120960000Y-63630000D01*
X123040000Y-63670000D02*
X124579000Y-63670000D01*
X119421000Y-63670000D02*
X120960000Y-63670000D01*
X119420000Y-63710000D02*
X120960000Y-63710000D01*
X123040000Y-63710000D02*
X124580000Y-63710000D01*
X119420000Y-63750000D02*
X120960000Y-63750000D01*
X123040000Y-63750000D02*
X124580000Y-63750000D01*
X124620000Y-63750000D02*
G75*
G03X124620000Y-63750000I-2620000J0D01*
G01*
D10*
X134178095Y-85452380D02*
X134178095Y-86261904D01*
X134225714Y-86357142D01*
X134273333Y-86404761D01*
X134368571Y-86452380D01*
X134559047Y-86452380D01*
X134654285Y-86404761D01*
X134701904Y-86357142D01*
X134749523Y-86261904D01*
X134749523Y-85452380D01*
X135654285Y-85452380D02*
X135463809Y-85452380D01*
X135368571Y-85500000D01*
X135320952Y-85547619D01*
X135225714Y-85690476D01*
X135178095Y-85880952D01*
X135178095Y-86261904D01*
X135225714Y-86357142D01*
X135273333Y-86404761D01*
X135368571Y-86452380D01*
X135559047Y-86452380D01*
X135654285Y-86404761D01*
X135701904Y-86357142D01*
X135749523Y-86261904D01*
X135749523Y-86023809D01*
X135701904Y-85928571D01*
X135654285Y-85880952D01*
X135559047Y-85833333D01*
X135368571Y-85833333D01*
X135273333Y-85880952D01*
X135225714Y-85928571D01*
X135178095Y-86023809D01*
X120416666Y-68202380D02*
X120416666Y-68916666D01*
X120369047Y-69059523D01*
X120273809Y-69154761D01*
X120130952Y-69202380D01*
X120035714Y-69202380D01*
X121321428Y-68535714D02*
X121321428Y-69202380D01*
X121083333Y-68154761D02*
X120845238Y-68869047D01*
X121464285Y-68869047D01*
D13*
X115324523Y-78265714D02*
X115324523Y-78991428D01*
X115324523Y-78628571D02*
X114054523Y-78628571D01*
X114235952Y-78749523D01*
X114356904Y-78870476D01*
X114417380Y-78991428D01*
X115324523Y-77660952D02*
X115324523Y-77419047D01*
X115264047Y-77298095D01*
X115203571Y-77237619D01*
X115022142Y-77116666D01*
X114780238Y-77056190D01*
X114296428Y-77056190D01*
X114175476Y-77116666D01*
X114115000Y-77177142D01*
X114054523Y-77298095D01*
X114054523Y-77540000D01*
X114115000Y-77660952D01*
X114175476Y-77721428D01*
X114296428Y-77781904D01*
X114598809Y-77781904D01*
X114719761Y-77721428D01*
X114780238Y-77660952D01*
X114840714Y-77540000D01*
X114840714Y-77298095D01*
X114780238Y-77177142D01*
X114719761Y-77116666D01*
X114598809Y-77056190D01*
X114054523Y-76632857D02*
X114054523Y-75846666D01*
X114538333Y-76270000D01*
X114538333Y-76088571D01*
X114598809Y-75967619D01*
X114659285Y-75907142D01*
X114780238Y-75846666D01*
X115082619Y-75846666D01*
X115203571Y-75907142D01*
X115264047Y-75967619D01*
X115324523Y-76088571D01*
X115324523Y-76451428D01*
X115264047Y-76572380D01*
X115203571Y-76632857D01*
X114054523Y-74697619D02*
X114054523Y-75302380D01*
X114659285Y-75362857D01*
X114598809Y-75302380D01*
X114538333Y-75181428D01*
X114538333Y-74879047D01*
X114598809Y-74758095D01*
X114659285Y-74697619D01*
X114780238Y-74637142D01*
X115082619Y-74637142D01*
X115203571Y-74697619D01*
X115264047Y-74758095D01*
X115324523Y-74879047D01*
X115324523Y-75181428D01*
X115264047Y-75302380D01*
X115203571Y-75362857D01*
X115324523Y-73427619D02*
X115324523Y-74153333D01*
X115324523Y-73790476D02*
X114054523Y-73790476D01*
X114235952Y-73911428D01*
X114356904Y-74032380D01*
X114417380Y-74153333D01*
X114054523Y-73004285D02*
X114054523Y-72157619D01*
X115324523Y-72701904D01*
X114477857Y-71129523D02*
X115324523Y-71129523D01*
X113994047Y-71431904D02*
X114901190Y-71734285D01*
X114901190Y-70948095D01*
D10*
X126916666Y-67428571D02*
X126583333Y-67428571D01*
X126583333Y-67952380D02*
X126583333Y-66952380D01*
X127059523Y-66952380D01*
X127773809Y-67428571D02*
X127916666Y-67476190D01*
X127964285Y-67523809D01*
X128011904Y-67619047D01*
X128011904Y-67761904D01*
X127964285Y-67857142D01*
X127916666Y-67904761D01*
X127821428Y-67952380D01*
X127440476Y-67952380D01*
X127440476Y-66952380D01*
X127773809Y-66952380D01*
X127869047Y-67000000D01*
X127916666Y-67047619D01*
X127964285Y-67142857D01*
X127964285Y-67238095D01*
X127916666Y-67333333D01*
X127869047Y-67380952D01*
X127773809Y-67428571D01*
X127440476Y-67428571D01*
X128964285Y-67952380D02*
X128392857Y-67952380D01*
X128678571Y-67952380D02*
X128678571Y-66952380D01*
X128583333Y-67095238D01*
X128488095Y-67190476D01*
X128392857Y-67238095D01*
X130607142Y-75952380D02*
X130273809Y-75476190D01*
X130035714Y-75952380D02*
X130035714Y-74952380D01*
X130416666Y-74952380D01*
X130511904Y-75000000D01*
X130559523Y-75047619D01*
X130607142Y-75142857D01*
X130607142Y-75285714D01*
X130559523Y-75380952D01*
X130511904Y-75428571D01*
X130416666Y-75476190D01*
X130035714Y-75476190D01*
X130988095Y-75047619D02*
X131035714Y-75000000D01*
X131130952Y-74952380D01*
X131369047Y-74952380D01*
X131464285Y-75000000D01*
X131511904Y-75047619D01*
X131559523Y-75142857D01*
X131559523Y-75238095D01*
X131511904Y-75380952D01*
X130940476Y-75952380D01*
X131559523Y-75952380D01*
X132464285Y-74952380D02*
X131988095Y-74952380D01*
X131940476Y-75428571D01*
X131988095Y-75380952D01*
X132083333Y-75333333D01*
X132321428Y-75333333D01*
X132416666Y-75380952D01*
X132464285Y-75428571D01*
X132511904Y-75523809D01*
X132511904Y-75761904D01*
X132464285Y-75857142D01*
X132416666Y-75904761D01*
X132321428Y-75952380D01*
X132083333Y-75952380D01*
X131988095Y-75904761D01*
X131940476Y-75857142D01*
X130607142Y-72702380D02*
X130273809Y-72226190D01*
X130035714Y-72702380D02*
X130035714Y-71702380D01*
X130416666Y-71702380D01*
X130511904Y-71750000D01*
X130559523Y-71797619D01*
X130607142Y-71892857D01*
X130607142Y-72035714D01*
X130559523Y-72130952D01*
X130511904Y-72178571D01*
X130416666Y-72226190D01*
X130035714Y-72226190D01*
X130988095Y-71797619D02*
X131035714Y-71750000D01*
X131130952Y-71702380D01*
X131369047Y-71702380D01*
X131464285Y-71750000D01*
X131511904Y-71797619D01*
X131559523Y-71892857D01*
X131559523Y-71988095D01*
X131511904Y-72130952D01*
X130940476Y-72702380D01*
X131559523Y-72702380D01*
X131892857Y-71702380D02*
X132511904Y-71702380D01*
X132178571Y-72083333D01*
X132321428Y-72083333D01*
X132416666Y-72130952D01*
X132464285Y-72178571D01*
X132511904Y-72273809D01*
X132511904Y-72511904D01*
X132464285Y-72607142D01*
X132416666Y-72654761D01*
X132321428Y-72702380D01*
X132035714Y-72702380D01*
X131940476Y-72654761D01*
X131892857Y-72607142D01*
X130607142Y-79202380D02*
X130273809Y-78726190D01*
X130035714Y-79202380D02*
X130035714Y-78202380D01*
X130416666Y-78202380D01*
X130511904Y-78250000D01*
X130559523Y-78297619D01*
X130607142Y-78392857D01*
X130607142Y-78535714D01*
X130559523Y-78630952D01*
X130511904Y-78678571D01*
X130416666Y-78726190D01*
X130035714Y-78726190D01*
X130988095Y-78297619D02*
X131035714Y-78250000D01*
X131130952Y-78202380D01*
X131369047Y-78202380D01*
X131464285Y-78250000D01*
X131511904Y-78297619D01*
X131559523Y-78392857D01*
X131559523Y-78488095D01*
X131511904Y-78630952D01*
X130940476Y-79202380D01*
X131559523Y-79202380D01*
X132511904Y-79202380D02*
X131940476Y-79202380D01*
X132226190Y-79202380D02*
X132226190Y-78202380D01*
X132130952Y-78345238D01*
X132035714Y-78440476D01*
X131940476Y-78488095D01*
X151604761Y-145133333D02*
X151652380Y-144990476D01*
X151652380Y-144752380D01*
X151604761Y-144657142D01*
X151557142Y-144609523D01*
X151461904Y-144561904D01*
X151366666Y-144561904D01*
X151271428Y-144609523D01*
X151223809Y-144657142D01*
X151176190Y-144752380D01*
X151128571Y-144942857D01*
X151080952Y-145038095D01*
X151033333Y-145085714D01*
X150938095Y-145133333D01*
X150842857Y-145133333D01*
X150747619Y-145085714D01*
X150700000Y-145038095D01*
X150652380Y-144942857D01*
X150652380Y-144704761D01*
X150700000Y-144561904D01*
X150652380Y-144228571D02*
X151652380Y-143990476D01*
X150938095Y-143800000D01*
X151652380Y-143609523D01*
X150652380Y-143371428D01*
X150747619Y-143038095D02*
X150700000Y-142990476D01*
X150652380Y-142895238D01*
X150652380Y-142657142D01*
X150700000Y-142561904D01*
X150747619Y-142514285D01*
X150842857Y-142466666D01*
X150938095Y-142466666D01*
X151080952Y-142514285D01*
X151652380Y-143085714D01*
X151652380Y-142466666D01*
X134148095Y-106702380D02*
X134148095Y-107511904D01*
X134195714Y-107607142D01*
X134243333Y-107654761D01*
X134338571Y-107702380D01*
X134529047Y-107702380D01*
X134624285Y-107654761D01*
X134671904Y-107607142D01*
X134719523Y-107511904D01*
X134719523Y-106702380D01*
X135338571Y-107130952D02*
X135243333Y-107083333D01*
X135195714Y-107035714D01*
X135148095Y-106940476D01*
X135148095Y-106892857D01*
X135195714Y-106797619D01*
X135243333Y-106750000D01*
X135338571Y-106702380D01*
X135529047Y-106702380D01*
X135624285Y-106750000D01*
X135671904Y-106797619D01*
X135719523Y-106892857D01*
X135719523Y-106940476D01*
X135671904Y-107035714D01*
X135624285Y-107083333D01*
X135529047Y-107130952D01*
X135338571Y-107130952D01*
X135243333Y-107178571D01*
X135195714Y-107226190D01*
X135148095Y-107321428D01*
X135148095Y-107511904D01*
X135195714Y-107607142D01*
X135243333Y-107654761D01*
X135338571Y-107702380D01*
X135529047Y-107702380D01*
X135624285Y-107654761D01*
X135671904Y-107607142D01*
X135719523Y-107511904D01*
X135719523Y-107321428D01*
X135671904Y-107226190D01*
X135624285Y-107178571D01*
X135529047Y-107130952D01*
X134148095Y-95952380D02*
X134148095Y-96761904D01*
X134195714Y-96857142D01*
X134243333Y-96904761D01*
X134338571Y-96952380D01*
X134529047Y-96952380D01*
X134624285Y-96904761D01*
X134671904Y-96857142D01*
X134719523Y-96761904D01*
X134719523Y-95952380D01*
X135100476Y-95952380D02*
X135767142Y-95952380D01*
X135338571Y-96952380D01*
X145202380Y-128751904D02*
X146011904Y-128751904D01*
X146107142Y-128704285D01*
X146154761Y-128656666D01*
X146202380Y-128561428D01*
X146202380Y-128370952D01*
X146154761Y-128275714D01*
X146107142Y-128228095D01*
X146011904Y-128180476D01*
X145202380Y-128180476D01*
X145202380Y-127228095D02*
X145202380Y-127704285D01*
X145678571Y-127751904D01*
X145630952Y-127704285D01*
X145583333Y-127609047D01*
X145583333Y-127370952D01*
X145630952Y-127275714D01*
X145678571Y-127228095D01*
X145773809Y-127180476D01*
X146011904Y-127180476D01*
X146107142Y-127228095D01*
X146154761Y-127275714D01*
X146202380Y-127370952D01*
X146202380Y-127609047D01*
X146154761Y-127704285D01*
X146107142Y-127751904D01*
X148952380Y-118771904D02*
X149761904Y-118771904D01*
X149857142Y-118724285D01*
X149904761Y-118676666D01*
X149952380Y-118581428D01*
X149952380Y-118390952D01*
X149904761Y-118295714D01*
X149857142Y-118248095D01*
X149761904Y-118200476D01*
X148952380Y-118200476D01*
X149285714Y-117295714D02*
X149952380Y-117295714D01*
X148904761Y-117533809D02*
X149619047Y-117771904D01*
X149619047Y-117152857D01*
X119202380Y-93011904D02*
X120011904Y-93011904D01*
X120107142Y-92964285D01*
X120154761Y-92916666D01*
X120202380Y-92821428D01*
X120202380Y-92630952D01*
X120154761Y-92535714D01*
X120107142Y-92488095D01*
X120011904Y-92440476D01*
X119202380Y-92440476D01*
X119202380Y-92059523D02*
X119202380Y-91440476D01*
X119583333Y-91773809D01*
X119583333Y-91630952D01*
X119630952Y-91535714D01*
X119678571Y-91488095D01*
X119773809Y-91440476D01*
X120011904Y-91440476D01*
X120107142Y-91488095D01*
X120154761Y-91535714D01*
X120202380Y-91630952D01*
X120202380Y-91916666D01*
X120154761Y-92011904D01*
X120107142Y-92059523D01*
X124452380Y-93011904D02*
X125261904Y-93011904D01*
X125357142Y-92964285D01*
X125404761Y-92916666D01*
X125452380Y-92821428D01*
X125452380Y-92630952D01*
X125404761Y-92535714D01*
X125357142Y-92488095D01*
X125261904Y-92440476D01*
X124452380Y-92440476D01*
X124547619Y-92011904D02*
X124500000Y-91964285D01*
X124452380Y-91869047D01*
X124452380Y-91630952D01*
X124500000Y-91535714D01*
X124547619Y-91488095D01*
X124642857Y-91440476D01*
X124738095Y-91440476D01*
X124880952Y-91488095D01*
X125452380Y-92059523D01*
X125452380Y-91440476D01*
X120738095Y-113452380D02*
X120738095Y-114261904D01*
X120785714Y-114357142D01*
X120833333Y-114404761D01*
X120928571Y-114452380D01*
X121119047Y-114452380D01*
X121214285Y-114404761D01*
X121261904Y-114357142D01*
X121309523Y-114261904D01*
X121309523Y-113452380D01*
X122309523Y-114452380D02*
X121738095Y-114452380D01*
X122023809Y-114452380D02*
X122023809Y-113452380D01*
X121928571Y-113595238D01*
X121833333Y-113690476D01*
X121738095Y-113738095D01*
X124904761Y-144833333D02*
X124952380Y-144690476D01*
X124952380Y-144452380D01*
X124904761Y-144357142D01*
X124857142Y-144309523D01*
X124761904Y-144261904D01*
X124666666Y-144261904D01*
X124571428Y-144309523D01*
X124523809Y-144357142D01*
X124476190Y-144452380D01*
X124428571Y-144642857D01*
X124380952Y-144738095D01*
X124333333Y-144785714D01*
X124238095Y-144833333D01*
X124142857Y-144833333D01*
X124047619Y-144785714D01*
X124000000Y-144738095D01*
X123952380Y-144642857D01*
X123952380Y-144404761D01*
X124000000Y-144261904D01*
X123952380Y-143928571D02*
X124952380Y-143690476D01*
X124238095Y-143500000D01*
X124952380Y-143309523D01*
X123952380Y-143071428D01*
X123952380Y-142214285D02*
X123952380Y-142690476D01*
X124428571Y-142738095D01*
X124380952Y-142690476D01*
X124333333Y-142595238D01*
X124333333Y-142357142D01*
X124380952Y-142261904D01*
X124428571Y-142214285D01*
X124523809Y-142166666D01*
X124761904Y-142166666D01*
X124857142Y-142214285D01*
X124904761Y-142261904D01*
X124952380Y-142357142D01*
X124952380Y-142595238D01*
X124904761Y-142690476D01*
X124857142Y-142738095D01*
X140904761Y-144833333D02*
X140952380Y-144690476D01*
X140952380Y-144452380D01*
X140904761Y-144357142D01*
X140857142Y-144309523D01*
X140761904Y-144261904D01*
X140666666Y-144261904D01*
X140571428Y-144309523D01*
X140523809Y-144357142D01*
X140476190Y-144452380D01*
X140428571Y-144642857D01*
X140380952Y-144738095D01*
X140333333Y-144785714D01*
X140238095Y-144833333D01*
X140142857Y-144833333D01*
X140047619Y-144785714D01*
X140000000Y-144738095D01*
X139952380Y-144642857D01*
X139952380Y-144404761D01*
X140000000Y-144261904D01*
X139952380Y-143928571D02*
X140952380Y-143690476D01*
X140238095Y-143500000D01*
X140952380Y-143309523D01*
X139952380Y-143071428D01*
X140285714Y-142261904D02*
X140952380Y-142261904D01*
X139904761Y-142500000D02*
X140619047Y-142738095D01*
X140619047Y-142119047D01*
X133404761Y-144833333D02*
X133452380Y-144690476D01*
X133452380Y-144452380D01*
X133404761Y-144357142D01*
X133357142Y-144309523D01*
X133261904Y-144261904D01*
X133166666Y-144261904D01*
X133071428Y-144309523D01*
X133023809Y-144357142D01*
X132976190Y-144452380D01*
X132928571Y-144642857D01*
X132880952Y-144738095D01*
X132833333Y-144785714D01*
X132738095Y-144833333D01*
X132642857Y-144833333D01*
X132547619Y-144785714D01*
X132500000Y-144738095D01*
X132452380Y-144642857D01*
X132452380Y-144404761D01*
X132500000Y-144261904D01*
X132452380Y-143928571D02*
X133452380Y-143690476D01*
X132738095Y-143500000D01*
X133452380Y-143309523D01*
X132452380Y-143071428D01*
X132452380Y-142785714D02*
X132452380Y-142166666D01*
X132833333Y-142500000D01*
X132833333Y-142357142D01*
X132880952Y-142261904D01*
X132928571Y-142214285D01*
X133023809Y-142166666D01*
X133261904Y-142166666D01*
X133357142Y-142214285D01*
X133404761Y-142261904D01*
X133452380Y-142357142D01*
X133452380Y-142642857D01*
X133404761Y-142738095D01*
X133357142Y-142785714D01*
X158702380Y-123892857D02*
X158226190Y-124226190D01*
X158702380Y-124464285D02*
X157702380Y-124464285D01*
X157702380Y-124083333D01*
X157750000Y-123988095D01*
X157797619Y-123940476D01*
X157892857Y-123892857D01*
X158035714Y-123892857D01*
X158130952Y-123940476D01*
X158178571Y-123988095D01*
X158226190Y-124083333D01*
X158226190Y-124464285D01*
X157702380Y-122988095D02*
X157702380Y-123464285D01*
X158178571Y-123511904D01*
X158130952Y-123464285D01*
X158083333Y-123369047D01*
X158083333Y-123130952D01*
X158130952Y-123035714D01*
X158178571Y-122988095D01*
X158273809Y-122940476D01*
X158511904Y-122940476D01*
X158607142Y-122988095D01*
X158654761Y-123035714D01*
X158702380Y-123130952D01*
X158702380Y-123369047D01*
X158654761Y-123464285D01*
X158607142Y-123511904D01*
X158702380Y-121988095D02*
X158702380Y-122559523D01*
X158702380Y-122273809D02*
X157702380Y-122273809D01*
X157845238Y-122369047D01*
X157940476Y-122464285D01*
X157988095Y-122559523D01*
X155452380Y-123892857D02*
X154976190Y-124226190D01*
X155452380Y-124464285D02*
X154452380Y-124464285D01*
X154452380Y-124083333D01*
X154500000Y-123988095D01*
X154547619Y-123940476D01*
X154642857Y-123892857D01*
X154785714Y-123892857D01*
X154880952Y-123940476D01*
X154928571Y-123988095D01*
X154976190Y-124083333D01*
X154976190Y-124464285D01*
X154452380Y-122988095D02*
X154452380Y-123464285D01*
X154928571Y-123511904D01*
X154880952Y-123464285D01*
X154833333Y-123369047D01*
X154833333Y-123130952D01*
X154880952Y-123035714D01*
X154928571Y-122988095D01*
X155023809Y-122940476D01*
X155261904Y-122940476D01*
X155357142Y-122988095D01*
X155404761Y-123035714D01*
X155452380Y-123130952D01*
X155452380Y-123369047D01*
X155404761Y-123464285D01*
X155357142Y-123511904D01*
X154452380Y-122321428D02*
X154452380Y-122226190D01*
X154500000Y-122130952D01*
X154547619Y-122083333D01*
X154642857Y-122035714D01*
X154833333Y-121988095D01*
X155071428Y-121988095D01*
X155261904Y-122035714D01*
X155357142Y-122083333D01*
X155404761Y-122130952D01*
X155452380Y-122226190D01*
X155452380Y-122321428D01*
X155404761Y-122416666D01*
X155357142Y-122464285D01*
X155261904Y-122511904D01*
X155071428Y-122559523D01*
X154833333Y-122559523D01*
X154642857Y-122511904D01*
X154547619Y-122464285D01*
X154500000Y-122416666D01*
X154452380Y-122321428D01*
X161852380Y-123917857D02*
X161376190Y-124251190D01*
X161852380Y-124489285D02*
X160852380Y-124489285D01*
X160852380Y-124108333D01*
X160900000Y-124013095D01*
X160947619Y-123965476D01*
X161042857Y-123917857D01*
X161185714Y-123917857D01*
X161280952Y-123965476D01*
X161328571Y-124013095D01*
X161376190Y-124108333D01*
X161376190Y-124489285D01*
X161185714Y-123060714D02*
X161852380Y-123060714D01*
X160804761Y-123298809D02*
X161519047Y-123536904D01*
X161519047Y-122917857D01*
X161852380Y-122489285D02*
X161852380Y-122298809D01*
X161804761Y-122203571D01*
X161757142Y-122155952D01*
X161614285Y-122060714D01*
X161423809Y-122013095D01*
X161042857Y-122013095D01*
X160947619Y-122060714D01*
X160900000Y-122108333D01*
X160852380Y-122203571D01*
X160852380Y-122394047D01*
X160900000Y-122489285D01*
X160947619Y-122536904D01*
X161042857Y-122584523D01*
X161280952Y-122584523D01*
X161376190Y-122536904D01*
X161423809Y-122489285D01*
X161471428Y-122394047D01*
X161471428Y-122203571D01*
X161423809Y-122108333D01*
X161376190Y-122060714D01*
X161280952Y-122013095D01*
X153797619Y-105781428D02*
X153750000Y-105876666D01*
X153654761Y-105971904D01*
X153511904Y-106114761D01*
X153464285Y-106210000D01*
X153464285Y-106305238D01*
X153702380Y-106257619D02*
X153654761Y-106352857D01*
X153559523Y-106448095D01*
X153369047Y-106495714D01*
X153035714Y-106495714D01*
X152845238Y-106448095D01*
X152750000Y-106352857D01*
X152702380Y-106257619D01*
X152702380Y-106067142D01*
X152750000Y-105971904D01*
X152845238Y-105876666D01*
X153035714Y-105829047D01*
X153369047Y-105829047D01*
X153559523Y-105876666D01*
X153654761Y-105971904D01*
X153702380Y-106067142D01*
X153702380Y-106257619D01*
X153702380Y-104876666D02*
X153702380Y-105448095D01*
X153702380Y-105162380D02*
X152702380Y-105162380D01*
X152845238Y-105257619D01*
X152940476Y-105352857D01*
X152988095Y-105448095D01*
X153702380Y-103924285D02*
X153702380Y-104495714D01*
X153702380Y-104210000D02*
X152702380Y-104210000D01*
X152845238Y-104305238D01*
X152940476Y-104400476D01*
X152988095Y-104495714D01*
X151297619Y-105861428D02*
X151250000Y-105956666D01*
X151154761Y-106051904D01*
X151011904Y-106194761D01*
X150964285Y-106290000D01*
X150964285Y-106385238D01*
X151202380Y-106337619D02*
X151154761Y-106432857D01*
X151059523Y-106528095D01*
X150869047Y-106575714D01*
X150535714Y-106575714D01*
X150345238Y-106528095D01*
X150250000Y-106432857D01*
X150202380Y-106337619D01*
X150202380Y-106147142D01*
X150250000Y-106051904D01*
X150345238Y-105956666D01*
X150535714Y-105909047D01*
X150869047Y-105909047D01*
X151059523Y-105956666D01*
X151154761Y-106051904D01*
X151202380Y-106147142D01*
X151202380Y-106337619D01*
X151202380Y-104956666D02*
X151202380Y-105528095D01*
X151202380Y-105242380D02*
X150202380Y-105242380D01*
X150345238Y-105337619D01*
X150440476Y-105432857D01*
X150488095Y-105528095D01*
X150202380Y-104337619D02*
X150202380Y-104242380D01*
X150250000Y-104147142D01*
X150297619Y-104099523D01*
X150392857Y-104051904D01*
X150583333Y-104004285D01*
X150821428Y-104004285D01*
X151011904Y-104051904D01*
X151107142Y-104099523D01*
X151154761Y-104147142D01*
X151202380Y-104242380D01*
X151202380Y-104337619D01*
X151154761Y-104432857D01*
X151107142Y-104480476D01*
X151011904Y-104528095D01*
X150821428Y-104575714D01*
X150583333Y-104575714D01*
X150392857Y-104528095D01*
X150297619Y-104480476D01*
X150250000Y-104432857D01*
X150202380Y-104337619D01*
X153797619Y-94095238D02*
X153750000Y-94190476D01*
X153654761Y-94285714D01*
X153511904Y-94428571D01*
X153464285Y-94523809D01*
X153464285Y-94619047D01*
X153702380Y-94571428D02*
X153654761Y-94666666D01*
X153559523Y-94761904D01*
X153369047Y-94809523D01*
X153035714Y-94809523D01*
X152845238Y-94761904D01*
X152750000Y-94666666D01*
X152702380Y-94571428D01*
X152702380Y-94380952D01*
X152750000Y-94285714D01*
X152845238Y-94190476D01*
X153035714Y-94142857D01*
X153369047Y-94142857D01*
X153559523Y-94190476D01*
X153654761Y-94285714D01*
X153702380Y-94380952D01*
X153702380Y-94571428D01*
X153702380Y-93666666D02*
X153702380Y-93476190D01*
X153654761Y-93380952D01*
X153607142Y-93333333D01*
X153464285Y-93238095D01*
X153273809Y-93190476D01*
X152892857Y-93190476D01*
X152797619Y-93238095D01*
X152750000Y-93285714D01*
X152702380Y-93380952D01*
X152702380Y-93571428D01*
X152750000Y-93666666D01*
X152797619Y-93714285D01*
X152892857Y-93761904D01*
X153130952Y-93761904D01*
X153226190Y-93714285D01*
X153273809Y-93666666D01*
X153321428Y-93571428D01*
X153321428Y-93380952D01*
X153273809Y-93285714D01*
X153226190Y-93238095D01*
X153130952Y-93190476D01*
X151297619Y-94135238D02*
X151250000Y-94230476D01*
X151154761Y-94325714D01*
X151011904Y-94468571D01*
X150964285Y-94563809D01*
X150964285Y-94659047D01*
X151202380Y-94611428D02*
X151154761Y-94706666D01*
X151059523Y-94801904D01*
X150869047Y-94849523D01*
X150535714Y-94849523D01*
X150345238Y-94801904D01*
X150250000Y-94706666D01*
X150202380Y-94611428D01*
X150202380Y-94420952D01*
X150250000Y-94325714D01*
X150345238Y-94230476D01*
X150535714Y-94182857D01*
X150869047Y-94182857D01*
X151059523Y-94230476D01*
X151154761Y-94325714D01*
X151202380Y-94420952D01*
X151202380Y-94611428D01*
X150630952Y-93611428D02*
X150583333Y-93706666D01*
X150535714Y-93754285D01*
X150440476Y-93801904D01*
X150392857Y-93801904D01*
X150297619Y-93754285D01*
X150250000Y-93706666D01*
X150202380Y-93611428D01*
X150202380Y-93420952D01*
X150250000Y-93325714D01*
X150297619Y-93278095D01*
X150392857Y-93230476D01*
X150440476Y-93230476D01*
X150535714Y-93278095D01*
X150583333Y-93325714D01*
X150630952Y-93420952D01*
X150630952Y-93611428D01*
X150678571Y-93706666D01*
X150726190Y-93754285D01*
X150821428Y-93801904D01*
X151011904Y-93801904D01*
X151107142Y-93754285D01*
X151154761Y-93706666D01*
X151202380Y-93611428D01*
X151202380Y-93420952D01*
X151154761Y-93325714D01*
X151107142Y-93278095D01*
X151011904Y-93230476D01*
X150821428Y-93230476D01*
X150726190Y-93278095D01*
X150678571Y-93325714D01*
X150630952Y-93420952D01*
X153797619Y-82845238D02*
X153750000Y-82940476D01*
X153654761Y-83035714D01*
X153511904Y-83178571D01*
X153464285Y-83273809D01*
X153464285Y-83369047D01*
X153702380Y-83321428D02*
X153654761Y-83416666D01*
X153559523Y-83511904D01*
X153369047Y-83559523D01*
X153035714Y-83559523D01*
X152845238Y-83511904D01*
X152750000Y-83416666D01*
X152702380Y-83321428D01*
X152702380Y-83130952D01*
X152750000Y-83035714D01*
X152845238Y-82940476D01*
X153035714Y-82892857D01*
X153369047Y-82892857D01*
X153559523Y-82940476D01*
X153654761Y-83035714D01*
X153702380Y-83130952D01*
X153702380Y-83321428D01*
X152702380Y-82559523D02*
X152702380Y-81892857D01*
X153702380Y-82321428D01*
X151297619Y-82845238D02*
X151250000Y-82940476D01*
X151154761Y-83035714D01*
X151011904Y-83178571D01*
X150964285Y-83273809D01*
X150964285Y-83369047D01*
X151202380Y-83321428D02*
X151154761Y-83416666D01*
X151059523Y-83511904D01*
X150869047Y-83559523D01*
X150535714Y-83559523D01*
X150345238Y-83511904D01*
X150250000Y-83416666D01*
X150202380Y-83321428D01*
X150202380Y-83130952D01*
X150250000Y-83035714D01*
X150345238Y-82940476D01*
X150535714Y-82892857D01*
X150869047Y-82892857D01*
X151059523Y-82940476D01*
X151154761Y-83035714D01*
X151202380Y-83130952D01*
X151202380Y-83321428D01*
X150202380Y-82035714D02*
X150202380Y-82226190D01*
X150250000Y-82321428D01*
X150297619Y-82369047D01*
X150440476Y-82464285D01*
X150630952Y-82511904D01*
X151011904Y-82511904D01*
X151107142Y-82464285D01*
X151154761Y-82416666D01*
X151202380Y-82321428D01*
X151202380Y-82130952D01*
X151154761Y-82035714D01*
X151107142Y-81988095D01*
X151011904Y-81940476D01*
X150773809Y-81940476D01*
X150678571Y-81988095D01*
X150630952Y-82035714D01*
X150583333Y-82130952D01*
X150583333Y-82321428D01*
X150630952Y-82416666D01*
X150678571Y-82464285D01*
X150773809Y-82511904D01*
X144904761Y-71297619D02*
X144809523Y-71250000D01*
X144714285Y-71154761D01*
X144571428Y-71011904D01*
X144476190Y-70964285D01*
X144380952Y-70964285D01*
X144428571Y-71202380D02*
X144333333Y-71154761D01*
X144238095Y-71059523D01*
X144190476Y-70869047D01*
X144190476Y-70535714D01*
X144238095Y-70345238D01*
X144333333Y-70250000D01*
X144428571Y-70202380D01*
X144619047Y-70202380D01*
X144714285Y-70250000D01*
X144809523Y-70345238D01*
X144857142Y-70535714D01*
X144857142Y-70869047D01*
X144809523Y-71059523D01*
X144714285Y-71154761D01*
X144619047Y-71202380D01*
X144428571Y-71202380D01*
X145761904Y-70202380D02*
X145285714Y-70202380D01*
X145238095Y-70678571D01*
X145285714Y-70630952D01*
X145380952Y-70583333D01*
X145619047Y-70583333D01*
X145714285Y-70630952D01*
X145761904Y-70678571D01*
X145809523Y-70773809D01*
X145809523Y-71011904D01*
X145761904Y-71107142D01*
X145714285Y-71154761D01*
X145619047Y-71202380D01*
X145380952Y-71202380D01*
X145285714Y-71154761D01*
X145238095Y-71107142D01*
X127382142Y-84357142D02*
X127334523Y-84404761D01*
X127191666Y-84452380D01*
X127096428Y-84452380D01*
X126953571Y-84404761D01*
X126858333Y-84309523D01*
X126810714Y-84214285D01*
X126763095Y-84023809D01*
X126763095Y-83880952D01*
X126810714Y-83690476D01*
X126858333Y-83595238D01*
X126953571Y-83500000D01*
X127096428Y-83452380D01*
X127191666Y-83452380D01*
X127334523Y-83500000D01*
X127382142Y-83547619D01*
X127763095Y-83547619D02*
X127810714Y-83500000D01*
X127905952Y-83452380D01*
X128144047Y-83452380D01*
X128239285Y-83500000D01*
X128286904Y-83547619D01*
X128334523Y-83642857D01*
X128334523Y-83738095D01*
X128286904Y-83880952D01*
X127715476Y-84452380D01*
X128334523Y-84452380D01*
X128667857Y-83452380D02*
X129334523Y-83452380D01*
X128905952Y-84452380D01*
X134857142Y-62107142D02*
X134809523Y-62154761D01*
X134666666Y-62202380D01*
X134571428Y-62202380D01*
X134428571Y-62154761D01*
X134333333Y-62059523D01*
X134285714Y-61964285D01*
X134238095Y-61773809D01*
X134238095Y-61630952D01*
X134285714Y-61440476D01*
X134333333Y-61345238D01*
X134428571Y-61250000D01*
X134571428Y-61202380D01*
X134666666Y-61202380D01*
X134809523Y-61250000D01*
X134857142Y-61297619D01*
X135809523Y-62202380D02*
X135238095Y-62202380D01*
X135523809Y-62202380D02*
X135523809Y-61202380D01*
X135428571Y-61345238D01*
X135333333Y-61440476D01*
X135238095Y-61488095D01*
X136285714Y-62202380D02*
X136476190Y-62202380D01*
X136571428Y-62154761D01*
X136619047Y-62107142D01*
X136714285Y-61964285D01*
X136761904Y-61773809D01*
X136761904Y-61392857D01*
X136714285Y-61297619D01*
X136666666Y-61250000D01*
X136571428Y-61202380D01*
X136380952Y-61202380D01*
X136285714Y-61250000D01*
X136238095Y-61297619D01*
X136190476Y-61392857D01*
X136190476Y-61630952D01*
X136238095Y-61726190D01*
X136285714Y-61773809D01*
X136380952Y-61821428D01*
X136571428Y-61821428D01*
X136666666Y-61773809D01*
X136714285Y-61726190D01*
X136761904Y-61630952D01*
X129583333Y-62107142D02*
X129535714Y-62154761D01*
X129392857Y-62202380D01*
X129297619Y-62202380D01*
X129154761Y-62154761D01*
X129059523Y-62059523D01*
X129011904Y-61964285D01*
X128964285Y-61773809D01*
X128964285Y-61630952D01*
X129011904Y-61440476D01*
X129059523Y-61345238D01*
X129154761Y-61250000D01*
X129297619Y-61202380D01*
X129392857Y-61202380D01*
X129535714Y-61250000D01*
X129583333Y-61297619D01*
X129916666Y-61202380D02*
X130583333Y-61202380D01*
X130154761Y-62202380D01*
X141333333Y-62107142D02*
X141285714Y-62154761D01*
X141142857Y-62202380D01*
X141047619Y-62202380D01*
X140904761Y-62154761D01*
X140809523Y-62059523D01*
X140761904Y-61964285D01*
X140714285Y-61773809D01*
X140714285Y-61630952D01*
X140761904Y-61440476D01*
X140809523Y-61345238D01*
X140904761Y-61250000D01*
X141047619Y-61202380D01*
X141142857Y-61202380D01*
X141285714Y-61250000D01*
X141333333Y-61297619D01*
X141714285Y-61297619D02*
X141761904Y-61250000D01*
X141857142Y-61202380D01*
X142095238Y-61202380D01*
X142190476Y-61250000D01*
X142238095Y-61297619D01*
X142285714Y-61392857D01*
X142285714Y-61488095D01*
X142238095Y-61630952D01*
X141666666Y-62202380D01*
X142285714Y-62202380D01*
X118833333Y-62107142D02*
X118785714Y-62154761D01*
X118642857Y-62202380D01*
X118547619Y-62202380D01*
X118404761Y-62154761D01*
X118309523Y-62059523D01*
X118261904Y-61964285D01*
X118214285Y-61773809D01*
X118214285Y-61630952D01*
X118261904Y-61440476D01*
X118309523Y-61345238D01*
X118404761Y-61250000D01*
X118547619Y-61202380D01*
X118642857Y-61202380D01*
X118785714Y-61250000D01*
X118833333Y-61297619D01*
X119785714Y-62202380D02*
X119214285Y-62202380D01*
X119500000Y-62202380D02*
X119500000Y-61202380D01*
X119404761Y-61345238D01*
X119309523Y-61440476D01*
X119214285Y-61488095D01*
M02*
